<svg xmlns="http://www.w3.org/2000/svg" xml:space="preserve" style="enable-background:new 0 0 24 24" viewBox="0 0 24 24"><path d="M23.8 18.2c-.1-.4-.4-.7-.6-.9L20 14.1c-.3-.3-.6-.5-.9-.6-.7-.3-1.5-.3-2.2 0-.4.1-.7.4-.9.6-.3.3-.7.3-1 0l-5.1-5c-.2-.2-.2-.4-.2-.5 0-.2.1-.4.2-.5.3-.3.5-.6.6-.9.1-.4.2-.7.2-1.1 0-.4-.1-.8-.2-1.1-.1-.4-.4-.7-.6-1L6.7.8C5.6-.3 3.7-.3 2.6.8l-.7.8C.9 2.6.2 4 0 5.4c-.2 1.5.2 2.9 1 4.1v.1c3.6 5.3 8 9.7 13.3 13.3 1 .7 2.2 1 3.5 1h.7c1.5-.2 2.8-.8 3.9-1.9l.7-.7c.3-.3.5-.6.6-.9.1-.4.2-.7.2-1.1.1-.4 0-.7-.1-1.1zm-2 1.4c0 .1-.1.2-.2.2l-.7.8c-.7.7-1.6 1.1-2.6 1.2-1 .1-1.9-.1-2.7-.6-5-3.4-9.3-7.7-12.7-12.7-.6-.9-.8-1.9-.7-2.8.1-1 .5-1.9 1.2-2.6l.8-.8c.1-.1.3-.2.5-.2s.3.1.5.3l3.2 3.2.2.2c0 .1.1.2.1.3 0 .1 0 .2-.1.3 0 .1-.1.2-.2.2-.5.5-.8 1.3-.8 2 0 .8.3 1.5.8 2l5.1 5.1c.5.5 1.3.8 2 .8.8 0 1.5-.3 2-.8l.2-.2c.2-.1.4-.1.5 0 .1 0 .2.1.2.2l3.2 3.2.2.2c0 .1.1.2.1.3-.1 0-.1.1-.1.2z"/></svg>