<svg xmlns="http://www.w3.org/2000/svg" xml:space="preserve" style="enable-background:new 0 0 50 50" viewBox="0 0 50 50"><path d="M49.2 15.8c-.7-2.9-2.9-11.1-3-11.4v-.1c0-.1-.1-.2-.1-.3 0 0 0-.1-.1-.1-.1-.1-.2-.3-.3-.4 0 0-.1 0-.1-.1-.1-.1-.2-.2-.3-.2 0 0-.1 0-.1-.1-.1 0-.3-.1-.4-.1h-.7c-.1 0-.2 0-.3.1h-.1c-.1.1-.3.1-.4.2-.1.1-.2.2-.4.3-3.3 3.8-9.4 6.2-18 7.3C13.6 12.4 8.6 21 9.6 28.8c.1.7.2 1.4.4 2.2-4.8 3-8.6 7.1-10 13.7-.2 1.1.5 2.1 1.6 2.3H2c.9 0 1.8-.7 1.9-1.6 1-5.1 3.8-8.3 7.7-10.9 2.6 4.5 7.8 8 15.5 8 1 0 2-.1 3.1-.2 7.2-1 13.1-4.3 16.6-9.4 3.1-4.6 4-10.6 2.4-17.1zM13.5 28.3c-.7-5.6 2.7-12.3 11.9-13.5 6.1-.8 11.1-2.3 14.9-4.4-4.1 8.4-12.2 11.9-20 15.3-2.2 1-4.5 2-6.7 3.1 0-.1-.1-.3-.1-.5zm29.9 2.5c-2.8 4.1-7.7 6.8-13.8 7.7-7.5.8-12.4-1.9-14.7-5.8 2.1-1.1 4.5-2.1 6.9-3.2 8.3-3.6 17.6-7.7 22.2-17.7.5 2 1 3.9 1.3 5 1.4 5.3.7 10.2-1.9 14z"/></svg>