<svg xmlns="http://www.w3.org/2000/svg" xml:space="preserve" style="enable-background:new 0 0 24 24" viewBox="0 0 24 24"><path d="M19.2 2.9C17.3 1 14.7 0 12 0S6.7 1 4.8 2.9c-1.9 1.9-3 4.4-3 7.1 0 7.4 9.2 13.5 9.6 13.8.2.1.4.2.6.2s.4-.1.6-.2c.4-.3 9.6-6.4 9.6-13.8 0-2.7-1.1-5.2-3-7.1zM12 21.6c-2-1.4-8-6.3-8-11.6 0-2.1.8-4 2.3-5.5C7.8 3 9.9 2.2 12 2.2s4.2.8 5.7 2.3C19.2 6 20 7.9 20 10c0 5.3-6.1 10.1-8 11.6zm0-15.5c-2.3 0-4.1 1.8-4.1 4.1s1.8 4.1 4.1 4.1 4.1-1.8 4.1-4.1-1.8-4.1-4.1-4.1zm0 6c-1.1 0-1.9-.9-1.9-1.9 0-1.1.9-1.9 1.9-1.9s1.9.9 1.9 1.9c0 1.1-.8 1.9-1.9 1.9z"/></svg>