<svg xmlns="http://www.w3.org/2000/svg" xml:space="preserve" style="enable-background:new 0 0 50 50" viewBox="0 0 50 50"><path d="M50 17.3c0-2.6-2.1-4.7-4.7-4.7s-4.7 2.1-4.7 4.7c0 1.3.5 2.4 1.4 3.3a7.79 7.79 0 0 1-6 2.8c-3.8 0-7-2.7-7.8-6.4.9-.9 1.4-2.1 1.4-3.4 0-2.6-2.1-4.7-4.7-4.7s-4.7 2.1-4.7 4.7c0 1.3.5 2.5 1.4 3.4-.7 3.7-4 6.4-7.8 6.4-2.3 0-4.5-1-6-2.8.8-.9 1.4-2 1.4-3.3 0-2.6-2.1-4.7-4.7-4.7s-4.7 2.1-4.7 4.7c0 2.3 1.6 4.2 3.7 4.6.5 4.3 1.6 9.7 3.9 13.3v4.5c0 .8.6 1.4 1.4 1.4h32c.8 0 1.4-.6 1.4-1.4v-4.5c2.3-3.6 3.4-9 3.9-13.3 2.3-.4 3.9-2.3 3.9-4.6zm-4.7-1.9c1.1 0 1.9.9 1.9 2s-.9 2-1.9 2h-.2c-.2 0-.4-.1-.6-.2-.7-.3-1.1-1-1.1-1.8 0-1.2.9-2 1.9-2zM25 11.6c1.1 0 1.9.9 1.9 2 0 .7-.3 1.3-.9 1.7h-.1c-.5.3-1 .3-1.5.2-.2 0-.3-.1-.4-.2-.6-.4-.9-1-.9-1.7 0-1.1.8-2 1.9-2zM2.8 17.3c0-1.1.9-2 1.9-2 1.1 0 1.9.9 1.9 2 0 .8-.4 1.5-1.1 1.8-.2.1-.4.2-.6.2h-.2c-1.1 0-1.9-.9-1.9-2zm7.6 21.1v-2.2h29.3v2.2H10.4zm29.8-4.9H9.8c-1.6-2.8-2.5-6.7-3.1-10.2 2 1.8 4.5 2.9 7.3 2.9 4.9 0 9-3.3 10.3-7.9.2 0 .5.1.7.1.2 0 .5 0 .7-.1 1.3 4.6 5.4 7.9 10.3 7.9 2.8 0 5.3-1 7.3-2.9-.5 3.5-1.4 7.4-3.1 10.2z"/></svg>