<svg xmlns="http://www.w3.org/2000/svg" viewBox="0 0 50 43.65"><path fill-rule="evenodd" d="M27.5 41.47c0 1.21-1.12 2.18-2.5 2.18s-2.5-.98-2.5-2.18v-6.55h-5C7.84 34.92 0 28.08 0 19.64v-6.55c0-1.21 1.12-2.18 2.5-2.18H10c4.9 0 9.32 1.76 12.5 4.59v-.22C22.5 6.84 30.33 0 40 0h7.5c1.38 0 2.5.98 2.5 2.18v6.55c0 8.44-7.84 15.28-17.5 15.28h-5v17.46Zm0-21.83h5c6.9 0 12.5-4.89 12.5-10.91V4.36h-5c-6.9 0-12.5 4.89-12.5 10.91v4.37Zm-5 6.55c0-6.03-5.6-10.91-12.5-10.91H5v4.37c0 6.03 5.6 10.91 12.5 10.91h5v-4.37Z"/></svg>