<?xml version="1.0" encoding="utf-8"?>
<!-- Generator: Adobe Illustrator 28.0.0, SVG Export Plug-In . SVG Version: 6.00 Build 0)  -->
<svg version="1.1" id="logo-52" xmlns="http://www.w3.org/2000/svg" xmlns:xlink="http://www.w3.org/1999/xlink" x="0px" y="0px"
	 viewBox="0 0 126.9 30" style="enable-background:new 0 0 126.9 30;" xml:space="preserve">
<style type="text/css">
	.st0{fill-rule:evenodd;clip-rule:evenodd;}
</style>
<path class="st0" d="M41.6,19.1h5.8v2.7h-9V8.9h3.2V19.1z M57.6,17.2c0,2.8-1.9,4.9-4.9,4.9c-3,0-4.9-2.1-4.9-4.9
	c0-2.8,2-4.9,4.9-4.9C55.6,12.3,57.6,14.4,57.6,17.2z M54.6,17.2c0-1.7-0.7-2.8-2-2.8s-1.9,1.1-1.9,2.8s0.7,2.8,1.9,2.8
	S54.6,18.8,54.6,17.2z M64.5,12.5h2.8v8.3c0,1.4-0.5,2.4-1.2,3.1c-0.8,0.7-2,1-3.4,1c-2.5,0-4.2-1-4.5-3h2.8
	c0.2,0.5,0.6,0.9,1.6,0.9c1.2,0,1.8-0.6,1.8-1.8v-0.9h-0.1c-0.5,0.6-1.2,1.1-2.4,1.1c-2.1,0-4-1.5-4-4.4c0-2.7,1.6-4.6,3.9-4.6
	c1.2,0,2.1,0.5,2.6,1.3h0V12.5z M64.6,16.8c0-1.2-0.6-2.3-1.9-2.3c-1.1,0-1.8,0.9-1.8,2.3c0,1.4,0.7,2.3,1.8,2.3
	C64,19.1,64.6,18.1,64.6,16.8z M78,17.2c0,2.8-1.9,4.9-4.9,4.9c-3,0-4.9-2.1-4.9-4.9c0-2.8,2-4.9,4.9-4.9C76.1,12.3,78,14.4,78,17.2
	z M75.1,17.2c0-1.7-0.7-2.8-2-2.8c-1.3,0-1.9,1.1-1.9,2.8s0.7,2.8,1.9,2.8C74.4,19.9,75.1,18.8,75.1,17.2z M78.9,21.8h2.9v-9.2h-2.9
	V21.8z M78.9,11.3h2.9V8.9h-2.9V11.3z M92.7,17.1c0,3-1.6,4.9-4,4.9c-1.2,0-2-0.5-2.6-1.2h0v4h-2.9V12.5h2.8v1.1H86
	c0.6-0.8,1.5-1.4,2.8-1.4C91.2,12.3,92.7,14.4,92.7,17.1z M89.7,17.2c0-1.6-0.6-2.6-1.9-2.6c-1.3,0-1.9,1.1-1.9,2.6
	c0,1.5,0.7,2.5,2,2.5C89,19.8,89.7,18.8,89.7,17.2z M98.1,15.9c-1.2-0.2-2.2-0.3-2.2-1c0-0.6,0.6-0.8,1.3-0.8c0.8,0,1.4,0.3,1.5,1.1
	h2.7c-0.1-1.8-1.5-3-4.2-3c-2.2,0-4,1-4,3c0,2.2,1.7,2.6,3.3,2.9c1.2,0.2,2.3,0.3,2.3,1.1c0,0.6-0.6,0.9-1.4,0.9
	c-1,0-1.6-0.4-1.7-1.4H93c0.1,2,1.8,3.3,4.5,3.3c2.4,0,4.2-1,4.2-3.1C101.7,16.6,99.8,16.2,98.1,15.9z M108.3,17.7
	c0,1.1-0.6,1.9-1.6,1.9c-0.9,0-1.4-0.6-1.4-1.6v-5.4h-2.9v6c0,2.1,1.1,3.4,3.2,3.4c1.3,0,2.1-0.5,2.8-1.4h0.1v1.1h2.8v-9.2h-2.9
	V17.7z M123.7,12.3c-1.2,0-2.2,0.5-2.9,1.6h0c-0.5-1-1.4-1.6-2.6-1.6c-1.3,0-2.2,0.6-2.8,1.6h-0.1v-1.3h-2.8v9.2h2.9v-5.2
	c0-1.1,0.5-1.9,1.5-1.9c0.9,0,1.3,0.6,1.3,1.6v5.5h2.9v-5.2c0-1.1,0.5-1.9,1.5-1.9c0.9,0,1.3,0.6,1.3,1.6v5.5h2.9v-6
	C126.9,13.7,125.8,12.3,123.7,12.3z M30,15c0,8.3-6.7,15-15,15C6.7,30,0,23.3,0,15C0,6.7,6.7,0,15,0C23.3,0,30,6.7,30,15z
	 M12.7,11.6l2.3,2.3l2.3-2.3c1.3-1.3,1.3-3.4,0-4.6C16,5.7,14,5.7,12.7,7C11.4,8.2,11.4,10.3,12.7,11.6z M11.6,17.3l2.3-2.3
	l-2.3-2.3c-1.3-1.3-3.4-1.3-4.6,0C5.7,14,5.7,16,7,17.3C8.2,18.6,10.3,18.6,11.6,17.3z M17.3,18.4L15,16.1l-2.3,2.3
	c-1.3,1.3-1.3,3.4,0,4.6c1.3,1.3,3.4,1.3,4.6,0C18.6,21.8,18.6,19.7,17.3,18.4z M23,12.7c-1.3-1.3-3.4-1.3-4.6,0L16.1,15l2.3,2.3
	c1.3,1.3,3.4,1.3,4.6,0C24.3,16,24.3,14,23,12.7z"/>
</svg>
