<svg xmlns="http://www.w3.org/2000/svg" viewBox="0 0 164 30" fill="currentColor"><path d="M34.3146 8.01684L25.3146 28.1048H18.5106L17.6466 15.0728L12.0666 28.1048H5.29863L3.39062 8.01684H9.54663L9.83463 22.3808L15.7746 8.01684H22.2906L23.1906 22.3808L28.5186 8.01684H34.3146Z" fill="currentColor"/><path d="M45.6262 7.72884C48.2182 7.72884 50.2702 8.43684 51.7822 9.85284C53.3182 11.2448 54.0862 13.1528 54.0862 15.5768C54.0862 16.3688 54.0262 17.0768 53.9062 17.7008C53.8102 18.2528 53.6662 18.8408 53.4742 19.4648H39.5422C39.5182 19.6088 39.5062 19.8368 39.5062 20.1488C39.5062 21.2048 39.7942 22.0088 40.3702 22.5608C40.9462 23.1128 41.7142 23.3888 42.6742 23.3888C44.2102 23.3888 45.3862 22.7408 46.2022 21.4448H52.7542C51.8902 23.4848 50.4862 25.1528 48.5422 26.4488C46.5982 27.7448 44.4142 28.3928 41.9902 28.3928C39.3982 28.3928 37.3222 27.6728 35.7622 26.2328C34.2262 24.7928 33.4582 22.8368 33.4582 20.3648C33.4582 19.6208 33.5302 18.8528 33.6742 18.0608C34.0342 15.9728 34.7782 14.1488 35.9062 12.5888C37.0342 11.0288 38.4382 9.82884 40.1182 8.98884C41.7982 8.14884 43.6342 7.72884 45.6262 7.72884ZM47.8582 16.3328C47.9062 15.9968 47.9302 15.7688 47.9302 15.6488C47.9302 14.6888 47.6302 13.9568 47.0302 13.4528C46.4302 12.9248 45.6382 12.6608 44.6542 12.6608C43.5982 12.6608 42.6622 12.9848 41.8462 13.6328C41.0542 14.2568 40.4782 15.1568 40.1182 16.3328H47.8582Z" fill="currentColor"/><path d="M66.1538 1.46484L61.4378 28.1048H55.2818L59.9978 1.46484H66.1538Z" fill="currentColor"/><path d="M76.771 1.46484L72.055 28.1048H65.899L70.615 1.46484H76.771Z" fill="currentColor"/><path d="M85.6962 10.8608C86.4642 9.92484 87.4362 9.16884 88.6122 8.59284C89.7882 8.01684 91.0722 7.72884 92.4642 7.72884C94.6242 7.72884 96.3642 8.43684 97.6842 9.85284C99.0282 11.2448 99.7002 13.1528 99.7002 15.5768C99.7002 16.3448 99.6282 17.1608 99.4842 18.0248C99.1242 20.0888 98.4162 21.9128 97.3602 23.4968C96.3042 25.0568 95.0322 26.2688 93.5442 27.1328C92.0562 27.9728 90.4842 28.3928 88.8282 28.3928C87.4122 28.3928 86.2242 28.1168 85.2642 27.5648C84.3042 26.9888 83.6082 26.2328 83.1762 25.2968L82.6722 28.1048H76.5162L81.2322 1.46484H87.3882L85.6962 10.8608ZM93.2562 18.0248C93.3282 17.6168 93.3642 17.2448 93.3642 16.9088C93.3642 15.7088 93.0162 14.7728 92.3202 14.1008C91.6482 13.4288 90.7842 13.0928 89.7282 13.0928C88.5042 13.0928 87.3882 13.5368 86.3802 14.4248C85.3722 15.3128 84.7242 16.5248 84.4362 18.0608C84.3642 18.4928 84.3282 18.8888 84.3282 19.2488C84.3282 20.4248 84.6642 21.3488 85.3362 22.0208C86.0082 22.6928 86.8722 23.0288 87.9282 23.0288C89.1522 23.0288 90.2682 22.5848 91.2762 21.6968C92.3082 20.7848 92.9682 19.5608 93.2562 18.0248Z" fill="currentColor"/><path d="M110.13 28.3928C108.402 28.3928 106.866 28.0448 105.522 27.3488C104.178 26.6528 103.134 25.6688 102.39 24.3968C101.67 23.1248 101.31 21.6488 101.31 19.9688C101.31 17.6888 101.85 15.6128 102.93 13.7408C104.01 11.8688 105.498 10.4048 107.394 9.34884C109.29 8.26884 111.402 7.72884 113.73 7.72884C115.458 7.72884 116.994 8.08884 118.338 8.80884C119.706 9.50484 120.762 10.4888 121.506 11.7608C122.25 13.0328 122.622 14.5088 122.622 16.1888C122.622 18.4928 122.07 20.5808 120.966 22.4528C119.886 24.3008 118.386 25.7528 116.466 26.8088C114.57 27.8648 112.458 28.3928 110.13 28.3928ZM110.994 23.1008C112.002 23.1008 112.902 22.8008 113.694 22.2008C114.51 21.5768 115.134 20.7848 115.566 19.8248C116.022 18.8408 116.25 17.8208 116.25 16.7648C116.25 15.5648 115.926 14.6408 115.278 13.9928C114.63 13.3448 113.814 13.0208 112.83 13.0208C111.798 13.0208 110.886 13.3328 110.094 13.9568C109.326 14.5568 108.726 15.3488 108.294 16.3328C107.862 17.3168 107.646 18.3488 107.646 19.4288C107.646 20.6048 107.958 21.5168 108.582 22.1648C109.206 22.7888 110.01 23.1008 110.994 23.1008Z" fill="currentColor"/><path d="M132.224 21.1928C132.2 21.3128 132.188 21.4688 132.188 21.6608C132.188 22.0928 132.308 22.4048 132.548 22.5968C132.812 22.7888 133.232 22.8848 133.808 22.8848H136.004L135.068 28.1048H131.936C127.904 28.1048 125.888 26.4128 125.888 23.0288C125.888 22.5248 125.948 21.8888 126.068 21.1208L127.508 13.1288H125.06L125.96 8.01684H128.408L129.272 3.12084H135.428L134.564 8.01684H138.596L137.696 13.1288H133.664L132.224 21.1928Z" fill="currentColor"/><path d="M154.409 7.80084C156.377 7.80084 157.925 8.36484 159.053 9.49284C160.205 10.6208 160.781 12.1928 160.781 14.2088C160.781 14.8808 160.709 15.6008 160.565 16.3688L158.477 28.1048H152.357L154.301 17.1968C154.373 16.7888 154.409 16.4288 154.409 16.1168C154.409 15.1088 154.121 14.3288 153.545 13.7768C152.993 13.2248 152.213 12.9488 151.205 12.9488C150.005 12.9488 148.997 13.3208 148.181 14.0648C147.365 14.8088 146.837 15.8528 146.597 17.1968V17.1248L144.653 28.1048H138.497L143.213 1.46484H149.369L147.749 10.6808C148.541 9.79284 149.513 9.09684 150.665 8.59284C151.817 8.06484 153.065 7.80084 154.409 7.80084Z" fill="currentColor"/></svg>