<?xml version="1.0" encoding="utf-8"?>
<!-- Generator: Adobe Illustrator 28.0.0, SVG Export Plug-In . SVG Version: 6.00 Build 0)  -->
<svg version="1.1" id="Layer_1" xmlns="http://www.w3.org/2000/svg" xmlns:xlink="http://www.w3.org/1999/xlink" x="0px" y="0px"
	 viewBox="0 0 178.2 30" style="enable-background:new 0 0 178.2 30;" xml:space="preserve">
<style type="text/css">
	.st0{fill-rule:evenodd;clip-rule:evenodd;}
</style>
<path class="st0" d="M0,15L36.1,0l-10,30L0,15z M158.7,0.6v28.8h5.1V19.2c0-1.8,0.5-3.2,1.4-4.2c1-1,2.2-1.5,3.6-1.5
	c1.5,0,2.5,0.5,3.2,1.4c0.7,0.9,1,2.2,1,3.9v10.7h5.1V18.2c0-3-0.7-5.3-2-6.8c-1.3-1.5-3.2-2.3-5.7-2.3c-1.5,0-2.8,0.3-3.9,1
	c-1.1,0.6-2,1.5-2.7,2.6v-12H158.7z M51.2,1.4l-10.2,28h5.4l2.3-6.5h10.9l2.2,6.5h5.4l-10.2-28H51.2z M58.1,19H50l4-11.6L58.1,19z
	 M70.6,9.6v19.8h5.1V19.2c0-1.8,0.5-3.2,1.4-4.2c0.9-1,2.1-1.5,3.6-1.5c1.5,0,2.5,0.5,3.2,1.4c0.7,0.9,1,2.2,1,3.9v10.7h5.1V18.2
	c0-3-0.7-5.3-2-6.8s-3.3-2.3-5.7-2.3c-1.6,0-2.9,0.3-4.1,1c-1.1,0.7-2,1.6-2.6,2.8l-0.4-3.4H70.6z M104.5,29.9
	c-1.9,0-3.7-0.4-5.2-1.3c-1.5-0.9-2.7-2.1-3.6-3.6c-0.9-1.6-1.3-3.4-1.3-5.4s0.5-3.9,1.4-5.4c0.9-1.6,2.1-2.8,3.6-3.7
	c1.5-0.9,3.3-1.3,5.2-1.3c1.9,0,3.6,0.4,5.1,1.3c1.5,0.9,2.8,2.1,3.6,3.7c0.9,1.5,1.4,3.3,1.4,5.4s-0.5,3.9-1.4,5.4
	c-0.9,1.5-2.1,2.8-3.6,3.6C108.1,29.5,106.4,29.9,104.5,29.9z M104.5,25.5c1.3,0,2.5-0.5,3.5-1.5c1-1,1.5-2.5,1.5-4.5
	s-0.5-3.5-1.5-4.4c-1-1-2.1-1.5-3.4-1.5c-1.4,0-2.5,0.5-3.5,1.5c-1,1-1.4,2.5-1.4,4.4s0.5,3.5,1.4,4.5C102,25,103.2,25.5,104.5,25.5
	z M123.8,9.6h-4.6v19.8h5.1v-9c0-1.5,0.2-2.7,0.7-3.6c0.5-0.9,1.2-1.5,2.1-1.8c0.9-0.3,1.9-0.5,3-0.5h1.4V9.1
	c-1.7,0-3.1,0.4-4.4,1.2c-1.2,0.7-2.2,1.8-2.9,3L123.8,9.6z M144.5,29.9c-2,0-3.8-0.4-5.4-1.3c-1.5-0.9-2.8-2.1-3.7-3.7
	c-0.9-1.6-1.3-3.4-1.3-5.4s0.4-3.8,1.3-5.4c0.9-1.6,2.1-2.8,3.7-3.7c1.5-0.9,3.3-1.3,5.4-1.3c2.5,0,4.7,0.7,6.4,2
	c1.7,1.3,2.8,3.1,3.3,5.4h-5.4c-0.3-1-0.8-1.7-1.6-2.2c-0.8-0.6-1.7-0.8-2.8-0.8c-1.4,0-2.6,0.5-3.6,1.6c-1,1.1-1.5,2.5-1.5,4.4
	c0,1.9,0.5,3.4,1.5,4.4c1,1.1,2.2,1.6,3.6,1.6c1.1,0,2-0.3,2.8-0.8c0.8-0.5,1.3-1.3,1.6-2.3h5.4c-0.5,2.2-1.6,4-3.3,5.4
	C149.1,29.2,147,29.9,144.5,29.9z"/>
</svg>
