<svg xmlns="http://www.w3.org/2000/svg" viewBox="0 0 151 40" fill="currentColor"><path fill-rule="evenodd" clip-rule="evenodd" d="M19.1262 21.5538C24.4849 19.0066 27.4969 14.1396 25.8539 10.683C24.2109 7.22637 18.5349 6.48908 13.1762 9.03622C7.81758 11.5834 4.8055 16.4504 6.44854 19.907C8.09158 23.3636 13.7676 24.1009 19.1262 21.5538ZM24.9264 30.4921C28.5592 28.7653 30.6012 25.4658 29.4873 23.1225C28.3734 20.7791 24.5255 20.2793 20.8927 22.0061C17.2599 23.7329 15.2179 27.0323 16.3318 29.3757C17.4457 31.719 21.2936 32.2189 24.9264 30.4921Z" fill="currentColor"/><path d="M41.135 23.84C40.3457 24.9493 39.8657 25.8347 39.695 26.496C39.5457 27.1573 39.6737 27.6373 40.079 27.936C40.4843 28.2133 41.1243 28.3627 41.999 28.384L41.839 29.024C41.2417 28.9813 40.623 28.96 39.983 28.96C39.343 28.9387 38.7457 28.928 38.191 28.928C37.6577 28.928 37.2097 28.9387 36.847 28.96C36.4843 28.96 36.1323 28.9813 35.791 29.024L35.951 28.384C36.2497 28.32 36.559 28.192 36.879 28C37.199 27.7867 37.551 27.488 37.935 27.104C38.319 26.72 38.7243 26.2187 39.151 25.6L52.943 6.208C53.0283 6.208 53.103 6.208 53.167 6.208C53.2523 6.208 53.3377 6.208 53.423 6.208L54.703 26.336C54.767 27.104 54.959 27.6373 55.279 27.936C55.6204 28.2133 55.951 28.3627 56.271 28.384L56.143 29.024C55.7164 28.9813 55.183 28.96 54.543 28.96C53.903 28.9387 53.2737 28.928 52.655 28.928C51.887 28.928 51.1617 28.9387 50.479 28.96C49.7963 28.96 49.2417 28.9813 48.815 29.024L48.943 28.384C49.967 28.3413 50.6923 28.16 51.119 27.84C51.5457 27.4987 51.7377 26.784 51.695 25.696L50.831 9.888L51.055 9.824L41.135 23.84ZM43.695 19.808H53.039L52.783 20.448H43.119L43.695 19.808Z" fill="currentColor"/><path d="M62.572 29.024H59.788L63.628 15.296C63.8414 14.5707 63.9054 14.0587 63.82 13.76C63.756 13.4613 63.5427 13.312 63.18 13.312C62.7107 13.312 62.284 13.5573 61.9 14.048C61.516 14.5387 61.1107 15.3813 60.684 16.576L60.268 17.76H59.66L60.46 15.424C60.78 14.528 61.1534 13.8453 61.58 13.376C62.028 12.9067 62.4867 12.5867 62.956 12.416C63.4467 12.224 63.9053 12.128 64.332 12.128C64.972 12.128 65.42 12.2667 65.676 12.544C65.9533 12.8213 66.1027 13.184 66.124 13.632C66.1667 14.08 66.1347 14.5707 66.028 15.104C65.9427 15.616 65.836 16.1173 65.708 16.608L62.572 29.024ZM70.796 12.928C70.3053 12.928 69.7934 13.1627 69.26 13.632C68.748 14.08 68.2147 14.7413 67.66 15.616C67.1267 16.4693 66.5827 17.504 66.028 18.72C65.4947 19.9147 64.9614 21.248 64.428 22.72C63.916 24.192 63.4147 25.7813 62.924 27.488L63.724 23.392C64.428 21.3013 65.0787 19.5413 65.676 18.112C66.2947 16.6827 66.9027 15.5307 67.5 14.656C68.0973 13.76 68.7053 13.12 69.324 12.736C69.964 12.3307 70.636 12.128 71.34 12.128C71.9373 12.128 72.396 12.2987 72.716 12.64C73.0573 12.9813 73.228 13.4187 73.228 13.952C73.228 14.3787 73.1213 14.7733 72.908 15.136C72.6947 15.4773 72.4173 15.7547 72.076 15.968C71.756 16.16 71.3934 16.256 70.988 16.256C70.6254 16.256 70.316 16.16 70.06 15.968C69.8253 15.7547 69.708 15.4667 69.708 15.104C69.708 14.7627 69.772 14.464 69.9 14.208C70.028 13.9307 70.1987 13.696 70.412 13.504C70.6254 13.312 70.8707 13.1627 71.148 13.056C71.1054 13.0133 71.052 12.9813 70.988 12.96C70.9454 12.9387 70.8814 12.928 70.796 12.928Z" fill="currentColor"/><path d="M81.428 12.768C80.7453 12.768 80.084 13.0453 79.444 13.6C78.8253 14.1333 78.2493 14.8693 77.716 15.808C77.204 16.7253 76.7453 17.76 76.34 18.912C75.956 20.064 75.6573 21.2587 75.444 22.496C75.2307 23.7333 75.124 24.9173 75.124 26.048C75.124 27.008 75.2734 27.712 75.572 28.16C75.892 28.608 76.3507 28.832 76.948 28.832C77.6307 28.832 78.2814 28.5653 78.9 28.032C79.54 27.4773 80.1267 26.7413 80.66 25.824C81.1933 24.8853 81.652 23.84 82.036 22.688C82.42 21.536 82.7187 20.352 82.932 19.136C83.1454 17.8987 83.252 16.704 83.252 15.552C83.252 14.5707 83.1027 13.8667 82.804 13.44C82.5053 12.992 82.0467 12.768 81.428 12.768ZM72.372 24.448C72.372 23.5093 72.5 22.4853 72.756 21.376C73.012 20.2667 73.396 19.168 73.908 18.08C74.42 16.992 75.0387 16 75.764 15.104C76.5107 14.208 77.3747 13.4933 78.356 12.96C79.3373 12.4053 80.4253 12.128 81.62 12.128C82.9427 12.128 83.9987 12.544 84.788 13.376C85.5987 14.1867 86.004 15.4453 86.004 17.152C86.004 18.0907 85.876 19.1147 85.62 20.224C85.364 21.3333 84.98 22.432 84.468 23.52C83.956 24.608 83.3267 25.6 82.58 26.496C81.8547 27.392 81.0013 28.1173 80.02 28.672C79.0387 29.2053 77.9507 29.472 76.756 29.472C75.4333 29.472 74.3667 29.056 73.556 28.224C72.7667 27.392 72.372 26.1333 72.372 24.448Z" fill="currentColor"/><path d="M91.197 29.024H88.413L92.253 15.296C92.317 15.104 92.3704 14.8587 92.413 14.56C92.477 14.24 92.477 13.952 92.413 13.696C92.349 13.44 92.1463 13.312 91.805 13.312C91.3357 13.312 90.909 13.5573 90.525 14.048C90.141 14.5387 89.7357 15.3813 89.309 16.576L88.893 17.76H88.285L89.085 15.424C89.405 14.528 89.7784 13.8453 90.205 13.376C90.653 12.9067 91.1117 12.5867 91.581 12.416C92.0717 12.224 92.5303 12.128 92.957 12.128C93.597 12.128 94.0557 12.2773 94.333 12.576C94.6103 12.8533 94.7597 13.2267 94.781 13.696C94.8237 14.144 94.7917 14.624 94.685 15.136C94.5784 15.648 94.461 16.1387 94.333 16.608L91.197 29.024ZM100.253 15.84C100.402 15.392 100.498 14.9653 100.541 14.56C100.605 14.1547 100.573 13.824 100.445 13.568C100.338 13.2907 100.082 13.152 99.677 13.152C99.0797 13.152 98.4183 13.5253 97.693 14.272C96.989 14.9973 96.2637 16.0213 95.517 17.344C94.7917 18.6453 94.0877 20.1707 93.405 21.92C92.7224 23.648 92.1144 25.504 91.581 27.488L92.637 22.368C93.6183 19.808 94.5357 17.7813 95.389 16.288C96.2423 14.7947 97.0957 13.728 97.949 13.088C98.8237 12.448 99.7517 12.128 100.733 12.128C101.416 12.128 101.906 12.288 102.205 12.608C102.525 12.9067 102.717 13.3013 102.781 13.792C102.845 14.2827 102.824 14.8053 102.717 15.36C102.632 15.9147 102.525 16.448 102.397 16.96L99.133 29.024H96.253L100.253 15.84ZM108.253 15.84C108.466 15.1787 108.573 14.5707 108.573 14.016C108.573 13.44 108.338 13.152 107.869 13.152C107.229 13.152 106.557 13.5253 105.853 14.272C105.149 15.0187 104.424 16.0853 103.677 17.472C102.93 18.8373 102.184 20.448 101.437 22.304C100.712 24.1387 100.008 26.1653 99.325 28.384L100.061 24.288C100.893 22.0693 101.661 20.192 102.365 18.656C103.069 17.0987 103.762 15.84 104.445 14.88C105.128 13.92 105.832 13.2267 106.557 12.8C107.282 12.352 108.072 12.128 108.925 12.128C109.821 12.128 110.429 12.384 110.749 12.896C111.069 13.408 111.197 14.0373 111.133 14.784C111.09 15.5093 110.952 16.2347 110.717 16.96L107.613 26.304C107.4 26.9653 107.325 27.4667 107.389 27.808C107.453 28.128 107.698 28.288 108.125 28.288C108.53 28.288 108.925 28.064 109.309 27.616C109.714 27.168 110.141 26.304 110.589 25.024L111.005 23.84H111.613L110.813 26.176C110.514 27.072 110.141 27.7547 109.693 28.224C109.266 28.6933 108.808 29.0133 108.317 29.184C107.848 29.376 107.389 29.472 106.941 29.472C106.408 29.472 105.981 29.3867 105.661 29.216C105.362 29.0667 105.128 28.864 104.957 28.608C104.701 28.2027 104.616 27.7013 104.701 27.104C104.786 26.4853 104.957 25.7813 105.213 24.992L108.253 15.84Z" fill="currentColor"/><path d="M117.424 28.448C117.936 28.448 118.523 28.128 119.184 27.488C119.845 26.8267 120.517 25.9413 121.2 24.832C121.883 23.7227 122.512 22.464 123.088 21.056C123.664 19.648 124.123 18.1867 124.464 16.672L123.92 20.128C123.109 22.3893 122.299 24.2133 121.488 25.6C120.677 26.9653 119.856 27.9573 119.024 28.576C118.192 29.1733 117.349 29.472 116.496 29.472C115.493 29.472 114.736 29.1093 114.224 28.384C113.733 27.6587 113.488 26.7307 113.488 25.6C113.488 24.576 113.659 23.4667 114 22.272C114.341 21.056 114.811 19.8507 115.408 18.656C116.027 17.4613 116.731 16.3733 117.52 15.392C118.309 14.4107 119.163 13.6213 120.08 13.024C121.019 12.4267 121.968 12.128 122.928 12.128C123.675 12.128 124.24 12.5013 124.624 13.248C125.029 13.9733 125.115 14.9973 124.88 16.32L124.528 16.512C124.677 15.3813 124.603 14.4747 124.304 13.792C124.005 13.088 123.515 12.736 122.832 12.736C122.277 12.736 121.691 13.0133 121.072 13.568C120.475 14.1013 119.888 14.8373 119.312 15.776C118.757 16.6933 118.245 17.728 117.776 18.88C117.328 20.032 116.965 21.2267 116.688 22.464C116.432 23.68 116.304 24.8533 116.304 25.984C116.304 26.9013 116.4 27.5413 116.592 27.904C116.805 28.2667 117.083 28.448 117.424 28.448ZM125.488 12.576C126 12.5547 126.512 12.512 127.024 12.448C127.536 12.384 128.005 12.2773 128.432 12.128L124.432 26.272C124.389 26.464 124.325 26.72 124.24 27.04C124.176 27.3387 124.176 27.616 124.24 27.872C124.325 28.128 124.549 28.256 124.912 28.256C125.339 28.256 125.755 28.0213 126.16 27.552C126.565 27.0827 126.971 26.2293 127.376 24.992L127.76 23.808H128.368L127.568 26.144C127.269 26.9973 126.907 27.6693 126.48 28.16C126.075 28.6293 125.648 28.96 125.2 29.152C124.752 29.3653 124.315 29.472 123.888 29.472C123.056 29.472 122.469 29.1947 122.128 28.64C121.851 28.1493 121.776 27.584 121.904 26.944C122.032 26.2827 122.181 25.6213 122.352 24.96L125.488 12.576Z" fill="currentColor"/><path d="M132.094 13.216L132.286 12.576H141.726L141.534 13.216H132.094ZM142.398 4.48C141.993 4.48 141.641 4.56533 141.342 4.736C141.043 4.90667 140.777 5.09867 140.542 5.312C140.158 5.67467 139.817 6.22933 139.518 6.976C139.241 7.70133 138.974 8.544 138.718 9.504C138.483 10.464 138.227 11.4773 137.95 12.544L132.03 34.592C131.518 34.6133 131.017 34.656 130.526 34.72C130.035 34.784 129.577 34.8907 129.15 35.04L135.166 12.544C135.614 10.8373 136.083 9.42933 136.574 8.32C137.086 7.21067 137.705 6.304 138.43 5.6C138.921 5.10933 139.518 4.72533 140.222 4.448C140.947 4.14933 141.683 4 142.43 4C143.411 4 144.158 4.224 144.67 4.672C145.203 5.09867 145.47 5.632 145.47 6.272C145.47 6.63467 145.374 6.98667 145.182 7.328C144.99 7.66933 144.734 7.94667 144.414 8.16C144.094 8.37333 143.731 8.48 143.326 8.48C142.921 8.48 142.601 8.384 142.366 8.192C142.131 8 142.025 7.73333 142.046 7.392C142.046 6.85867 142.217 6.41067 142.558 6.048C142.899 5.664 143.337 5.39733 143.87 5.248C143.87 5.056 143.731 4.88533 143.454 4.736C143.177 4.56533 142.825 4.48 142.398 4.48Z" fill="currentColor"/></svg>