<?xml version="1.0" encoding="utf-8"?>
<!-- Generator: Adobe Illustrator 28.0.0, SVG Export Plug-In . SVG Version: 6.00 Build 0)  -->
<svg version="1.1" id="logo-27" xmlns="http://www.w3.org/2000/svg" xmlns:xlink="http://www.w3.org/1999/xlink" x="0px" y="0px"
	 viewBox="0 0 149.5 30" style="enable-background:new 0 0 149.5 30;" xml:space="preserve">
<style type="text/css">
	.st0{opacity:0.8;}
</style>
<path d="M42.7,6.6c0.3,0.4,0.5,1,0.5,1.7v12.4c0,0.7-0.2,1.3-0.5,1.7c-0.3,0.4-0.8,0.6-1.5,0.6c-0.7,0-1.1-0.2-1.4-0.6
	c-0.3-0.4-0.4-1-0.4-1.7V8.3c0-0.7,0.1-1.3,0.4-1.7C40,6.2,40.5,6,41.2,6C41.9,6,42.4,6.2,42.7,6.6z M56.9,14.7
	c0.3,0.7,0.4,1.6,0.4,2.4c0,0.8-0.1,1.6-0.4,2.3c-0.3,0.7-0.7,1.4-1.2,1.9c-0.5,0.5-1.2,1-2.1,1.3c-0.8,0.3-1.8,0.5-2.9,0.5
	c-1.1,0-2-0.2-2.8-0.5c-0.8-0.3-1.5-0.7-2.1-1.3c-0.5-0.5-1-1.2-1.2-1.9c-0.3-0.7-0.4-1.5-0.4-2.4c0-0.8,0.1-1.6,0.4-2.3
	c0.3-0.7,0.7-1.4,1.2-1.9c0.5-0.6,1.2-1,2-1.3c0.8-0.3,1.8-0.5,2.9-0.5c1.1,0,2,0.2,2.8,0.5s1.5,0.7,2.1,1.3
	C56.2,13.3,56.6,13.9,56.9,14.7z M53.4,17.1c0-0.5-0.1-1-0.2-1.5c-0.1-0.5-0.2-0.9-0.5-1.2c-0.2-0.4-0.5-0.6-0.8-0.8
	c-0.3-0.2-0.7-0.3-1.2-0.3c-0.5,0-0.9,0.1-1.2,0.3c-0.3,0.2-0.6,0.5-0.8,0.8c-0.2,0.4-0.4,0.8-0.5,1.2c-0.1,0.5-0.1,1-0.1,1.5
	c0,0.5,0,1,0.1,1.5c0.1,0.5,0.2,0.9,0.4,1.2c0.2,0.4,0.5,0.6,0.8,0.8c0.3,0.2,0.7,0.3,1.2,0.3c0.4,0,0.8-0.1,1.2-0.3
	c0.3-0.2,0.6-0.4,0.8-0.8c0.2-0.3,0.4-0.7,0.5-1.2C53.4,18.2,53.4,17.7,53.4,17.1z M70.4,12.6c0.1,0.3,0.1,0.6,0.1,1v7.9
	c0,1-0.1,1.8-0.4,2.6c-0.2,0.8-0.6,1.4-1.1,1.9c-0.5,0.5-1.1,0.9-1.9,1.2c-0.8,0.3-1.7,0.4-2.8,0.4c-0.8,0-1.4,0-2-0.1
	c-0.6-0.1-1.1-0.2-1.5-0.3c-0.4-0.1-0.7-0.3-1-0.5c-0.2-0.2-0.3-0.4-0.3-0.7c0-0.2,0-0.3,0.1-0.5c0-0.1,0.1-0.3,0.2-0.4
	c0.1-0.1,0.2-0.2,0.4-0.3c0.2-0.1,0.4-0.1,0.6-0.1c0.2,0,0.5,0,0.8,0c0.3,0,0.5,0.1,0.8,0.1c0.3,0,0.6,0.1,0.9,0.1c0.3,0,0.6,0,1,0
	c0.4,0,0.8,0,1.1-0.1c0.3-0.1,0.6-0.2,0.9-0.5c0.2-0.2,0.4-0.5,0.5-0.9c0.1-0.4,0.2-0.8,0.2-1.4v-1.4c-0.2,0.4-0.5,0.7-0.8,1
	c-0.3,0.3-0.6,0.5-1,0.7c-0.4,0.2-0.7,0.3-1.2,0.4c-0.4,0.1-0.8,0.1-1.3,0.1c-0.7,0-1.4-0.1-2-0.4c-0.6-0.3-1.1-0.6-1.5-1.1
	c-0.4-0.5-0.8-1.1-1-1.8c-0.2-0.7-0.4-1.5-0.4-2.4c0-0.9,0.1-1.7,0.3-2.4c0.2-0.8,0.5-1.4,0.9-2c0.4-0.6,0.9-1,1.5-1.3
	c0.6-0.3,1.3-0.5,2.1-0.5c0.9,0,1.7,0.2,2.4,0.5c0.7,0.3,1.3,0.9,1.8,1.7v-0.3c0-0.6,0.2-1,0.5-1.3c0.3-0.3,0.7-0.4,1.3-0.4
	c0.3,0,0.6,0.1,0.8,0.2c0.2,0.1,0.4,0.3,0.5,0.5C70.3,12,70.3,12.3,70.4,12.6z M67,17.1c0-0.6,0-1.1-0.1-1.6
	c-0.1-0.5-0.2-0.9-0.4-1.2c-0.2-0.3-0.5-0.6-0.8-0.8c-0.3-0.2-0.7-0.3-1.2-0.3c-0.5,0-0.9,0.1-1.2,0.3c-0.3,0.2-0.6,0.5-0.8,0.8
	s-0.3,0.7-0.4,1.2c-0.1,0.5-0.1,1-0.1,1.5c0,1.2,0.2,2.1,0.6,2.7c0.4,0.6,1,0.9,1.8,0.9c0.4,0,0.7-0.1,1-0.2
	c0.3-0.1,0.6-0.4,0.8-0.6c0.2-0.3,0.4-0.7,0.5-1.1C66.9,18.3,67,17.7,67,17.1z M84.2,14.7c0.3,0.7,0.4,1.6,0.4,2.4
	c0,0.8-0.1,1.6-0.4,2.3c-0.3,0.7-0.7,1.4-1.2,1.9c-0.5,0.5-1.2,1-2.1,1.3c-0.8,0.3-1.8,0.5-2.9,0.5c-1.1,0-2-0.2-2.8-0.5
	c-0.8-0.3-1.5-0.7-2.1-1.3c-0.5-0.5-1-1.2-1.2-1.9c-0.3-0.7-0.4-1.5-0.4-2.4c0-0.8,0.1-1.6,0.4-2.3c0.3-0.7,0.7-1.4,1.2-1.9
	c0.5-0.6,1.2-1,2-1.3C76,11.2,77,11,78.1,11c1.1,0,2,0.2,2.8,0.5s1.5,0.7,2.1,1.3C83.5,13.3,83.9,13.9,84.2,14.7z M80.7,17.1
	c0-0.5-0.1-1-0.2-1.5c-0.1-0.5-0.2-0.9-0.5-1.2c-0.2-0.4-0.5-0.6-0.8-0.8c-0.3-0.2-0.7-0.3-1.2-0.3c-0.5,0-0.9,0.1-1.2,0.3
	c-0.3,0.2-0.6,0.5-0.8,0.8s-0.4,0.8-0.5,1.2c-0.1,0.5-0.1,1-0.1,1.5c0,0.5,0,1,0.1,1.5c0.1,0.5,0.2,0.9,0.4,1.2
	c0.2,0.4,0.5,0.6,0.8,0.8c0.3,0.2,0.7,0.3,1.2,0.3c0.4,0,0.8-0.1,1.2-0.3c0.3-0.2,0.6-0.4,0.8-0.8c0.2-0.3,0.4-0.7,0.5-1.2
	C80.7,18.2,80.7,17.7,80.7,17.1z M89.1,5.9c-0.2-0.1-0.4-0.2-0.7-0.3c-0.2-0.1-0.5-0.1-0.8-0.1c-0.3,0-0.6,0-0.8,0.1
	s-0.5,0.2-0.6,0.3s-0.3,0.3-0.4,0.5c-0.1,0.2-0.2,0.4-0.2,0.6c0,0.2,0.1,0.5,0.2,0.7c0.1,0.2,0.3,0.4,0.4,0.5
	c0.2,0.1,0.4,0.2,0.6,0.3c0.2,0.1,0.5,0.1,0.8,0.1c0.3,0,0.5,0,0.8-0.1c0.2-0.1,0.5-0.2,0.7-0.3c0.2-0.1,0.3-0.3,0.5-0.5
	c0.1-0.2,0.2-0.4,0.2-0.7c0-0.2-0.1-0.5-0.2-0.7C89.4,6.2,89.3,6,89.1,5.9z M87.6,11.2c-0.7,0-1.1,0.2-1.4,0.6
	c-0.3,0.4-0.4,1-0.4,1.7v7.2c0,0.7,0.1,1.3,0.4,1.7c0.3,0.4,0.7,0.6,1.4,0.6c0.7,0,1.2-0.2,1.5-0.6c0.3-0.4,0.5-1,0.5-1.7v-7.2
	c0-0.7-0.2-1.3-0.5-1.7C88.8,11.4,88.3,11.2,87.6,11.2z M103.4,14.8c0.2,0.7,0.3,1.5,0.3,2.4c0,0.9-0.1,1.7-0.4,2.4
	c-0.2,0.7-0.6,1.4-1,1.9c-0.4,0.5-0.9,0.9-1.5,1.2c-0.6,0.3-1.2,0.4-1.9,0.4c-0.9,0-1.7-0.2-2.3-0.6c-0.7-0.4-1.3-1-1.7-1.7V25
	c0,0.7-0.2,1.3-0.5,1.7c-0.3,0.4-0.8,0.6-1.5,0.6c-0.7,0-1.1-0.2-1.4-0.6c-0.3-0.4-0.4-1-0.4-1.7V13.5c0-0.7,0.1-1.3,0.4-1.7
	c0.3-0.4,0.7-0.6,1.4-0.6c0.7,0,1.2,0.2,1.5,0.6c0.3,0.4,0.5,1,0.5,1.7c0.2-0.4,0.4-0.8,0.8-1.1c0.3-0.3,0.6-0.6,1-0.8
	c0.4-0.2,0.8-0.4,1.1-0.5c0.4-0.1,0.8-0.2,1.2-0.2c0.7,0,1.4,0.2,1.9,0.5s1.1,0.8,1.5,1.3C102.8,13.4,103.2,14,103.4,14.8z M99.9,17
	c0-0.4,0-0.9-0.1-1.3c-0.1-0.5-0.2-0.9-0.4-1.2s-0.4-0.7-0.7-0.9c-0.3-0.2-0.7-0.4-1.2-0.4c-0.5,0-0.9,0.1-1.3,0.2
	c-0.3,0.2-0.6,0.4-0.8,0.7c-0.2,0.3-0.3,0.7-0.4,1.2c-0.1,0.5-0.1,1-0.1,1.7c0,0.5,0,1,0.1,1.5c0.1,0.5,0.2,0.9,0.4,1.2
	c0.2,0.3,0.5,0.6,0.8,0.8c0.3,0.2,0.8,0.3,1.2,0.3c0.5,0,0.8-0.1,1.1-0.3c0.3-0.2,0.6-0.5,0.8-0.8c0.2-0.3,0.3-0.7,0.4-1.2
	C99.8,18.1,99.9,17.6,99.9,17z M114.3,17.1c-0.3-0.2-0.6-0.5-1-0.6c-0.4-0.2-0.8-0.3-1.3-0.4c-0.4-0.1-0.9-0.2-1.4-0.3
	c-0.5-0.1-0.9-0.2-1.4-0.3c-0.5-0.1-0.8-0.2-1.1-0.4c-0.3-0.2-0.4-0.4-0.4-0.7c0-0.2,0.1-0.4,0.2-0.5c0.1-0.1,0.3-0.2,0.5-0.3
	c0.2-0.1,0.5-0.1,0.8-0.2c0.3,0,0.6,0,1,0c0.5,0,0.9,0,1.2,0.1c0.3,0.1,0.6,0.1,0.8,0.2c0.2,0.1,0.4,0.1,0.6,0.2
	c0.2,0.1,0.3,0.1,0.5,0.1c0.3,0,0.6-0.1,0.8-0.2c0.2-0.2,0.3-0.4,0.3-0.7c0-0.6-0.4-1-1.2-1.4c-0.8-0.4-1.9-0.5-3.4-0.5
	c-0.8,0-1.6,0.1-2.2,0.2c-0.7,0.1-1.2,0.4-1.7,0.7s-0.8,0.6-1.1,1.1c-0.2,0.4-0.4,0.9-0.4,1.4c0,0.5,0.1,0.9,0.2,1.3
	c0.1,0.4,0.4,0.7,0.6,0.9c0.3,0.2,0.6,0.5,1,0.6c0.4,0.2,0.8,0.3,1.3,0.5c0.5,0.1,1,0.3,1.5,0.4c0.5,0.1,1.1,0.2,1.7,0.4
	c0.4,0.1,0.6,0.2,0.8,0.4c0.2,0.2,0.3,0.4,0.3,0.6c0,0.1,0,0.1,0,0.2c0,0,0,0.1-0.1,0.1c0,0.2-0.1,0.4-0.2,0.5
	c-0.1,0.1-0.2,0.3-0.4,0.4c-0.2,0.1-0.4,0.2-0.6,0.2c-0.2,0-0.4,0.1-0.6,0.1c-0.4,0-0.7,0-1-0.1c-0.3-0.1-0.6-0.1-1-0.2
	c-0.2-0.1-0.5-0.1-0.7-0.2c-0.2-0.1-0.4-0.2-0.6-0.2s-0.4-0.1-0.6-0.2c-0.2,0-0.3-0.1-0.4-0.1c-0.3,0-0.6,0.1-0.8,0.3
	c-0.2,0.2-0.3,0.4-0.3,0.8c0,0.4,0.2,0.7,0.5,1c0.3,0.3,0.7,0.5,1.2,0.7c0.5,0.2,1.1,0.3,1.8,0.4c0.7,0.1,1.4,0.1,2.1,0.1
	c0.8,0,1.5-0.1,2.1-0.3c0.6-0.2,1.2-0.4,1.6-0.8c0.5-0.3,0.8-0.7,1.1-1.2c0.2-0.5,0.4-1,0.4-1.6c0-0.5-0.1-0.9-0.3-1.2
	C114.9,17.7,114.6,17.4,114.3,17.1z M126.2,11.2c-0.7,0-1.1,0.2-1.4,0.6c-0.3,0.4-0.4,1-0.4,1.7v5c0,0.4-0.1,0.7-0.2,1
	c-0.1,0.3-0.3,0.5-0.5,0.7c-0.2,0.2-0.5,0.3-0.8,0.4s-0.6,0.1-0.9,0.1c-0.3,0-0.5,0-0.8-0.1c-0.2-0.1-0.4-0.2-0.6-0.4
	c-0.2-0.2-0.3-0.4-0.4-0.7c-0.1-0.3-0.1-0.6-0.1-1v-5.1c0-0.7-0.2-1.3-0.5-1.7c-0.3-0.4-0.8-0.6-1.5-0.6c-0.7,0-1.1,0.2-1.4,0.6
	c-0.3,0.4-0.4,1-0.4,1.7v5.3c0,0.7,0.1,1.3,0.3,1.9c0.2,0.5,0.5,1,0.9,1.4c0.4,0.4,0.8,0.6,1.3,0.8c0.5,0.2,1,0.3,1.5,0.3
	c0.5,0,0.9-0.1,1.3-0.2c0.4-0.1,0.8-0.3,1.1-0.5c0.4-0.2,0.7-0.5,0.9-0.8c0.3-0.3,0.5-0.6,0.6-1c0,0.7,0.1,1.3,0.4,1.7
	c0.3,0.4,0.7,0.6,1.4,0.6c0.7,0,1.2-0.2,1.5-0.6c0.3-0.4,0.5-1,0.5-1.7v-7.2c0-0.7-0.2-1.3-0.5-1.7
	C127.4,11.4,126.9,11.2,126.2,11.2z M149.1,13.5c-0.2-0.6-0.5-1-0.8-1.4c-0.3-0.4-0.7-0.6-1.2-0.8c-0.5-0.2-0.9-0.3-1.4-0.3
	c-0.4,0-0.8,0-1.3,0.1c-0.4,0.1-0.8,0.2-1.2,0.5c-0.4,0.2-0.7,0.5-1.1,0.9c-0.3,0.4-0.6,0.8-0.9,1.3c-0.1-0.5-0.3-0.9-0.6-1.3
	c-0.3-0.4-0.6-0.6-0.9-0.9c-0.3-0.2-0.7-0.4-1.1-0.5c-0.4-0.1-0.8-0.2-1.2-0.2c-0.4,0-0.9,0.1-1.3,0.2c-0.4,0.1-0.8,0.3-1.1,0.5
	c-0.3,0.2-0.7,0.5-0.9,0.8c-0.3,0.3-0.5,0.6-0.6,1c0-0.7-0.2-1.3-0.5-1.7c-0.3-0.4-0.8-0.6-1.5-0.6c-0.7,0-1.1,0.2-1.4,0.6
	c-0.3,0.4-0.4,1-0.4,1.7v7.2c0,0.7,0.1,1.3,0.4,1.7c0.3,0.4,0.7,0.6,1.4,0.6c0.7,0,1.2-0.2,1.5-0.6c0.3-0.4,0.5-1,0.5-1.7v-4.9
	c0-0.4,0.1-0.8,0.2-1.1c0.1-0.3,0.3-0.6,0.5-0.8c0.2-0.2,0.5-0.4,0.8-0.5c0.3-0.1,0.6-0.2,0.9-0.2c0.6,0,1,0.2,1.3,0.6
	c0.3,0.4,0.5,1,0.5,1.8v4.9c0,0.7,0.1,1.3,0.4,1.7c0.3,0.4,0.7,0.6,1.4,0.6c0.7,0,1.2-0.2,1.5-0.6c0.3-0.4,0.5-1,0.5-1.7v-4.7
	c0-0.5,0.1-0.9,0.2-1.2c0.1-0.3,0.3-0.6,0.5-0.8c0.2-0.2,0.5-0.4,0.8-0.5c0.3-0.1,0.6-0.2,0.9-0.2c0.3,0,0.5,0.1,0.7,0.2
	c0.2,0.1,0.4,0.2,0.6,0.4c0.2,0.2,0.3,0.4,0.4,0.7c0.1,0.3,0.1,0.6,0.1,0.9v5.1c0,0.7,0.1,1.3,0.4,1.7c0.3,0.4,0.7,0.6,1.4,0.6
	c0.7,0,1.2-0.2,1.5-0.6c0.3-0.4,0.5-1,0.5-1.7v-5.3C149.5,14.7,149.4,14,149.1,13.5z"/>
<path class="st0" d="M15,21c-3.3,0-6-2.7-6-6s2.7-6,6-6s6,2.7,6,6S18.3,21,15,21z M3.4,17c-1.7,0.3-2.9,2-2.3,3.6
	C2,23,3.5,25,5.5,26.6c2.8,2.3,6.2,3.5,9.8,3.4c3.6-0.1,7-1.4,9.7-3.8c1.9-1.7,3.3-3.7,4.1-6.1c0.6-1.7-0.6-3.3-2.4-3.5
	c-1.7-0.2-3.3,1-4.2,2.6c-0.5,0.8-1.1,1.6-1.8,2.2c-1.5,1.4-3.5,2.1-5.6,2.2c-2,0-4-0.7-5.6-2c-0.8-0.6-1.4-1.4-1.9-2.2
	C6.7,18,5.1,16.7,3.4,17z"/>
<path d="M29.9,16.9C30,16.3,30,15.6,30,15c0-8.3-6.7-15-15-15C6.7,0,0,6.7,0,15c0,0.8,0.1,1.6,0.2,2.4c0.7-0.9,1.8-1.6,2.9-1.8
	c1.3-0.2,2.4,0.1,3.4,0.7c-0.1-0.4-0.1-0.8-0.1-1.2c0-4.8,3.9-8.6,8.6-8.6s8.6,3.9,8.6,8.6c0,0.3,0,0.6,0,0.9
	c0.9-0.6,2.1-0.9,3.3-0.8C28.1,15.3,29.2,16,29.9,16.9z"/>
</svg>
