<?xml version="1.0" encoding="utf-8"?>
<!-- Generator: Adobe Illustrator 28.0.0, SVG Export Plug-In . SVG Version: 6.00 Build 0)  -->
<svg version="1.1" id="logo-8" xmlns="http://www.w3.org/2000/svg" xmlns:xlink="http://www.w3.org/1999/xlink" x="0px" y="0px"
	 viewBox="0 0 152.6 30" style="enable-background:new 0 0 152.6 30;" xml:space="preserve">
<path d="M29.7,14.7c0.2,0.7,0.3,1.4,0.2,2c-0.1,0.7-0.4,1.3-0.8,1.9c-0.4,0.6-1,1-1.6,1.3c-0.6,0.3-1.3,0.4-2,0.3l0,0
	c-0.7-0.1-1.4,0-2.1,0.3c-0.7,0.2-1.3,0.6-1.8,1.1c-0.5,0.5-0.9,1.1-1.1,1.8c-0.2,0.7-0.3,1.4-0.3,2.1l0,0c0.1,0.8-0.1,1.7-0.5,2.4
	c-0.4,0.7-1.1,1.3-1.8,1.7c-0.8,0.4-1.6,0.5-2.5,0.3c-0.8-0.1-1.6-0.5-2.2-1.1c-0.6-0.6-1-1.4-1.2-2.2c-0.1-0.8,0-1.7,0.3-2.5
	c0.4-0.8,1-1.4,1.7-1.8c0.7-0.4,1.6-0.6,2.4-0.5l0,0c0.7,0.1,1.4,0,2.1-0.3c0.7-0.2,1.3-0.6,1.8-1.1c0.5-0.5,0.9-1.1,1.1-1.8
	c0.2-0.7,0.3-1.4,0.3-2.1l0,0c-0.1-0.6,0-1.2,0.2-1.8c0.2-0.6,0.5-1.1,1-1.5h0c0.5-0.5,1.1-0.9,1.8-1c0.7-0.2,1.4-0.2,2.1-0.1
	c0.7,0.1,1.3,0.5,1.8,0.9C29.1,13.4,29.5,14,29.7,14.7z M14.6,19.1L14.6,19.1c0.6,0,1.2,0,1.8-0.2c0.6-0.2,1.1-0.5,1.5-1
	c0.4-0.4,0.8-0.9,1-1.5c0.2-0.6,0.3-1.2,0.2-1.8l0,0c-0.1-0.7,0-1.4,0.3-2.1c0.2-0.7,0.6-1.3,1.1-1.8c0.5-0.5,1.1-0.9,1.8-1.1
	c0.7-0.2,1.4-0.3,2.1-0.3l0,0c0.8,0.1,1.7-0.1,2.4-0.5c0.7-0.4,1.3-1.1,1.7-1.8c0.4-0.8,0.5-1.6,0.3-2.5c-0.1-0.8-0.5-1.6-1.2-2.2
	c-0.6-0.6-1.4-1-2.2-1.2c-0.8-0.1-1.7,0-2.5,0.3c-0.8,0.4-1.4,1-1.8,1.7c-0.4,0.7-0.6,1.6-0.5,2.4l0,0c0.1,0.7,0,1.4-0.3,2.1
	c-0.2,0.7-0.6,1.3-1.1,1.8c-0.5,0.5-1.1,0.9-1.8,1.1c-0.7,0.2-1.4,0.3-2.1,0.3l0,0c-0.6-0.1-1.2,0-1.8,0.2c-0.6,0.2-1.1,0.5-1.5,1
	s-0.8,0.9-1,1.5c-0.2,0.6-0.3,1.2-0.2,1.8l0,0c0.1,0.7,0,1.4-0.3,2.1c-0.2,0.7-0.6,1.3-1.1,1.8c-0.5,0.5-1.1,0.9-1.8,1.1
	c-0.7,0.2-1.4,0.3-2.1,0.3l0,0c-0.8-0.1-1.7,0.1-2.4,0.5c-0.7,0.4-1.3,1.1-1.7,1.8c-0.4,0.8-0.5,1.6-0.3,2.5
	c0.1,0.8,0.5,1.6,1.2,2.2c0.6,0.6,1.4,1,2.2,1.2c0.8,0.1,1.7,0,2.5-0.3c0.8-0.4,1.4-1,1.8-1.7c0.4-0.7,0.6-1.6,0.5-2.4l0,0
	c-0.1-0.7,0-1.4,0.3-2.1c0.2-0.7,0.6-1.3,1.1-1.8c0.5-0.5,1.1-0.9,1.8-1.1C13.2,19.1,13.9,19,14.6,19.1z M1.4,17
	c0.5,0.5,1.2,0.8,1.8,0.9c0.7,0.1,1.4,0.1,2.1-0.1c0.7-0.2,1.3-0.6,1.8-1h0c0.4-0.4,0.8-0.9,1-1.5c0.2-0.6,0.3-1.2,0.2-1.8l0,0
	c-0.1-0.7,0-1.4,0.3-2.1c0.2-0.7,0.6-1.3,1.1-1.8s1.1-0.9,1.8-1.1s1.4-0.3,2.1-0.3l0,0c0.8,0.1,1.7-0.1,2.4-0.5
	c0.7-0.4,1.3-1.1,1.7-1.8C18,5.1,18.1,4.3,18,3.4c-0.1-0.8-0.5-1.6-1.1-2.2c-0.6-0.6-1.4-1-2.2-1.1c-0.8-0.1-1.7,0-2.5,0.3
	c-0.8,0.4-1.4,1-1.8,1.7C9.9,2.8,9.7,3.7,9.8,4.5l0,0c0.1,0.7,0,1.4-0.3,2.1C9.2,7.3,8.8,7.9,8.3,8.4C7.8,8.9,7.2,9.3,6.6,9.5
	C5.9,9.7,5.2,9.8,4.5,9.8l0,0c-0.7-0.1-1.4,0.1-2,0.3c-0.6,0.3-1.2,0.7-1.6,1.3c-0.4,0.6-0.7,1.2-0.8,1.9c-0.1,0.7,0,1.4,0.2,2
	C0.5,16,0.9,16.6,1.4,17z M41.9,21.9h3.3V5.6h-3.3V21.9z M58.8,15.1c0.2,1.1,0.1,2.3-0.3,3.4c-0.4,1.1-1.2,2-2.2,2.7
	c-1,0.6-2.1,1-3.3,1c-0.8,0-1.5-0.1-2.3-0.4c-0.7-0.3-1.4-0.7-1.9-1.3c-0.5-0.5-1-1.2-1.3-1.9c-0.3-0.7-0.4-1.5-0.4-2.3
	c0-1.2,0.3-2.3,1-3.3s1.6-1.7,2.6-2.2c1.1-0.5,2.3-0.6,3.4-0.3c1.1,0.2,2.2,0.8,3,1.6C58,12.9,58.6,14,58.8,15.1z M55.6,16.3
	c0-0.5-0.2-1-0.5-1.4c-0.3-0.4-0.7-0.7-1.2-0.9c-0.5-0.2-1-0.2-1.5-0.1s-0.9,0.4-1.3,0.7c-0.4,0.4-0.6,0.8-0.7,1.3
	c-0.1,0.5,0,1,0.2,1.5c0.2,0.5,0.5,0.9,0.9,1.1c0.4,0.3,0.9,0.4,1.4,0.4c0.3,0,0.7-0.1,1-0.2c0.3-0.1,0.6-0.3,0.8-0.6
	c0.2-0.2,0.4-0.5,0.5-0.9C55.6,17,55.6,16.6,55.6,16.3z M69,10.7l3.3,0v10.6c0,3.7-2.9,5.3-5.9,5.3c-1,0.1-2.1-0.1-3-0.6
	c-0.9-0.5-1.7-1.2-2.3-2.1l2.9-1.6c0.2,0.5,0.6,0.8,1.1,1.1c0.5,0.3,1,0.4,1.5,0.3c0.3,0,0.7,0,1-0.1c0.3-0.1,0.6-0.3,0.8-0.5
	c0.2-0.2,0.4-0.5,0.5-0.8c0.1-0.3,0.2-0.6,0.1-1v-1c-0.4,0.5-0.9,0.9-1.5,1.1c-0.6,0.3-1.2,0.4-1.8,0.3c-1.5,0-2.9-0.7-3.9-1.7
	c-1-1.1-1.6-2.5-1.6-3.9c0-1.5,0.6-2.9,1.6-3.9c1-1.1,2.4-1.7,3.9-1.7c0.6,0,1.2,0.1,1.8,0.3c0.6,0.3,1.1,0.6,1.5,1.1V10.7z
	 M69,16.1c0-0.5-0.1-1.1-0.4-1.5c-0.3-0.5-0.7-0.8-1.2-1c-0.5-0.2-1-0.3-1.6-0.2c-0.5,0.1-1,0.3-1.4,0.7c-0.4,0.4-0.7,0.9-0.8,1.4
	c-0.1,0.5-0.1,1.1,0.1,1.6c0.2,0.5,0.5,0.9,1,1.2s1,0.5,1.5,0.5c0.4,0,0.7,0,1-0.1s0.6-0.3,0.9-0.6c0.3-0.2,0.5-0.5,0.6-0.9
	C69,16.8,69,16.4,69,16.1z M85.8,15.1c0.2,1.1,0.1,2.3-0.3,3.4c-0.4,1.1-1.2,2-2.2,2.7c-1,0.6-2.1,1-3.3,1c-0.8,0-1.5-0.1-2.3-0.4
	c-0.7-0.3-1.4-0.7-1.9-1.3c-0.5-0.5-1-1.2-1.3-1.9c-0.3-0.7-0.4-1.5-0.4-2.3c0-1.2,0.3-2.3,1-3.3c0.6-1,1.6-1.7,2.6-2.2
	c1.1-0.5,2.3-0.6,3.4-0.3c1.1,0.2,2.2,0.8,3,1.6C85,12.9,85.6,14,85.8,15.1z M82.6,16.3c0-0.5-0.2-1-0.5-1.4
	c-0.3-0.4-0.7-0.7-1.2-0.9c-0.5-0.2-1-0.2-1.5-0.1c-0.5,0.1-0.9,0.4-1.3,0.7c-0.4,0.4-0.6,0.8-0.7,1.3c-0.1,0.5,0,1,0.2,1.5
	c0.2,0.5,0.5,0.9,0.9,1.1c0.4,0.3,0.9,0.4,1.4,0.4c0.3,0,0.7-0.1,1-0.2c0.3-0.1,0.6-0.3,0.8-0.6c0.2-0.2,0.4-0.5,0.5-0.9
	C82.6,17,82.6,16.6,82.6,16.3z M87.8,21.9h3.3V10.7h-3.3L87.8,21.9z M90.9,6.3c-0.3-0.3-0.6-0.5-1-0.5c-0.4-0.1-0.8,0-1.2,0.1
	s-0.7,0.4-0.9,0.7c-0.2,0.3-0.3,0.7-0.3,1.1c0,0.5,0.2,1,0.6,1.4c0.4,0.4,0.9,0.6,1.4,0.6c0.4,0,0.8-0.1,1.1-0.3
	c0.3-0.2,0.6-0.5,0.7-0.9c0.2-0.4,0.2-0.8,0.1-1.2C91.4,7,91.2,6.6,90.9,6.3z M105.3,14.1c0.2,0.7,0.4,1.4,0.3,2.2
	c0,0.7-0.1,1.5-0.3,2.2c-0.2,0.7-0.6,1.3-1.1,1.9c-0.5,0.5-1.1,1-1.8,1.3c-0.7,0.3-1.4,0.5-2.1,0.5c-0.6,0-1.2-0.1-1.8-0.3
	c-0.6-0.2-1.1-0.6-1.5-1.1v5.5h-3.3V10.7H97v1c0.4-0.5,0.9-0.8,1.5-1.1c0.6-0.2,1.2-0.3,1.8-0.3c0.7,0,1.5,0.2,2.1,0.5
	c0.7,0.3,1.3,0.8,1.8,1.3S105.1,13.4,105.3,14.1z M102.3,16.3c0-0.5-0.2-1-0.5-1.5c-0.3-0.4-0.7-0.8-1.2-0.9c-0.5-0.2-1-0.2-1.5-0.1
	c-0.5,0.1-1,0.4-1.3,0.7c-0.4,0.4-0.6,0.8-0.7,1.4c-0.1,0.5,0,1,0.2,1.5c0.2,0.5,0.5,0.9,1,1.2c0.4,0.3,0.9,0.4,1.5,0.4
	c0.4,0,0.7,0,1-0.2c0.3-0.1,0.6-0.3,0.9-0.6c0.3-0.3,0.4-0.6,0.6-0.9S102.3,16.7,102.3,16.3z M110.5,14c0-0.4,0.4-0.6,0.9-0.6
	c0.3,0,0.6,0.1,0.9,0.3s0.5,0.4,0.6,0.7l2.9-1.5c-0.4-0.7-1.1-1.4-1.8-1.8s-1.6-0.6-2.5-0.6c-2.3,0-4.4,1.2-4.4,3.7
	c0,3.9,5.5,3.2,5.5,4.4c0,0.4-0.4,0.7-1.2,0.7c-0.4,0-0.8-0.1-1.2-0.3c-0.3-0.2-0.6-0.6-0.7-1l-2.9,1.6c0.4,0.9,1.1,1.6,2,2.1
	c0.9,0.5,1.8,0.7,2.8,0.6c2.4,0,4.6-1.1,4.6-3.7C115.9,14.4,110.5,15.3,110.5,14z M124.8,16.8c0,1.6-0.8,2.3-2.1,2.3
	c-0.3,0-0.5,0-0.8-0.1c-0.2-0.1-0.5-0.2-0.7-0.4c-0.2-0.2-0.3-0.4-0.4-0.7c-0.1-0.3-0.1-0.5-0.1-0.8v-6.3h-3.3v6.8
	c0,3,1.9,4.6,4.2,4.6c0.6,0,1.2-0.1,1.8-0.3c0.6-0.2,1-0.6,1.4-1.1v1h3.3V10.7l-3.3,0V16.8z M143.1,10.4c-0.6,0-1.2,0.1-1.8,0.3
	s-1.1,0.7-1.4,1.2c-0.3-0.5-0.8-0.9-1.3-1.1c-0.5-0.3-1.1-0.4-1.7-0.4c-0.6,0-1.1,0.1-1.7,0.3c-0.5,0.2-1,0.6-1.3,1v-1h-3.3v11.1
	h3.3v-6.3c0-1.3,0.6-2.1,1.7-2.1c1.1,0,1.6,0.7,1.6,1.8v6.5h3.3v-6.3c0-1.3,0.6-2.1,1.7-2.1c1.1,0,1.6,0.7,1.6,1.8v6.5h3.3V15
	C147.3,12.2,145.6,10.4,143.1,10.4z M150.1,5.7c-1.4,0-2.5,1.1-2.5,2.5s1.1,2.5,2.5,2.5c1.4,0,2.5-1.1,2.5-2.5S151.5,5.7,150.1,5.7z
	"/>
</svg>
