<svg xmlns="http://www.w3.org/2000/svg" viewBox="0 0 160 29.66"><path d="M42.56 24.06h6.57v3.63H38.56V2.28h3.99v21.79ZM91.47 8.3v13.36c0 2.03-.52 3.61-1.56 4.72-1.04 1.11-2.54 1.67-4.5 1.67s-3.46-.56-4.5-1.67c-1.04-1.11-1.56-2.69-1.56-4.72V8.3c0-2.03.52-3.61 1.56-4.72 1.04-1.11 2.54-1.67 4.5-1.67s3.46.56 4.5 1.67c1.04 1.11 1.56 2.69 1.56 4.72Zm-3.99-.25c0-1.67-.69-2.51-2.07-2.51s-2.07.84-2.07 2.51v13.87c0 1.67.69 2.51 2.07 2.51s2.07-.84 2.07-2.51V8.05ZM71.12 1.91c-1.94 0-3.41.56-4.43 1.67-1.02 1.09-1.53 2.66-1.53 4.72v13.36c0 2.06.51 3.64 1.53 4.76 1.02 1.09 2.49 1.63 4.43 1.63s3.41-.54 4.43-1.63c1.02-1.11 1.53-2.7 1.53-4.76v-8.32h-5.77v3.63h2v4.98c0 1.65-.69 2.47-2.07 2.47s-2.07-.82-2.07-2.47V8.04c0-1.67.69-2.51 2.07-2.51s2.07.84 2.07 2.51v2.43h3.78V8.29c0-2.06-.51-3.63-1.53-4.72-1.02-1.11-2.49-1.67-4.43-1.67Zm-9.93 1.67c1.04 1.11 1.56 2.69 1.56 4.72v13.36c0 2.03-.52 3.61-1.56 4.72-1.04 1.11-2.54 1.67-4.5 1.67s-3.46-.56-4.5-1.67c-1.04-1.11-1.56-2.69-1.56-4.72V8.3c0-2.03.52-3.61 1.56-4.72 1.04-1.11 2.54-1.67 4.5-1.67s3.46.56 4.5 1.67Zm-2.43 4.47c0-1.67-.69-2.51-2.07-2.51s-2.07.84-2.07 2.51v13.87c0 1.67.69 2.51 2.07 2.51s2.07-.84 2.07-2.51V8.05ZM0 8.9v6.23c1.47 0 2.67 1.2 2.67 2.67S1.47 20.47 0 20.47v6.23c4.91 0 8.9-3.98 8.9-8.9S4.91 8.9 0 8.9Z" opacity=".8"/><path d="M29.66 11.86c-1.52-.48-3.14-.74-4.82-.74-8.81 0-15.94 7.14-15.94 15.94 0 .88.07 1.75.21 2.6h9.91a6.385 6.385 0 0 1 5.83-8.98c1.92 0 3.65.85 4.82 2.2V11.85Z" opacity=".6"/><path d="M107.05 2.28h-5.88V27.7h3.99V17.35h1.89c1.99 0 3.47-.53 4.47-1.6.99-1.07 1.49-2.63 1.49-4.68V8.56c0-2.06-.5-3.62-1.49-4.68-.99-1.07-2.48-1.6-4.47-1.6Zm1.96 9.04c0 .87-.17 1.49-.51 1.85-.32.36-.8.54-1.45.54h-1.89V5.9h1.89c.65 0 1.14.18 1.45.54.34.36.51.98.51 1.85v3.01ZM94.18 2.28h3.99V27.7h-3.99V2.28Zm65.82 0V27.7h-3.78V8.45h-.07l-2.91 19.25h-3.34L147 8.45h-.07V27.7h-3.49V2.28h5.7l2.54 18.19h.07l2.54-18.19h5.7Zm-23.25 0h3.85v19.39c0 2.06-.51 3.64-1.53 4.76-1.02 1.09-2.49 1.63-4.43 1.63s-3.41-.54-4.43-1.63c-1.02-1.11-1.52-2.7-1.52-4.76V2.28h3.99v19.68c0 .87.17 1.5.51 1.89.36.39.87.58 1.53.58s1.15-.19 1.49-.58c.36-.39.55-1.02.55-1.89V2.28ZM125.6 17.42c.63 1.19.94 2.58.94 4.18 0 2.08-.52 3.68-1.56 4.79-1.02 1.11-2.51 1.67-4.47 1.67s-3.4-.54-4.39-1.63c-.99-1.11-1.49-2.7-1.49-4.76v-1.45h3.78v1.74c0 1.65.69 2.47 2.07 2.47.68 0 1.19-.19 1.53-.58.36-.41.54-1.07.54-1.96 0-1.07-.24-2-.73-2.8-.48-.82-1.38-1.8-2.69-2.94-1.65-1.45-2.8-2.76-3.45-3.92-.65-1.19-.98-2.52-.98-3.99 0-2.01.51-3.56 1.52-4.65 1.02-1.11 2.49-1.67 4.43-1.67s3.35.56 4.32 1.67c.99 1.09 1.49 2.66 1.49 4.72v1.05h-3.78V8.05c0-.87-.17-1.5-.51-1.89-.34-.41-.84-.62-1.49-.62-1.33 0-2 .81-2 2.43 0 .92.24 1.78.73 2.58.51.8 1.42 1.77 2.72 2.91 1.67 1.45 2.82 2.77 3.45 3.96ZM18.55 0h9.55c-.74 6.67-6.4 11.86-13.27 11.86S2.3 6.67 1.56 0h9.55c.59 1.48 2.03 2.52 3.72 2.52S17.96 1.48 18.55 0Z"/></svg>