<?xml version="1.0" encoding="utf-8"?>
<!-- Generator: Adobe Illustrator 28.0.0, SVG Export Plug-In . SVG Version: 6.00 Build 0)  -->
<svg version="1.1" id="Layer_1" xmlns="http://www.w3.org/2000/svg" xmlns:xlink="http://www.w3.org/1999/xlink" x="0px" y="0px"
	 viewBox="0 0 198.1 30" style="enable-background:new 0 0 198.1 30;" xml:space="preserve">
<style type="text/css">
	.st0{fill-rule:evenodd;clip-rule:evenodd;}
</style>
<path class="st0" d="M110.1,27.5c1.2,0.7,2.7,1,4.2,1c1.1,0,2.1-0.1,3-0.4c0.9-0.3,1.8-0.7,2.5-1.2l0.4,1.4l6.8-0.4v-0.4l-0.4-0.1
	c-0.5-0.1-0.8-0.4-1-0.7c-0.2-0.3-0.3-0.8-0.3-1.3V5.9l0.2-5.6L125,0l-7.2,1.8v0.4l0.8,0.2c0.6,0.1,0.9,0.3,1.1,0.6
	c0.2,0.3,0.3,0.7,0.3,1.2v5.2c-0.7-0.4-1.4-0.7-2.3-0.8c-0.8-0.2-1.7-0.3-2.7-0.3c-1.6,0-3.1,0.4-4.4,1.2c-1.4,0.7-2.4,1.9-3.3,3.4
	c-0.8,1.5-1.2,3.4-1.2,5.8c0,2.3,0.4,4.2,1.1,5.7C107.9,25.7,108.9,26.8,110.1,27.5z M119.7,26c-0.9,0.7-2,1-3.1,1
	c-1.4,0-2.5-0.6-3.3-1.9c-0.8-1.3-1.3-3.5-1.3-6.7c0-3.2,0.5-5.5,1.4-6.9c0.9-1.5,2-2.2,3.3-2.2c1,0,2,0.3,3,1V26z M55.3,27.9v-0.4
	l0.8-0.3c0.9-0.3,1.4-1,1.4-2.3V4.6c0-0.5-0.1-1-0.2-1.3c-0.1-0.3-0.4-0.6-0.9-0.8l-1-0.5V1.6H63l7.4,19.3l6.9-19.3h7.8V2l-0.6,0.2
	c-0.5,0.2-0.8,0.5-1,0.8c-0.2,0.3-0.3,0.7-0.3,1.3v20.8c0,0.5,0.1,0.9,0.2,1.2c0.1,0.3,0.5,0.5,1,0.8l0.8,0.4v0.4h-9.9v-0.4l0.8-0.4
	c0.5-0.2,0.8-0.5,1-0.8c0.1-0.3,0.2-0.7,0.2-1.2v-9l0.1-11.4l-8.3,23.1h-2L58.3,5.1l0.1,9.9v10c0,0.6,0.1,1.1,0.2,1.4
	c0.2,0.3,0.5,0.6,1,0.8l0.9,0.3v0.4H55.3z M95.7,8.2c1.7,0,3.2,0.4,4.4,1.1c1.2,0.7,2.1,1.6,2.8,2.9c0.7,1.2,1,2.6,1,4.1
	c0,0.3,0,0.6,0,0.9c0,0.3-0.1,0.6-0.2,0.8H91.8c0,2.9,0.5,4.9,1.5,6.2c1,1.2,2.5,1.9,4.5,1.9c1.3,0,2.4-0.2,3.2-0.6
	c0.8-0.4,1.6-1,2.3-1.9l0.4,0.4c-0.8,1.5-1.9,2.6-3.3,3.4c-1.4,0.8-3,1.2-4.9,1.2c-1.9,0-3.6-0.4-5-1.2c-1.5-0.8-2.6-2-3.4-3.5
	c-0.8-1.5-1.2-3.3-1.2-5.4c0-2.2,0.5-4,1.4-5.5c1-1.5,2.2-2.7,3.7-3.5C92.5,8.6,94.1,8.2,95.7,8.2z M95.6,9c-0.8,0-1.4,0.2-2,0.7
	c-0.5,0.5-1,1.3-1.3,2.5c-0.3,1.2-0.5,2.8-0.5,5h6.8c0.3-2.9,0.2-5-0.3-6.2C97.8,9.6,96.9,9,95.6,9z M133.5,6.1
	c-0.9,0-1.7-0.3-2.3-0.8c-0.6-0.6-0.9-1.3-0.9-2.2c0-0.9,0.3-1.6,0.9-2.2c0.6-0.6,1.4-0.8,2.3-0.8c0.9,0,1.7,0.3,2.3,0.8
	c0.6,0.6,0.9,1.3,0.9,2.2c0,0.9-0.3,1.6-0.9,2.2C135.2,5.8,134.4,6.1,133.5,6.1z M128.8,27.9v-0.4l0.6-0.2c0.5-0.2,0.9-0.4,1.1-0.7
	c0.2-0.3,0.3-0.7,0.3-1.3V12.9c0-0.6-0.1-1-0.3-1.2c-0.2-0.3-0.5-0.5-1.1-0.6l-0.6-0.1v-0.4l7.3-2.3l0.4,0.4l-0.1,5.7v11.1
	c0,0.5,0.1,1,0.3,1.3c0.2,0.3,0.6,0.6,1.1,0.7l0.4,0.1v0.4H128.8z M144.7,27.3c1.5,0.8,3.2,1.2,5.3,1.2c2,0,3.8-0.4,5.2-1.2
	c1.5-0.8,2.6-2,3.4-3.5c0.8-1.5,1.2-3.4,1.2-5.5c0-2.1-0.4-3.9-1.3-5.4c-0.8-1.5-2-2.7-3.5-3.5c-1.5-0.8-3.2-1.2-5.1-1.2
	c-1.9,0-3.6,0.4-5.1,1.2c-1.5,0.8-2.7,2-3.5,3.5c-0.8,1.5-1.3,3.3-1.3,5.4s0.4,3.9,1.2,5.4C142.1,25.2,143.2,26.4,144.7,27.3z
	 M152.2,26.9c-0.6,0.5-1.3,0.8-2.2,0.8s-1.7-0.3-2.3-0.8c-0.6-0.5-1-1.5-1.2-2.8c-0.2-1.4-0.4-3.3-0.4-5.7c0-2.5,0.1-4.4,0.4-5.8
	c0.3-1.4,0.7-2.3,1.2-2.8C148.3,9.2,149,9,150,9s1.7,0.3,2.2,0.8c0.6,0.5,1,1.5,1.2,2.8c0.3,1.4,0.4,3.3,0.4,5.8
	c0,2.5-0.1,4.4-0.4,5.7C153.2,25.4,152.8,26.4,152.2,26.9z M161.6,27.9v-0.4l0.6-0.2c0.5-0.2,0.9-0.4,1.1-0.7
	c0.2-0.3,0.3-0.7,0.3-1.2V12.9c0-0.6-0.1-1-0.3-1.3c-0.2-0.3-0.5-0.5-1.1-0.6l-0.6-0.2v-0.4l6.8-2.3l0.4,0.4l0.4,3.4v0.3
	c0.4-0.7,0.8-1.4,1.4-2c0.6-0.6,1.3-1.2,2-1.6c0.7-0.4,1.5-0.6,2.2-0.6c1,0,1.8,0.3,2.3,0.8c0.5,0.6,0.8,1.3,0.8,2.1
	c0,0.9-0.3,1.6-0.8,2.1c-0.5,0.5-1.1,0.7-1.8,0.7c-1.1,0-2.1-0.6-2.9-1.7l-0.1-0.1c-0.3-0.4-0.6-0.6-0.9-0.6c-0.3-0.1-0.7,0.1-1,0.5
	c-0.3,0.2-0.5,0.5-0.7,0.9c-0.2,0.3-0.3,0.7-0.5,1.1v11.1c0,1.1,0.5,1.7,1.4,2l1.3,0.4v0.4H161.6z M180.2,27.2
	c1.1,0.9,2.4,1.3,3.9,1.3c1.3,0,2.4-0.3,3.2-0.9c0.8-0.6,1.7-1.3,2.5-2.2c0.2,0.9,0.7,1.6,1.3,2.2c0.7,0.5,1.6,0.8,2.8,0.8
	c1.1,0,1.9-0.2,2.5-0.5c0.6-0.3,1.2-0.8,1.7-1.5l-0.4-0.3h-0.9c-1.1,0-1.7-0.6-1.7-1.8v-8.8c0-2.6-0.6-4.5-2-5.6
	c-1.3-1.2-3.1-1.8-5.5-1.8c-1.5,0-2.8,0.2-4.1,0.6c-1.2,0.4-2.3,0.9-3,1.7c-0.7,0.7-1.1,1.7-1.1,2.7c0,0.7,0.2,1.3,0.7,1.7
	c0.5,0.4,1,0.6,1.7,0.6c0.7,0,1.4-0.3,1.9-0.8c0.5-0.5,0.8-1.4,0.8-2.5l0.1-0.4c0.1-1,0.3-1.7,0.7-2.1c0.4-0.4,0.9-0.6,1.5-0.6
	c0.9,0,1.6,0.4,2,1.1c0.5,0.7,0.7,2,0.7,3.8V17c-0.6,0.1-1.1,0.2-1.7,0.3c-0.5,0.1-1,0.2-1.4,0.2c-2.7,0.5-4.7,1.3-6,2.4
	c-1.3,1-1.9,2.2-1.9,3.4C178.7,25.1,179.2,26.3,180.2,27.2z M188,25.7c-0.5,0.2-0.9,0.4-1.5,0.4c-0.7,0-1.3-0.3-1.8-0.8
	c-0.5-0.6-0.8-1.4-0.8-2.5c0-1.3,0.4-2.3,1.1-3c0.7-0.8,1.7-1.3,2.9-1.6c0.3-0.1,0.7-0.1,0.9-0.2l0.8-0.2v6.7
	C189.1,25.1,188.5,25.5,188,25.7z M29.3,15.3c0,8.1-6.6,14.7-14.7,14.7C6.6,30,0,23.4,0,15.3C0,7.2,6.6,0.7,14.7,0.7
	C22.8,0.7,29.3,7.2,29.3,15.3z M46.1,15.3c0,8.1-3.3,14.7-7.3,14.7s-7.3-6.6-7.3-14.7c0-8.1,3.3-14.7,7.3-14.7S46.1,7.2,46.1,15.3z"
	/>
</svg>
