<svg xmlns="http://www.w3.org/2000/svg" xml:space="preserve" style="enable-background:new 0 0 263 25" viewBox="0 0 263 25"><path d="M104.1 16.8c0 .3-.1.5-.3.6-.2.1-.5.2-.7.1h-1.7v-1.4h1.8c.3 0 .5 0 .7.1.1.1.2.3.2.6zm-7.4-.7h-1.8v1.6h1.9c.5 0 .9-.3.9-.8-.1-.6-.4-.8-1-.8zm27 1c.5.6.7 1.3.7 2 0 1.8-1.2 3-3.3 3h-2.8c-.4 0-.7-.3-.9-.6-.6.5-1.4.6-2.2.6h-2.8c-.2 0-.3 0-.5-.1-.1.1-.3.1-.5.1h-4.8c-.2 0-.3 0-.5-.1-.2.1-.3.1-.5.1h-1.5c-.5 0-1-.5-1-1v-1.3h-.8V21c0 .6-.5 1-1 1h-1.5c-.5 0-1-.5-1-1v-1.6c-.6.4-1.5.6-2.2.6h-.8v1c0 .6-.5 1-1 1H92c-.3 0-.5-.1-.7-.4l-1.1-1.2-1.1 1.2c-.1.2-.4.4-.7.4h-5.7c-.5 0-1-.5-1-1v-6.2c0-.6.5-1 1-1h5.8c.3 0 .5.1.7.4l1.1 1.2 1.1-1.2c.2-.2.5-.4.7-.4h4.7c.8 0 1.6.2 2.3.6.2-.4.5-.6.9-.6h3.4c.7-.1 1.6.1 2.2.4.1 0 .1.1.2.2.2-.4.5-.6.9-.6h4.8c.4 0 .7.2.8.6.5-.4 1.3-.6 1.9-.6h2.9c.5 0 .8.3.9.6.6-.5 1.4-.7 2.1-.6h2.9c.5 0 1 .5 1 1v1.3c.1.4-.1.7-.3 1 0-.1 0-.1 0 0zm-24.5-.2c0-1.8-1.3-2-2.5-2H92l-1.8 2-1.8-2h-5.8V21h5.7l1.8-2 1.8 2h2.8v-2h1.8c1.4-.1 2.7-.4 2.7-2.1zm5.6 1.2c.6-.3 1.1-.9 1-1.7 0-.6-.3-1.1-.7-1.4-.5-.3-1.2-.4-1.7-.3H100V21h1.5v-2.2h1.6c.5 0 .8.1 1.1.3.3.3.3.8.3 1.2v.7h1.5v-1.2c0-.4 0-.8-.3-1.1-.5-.3-.7-.4-.9-.6zm6.6-3.2h-4.8V21h4.8v-1.3H108v-1.3h3.3v-1.3H108V16h3.4v-1.1zm6 4.1c0-.5-.1-.9-.5-1.3-.5-.4-1.1-.6-1.6-.5h-.8c-.2 0-.4 0-.5-.1-.3-.1-.4-.4-.3-.6 0-.1.1-.2.2-.2.2-.1.4-.1.5-.1h2.6V15h-2.9c-1.6 0-2.1.9-2.1 1.8 0 1.9 1.7 1.8 3.1 1.9.2 0 .4 0 .5.1.1.1.2.3.2.4 0 .2-.1.3-.2.4-.2.1-.4.2-.5.2h-2.8V21h2.8c1.5 0 2.3-.6 2.3-2zm6 0c0-.5-.1-.9-.5-1.3-.5-.4-1.1-.6-1.6-.5h-.8c-.2 0-.4 0-.5-.1-.3-.1-.4-.4-.3-.6 0-.1.1-.2.2-.2.2-.1.4-.1.5-.1h2.6V15h-2.9c-1.6 0-2.1.9-2.1 1.8 0 1.9 1.7 1.8 3.1 1.9.2 0 .4 0 .5.1.1.1.2.3.2.4 0 .2-.1.3-.2.4-.2.1-.4.2-.5.2h-2.8V21h2.8c1.5 0 2.3-.6 2.3-2zM109.2 5.3l-1 2.5h2l-1-2.5zM97.6 6.7c.2-.1.3-.4.3-.6 0-.2-.1-.5-.3-.6-.2-.1-.5-.1-.7-.1h-1.8v1.4h1.7c.4.1.6 0 .8-.1zm-4.2 13.7v-5l-2.3 2.4 2.3 2.6zm-11.5-8.9c-.4 0-.7-.3-.9-.6l-.2-.5c0 .6-.5 1-1 1h-2.9c-.4 0-.7-.3-.9-.6l-.3-.8H74l-.3.7c-.2.4-.5.6-.9.6h-1.6c-.5 0-1-.5-1-1 0-.1 0-.3.1-.4L73 3.8c.2-.4.5-.6.9-.6h1.8c.4 0 .7.3.9.6l.5 1.3v-.9c0-.6.5-1 1-1h2.4c.4 0 .7.3.9.6l.9 2.1.8-2c.2-.4.5-.6.9-.6h2.6c.2 0 .4.1.5.2.2-.1.4-.2.5-.2h4.8c.2 0 .4.1.5.2.2-.1.4-.2.5-.2h3.4c.8-.1 1.6.1 2.3.5.1 0 .1.1.2.2.2-.4.5-.6.9-.6h1.5c.5 0 .9.4 1 .8.7-.6 1.7-.9 2.7-.8h1.4c.2 0 .5.1.6.2.2-.1.4-.2.6-.2h2.2c.4 0 .7.3.9.6l.5 1.3v-1c0-.6.5-1 1-1h2.2c.4 0 .6.2.8.5l.7 1.2v-.7c0-.6.5-1 1-1h1.5c.5 0 1 .5 1 1v6.2c0 .6-.5 1-1 1h-2.1c-.4 0-.6-.2-.8-.5l-.9-1.5v1c0 .6-.5 1-1 1h-3c-.4 0-.7-.3-.9-.6l-.3-.7h-1.6l-.3.7c-.2.4-.5.6-.9.6h-1.7c-.9 0-1.9-.3-2.6-.8-.1.5-.5.8-1 .8h-1.6c-.2 0-.3 0-.5-.1-.2.1-.3.1-.5.1H98c-.5 0-1-.5-1-1V9.4h-.8v1.2c0 .6-.5 1-1 1h-1.5c-.2 0-.4-.1-.5-.2-.2.1-.4.2-.5.2h-4.8c-.2 0-.4-.1-.5-.2-.2.1-.4.2-.5.2h-1.5c-.5 0-1-.5-1-1l-.4.5c-.2.4-.5.6-.9.6l-1.2-.2zm20.7-4.1c-.1.8.2 1.8.8 2.3.6.5 1.4.7 2.1.6h1.7l.5-1.4h3l.5 1.4h2.9V5.7l2.7 4.6h2.1v-6h-1.5v4.2l-2.6-4.2h-2.2v5.8l-2.5-5.8h-2.2l-2.1 4.8h-.6c-.4 0-.7-.1-1-.3-.3-.5-.5-.9-.4-1.5 0-.5.1-1 .5-1.4.3-.3.7-.5 1.1-.4h1.4V4.3h-1.4c-.8-.1-1.6.2-2.2.7-.4.6-.7 1.5-.6 2.4zm3-.8c-.4 0-.4 0-.5.1-.1.1-.1.4-.1.6 0 .3 0 .5.1.7h.3l.6-1.5h-.4zm-5.2-2.3v6.2h1.5V4.3h-1.5zm-6.8 6.1h1.5V8.1h1.6c.4-.1.7 0 1.1.3.1.4.2.8.2 1.2v.7h1.5V9.1c.1-.4 0-.8-.3-1.1-.2-.3-.5-.4-.7-.6.6-.3 1-.9 1-1.7 0-.6-.3-1.1-.7-1.4-.5-.3-1.2-.4-1.7-.3h-3.4v6.4zm-5.8-6.1v6.2h4.8V9.1h-3.4V7.9h3.3V6.7h-3.3V5.5h3.4V4.3h-4.8zm-5.9 6.1h1.3l2.1-4.9v4.8h1.5v-6h-2.5l-1.7 4.2-1.9-4.2h-2.4v5.8l-2.5-5.8h-2.2L71 10.5h1.6l.4-1.4h3l.5 1.4h2.9v-5l2.5 4.9zm2.1 5.8v1.1h3.2v1.2H84v1.2h3.6l1.6-1.8-1.6-1.8-3.6.1zM73.6 7.8h2l-1-2.5-1 2.5zm92.5 9.3c-1.2-1-2.1-2.2-2.7-3.6-.3-.6-.5-1.4-.7-2.1-.2-.7-.3-1.6-.2-2.3.1-2.7 1.2-5.2 3-7l.5-.5.1-.1c-1.3-.9-2.8-1.4-4.4-1.5-5.1-.4-9.5 3.5-9.9 8.6v.7c0 1.8.5 3.6 1.6 5.2 2.7 4.2 8.4 5.4 12.7 2.6zm1.7 6.5v.3H166c0 .4.4.6.7.6.3 0 .5-.1.7-.3l.3.4c-.3.3-.6.4-1 .4-.7 0-1.3-.6-1.3-1.3 0-.7.5-1.3 1.3-1.3.6 0 1.1.6 1.1 1.2zm-.5-.1c0-.4-.3-.6-.6-.6-.4 0-.6.3-.6.6h1.2zm4.1-.6c.3 0 .5.1.6.2l.3-.5c-.3-.2-.5-.3-.9-.3h-.1c-.6 0-1.2.6-1.2 1.3v.1c0 .6.6 1.2 1.3 1.2.3 0 .6-.1.9-.3l-.3-.5c-.2.2-.4.2-.6.2-.4 0-.7-.4-.7-.7-.1-.2.2-.6.7-.7zm-1.8-.5c-.3 0-.5.1-.6.4v-.3h-.5v2.4h.5v-1.4c0-.4.2-.6.5-.6.1 0 .2 0 .4.1l.2-.5c-.3-.1-.5-.1-.5-.1zm6.6.4v-.3h-.5v2.4h.5v-1.4c0-.4.2-.6.5-.6.1 0 .2 0 .4.1l.2-.5c-.1 0-.3-.1-.4-.1-.3 0-.5.1-.7.4zm3.2-1.3h.5v3.4h-.5v-.3c-.2.3-.5.4-.7.4-.7 0-1.3-.6-1.3-1.3 0-.7.5-1.3 1.3-1.3.3 0 .5.1.7.4v-1.3zm0 2.3c0-.4-.3-.7-.7-.8-.4 0-.7.3-.7.7 0 .4.3.7.7.8.3.1.7-.3.7-.7zm-4.9-1.3h.5v2.4h-.5v-.3c-.2.3-.5.4-.7.4-.7 0-1.3-.6-1.3-1.3 0-.7.5-1.3 1.3-1.3.3 0 .5.1.7.4v-.3zm0 1.3c0-.4-.3-.7-.7-.8-.4 0-.7.3-.7.7 0 .4.3.7.7.8.3.1.7-.3.7-.7zm-7.2-22.2s0 .1.1.2c1.1.9 2 2.1 2.6 3.5.7 1.7 1 3.5.8 5.3-.1.8-.3 1.7-.5 2.4-.5 1.2-1.1 2.2-1.9 3.1-.3.4-.6.6-1 1l-.1.1c3.1 2 7.1 2 10.1 0 4.3-2.9 5.4-8.6 2.6-12.9-2.8-4.4-8.5-5.6-12.7-2.7zm-2.8 22.9c-.3 0-.4-.2-.4-.4V23h.8v-.5h-.8v-.7h-.5v.7h-.5v.5h.5v1.1c0 .6.2.9.8.9.3 0 .5-.1.6-.2l-.2-.5c0 .2-.2.2-.3.2zm-1.4-15.2c0 2.9 1.3 5.6 3.6 7.4 0 0 .1 0 .1-.1 2.1-1.8 3.4-4.3 3.5-7.1 0-.6 0-1.2-.2-1.8-.2-.8-.4-1.7-.8-2.5-.5-1.2-1.5-2.3-2.5-3.2 0 0-.1-.1-.2-.1-2.2 1.9-3.5 4.6-3.5 7.4zm-3.6 13.2h.5v2.4h-.5v-.3c-.2.3-.5.4-.7.4-.7 0-1.3-.6-1.3-1.3 0-.7.5-1.3 1.3-1.3.3 0 .5.1.7.4v-.3zm.1 1.3c0-.4-.3-.7-.7-.8-.4 0-.7.3-.7.7 0 .4.3.7.7.8.3.1.7-.3.7-.7zm-2.5-.5c0-.5-.5-.9-.9-.8-.4 0-.6.2-.8.5-.2-.3-.5-.5-.8-.5-.3 0-.5.1-.7.4v-.3h-.5V25h.5v-1.5c0-.3.3-.6.6-.6.4 0 .5.2.5.6v1.4h.5v-1.5c0-.3.3-.6.6-.6.4 0 .5.2.5.6v1.4h.5v-1.6.1zm4.8.1h-.3c-.3 0-.5-.1-.5-.3s.2-.3.5-.3.5.1.7.2l.3-.5c-.3-.2-.6-.3-1-.3-.6 0-1 .3-1 .8 0 .4.3.6.8.7h.3c.3 0 .5.1.5.3 0 .2-.2.3-.5.3s-.5-.1-.8-.3l-.3.5c.3.2.6.4 1.1.3.7 0 1.1-.4 1.1-.8 0-.2-.4-.5-.9-.6zm98.4-17h.5v1.3h.3V6.4h.5v-.2h-1.2v.2zm2.4-.3-.4 1c-.1.2-.1.2-.1.3-.1-.1-.1-.1-.1-.2l-.4-1h-.3v1.4h.1V6.3l.5 1.3h.3l.5-1.3v1.3h.2V6.1h-.3zm-28.2 2.3-2.8 5-.5-5h-2.8l1.2 8.8-2 3.8h3.2l6.8-12.5h-3.1zm-7.3 3.1-1.3 5.8h-2.8l.2-1c-1.5 1.6-5.3 1.5-4.7-2 .5-2.1 2.6-2.8 5.7-2.8.2-1-.5-1.2-1.5-1.2-.9.1-1.8.3-2.7.6l.3-2c1-.3 2.1-.5 3.2-.6 1.9 0 4.1.8 3.6 3.2zm-3.3 2.3h-.7c-.5 0-1.4 0-1.6.6-.5.7.1 1.1.7 1.1.7-.1 1.3-.4 1.5-1.1 0-.3.1-.6.1-.6zm-4.5-3.5c-.4 2.1-2.2 3.6-4.3 3.5h-2.2l-.8 3.6H209l2.3-11.6h5.3c1.4-.1 3.3 1.9 2.8 4.5zm-2.9-.5c.2-.6-.1-1.1-.6-1.3-.2-.1-.3-.1-.5-.1h-1.5l-.6 2.7h1.5c.7 0 1.5-.6 1.7-1.3zm38.3 1.7-1.3 5.8h-2.8l.2-1c-1.5 1.6-5.4 1.5-4.7-2 .5-2.1 2.6-2.8 5.7-2.8.2-1-.5-1.2-1.5-1.2-.9.1-1.8.3-2.7.6l.3-2c1.1-.3 2.2-.5 3.3-.6 1.8 0 3.9.8 3.5 3.2zm-3.3 2.3h-.7c-.6 0-1.5 0-1.7.6-.4.7.2 1.1.8 1.1.7-.1 1.4-.4 1.5-1.1-.1-.3 0-.6.1-.6zm-4.7-3.5c-.4 2.1-2.2 3.6-4.3 3.5h-2.2l-.8 3.6h-3.1l2.3-11.6h5.2c1.6-.1 3.4 1.9 2.9 4.5zm-3-.5c.2-.6-.1-1.1-.6-1.3-.2-.1-.3-.1-.5-.1h-1.5l-.6 2.7h1.4c.9 0 1.7-.6 1.8-1.3zm11.1 7.6h2.8l2.4-11.6h-2.9l-2.3 11.6zm-212.3-.5c-.2.1-.2.1-.3.1h-2.9c-.1-.6-.3-1.3-.4-1.8 0-.1 0-.1-.1-.1h-4.3c-.1 0-.1 0-.1.1s-.1.3-.1.4c-.1.3-.2.6-.3.7-.1.3-.2.5-.3.7 0 .1-.1.1-.1.1h-3.6V17c.2-.6.5-1.1.6-1.7.2-.5.4-.9.5-1.3l.5-1.1c0-.1.1-.2.1-.2l.5-1.1c.1-.2.2-.4.2-.6l.4-.8c0-.1 0-.1.1-.2l.5-1.2s0-.1.1-.1l.5-1c0-.1.1-.2.1-.3l.5-1.1c0-.1.1-.1.1-.2l.6-1.6c.1-.2.4-.5.6-.7h.1c.2-.1.5-.2.7-.2H40c.1 0 .1 0 .1.1.4 1.6.6 3.2 1 4.8l1.1 5.5c.1.5.2.8.3 1.3-.1.4 0 .9.1 1.6zm-4.2-4.7c-.1-.2-.1-.5-.2-.6-.3-1.2-.5-2.5-.7-3.7v-.3c0-.2-.1-.3-.1-.4-.2.5-.3.8-.4 1.3v.2l-.5 1.7v.2c-.1.3-.3.6-.4.9v.2c-.1.1-.1.3-.2.5 0 .1 0 .1.1.1l2.4-.1c-.1-.1 0-.1 0 0zM15 6.3c.1-.2.2-.4.2-.5.2-.3.3-.6.4-.8.1-.1.1-.2.2-.4 0-.1.1-.2.1-.3l.4-.9h-3.7l-.1.3-.3.6c0 .4-.2.6-.3.9-.1.3-.3.6-.4.8-.1.3-.2.6-.3.7l-.5 1.4c0 .1-.1.2-.1.3l-.4 1-.5 1.4c0 .1-.1.1-.1.2l-.5 1.3-.1.3v-.1c-.1-.3-.1-.6-.2-.9-.1-.3-.1-.5-.2-.7v-.1l-.1-1.2-.6-2.8c-.2-.6-.3-1.3-.5-2 0-.8-.6-1.4-1.5-1.4H.1c0 .2-.1.3-.1.4v.1l.5.1c.5.1 1 .3 1.4.3l.4.2c.5.2.9.4 1.3.6.1.1.3.2.4.4 0 .1.2.4.2.7.2.7.4 1.5.6 2.3L6.3 14c.3 1 .5 1.9.7 2.8 0 0 0 .1.1.1h3.7c0-.1.1-.2.1-.4.1-.2.1-.3.2-.5.1-.3.3-.6.4-.9l.5-1.3v-.1l.5-1.2.3-.6c.1-.3.2-.6.4-.8.1-.2.2-.4.2-.5.1-.3.3-.6.4-.8l.1-.1v-.1l.4-1.3c.1-.3.3-.6.4-.8 0-.4.2-.8.3-1.2zm6.1-2.9h-3.5v.2L17.3 5c-.1.3-.1.5-.2.7l-.3 1.4c0 .1-.1.3-.1.4 0 .2-.1.3-.1.5l-.3 1.5c0 .1-.1.3-.1.4l-.2 1-.3 1.2-.2.9c0 .2-.1.4-.1.6l-.3 1.3c0 .1-.1.2-.1.3l-.4 1.7v.1h3.5v-.2c.1-.3.1-.6.2-.9 0-.2.1-.4.1-.6l.3-1.4.1-.4.1-.4v-.2l.3-1.2.3-1.5c.1-.2.1-.5.2-.6.1-.6.3-1.2.4-1.8.1-.3.1-.6.2-.9.2-.8.4-1.8.5-2.6.2-.3.3-.6.3-.9zm8.5 6.9c-.5-.6-1.2-1-1.8-1.3-.5-.3-.9-.5-1.4-.7h-.1c-.2-.1-.4-.3-.5-.5-.2-.2-.2-.4-.2-.6 0-.1.1-.3.2-.4.2-.3.5-.5.8-.6.2-.1.5-.1.6-.1h1.4c.3 0 .5.1.8.2.3.1.6.2.9.4h.1l.2-.7c.1-.3.1-.5.2-.7.1-.6.2-1 .2-1.4 0-.1 0-.1-.1-.1s-.1-.1-.2-.1l-1.1-.3h-.1c-.5-.1-1.1-.2-1.6-.2H27c-.2 0-.3 0-.5.1-.4 0-.6.1-.9.2-.3.1-.6.2-1 .4-.3.1-.5.3-.8.5-.3.2-.5.5-.8.7-.1.1-.1.2-.2.2-.2.3-.4.6-.5.8v.1c-.2.4-.3.8-.3 1.2-.1.5 0 1 .2 1.5.2.6.5.9.9 1.3.3.3.6.6 1 .7.3.2.5.3.8.5.1.1.3.1.4.2.2.1.3.2.5.3.2.1.5.3.6.5.2.2.3.4.4.6v.2c0 .2-.1.5-.3.6-.2.2-.4.3-.5.4-.1.1-.3.1-.4.1-.4.1-.7.1-1 .1h-.5c-.4 0-.7-.1-1.2-.2-.2 0-.4-.1-.5-.1-.2-.1-.4-.1-.5-.2-.3-.1-.5-.2-.7-.3 0 0-.1-.1-.1 0-.1.3-.1.6-.2.8-.2.6-.3 1.4-.5 2v.1c.3.1.6.3 1 .4.1 0 .3.1.4.1.1 0 .2.1.3.1.3.1.5.1.8.1h2.2c.3 0 .6-.1.9-.1.2 0 .4-.1.5-.1.4-.1.6-.2 1-.3.2-.1.5-.2.6-.4h.1c.3-.2.5-.4.7-.6.3-.3.5-.6.7-.9.5-.7.6-1.6.5-2.4.3-.9 0-1.6-.5-2.1z" style="opacity:.5;fill-rule:evenodd;clip-rule:evenodd;fill:#fff;enable-background:new"/></svg>