<?xml version="1.0" encoding="UTF-8"?><svg id="Layer_1" xmlns="http://www.w3.org/2000/svg" viewBox="0 0 82.94 100"><path d="m1.07,86.94h4.1v.99H0v-9.36h1.07s0,8.37,0,8.37Zm35.82-6.1v.02c-1.35.01-2.34.6-2.78,1.83-.29-1.16-1.2-1.83-2.53-1.83-1.27.01-2.22.54-2.69,1.63v-1.59h-1.03v7.03h1.03v-3.46c0-1.52.86-2.59,2.31-2.62,1.23,0,1.95.75,1.95,2.01v4.07h1.05v-3.46c0-1.52.84-2.59,2.3-2.62,1.22,0,1.95.75,1.95,2.01v4.06h1.04v-4.33c0-1.71-.97-2.74-2.62-2.74Zm-20.82,1.61v-1.55h-1.03v7.03h1.04v-3.73c.12-1.42,1.04-2.34,2.53-2.31v-1.02c-.53-.03-1.06.11-1.51.39-.45.28-.81.69-1.02,1.18Zm27.84,5.49v-9.37h-2.45v9.37h2.45Zm-30.71-3.53c0,2.1-1.47,3.57-3.57,3.57s-3.57-1.49-3.57-3.57,1.47-3.55,3.57-3.55v-.02c2.09,0,3.57,1.46,3.57,3.56Zm-1.04.01c0-1.55-1.06-2.63-2.53-2.63h0c-1.48-.01-2.53,1.06-2.53,2.63s1.06,2.65,2.53,2.65,2.53-1.09,2.53-2.65Zm12.18,3.28c-.49.2-1.01.3-1.54.28-2.07,0-3.5-1.46-3.5-3.56s1.44-3.55,3.49-3.56v-.02c2.27,0,3.4,1.57,3.28,3.96h-5.74c.05.64.34,1.23.82,1.66.48.43,1.1.66,1.74.64.41,0,.81-.07,1.18-.22.38-.15.71-.38,1-.67l.57.6c-.36.38-.8.69-1.29.89Zm-4.02-3.72h4.81c-.05-1.36-1-2.25-2.35-2.25s-2.31.88-2.46,2.25Zm36.44-1.27c0-.31.29-.45.68-.45.56-.02,1.38.25,2.27.72l.02.02.8-1.55c-.91-.55-1.95-.84-3.01-.84-1.7,0-2.97.83-2.97,2.34,0,2.5,3.73,2.01,3.73,3,0,.29-.32.44-.76.44-.93-.04-1.82-.35-2.57-.9l-.75,1.54c.94.69,2.09,1.05,3.26,1.03,1.77,0,3.06-.84,3.06-2.33.01-2.51-3.78-2.06-3.78-3.01Zm9.74,1.55c0,.95-.51,1.62-1.35,1.63-.71,0-1.15-.49-1.15-1.31v-3.89h-2.38v4.57c0,1.68,1.01,2.77,2.59,2.77.47.02.93-.09,1.34-.32s.75-.56.98-.96v1.18h2.38v-7.23h-2.4v3.57Zm-12.84.09c0,2.21-1.3,3.67-3.31,3.67-.42.01-.83-.07-1.21-.25-.38-.18-.71-.44-.97-.77v3.53h-2.38v-9.83h2.38v.94c.25-.33.57-.59.94-.76.37-.18.78-.26,1.19-.25v-.02c2.02,0,3.37,1.54,3.37,3.75Zm-2.39-.06c0-1.07-.65-1.81-1.56-1.81s-1.54.74-1.54,1.81.63,1.79,1.54,1.79,1.56-.72,1.56-1.79Zm29.09-3.69h-.02c-.54-.04-1.07.11-1.52.4-.45.29-.8.71-1.01,1.21-.36-1.01-1.23-1.62-2.4-1.62-.47-.02-.94.09-1.36.31-.42.23-.76.56-1,.97v-1.19h-2.36v7.23h2.38v-3.56c0-.95.54-1.62,1.38-1.63.74,0,1.19.49,1.19,1.32v3.88h2.38v-3.57c0-.95.52-1.62,1.36-1.63.74,0,1.19.49,1.19,1.32v3.88h2.38v-4.56c0-1.7-1.03-2.77-2.59-2.77Zm-37.36,14.82c-.27-.02-.53.04-.76.18-.23.13-.42.34-.53.58v-.74h-.49v3.33h.49v-1.78c0-.15.03-.29.09-.42.06-.13.14-.26.24-.36.1-.1.23-.18.36-.23.14-.05.28-.08.43-.07.13-.01.26,0,.38.05.12.04.23.11.32.2.09.09.16.2.2.32.04.12.06.25.04.38v1.92h.49v-2.05c0-.82-.47-1.31-1.27-1.31Zm-27.88.86c0-.32.29-.45.66-.45.32,0,.62.1.89.26h0l.19-.38c-.32-.2-.69-.31-1.07-.3-.61,0-1.15.27-1.15.91,0,1.18,1.86.77,1.84,1.58,0,.34-.32.49-.72.49-.41,0-.8-.15-1.11-.43l-.19.36c.35.31.81.48,1.28.47.64,0,1.22-.29,1.22-.94,0-1.2-1.86-.81-1.86-1.57Zm4.71,2.49h.49v-4.7h-.49v4.7Zm38.54-1.48h-2.73c.02.3.16.59.39.79.23.2.52.31.82.3.19,0,.38-.03.56-.1.18-.07.34-.18.47-.32l.27.29c-.17.18-.38.33-.61.42-.23.1-.48.14-.73.13-.45,0-.88-.18-1.19-.49-.32-.32-.49-.75-.49-1.19s.18-.88.49-1.19c.32-.32.74-.49,1.19-.49,1.08,0,1.61.74,1.55,1.87Zm-.44-.39c0-.14-.03-.29-.08-.42-.06-.13-.14-.25-.24-.35-.1-.1-.23-.18-.36-.23-.14-.05-.28-.07-.42-.06-.3-.01-.58.09-.8.29-.22.2-.35.48-.36.77h2.28Zm3.8-.72v-.74h-.49v3.33h.49v-1.78c0-.15.03-.3.1-.44.06-.14.15-.26.26-.37.11-.1.24-.18.39-.23.14-.05.3-.07.45-.06v-.48c-.25,0-.5.06-.72.2-.21.14-.38.34-.48.57Zm-23.63.39v2.2h-.46v-.52c-.15.18-.33.33-.55.42-.21.09-.45.13-.68.12-.7,0-1.15-.43-1.15-1.01s.46-.96,1.25-.96h1.1v-.21c0-.5-.3-.78-.89-.78-.39.01-.76.15-1.06.38l-.21-.35c.39-.3.87-.45,1.36-.45.82,0,1.29.44,1.29,1.15Zm-.48.65h-1.04c-.57,0-.86.18-.86.55s.3.61.77.61c.25.03.5-.04.7-.17.21-.14.36-.34.43-.58v-.4Zm-5.7-1.78h.49s0,2.97,0,2.97c0,.98-.67,1.59-1.68,1.59-.5,0-.98-.18-1.37-.49l.23-.36c.31.27.71.42,1.12.43.16.01.32,0,.46-.06.15-.05.28-.13.4-.24.11-.11.2-.24.26-.39.06-.15.09-.3.08-.46v-.49c-.12.22-.3.4-.51.53-.22.12-.47.18-.72.17-.9,0-1.52-.67-1.52-1.61-.01-.21.01-.41.08-.61.07-.19.18-.37.32-.52.14-.15.31-.27.5-.35.19-.08.4-.12.6-.12.25-.01.5.04.72.17.22.12.4.31.52.53v-.69Zm0,1.59c0-.24-.07-.47-.2-.67-.13-.2-.32-.35-.54-.44-.22-.09-.46-.11-.7-.06-.23.05-.45.17-.61.34-.17.17-.28.39-.32.62-.04.23-.01.48.09.69.1.22.26.4.46.53.2.13.44.19.68.18.15,0,.31-.03.45-.09.14-.06.27-.15.38-.26.11-.11.19-.24.25-.39.06-.14.08-.3.07-.45Zm-5.41-.59c.08.21.12.43.11.66,0,.33-.1.66-.28.94-.18.28-.45.49-.75.62-.31.13-.65.16-.97.1-.33-.06-.63-.22-.86-.46-.24-.23-.4-.53-.46-.86-.07-.33-.03-.67.09-.97.13-.31.34-.57.62-.76.28-.19.6-.29.93-.29.22-.01.44.02.65.1.21.08.4.2.56.36s.29.35.37.56Zm-.38.15c-.1-.23-.27-.42-.49-.55s-.46-.2-.71-.18h0c-.16,0-.32.03-.47.09-.15.06-.28.16-.4.27-.11.12-.2.26-.25.41-.06.15-.08.31-.07.47,0,.25.07.5.21.7.14.21.34.37.57.46.23.09.49.12.73.06.24-.05.47-.18.64-.36.17-.18.29-.41.33-.66.04-.25.01-.5-.09-.73Zm24.98-1.17c-.61,0-1.07.25-1.3.77v-2.12h-.49v4.7h.49v-1.63c0-.73.42-1.23,1.13-1.24.13-.01.26,0,.38.05.12.04.23.11.32.2.09.09.16.2.2.32.04.12.06.25.04.38v1.92h.51v-2.05c0-.81-.48-1.3-1.28-1.3Zm-26.19,0s0,0,0,0c0,0,0,0,0,0h0Zm43.55,1.87h-2.72c.02.3.16.58.39.79s.52.31.82.3c.19,0,.38-.03.56-.1.18-.07.34-.18.47-.32l.27.29c-.17.18-.38.32-.61.42-.23.1-.48.14-.73.13-.45,0-.88-.18-1.19-.49-.32-.32-.49-.75-.49-1.19s.18-.88.49-1.19c.32-.32.75-.49,1.19-.49,1.08,0,1.61.74,1.55,1.87Zm-.43-.39c0-.14-.03-.29-.08-.42-.06-.13-.14-.25-.24-.35-.1-.1-.23-.18-.36-.23-.14-.05-.28-.07-.42-.06-.3-.01-.58.09-.8.29-.22.2-.35.48-.36.77h2.28ZM48.62,27.1c2.05-1.98,4.33-3.71,6.78-5.17.06-.43.11-.86.16-1.29.05-.43.08-.81.11-1.21-2.75,1.87-5.26,4.09-7.47,6.58-2.08,2.36-3.87,4.96-5.32,7.76,1.7-2.39,3.62-4.62,5.74-6.66h0Zm4.75,1.3c-1.49.3-2.94.77-4.33,1.4-1.4.64-2.73,1.44-3.96,2.37l-.03-.04-.03-.04c1.51-1.25,3.1-2.4,4.76-3.45,1.56-.98,3.2-1.84,4.88-2.59.08-.34.15-.68.22-1.02.07-.34.12-.64.18-.95-2.39,1.24-4.64,2.73-6.72,4.43-2,1.64-3.83,3.47-5.46,5.48,2.33-1.75,5.02-2.96,7.87-3.55h0c3.23-.69,6.56-.78,9.82-.28-1.02-.68-2.15-1.19-3.34-1.49-1.26-.33-2.57-.42-3.87-.29Zm-10.73,5.29c.98-4.83,2.52-9.11,4.62-12.85h0c2.11-3.81,4.94-7.15,8.33-9.85-.07-.65-.14-1.3-.24-1.95-.09-.63-.2-1.26-.31-1.88-3.71,3.55-6.72,7.76-8.87,12.41-2.05,4.44-3.25,9.23-3.53,14.12Zm.23,13.92c1.49,5,4.04,9.61,7.47,13.54.86-.71,1.67-1.46,2.44-2.26-3.62-3.4-6.49-7.51-8.45-12.07-1.68-3.98-2.39-8.06-1.92-11.77-1.02,3.78-.81,8.15.46,12.55Zm8.87-16.14c-3,.51-5.92,1.41-8.69,2.68l.4-.1-.1.04c2.88-.63,5.8-1.03,8.74-1.22h0c3.74-.25,7.49-.27,11.22-.05-.22-.31-.46-.61-.72-.89-.27-.3-.56-.59-.86-.86-3.34-.29-6.7-.15-10,.4Zm-4.18-8.5c-2.14,3.32-3.75,6.95-4.8,10.75,1.45-3.39,3.31-6.6,5.53-9.55h0c2.12-2.82,4.66-5.29,7.52-7.33,0-.53.02-1.07,0-1.6-.02-.53-.02-1.01-.04-1.52-3.2,2.64-5.97,5.76-8.22,9.25Zm-4.61,11.38s.04,0,.06,0c-.02,0-.04,0-.06-.01h0Zm.39.28c3.42,1.63,6.94,3.04,10.54,4.2,3.59,1.16,7.28,2.02,11.01,2.59,3.05.37,12.73,3.79,16.35,4.88l-15.98-7.25c-4.48-.54-8.6-1.2-12.37-1.97-3.23-.65-6.42-1.47-9.56-2.45Zm-.43-.01s.04.03.06.04c-.02-.02-.04-.04-.06-.05h0Zm.1-.27c4.22.76,8.16,1.34,11.8,1.75,3.71.41,7.12.63,10.23.67-.07-.34-.15-.69-.26-1.02-.11-.35-.24-.69-.38-1.02-2.36-.5-5.35-.79-8.96-.86-3.54-.04-7.68.12-12.43.49Zm.22.25s.07.02.11.03c-.03-.02-.07-.03-.1-.05h0Zm13.94,8.45c.28-.51.52-1.05.72-1.59-2.71-.77-5.35-1.76-7.9-2.94-2.43-1.12-4.77-2.41-7.01-3.86,1.9,1.88,4.03,3.52,6.33,4.9,2.46,1.48,5.03,2.78,7.68,3.88l.19-.37Zm-14.75-8.04s0,.03,0,.04c0-.01,0-.03,0-.04h0Zm.45-.22c1.2,2.26,2.77,4.3,4.65,6.03,2.32,2.14,4.92,3.94,7.74,5.35.42-.5.8-1.04,1.12-1.61l.07-.11c-2.82-1.15-5.5-2.62-7.99-4.38-2.11-1.49-3.99-3.27-5.6-5.29Zm-.04-.05s.03.03.04.05c-.01-.02-.03-.04-.04-.07h0Zm-.69.14s-.01.02-.02.03c0,0,.01-.02.02-.03h0Zm-.44-.63c-1.89-.28-3.88-.66-5.97-1.15-2.41-.55-4.94-1.23-7.61-2.05h0c-2.49-.73-5.06-1.58-7.71-2.53-2.57-.92-5.22-1.95-7.94-3.08.14.71.31,1.41.5,2.1.19.69.4,1.38.64,2.09,4.32,1.46,8.75,2.55,13.25,3.25,4.92.76,9.88,1.22,14.85,1.37Zm.87.78s0,.03,0,.04c0-.02,0-.04,0-.06h0Zm-26.2.49c4.08.38,8.19.46,12.28.25,4.36-.22,8.71-.68,13.03-1.37-1.91.08-3.94.08-6.08,0-2.47-.09-5.09-.28-7.86-.57h0c-2.12-.21-4.3-.48-6.55-.81-2.18-.32-4.43-.7-6.74-1.15.27.62.57,1.23.86,1.83.29.6.67,1.22,1.03,1.82Zm32.15,26.99c-3.29-4.27-5.61-9.21-6.78-14.48-1.01-4.66-.87-9.21.52-13.03-1.98,3.75-2.71,8.48-2.24,13.47.57,5.61,2.42,11.01,5.39,15.8.53-.24,1.05-.51,1.57-.8.52-.29,1.03-.61,1.54-.96Zm-6.25-27.55s0,.02-.01.04c0-.01.01-.02.02-.04h0Zm4.18,6.23c-1.63-1.8-2.89-3.9-3.71-6.18h0c.49,2.4,1.46,4.69,2.83,6.73,1.7,2.62,4,5.1,6.64,7.36.34-.23.68-.47.99-.74.32-.26.62-.53.9-.79-2.94-1.89-5.59-4.02-7.65-6.38Zm-21.78-16.39h0c4.92,3.25,10.62,6.29,17.11,9.13-1.65-.96-3.36-2.04-5.13-3.26-2.03-1.4-4.14-2.97-6.32-4.71-2.9-2.28-5.87-4.82-8.9-7.61-2.94-2.7-5.94-5.65-8.99-8.85-.12.74-.22,1.47-.31,2.19-.09.73-.17,1.49-.23,2.21,3.4,3.87,7.66,7.5,12.78,10.89Zm-12.7-2.36c4.25,2.74,8.77,5.02,13.5,6.8,5.29,2.01,10.72,3.63,16.25,4.85-1.8-.63-3.69-1.38-5.65-2.24-2.26-.99-4.62-2.14-7.09-3.45h-.01c-2.76-1.42-5.6-3.02-8.53-4.78-2.83-1.71-5.75-3.59-8.73-5.63,0,.75.02,1.49.07,2.22s.11,1.47.19,2.22Zm30.54,11.26c-.07-6.07.86-11.51,2.8-16.31,2-4.94,5.15-9.32,9.19-12.79-.19-.78-.4-1.55-.63-2.32-.23-.78-.47-1.51-.73-2.26-4.27,4.6-7.46,10.1-9.33,16.09-1.77,5.7-2.22,11.72-1.3,17.62h0Zm-.39,1.22c-2.92,3.4-4.72,8.19-5.26,13.51-.57,5.93.29,11.9,2.5,17.43.64-.05,1.29-.14,1.92-.26.63-.12,1.25-.27,1.86-.46-2.73-5.1-4.24-10.77-4.4-16.55-.11-5.18,1.02-10,3.38-13.68Zm-6.35.82c-2.44.37-5.05.67-7.83.9h0c-1.67.14-3.4.26-5.17.35-1.72.09-3.49.15-5.3.18.36.5.73,1,1.12,1.48s.81.97,1.26,1.48c3.66-.49,7.29-1.2,10.87-2.13,3.53-.91,7.21-2.04,11.02-3.41-1.86.44-3.85.82-5.97,1.15Zm6.81-.66c-.06,2.51.35,5,1.22,7.35,1.12,3.06,2.69,5.94,4.66,8.53.39-.13.76-.26,1.13-.41.37-.15.7-.29,1.04-.47-2.32-2.31-4.27-4.94-5.81-7.83-1.2-2.23-1.96-4.66-2.25-7.18Zm-9.25,14.53c.4.13.8.28,1.18.47.84-3.69,1.78-6.58,3.04-9.08,1.06-2.11,2.44-4.05,4.07-5.76-2.09,1.86-3.97,3.94-5.62,6.2h0c-1.7,2.33-3.05,4.9-3.99,7.62.42.23.86.42,1.32.55Zm-.21-11.66c-4.02,1.46-7.93,2.87-11.2,4.33.38.38.79.77,1.21,1.15.42.39.86.76,1.31,1.13,2.74-2.3,7.52-4.76,12.32-7.23,1.72-.88,3.45-1.76,5.06-2.64-2.81,1.12-5.79,2.2-8.7,3.26h0Zm2.09,1.07c-2.93,2.01-6.07,4.45-8.64,7.06.5.36,1.03.68,1.58.96.41.22.82.45,1.18.68,2.59-3.35,4.55-5.65,6.53-7.64,1.94-1.91,3.99-3.7,6.14-5.37-1.72,1.01-4.18,2.49-6.8,4.31h0Z" stroke-width="0"/></svg>