<svg xmlns="http://www.w3.org/2000/svg" xml:space="preserve" style="enable-background:new 0 0 48 48" viewBox="0 0 48 48"><path d="M47.5 18.7c-.1-.6-.5-1-1.1-1.1-.1 0-1.9-.4-4.4-.5-.6-4-1.4-7-1.5-7.2-.2-.7-.9-1.1-1.7-1-.2 0-3.8.9-8 2.8-2.9-3.4-5.7-5.6-5.9-5.8-.5-.4-1.2-.4-1.7 0-.2.2-3.1 2.4-5.9 5.8C13 9.9 9.3 9 9.2 9c-.7-.2-1.5.3-1.7 1 0 .1-.9 3.2-1.5 7.2-2.5.1-4.3.4-4.4.5-.6.1-1 .5-1.1 1.1-.1.5-2.4 12.9 3.9 19.2 2.7 2.7 6.9 4.2 12.2 4.3h14.9c5.3-.1 9.5-1.6 12.2-4.3 6.2-6.3 3.9-18.7 3.8-19.3zm-9.3-6.6c.3 1.1.7 2.9 1 5-1.4.1-2.8.2-4.3.5-.7-1.3-1.4-2.5-2.3-3.6 2.2-.9 4.3-1.5 5.6-1.9zM24 8.9c1.1.9 2.9 2.6 4.8 4.9 2.5 3 5.5 7.5 5.5 12 0 7.3-8 12.3-10.3 13.6-2.3-1.3-10.3-6.2-10.3-13.6 0-2 .6-3.9 1.4-5.8 0 0 0-.1.1-.1 2.4-5.1 6.9-9.3 8.8-11zM9.8 12.1c1.3.4 3.3 1 5.6 2-.8 1.1-1.6 2.3-2.3 3.6-1.5-.3-2.9-.4-4.3-.5.4-2.2.8-4 1-5.1zM6.4 36C2 31.6 2.7 23.1 3.1 20.2c1.7-.2 5.2-.6 8.8.1-.7 1.8-1.1 3.6-1.1 5.5 0 4.3 2.2 8.5 6.3 12.2.7.6 1.3 1.1 2 1.6h-2.5c-3.1-.2-7.5-.9-10.2-3.6zm35.2 0c-2.7 2.7-7.1 3.4-10.3 3.5h-2.5c.6-.5 1.3-1 2-1.6 4.1-3.7 6.3-7.9 6.3-12.2 0-1.9-.4-3.7-1.1-5.5 3.6-.6 7.2-.3 8.8-.1.5 3 1.2 11.5-3.2 15.9z"/></svg>