<?xml version="1.0" encoding="UTF-8"?><svg id="Layer_1" xmlns="http://www.w3.org/2000/svg" viewBox="0 0 87.74 100"><path d="m41.81,82.61v4.57h-1.1v-4.3c0-1.33-.78-2.13-2.07-2.13-1.54.04-2.43,1.16-2.43,2.77v3.66h-1.12v-4.3c0-1.33-.77-2.13-2.07-2.13-1.53.04-2.45,1.16-2.45,2.77v3.68h-1.09v-7.44h1.06v1.68c.5-1.16,1.5-1.73,2.84-1.73s2.37.71,2.67,1.94c.47-1.3,1.51-1.94,2.94-1.94h.02c1.74,0,2.77,1.08,2.78,2.89Zm-27.84.86c0,2.22-1.56,3.78-3.78,3.78s-3.78-1.57-3.78-3.78,1.56-3.75,3.78-3.75v-.02c2.21,0,3.78,1.54,3.78,3.76Zm-1.1.02c0-1.64-1.12-2.79-2.67-2.79v-.02c-1.57,0-2.67,1.13-2.67,2.8s1.12,2.8,2.67,2.8,2.67-1.16,2.67-2.8Zm12.89,3.47c-.52.21-1.07.31-1.63.29-2.19,0-3.71-1.54-3.71-3.76s1.53-3.76,3.69-3.76v-.02c2.4,0,3.59,1.65,3.48,4.19h-6.08c.05.68.36,1.31.86,1.76.5.45,1.16.69,1.84.67.43,0,.85-.07,1.25-.23.4-.16.75-.41,1.05-.71l.61.64c-.38.41-.85.72-1.37.94Zm-4.25-3.94h5.09c-.06-1.44-1.03-2.38-2.49-2.38-.66-.02-1.3.21-1.79.66-.49.44-.78,1.06-.81,1.72Zm-20.37-5.73H0v9.91h5.47v-1.05H1.13v-8.86Zm15.87,4.12v-1.64h-1.1v7.44h1.1v-3.95c.13-1.5,1.11-2.48,2.67-2.45v-1.07c-.56-.02-1.12.12-1.6.42-.48.3-.85.73-1.08,1.25Zm29.43-4.13h-2.59v9.93h2.59v-9.93Zm23.92,6.05c0,1-.53,1.71-1.43,1.72-.75,0-1.22-.52-1.22-1.39v-4.12h-2.52v4.84c0,1.78,1.08,2.93,2.74,2.93.49.02.98-.1,1.41-.34s.79-.59,1.03-1.02v1.25h2.52v-7.65h-2.54v3.78Zm-13.6.08c0,2.33-1.38,3.88-3.51,3.88-.44.02-.88-.07-1.28-.26-.4-.19-.75-.47-1.02-.81v3.75h-2.52v-10.4h2.52v.99c.26-.34.6-.62.99-.81.39-.19.82-.28,1.25-.27h.02c2.14-.01,3.54,1.6,3.54,3.94Zm-2.52-.06c0-1.13-.7-1.91-1.66-1.91s-1.63.78-1.63,1.91.67,1.9,1.63,1.9,1.66-.77,1.66-1.9Zm30.77-3.91h0c-.57-.03-1.13.12-1.61.43-.48.31-.85.76-1.06,1.28-.18-.52-.53-.97-.99-1.28-.46-.31-1.01-.46-1.56-.43-.5-.02-1,.09-1.43.33-.44.24-.8.59-1.05,1.03v-1.26h-2.5v7.65h2.5v-3.78c0-1,.57-1.71,1.46-1.73.78,0,1.26.53,1.26,1.4v4.1h2.52v-3.78c0-1,.55-1.71,1.44-1.73.78,0,1.26.53,1.26,1.4v4.1h2.52v-4.82c0-1.8-1.09-2.93-2.74-2.93Zm-24.26,1.74c.63.02,1.49.28,2.44.78h0s.85-1.63.85-1.63c-.96-.58-2.06-.89-3.18-.89-1.8,0-3.14.88-3.14,2.47,0,2.65,3.95,2.13,3.95,3.17,0,.3-.34.47-.81.47-.98-.04-1.92-.37-2.71-.95l-.79,1.63c1,.72,2.2,1.1,3.43,1.08,1.87,0,3.24-.89,3.24-2.46,0-2.66-4.01-2.18-4.01-3.18,0-.33.3-.48.72-.48Zm-39.77,17.5h.52v-4.98h-.52v4.98Zm51.47-1.57h-2.88c.02.32.17.62.41.83.24.22.55.33.87.32.2,0,.41-.03.59-.11.19-.08.36-.19.5-.34l.29.3c-.18.19-.4.34-.65.44-.25.1-.51.15-.77.14-.47,0-.93-.19-1.26-.52-.33-.33-.52-.79-.52-1.26s.19-.93.52-1.26c.33-.33.79-.52,1.26-.52,1.14,0,1.7.79,1.64,1.98Zm-.47-.41c0-.15-.03-.3-.09-.45-.06-.14-.15-.27-.26-.37-.11-.11-.24-.19-.39-.24-.14-.05-.3-.08-.45-.07-.31-.01-.62.1-.85.31-.23.21-.37.5-.39.82h2.41Zm-55.99-.65c0-.34.3-.48.7-.48.34,0,.67.1.95.28l.2-.4c-.34-.21-.73-.32-1.13-.32-.64,0-1.22.29-1.22.96,0,1.25,1.97.81,1.95,1.67,0,.35-.34.52-.76.52-.43,0-.85-.16-1.17-.45l-.2.38c.37.33.86.51,1.36.5.67,0,1.29-.3,1.29-1,0-1.27-1.97-.86-1.97-1.66Zm49.32-.11v-.78h-.52v3.53h.52v-1.88c0-.16.04-.32.1-.47.07-.15.16-.28.28-.39.12-.11.26-.19.41-.24.15-.05.31-.07.47-.06v-.51c-.27,0-.53.06-.76.21-.23.14-.4.35-.51.6Zm-19.82-.81c-.28-.02-.56.05-.81.19-.24.14-.44.36-.56.61v-.78h-.52v3.53h.52v-1.89c0-.15.03-.31.09-.45.06-.14.15-.27.26-.38.11-.11.24-.19.39-.25.14-.06.3-.08.45-.08.14-.01.27,0,.4.05.13.05.24.12.34.22.1.1.17.21.21.34.04.13.06.27.05.4v2.04h.52v-2.17c0-.86-.5-1.38-1.34-1.38Zm-5.18,1.22v2.33h-.53v-.55c-.15.19-.35.34-.58.44-.23.1-.47.14-.72.12-.73,0-1.2-.45-1.2-1.07s.49-1.01,1.32-1.01h1.19v-.22c0-.53-.32-.83-.95-.83-.41.01-.8.16-1.12.41l-.22-.37c.41-.31.92-.48,1.44-.48.87,0,1.36.47,1.36,1.22Zm-.52.69h-1.1c-.59,0-.9.19-.9.58s.31.65.81.65c.26.02.52-.04.74-.19.22-.15.38-.36.45-.61v-.43Zm-13.43-1.91s0,0,.01,0c0,0,0,0,0,0h-.02Zm27.71,0c-.28-.02-.57.04-.81.19-.25.15-.44.36-.56.62v-2.24h-.52v4.98h.52v-1.73c0-.77.44-1.31,1.19-1.31.14-.01.27,0,.4.05.13.05.24.12.34.22.1.1.17.21.21.34.04.13.06.26.05.4v2.04h.52v-2.17c0-.86-.5-1.38-1.34-1.38Zm-20.29.02h.52v3.16c0,1.03-.7,1.68-1.78,1.68-.53,0-1.04-.19-1.45-.52l.24-.38c.33.29.75.45,1.19.45.17.02.33,0,.49-.06.16-.05.3-.14.42-.26.12-.12.22-.25.28-.41.06-.15.09-.32.08-.49v-.54c-.12.23-.31.43-.54.56-.23.13-.49.19-.76.18-.95,0-1.61-.71-1.61-1.7-.02-.22.01-.44.09-.64s.19-.39.34-.55c.15-.16.33-.28.53-.37.2-.08.42-.13.64-.12.27-.01.53.05.76.18.23.13.42.33.55.56v-.72Zm0,1.68c0-.25-.07-.5-.22-.71-.14-.21-.34-.37-.57-.47-.23-.09-.49-.12-.74-.06-.25.05-.47.18-.65.36-.17.18-.29.41-.34.66-.04.25-.01.5.09.74.1.23.27.42.49.56.21.13.46.2.71.19.16,0,.33-.03.48-.09.15-.06.29-.16.41-.27.12-.12.2-.26.26-.41.06-.15.08-.32.07-.48Zm-5.72-.63c.09.22.13.46.12.7,0,.35-.1.7-.3.99-.2.29-.47.52-.8.66-.33.14-.68.17-1.03.1-.35-.07-.66-.24-.92-.48-.25-.25-.42-.57-.49-.91-.07-.35-.04-.71.1-1.03.13-.33.36-.61.65-.8.29-.2.63-.3.99-.3.23-.01.47.02.69.11.22.08.43.21.6.38.17.17.3.37.39.59Zm-.41.16c-.11-.24-.29-.44-.51-.58s-.49-.21-.75-.2h-.02c-.17,0-.34.03-.5.1-.16.07-.3.16-.42.29-.12.12-.21.27-.27.43-.06.16-.08.33-.07.5,0,.26.08.52.22.74.15.22.36.39.6.49.25.1.51.12.77.07.26-.06.5-.19.68-.38.18-.19.31-.43.35-.69.04-.26.01-.53-.1-.77Zm34.1.73h-2.88c.02.32.17.62.41.83.24.22.55.33.87.32.2,0,.41-.03.59-.11.19-.08.36-.19.5-.34l.29.3c-.18.19-.4.34-.65.44s-.51.15-.77.14c-.47,0-.93-.19-1.26-.52-.33-.33-.52-.79-.52-1.26s.19-.93.52-1.26c.33-.33.79-.52,1.26-.52,1.14,0,1.7.79,1.64,1.98Zm-.46-.41c0-.15-.03-.3-.09-.45-.06-.14-.15-.27-.26-.37-.11-.11-.24-.19-.39-.24s-.3-.08-.45-.07c-.31-.01-.62.1-.85.31-.23.21-.37.5-.39.82h2.42Zm12.27-47.18c-3.67,6.87-9.61,12.25-16.8,15.23-7.19,2.98-15.2,3.37-22.64,1.11-7.45-2.26-13.89-7.03-18.21-13.51-4.33-6.47-6.27-14.25-5.51-22,.76-7.75,4.19-14.99,9.69-20.5,3.12-3.13,6.83-5.61,10.91-7.3C35.08.86,39.45,0,43.87,0c7.78,0,15.33,2.7,21.35,7.64,6.02,4.94,10.14,11.81,11.66,19.45,1.52,7.64.34,15.56-3.33,22.43Zm-.86-20s0,0-.02,0c-6.61-.62-13.21,1.23-18.52,5.21-5.31,3.97-8.96,9.78-10.24,16.29v.3c-.04-13.27-6.52-26.18-18.68-33.67-.71-.45-1.47-.87-2.23-1.28-.6-.3-1.22-.62-1.84-.91-3.16,3.95-5.24,8.66-6.02,13.65-.79,5-.26,10.11,1.53,14.85,1.79,4.73,4.79,8.91,8.69,12.14,3.9,3.22,8.57,5.37,13.56,6.24l-.07-.03c-4.66-3.46-8.5-7.92-11.23-13.04-2.73-5.12-4.29-10.79-4.57-16.59,1.23,5.77,3.74,11.19,7.35,15.85,3.61,4.67,8.22,8.46,13.49,11.1,1.26-5.19,3.89-9.94,7.62-13.75,3.73-3.82,8.42-6.56,13.57-7.94-4.56,2.18-8.49,5.5-11.42,9.63s-4.75,8.94-5.29,13.97c-.03.3-.06.61-.09.91l-.88.12,1.02-.14c7.55-1.2,14.34-5.31,18.88-11.47,4.54-6.15,6.49-13.85,5.41-21.42Z" fill-rule="evenodd" stroke-width="0"/></svg>