<svg xmlns="http://www.w3.org/2000/svg" viewBox="0 0 90.75 100"><path fill-rule="evenodd" d="M66.26 84.35c0 1.63-1.42 2.55-3.35 2.55-1.28.03-2.54-.37-3.57-1.13l.82-1.69c.82.6 1.79.94 2.81.98.48 0 .84-.17.84-.48 0-1.08-4.09-.54-4.09-3.28 0-1.66 1.39-2.57 3.25-2.57 1.16 0 2.3.32 3.29.93l-.88 1.7v-.02c-.99-.51-1.88-.81-2.51-.78-.43 0-.75.16-.75.5 0 1.04 4.14.54 4.14 3.3Zm-39.63 2.17c-.53.22-1.11.32-1.69.3-2.26 0-3.83-1.6-3.83-3.9s1.58-3.9 3.82-3.9l.03-.02c2.49 0 3.71 1.71 3.57 4.34h-6.29a2.716 2.716 0 0 0 2.79 2.52c.44 0 .88-.07 1.29-.24.41-.17.78-.42 1.09-.74l.63.66c-.4.42-.88.75-1.41.97Zm-4.39-4.08h5.26c-.06-1.49-1.07-2.46-2.57-2.46-.68-.03-1.35.22-1.85.68-.5.46-.81 1.1-.84 1.78Zm65.69-3.7c-.59-.04-1.17.12-1.66.43-.5.32-.88.78-1.1 1.33a2.64 2.64 0 0 0-1.02-1.33c-.48-.32-1.04-.48-1.61-.44-.52-.02-1.03.1-1.48.34-.45.25-.83.62-1.09 1.06v-1.3h-2.59v7.92h2.59v-3.9c0-1.04.58-1.77 1.51-1.79.8 0 1.3.54 1.3 1.45v4.25h2.61v-3.91c0-1.04.57-1.77 1.49-1.79.8 0 1.3.54 1.3 1.45v4.25h2.6v-4.99c0-1.86-1.13-3.03-2.83-3.03Zm-47.54.27-.03.02c-1.48 0-2.56.66-3.05 2-.31-1.27-1.32-2-2.76-2s-2.43.59-2.94 1.78v-1.74h-1.09v7.7h1.13v-3.8c0-1.67.94-2.83 2.53-2.87 1.35 0 2.14.82 2.14 2.2v4.45h1.16v-3.8c0-1.67.92-2.83 2.51-2.87 1.33 0 2.14.82 2.14 2.2v4.45h1.14v-4.75c0-1.87-1.07-3-2.87-3Zm7.65-2.5h-2.68v10.27h2.68V76.51Zm-46.84.01H0v10.24h5.66v-1.07H1.19v-9.17Zm57.52 6.33c0 2.42-1.43 4.02-3.63 4.02a2.912 2.912 0 0 1-2.39-1.11v3.87h-2.61V78.86h2.61v1.03c.27-.36.62-.64 1.03-.84.4-.19.85-.29 1.3-.28l.03-.02c2.21 0 3.66 1.69 3.66 4.1Zm-2.6-.07c0-1.17-.72-1.98-1.71-1.98s-1.68.81-1.68 1.98.69 1.96 1.68 1.96 1.71-.79 1.71-1.96Zm-41.67.12c0 2.3-1.61 3.91-3.91 3.91s-3.91-1.63-3.91-3.91 1.61-3.88 3.91-3.88l.03-.02c2.28 0 3.88 1.6 3.88 3.9Zm-1.14.02c0-1.7-1.16-2.89-2.77-2.89h.03c-1.62-.01-2.79 1.16-2.79 2.89s1.16 2.9 2.77 2.9 2.77-1.2 2.77-2.9Zm59.48-.17c0 1.04-.55 1.78-1.48 1.79-.77 0-1.26-.54-1.26-1.44v-4.26h-2.6v5.01c0 1.84 1.11 3.03 2.83 3.03.51.02 1.01-.1 1.46-.35.45-.25.82-.61 1.07-1.06v1.29h2.61v-7.92h-2.63v3.91Zm-55.17-1.99-.03.02v-1.71h-1.14v7.7h1.14v-4.09c.13-1.55 1.14-2.56 2.76-2.53v-1.11c-.58-.02-1.15.13-1.63.44-.49.31-.87.76-1.1 1.29Zm9.67 14.21h.01-.02Zm1.75 1.12c.09.23.13.48.12.72 0 .37-.11.72-.31 1.03a1.868 1.868 0 0 1-1.9.79c-.36-.07-.69-.25-.95-.5-.26-.26-.44-.59-.51-.94-.07-.36-.04-.73.1-1.07.14-.34.37-.63.68-.83.3-.2.66-.31 1.02-.31.24-.01.48.02.71.11.23.09.44.22.62.4.18.17.31.38.4.61Zm-.42.17c-.11-.25-.3-.46-.53-.6s-.5-.21-.78-.2h-.02a1.255 1.255 0 0 0-.94.4c-.12.13-.21.28-.27.45-.06.17-.09.34-.07.52 0 .27.08.54.23.77.15.23.37.4.62.51a1.364 1.364 0 0 0 1.5-.32c.19-.2.32-.45.36-.72s.01-.55-.1-.8Zm-12.05-.34c0-.35.31-.49.72-.49.35 0 .69.11.98.29l.21-.42c-.35-.22-.75-.34-1.17-.33-.66 0-1.26.3-1.26.99 0 1.29 2.04.84 2.02 1.73 0 .37-.36.54-.79.54-.45 0-.88-.17-1.21-.47l-.21.4c.39.34.89.52 1.4.51.7 0 1.34-.31 1.34-1.04 0-1.31-2.04-.89-2.04-1.72Zm5.16 2.73h.54V93.5h-.54v5.15Zm45.83-2.84V95h-.54v3.65h.54V96.7c0-.17.04-.33.11-.48.07-.15.17-.29.29-.4.12-.11.27-.2.43-.25.16-.05.32-.08.49-.06v-.53c-.28 0-.55.07-.79.22-.23.15-.42.37-.52.62Zm-11.62-.83c-.67 0-1.17.27-1.42.84V93.5h-.54v5.15h.54v-1.79c0-.8.46-1.35 1.23-1.36a.947.947 0 0 1 .76.27.947.947 0 0 1 .27.76v2.11h.54v-2.25c0-.89-.52-1.43-1.39-1.43Zm-8.87 0c-.29-.02-.58.05-.84.19-.25.15-.45.37-.58.63v-.81h-.54v3.65h.54v-1.95c0-.16.03-.32.09-.46.06-.15.15-.28.27-.39.11-.11.25-.2.4-.26.15-.06.31-.09.47-.08a.947.947 0 0 1 .76.27.947.947 0 0 1 .27.76v2.11h.54v-2.25c0-.9-.52-1.44-1.39-1.44Zm16.81 2.05H60.9c.02.33.18.64.42.86.25.22.57.34.9.33a1.58 1.58 0 0 0 1.13-.47l.3.31a1.913 1.913 0 0 1-1.47.6c-.49 0-.96-.19-1.3-.54-.35-.35-.54-.82-.54-1.31a1.846 1.846 0 0 1 1.84-1.85c1.18 0 1.76.82 1.7 2.05Zm-.47-.43c0-.16-.03-.32-.09-.46a1.178 1.178 0 0 0-.67-.64c-.15-.05-.31-.08-.47-.07-.32-.01-.64.1-.87.32-.24.22-.38.52-.4.84h2.5Zm11.54.43h-2.98c.02.33.18.64.42.86.25.22.57.34.9.33.21 0 .42-.03.61-.11s.37-.2.52-.35l.3.31a1.913 1.913 0 0 1-1.47.6c-.49 0-.96-.19-1.3-.54-.35-.35-.54-.82-.54-1.31a1.846 1.846 0 0 1 1.84-1.85c1.18 0 1.76.82 1.7 2.05Zm-.48-.43c0-.16-.03-.32-.09-.46a1.178 1.178 0 0 0-.67-.64c-.15-.05-.31-.08-.46-.07-.32-.01-.64.1-.88.32s-.38.52-.4.84h2.5ZM34.96 95h.54v3.26c0 1.07-.73 1.74-1.84 1.74-.54 0-1.07-.19-1.5-.54l.25-.4c.34.3.78.46 1.23.47.17.02.35 0 .51-.06.16-.06.31-.15.44-.27.12-.12.22-.26.29-.42.06-.16.09-.33.09-.5v-.53c-.13.24-.32.44-.56.58-.24.14-.51.2-.78.19-.98 0-1.66-.73-1.66-1.77-.02-.23.01-.45.09-.67.08-.21.2-.41.35-.57.16-.16.34-.29.55-.38.21-.09.43-.13.66-.13.28-.01.55.05.79.18.24.14.44.34.57.58V95Zm0 1.74c0-.26-.08-.52-.22-.73a1.315 1.315 0 0 0-1.35-.55c-.26.05-.49.18-.67.37-.18.19-.3.43-.35.68-.04.26-.01.52.09.76.11.24.28.44.5.58.22.14.48.2.73.2.17 0 .34-.03.49-.09a1.206 1.206 0 0 0 .69-.71c.06-.16.09-.33.08-.5Zm6.76-.51v2.41h-.55v-.57c-.16.2-.36.36-.6.46-.23.1-.49.15-.74.13-.76 0-1.24-.47-1.24-1.1s.51-1.05 1.36-1.05h1.23v-.23c0-.54-.33-.86-.98-.86-.42.01-.83.16-1.16.42l-.23-.38c.43-.32.95-.5 1.49-.49.9 0 1.41.48 1.41 1.26Zm-.53.71h-1.14c-.61 0-.93.2-.93.6s.32.67.84.67c.27.02.54-.04.76-.2.22-.15.39-.37.47-.63v-.44ZM76.6 20c.02.06.04.12.03.19 0 .07-.01.13-.04.19-.02.06-.06.12-.11.16l-4.77 4.78-.21.21-.21.2-.21.2-.07.06-.15.14-.21.18-.11.08-.13.11-.06.05-.17.14-.08.07-.14.11-.13.09-.11.08-.1.07-.14.1-.1.07-.13.09-.13.09-.11.07-.12.08-.13.08-.11.07-.13.07-.14.08-.1.06-.13.07-.12.07-.13.07-.11.06-.14.07-.11.05-.13.06-.13.06-.12.05-.14.06-.12.05-.14.06-.11.04-.15.06-.1.04-.16.06-.11.04-.14.05-.13.04-.13.04-.14.04-.13.04-.12.03-.15.04-.11.03-.15.04-.13.03-.14.03-.12.03-.15.03-.11.02-.15.03-.12.02-.15.03-.12.02-.14.02-.13.02-.14.02h-3l-.12-.02-.16-.02-.12-.02-.15-.02-.13-.02-.15-.03-.12-.02-.15-.03-.12-.03-.16-.03-.11-.02-.16-.04-.12-.03-.14-.03-.13-.04-.15-.04-.12-.04-.14-.04-.14-.04-.13-.04-.15-.05-.12-.04-.15-.05-.15-.05-.12-.05-.14-.05-.14-.06-.13-.05-.14-.06-.14-.06-.13-.06-.19-.08-.08-.04-.17-.08-.11-.05-.26-.14-.26-.14-.31.22-.19.13-.21.14-.17.11-.21.14-.18.11-.2.12-.18.11-.19.11-.19.1-.18.1-.17.09-.19.1-.18.09-.17.08-.18.09-.17.08-.16.08-.17.08-.16.07-.17.07-.15.06-.16.07-.15.06-.16.06-.15.05-.14.05-.15.05-.13.04-.15.05-.13.03-.14.04-.14.03-.13.03-.14.03-.12.03-.13.02-.12.02h-1.18l-.1-.02-.08-.02-.1-.03-.07-.02-.1-.03-.08-.03-.08-.03-.07-.03-.09-.04-.04-.03-.09-.06-.05-.03-.08-.06s-.08-.07-.12-.11c-.04-.04-.08-.09-.11-.12-.02-.03-.04-.05-.06-.08l-.03-.05-.06-.09-.03-.04s-.03-.07-.04-.09c0-.02-.03-.04-.03-.06l-.03-.09-.03-.08s0-.07-.03-.1-.02-.05-.02-.07l-.03-.11s0-.04-.02-.07l-.02-.11v-1.07s-.02-.08 0-.12c.02-.04 0-.08.02-.12s.02-.09.02-.13c0-.04 0-.08.02-.12.03-.04.02-.09.03-.14 0-.04.03-.09.03-.13l.03-.13c.01-.05.03-.12.04-.15 0-.04.02-.07.03-.12.02-.05.03-.11.05-.16l.04-.13c.02-.05.03-.1.05-.15l.05-.14.06-.15.05-.15.06-.15.07-.16.06-.15.07-.17.07-.16.08-.17.08-.16.08-.17.09-.18.08-.17.09-.18.1-.18.09-.18.1-.18.11-.19.11-.19.11-.18.12-.2.11-.18.14-.21.11-.17.14-.21.13-.19.22-.31.08-.02-.14-.26-.05-.11-.08-.17-.04-.08-.08-.18-.06-.13-.06-.15c-.02-.05-.05-.1-.06-.14-.02-.04-.03-.08-.05-.13l-.06-.14s-.03-.09-.05-.14l-.05-.12-.05-.15-.05-.15-.04-.12-.05-.14-.04-.13-.04-.14-.04-.14-.04-.13c-.01-.05-.04-.1-.04-.15l-.03-.13-.04-.14-.03-.12c-.01-.05-.04-.11-.04-.16l-.03-.11c-.01-.06-.03-.11-.03-.16l-.03-.12-.03-.15-.02-.12-.03-.15-.02-.13-.02-.15v-.12c-.02-.05-.02-.1-.02-.16v-.12l-.02-.15v-2.85l.02-.14.02-.13.02-.14.02-.12.03-.15.02-.12.03-.15.02-.11.03-.15.03-.12.03-.14.03-.13.04-.14.03-.11.04-.15.03-.12.04-.13.04-.14.04-.13.04-.13.05-.14.04-.11.06-.16.04-.1.06-.15.04-.11s.04-.09.06-.14l.05-.12.06-.14.05-.12.06-.13.06-.13.05-.11.07-.14.06-.12.07-.13.07-.13.07-.13.06-.1.08-.14.08-.13.07-.11.08-.13.07-.12.07-.11.08-.13.09-.13.07-.1.1-.14.07-.1.08-.11.09-.13.11-.14.07-.09.14-.17.05-.06.11-.13.08-.1.18-.21.14-.15.06-.07.19-.21c.07-.07.14-.14.2-.21l.21-.22L56.34.37s.1-.08.16-.11c.06-.02.13-.04.19-.04.13 0 .25.05.35.14l.03.03.02.02.16.16.06.06.13.13.03.04.14.14.06.07.12.13.05.05.12.13.06.07.11.12.07.07.09.1.08.09.09.11.07.08.1.12.05.06.13.15.03.03.15.18.28.35.03.04.28.37.02.03.13.17.02.02.12.17.03.03.11.15.05.07.08.13.06.08.08.12.04.06.09.15.03.05.09.15.03.05.09.14.04.07.07.12.05.09.07.11.05.08.07.11.05.09.07.13.04.07.07.13.04.08.06.12.04.08.09.2.1.21c.03.06.06.13.09.19l.03.08.06.14.03.07.06.14.04.1.04.1.04.11.04.11.04.1.04.11.04.1.04.12.04.11.03.11.04.12.03.11.03.1.03.11.03.12.03.11.03.11.03.13.03.1.03.14.02.08.03.12.03.12c.02.08.04.15.04.22.01.08.04.15.04.23v.07l.03.17v.06c.01.06.03.13.03.19v.06l.03.17v.11l.02.13.02.12v2.89h2.86l.14.02h.09l.15.02.12.02.12.02.13.02h.12l.08.02.16.03.23.04.22.05.13.03.11.03.13.03.09.03.12.03.12.03.1.03.12.03.11.03.11.03.11.03.11.04.12.03.1.03.11.04.12.04.1.03.11.04.11.04.11.04.11.04.1.04.1.04.13.05.08.04.12.05.1.04.1.05.11.05.2.09.19.1.07.03.13.07.07.03.14.08.05.03.14.08.08.05.12.07.08.05.11.07.09.05.12.07.08.05.12.08.07.04.14.08.07.04.13.08.07.05.12.08.07.05.13.09.06.04.17.12h.02l.18.13h.02l.19.14.37.28.17.14.02.02.04.03.15.13.18.15.03.03.15.13.06.05.12.11.08.07.11.09.09.08.1.09.08.07.12.11.07.06.13.12.05.05.13.12.06.06.15.14.03.03.14.13.06.06.16.16h.02l.03.03s.08.1.11.16Zm-26.16-4.06.02.1v.25l.02.1.02.09.02.09.02.09.02.09.02.08.02.1.02.08.03.09.02.08.03.09.02.09.03.08.05.16c.03.11.06.21.1.31v.03c.08.24.17.48.27.71.18-.18.35-.34.53-.5l.06-.05.06-.05.06-.06.03-.03.08-.07.07-.06.03-.03.08-.07.02-.02.1-.08.11-.09.1-.08.08-.07.03-.02.03-.03.04-.03.06-.05.07-.05.03-.02.08-.06.05-.04.08-.06.09-.07h.02l.1-.08.11-.08.11-.08.09-.06h.03l.03-.03.04-.02.08-.05.04-.03.08-.05.02-.02.05-.03h.02l.08-.05.03-.02.09-.06.11-.07.12-.07.11-.07.1-.06.03-.02.07-.04.07-.04.05-.03.07-.04.07-.04.05-.03.08-.04.05-.03.08-.04.11-.06.12-.06.12-.06h.02l.1-.05.04-.02.09-.04.1-.04h.02l.07-.03.06-.03h.03l.09-.04.1-.05h.03l.12-.05.13-.05.12-.05h.02l.11-.04.04-.02h.03l.09-.03.08-.03h.02l.07-.03.06-.02.04-.02.07-.03h.02l.1-.04h.03l.12-.04.13-.05.13-.04h.04l.12-.04h.03l.11-.04h.02l.08-.02h.02l.08-.03.09-.03h.04l.1-.03h.07l.12-.03.14-.03.15-.04.11-.03h.02l.07-.02.41-.09v.02c0-.12.02-.25-.08-.78v-2.15l-.02-.15v-.47l-.02-.11v-.22l-.02-.08v-.07l-.02-.1v-.03l-.03-.13v-.02l-.03-.13-.03-.14-.03-.15-.03-.14v-.07l-.03-.1-.02-.07-.02-.08-.03-.09-.02-.06-.03-.1v-.05l-.03-.1-.02-.05-.03-.1-.02-.05-.03-.09-.02-.06-.03-.09-.02-.06-.03-.1-.05-.14-.05-.14-.05-.13-.05-.14-.04-.1-.03-.06-.04-.09-.03-.05-.03-.08-.04-.08-.03-.07-.04-.08-.03-.07-.03-.06-.05-.1-.07-.14-.07-.13-.07-.14-.07-.13v-.02l-.07-.12-.04-.07-.04-.08-.03-.05-.05-.09-.03-.06-.04-.07-.05-.08-.04-.06-.05-.08-.04-.07-.04-.06-.06-.09-.02-.03-.02-.03-.03-.04-.06-.09-.09-.13-.09-.13-.08-.12-.06-.09-.03-.05-.06-.08-.03-.04c-.11-.15-.23-.3-.35-.44l-.4.4-2.46 2.47-.17.17-.04.04s-.08.08-.12.13l-.06.07-.1.11-.05.06-.1.12-.06.07-.08.1-.07.08-.08.09-.07.09-.08.1-.06.07-.08.1-.06.08-.07.1-.06.08-.07.1-.05.08-.08.11-.04.06-.08.13-.03.06-.07.11-.05.08-.04.07-.07.11c-.03.06-.07.12-.1.18l-.09.17-.06.12-.03.06-.06.12-.03.07-.05.1-.04.08-.04.1-.04.08-.04.1-.04.09-.04.09-.04.09-.04.09-.03.09-.03.09-.03.09-.03.1-.03.09-.03.08-.03.1-.03.1-.02.07-.03.11-.03.09-.03.1c-.02.06-.04.12-.04.18-.02.06-.04.12-.04.18l-.03.13v.05l-.02.11v.08l-.02.1v.08l-.02.11v.07l-.02.11v2.72Zm7.29 4.6.02-.04.08-.14.03-.06.07-.12.03-.06.06-.12.03-.07.08-.15v-.03l.09-.18.08-.17.03-.06.06-.13.03-.07.06-.13.03-.06.06-.15.02-.04v-.02l.06.03c.14-.33.26-.67.37-1.02-.35.11-.69.24-1.02.37h-.03l-.04.02-.15.06-.06.03-.13.06-.07.03-.12.06-.06.03-.17.08h-.02l-.18.09h-.03l-.15.08-.07.03-.11.06-.07.03-.12.07-.06.03-.13.07-.05.03-.15.09h-.04l-.15.09-.05.03-.12.07-.07.05-.09.06-.07.05-.1.07-.06.04-.14.1-.16.11h-.02l-.04.03-.11.08-.06.04-.1.08-.05.04-.12.09-.03.03-.11.09-.05.04-.14.11-.15.13-.05.05-.1.08-.05.04-.11.1-.04.03-.11.1-.04.04-.14.13-.14.14-.03.03-.09.1-.06.06-.08.09-.05.05-.08.09-.05.06-.11.12h-.02l-.12.14-.06.08-.08.09-.04.05-.09.11-.04.06-.07.08-.06.08-.07.09-.05.06-.08.11-.03.04v.02l-.1.14-.03.04-.08.12-.03.05-.08.11-.05.07-.06.09-.06.08-.08.13v.03l-.1.17v.02l-.09.15-.03.04-.07.12-.04.07-.06.1-.04.07-.06.11-.04.08-.08.16-.09.19-.02.03-.07.14-.04.08-.06.12-.03.06-.06.12-.03.07-.06.14-.02.04-.07.17c-.14.35-.28.7-.4 1.06.36-.13.71-.26 1.05-.41l.17-.07.07-.03.1-.05.09-.04.1-.04.08-.04.11-.05.08-.03.13-.07.05-.02.19-.09.18-.09.06-.03.11-.06.07-.03.12-.07.06-.03.13-.08.04-.03.17-.1.15-.09.04-.02.13-.08.04-.03.12-.08.06-.04.11-.07.05-.03.13-.09.04-.03.16-.11.03-.03.13-.09.04-.03.12-.09.04-.03.11-.09.05-.04.1-.08.05-.05.1-.08.05-.04.14-.12.13-.11.05-.05.1-.09.04-.04.1-.09.06-.06.1-.09.03-.03.14-.14.13-.14.03-.04.1-.11.04-.04.09-.11.04-.05.08-.1.05-.05.13-.15.13-.15v-.02l.11-.14.03-.04.09-.12.04-.05.09-.12.03-.03.1-.13.02-.03.1-.14.03-.05.08-.12.02-.03.09-.14.03-.04.09-.14.02-.03.1-.16v-.02c.04-.06.08-.12.11-.18l.1-.18Zm14.37-.37c-.15-.12-.3-.24-.44-.35l-.04-.03-.08-.06-.05-.03-.08-.06-.12-.08-.13-.09-.13-.08-.09-.06-.04-.03-.03-.02-.04-.03-.09-.06-.06-.04-.07-.04-.08-.05-.06-.04-.08-.04-.07-.04-.06-.03-.09-.05-.05-.03-.08-.04-.07-.04-.12-.06h-.02l-.13-.07-.14-.07-.13-.07-.14-.07-.1-.05-.06-.03-.07-.03-.08-.03-.07-.03-.08-.03-.08-.03-.05-.03-.09-.04-.06-.03-.1-.04-.13-.06-.13-.05h-.02l-.14-.05-.14-.05-.1-.03-.06-.02-.09-.03-.06-.02-.09-.03-.06-.02-.1-.03-.05-.02-.1-.03-.05-.02-.1-.03-.06-.02-.09-.03-.08-.02-.07-.02-.1-.03h-.07l-.14-.03-.15-.03-.14-.03h-.02l-.13-.03h-.02l-.13-.03h-.03l-.1-.02h-.07l-.08-.02h-.22l-.11-.02h-.31l-.14-.02h-.02l-.15-.02-.15-.02h-2l-.37.02-.09.41-.02.07v.02l-.03.11-.04.15-.04.13-.03.12-.03.09v.04l-.03.11v.03l-.03.11v.03l-.03.09-.02.05-.03.09-.04.11v.02l-.04.13-.05.13-.04.12v.03l-.04.1-.05.13-.04.11-.02.04-.04.1-.03.09v.04l-.02.03-.04.09-.05.12-.05.13-.11.25-.04.09-.02.03-.03.06-.03.07v.03l-.05.09v.02c-.08.17-.16.32-.24.48l-.06.11-.05.09-.03.05-.12.23-.06.11-.06.11v.03l-.13.22-.07.12-.07.11-.06.09-.02.03-.05.08-.03.04-.05.08-.02.03-.05.07-.04.07-.03.03-.02.03v.02l-.07.1-.08.11-.08.11-.08.1v.02l-.06.09-.05.07-.04.05-.06.08-.03.03-.05.08-.05.06-.03.04-.03.03-.02.03-.07.08-.08.1-.09.11-.08.1-.02.02-.07.08-.03.03-.06.07-.07.08-.03.04-.05.06-.05.06-.05.06c-.16.18-.33.36-.5.53v.02c.23.1.47.19.4.22h.02l.06.02.11.04.17.05.17.05h.05l.13.03.07.02.11.03.08.02.08.02.09.02.1.02.07.02.1.02.08.02.09.02.09.02h3.07l.1-.02h.09l.1-.02h.08l.1-.02h.08l.11-.02h.05l.13-.03.18-.04.18-.04.1-.03.09-.03.08-.02.1-.03.08-.03.1-.03.09-.03.09-.03.1-.03.1-.03.08-.03.11-.04.08-.03.1-.04.09-.04.09-.04.1-.04.09-.04.09-.04.08-.04.1-.05.06-.03.12-.06.06-.03.12-.06.17-.09.18-.1.17-.1.08-.05.1-.07.06-.04.12-.08.06-.04.11-.08.08-.05.1-.07.08-.06.1-.08.08-.06.11-.08.07-.05.1-.08.08-.07.09-.08.08-.07.1-.09.07-.06.12-.1.06-.05.11-.1.07-.06.13-.12.04-.04.17-.17 2.47-2.47.4-.4ZM44.87 33.36l.02.1v1.19l-.02.12-.02.13-.03.12c0 .04-.02.09-.03.14l-.03.13-.03.14-.04.14-.03.13-.05.15-.04.13-.05.15-.05.14s-.03.1-.05.15l-.06.16-.06.14-.07.17-.06.15-.07.17-.07.16-.08.17-.08.16-.08.17-.09.18-.08.17-.09.18-.1.19-.09.17-.1.18-.1.19-.11.19-.11.18-.12.2-.11.18-.14.21-.11.17c-.05.07-.09.14-.14.21l-.13.19-.22.31c.05.09.1.18.14.26l.13.26.05.11.08.17.04.08.08.19.06.13.06.14s.04.1.06.14l.05.13.06.14s.04.09.05.14l.05.12c.02.05.04.1.05.15l.05.15.04.12.05.15.04.13.04.14.04.14.04.13c0 .05.03.1.04.15l.04.13.03.14.03.12c0 .05.03.11.04.16l.02.1.04.17.02.12.03.15.02.13c0 .05 0 .1.03.15l.02.13.03.15.02.12.02.16.02.12v2.88l-.02.13-.02.14v.13l-.02.14-.02.12-.03.15-.02.12-.03.15-.02.11-.03.15-.03.12-.03.14-.03.13-.04.14-.03.11-.04.15-.03.12-.04.13-.04.14-.04.13-.05.13-.05.14-.04.11-.06.16-.04.1-.06.15-.04.11-.06.14-.05.12-.06.14-.05.12-.06.13-.06.13-.05.11-.07.14-.06.11-.07.13-.07.13-.07.13-.06.1-.08.14-.08.13-.07.11-.08.13-.08.12-.07.11-.09.13-.08.13-.07.1-.09.14-.08.1-.08.11-.09.13-.11.14-.07.09c-.04.06-.09.11-.14.17l-.05.06-.11.13-.08.11-.18.21-.14.15-.06.07-.2.21c-.07.07-.14.14-.2.21l-.21.22-4.78 4.77s-.1.08-.16.11c-.06.02-.13.04-.19.03-.06 0-.13-.01-.19-.03a.419.419 0 0 1-.16-.11l-.03-.03v-.02l-.16-.16-.06-.06-.13-.14-.03-.04-.14-.14-.06-.06-.12-.13-.05-.05-.12-.13-.06-.07-.11-.12-.06-.08-.09-.1-.08-.09-.09-.11-.07-.08-.1-.12-.05-.06-.13-.15-.03-.03-.15-.18-.13-.15-.03-.04-.02-.02-.14-.17c-.1-.12-.19-.24-.28-.37l-.14-.19v-.02l-.13-.18-.02-.02-.12-.17-.04-.06-.09-.13-.05-.07-.08-.12-.05-.07-.08-.13-.04-.07-.08-.14-.04-.07-.08-.12-.05-.08-.07-.12-.05-.09-.07-.11-.05-.09-.07-.12-.05-.08-.08-.14-.03-.05-.08-.14-.03-.07-.07-.13-.03-.07c-.03-.07-.07-.13-.1-.2l-.09-.2-.05-.11-.05-.1-.04-.1-.05-.12-.04-.08-.05-.13-.04-.1-.04-.1-.04-.11-.04-.11-.04-.11-.04-.11-.03-.1-.04-.12-.04-.11-.03-.11-.04-.12-.04-.11-.03-.1-.03-.11-.03-.11-.03-.12-.03-.1-.03-.12-.03-.12-.03-.1-.03-.13-.03-.11-.03-.13-.05-.22c0-.08-.03-.15-.04-.23l-.03-.15v-.08l-.02-.12-.02-.13-.02-.11-.02-.12-.02-.15v-.09l-.02-.14v-2.86h-3.05l-.12-.02h-.13l-.11-.02-.17-.03h-.06l-.19-.03h-.05l-.17-.03h-.07l-.23-.04-.22-.05-.12-.03-.12-.03-.08-.02-.14-.03-.1-.03-.13-.03-.11-.03-.11-.03-.12-.03-.11-.03-.1-.03-.11-.03-.12-.04-.11-.03-.11-.04-.12-.04-.1-.04-.11-.04-.1-.04-.11-.04-.11-.04-.1-.04-.1-.04-.14-.06-.07-.03-.14-.06-.08-.03-.19-.09-.21-.1-.2-.1-.08-.04-.12-.06-.08-.04-.13-.07-.07-.04-.13-.07-.09-.05-.11-.07-.08-.05-.11-.07-.09-.05-.11-.07-.07-.04-.14-.09-.05-.03-.15-.09-.05-.03-.15-.09-.06-.04-.12-.08-.08-.06-.13-.08-.07-.05-.15-.11-.03-.03-.17-.12-.02-.02-.17-.13-.02-.02c-.12-.09-.25-.18-.37-.28l-.04-.03-.35-.28-.18-.15-.03-.03-.15-.13-.06-.05-.12-.1-.08-.07-.11-.09-.09-.08-.1-.09-.07-.07-.12-.11-.07-.06-.13-.12-.05-.05-.13-.12-.07-.06-.14-.14-.04-.03-.13-.13-.06-.06-.17-.16-.02-.02-.03-.03a.5.5 0 0 1-.1-.54c.02-.06.06-.12.11-.16l4.77-4.78.22-.21.21-.2.21-.2.07-.06.15-.14.21-.18.1-.08.13-.11.06-.04.17-.14.08-.07.14-.11.13-.09.11-.08.11-.07.14-.1.1-.07.13-.09.13-.09.11-.07.12-.08.13-.08.11-.07.13-.07.14-.08.1-.06.13-.07.13-.07.13-.07.12-.06.14-.07.11-.05.14-.06.12-.06.12-.06.14-.06.12-.05.14-.06.11-.04.15-.06.1-.04.16-.06.11-.04.14-.05.13-.04.12-.04.14-.04.13-.04.12-.03.15-.04.11-.03.14-.04.13-.03.14-.03.12-.03.15-.03.11-.02.15-.03.12-.02.15-.03.12-.02.14-.02.13-.02.14-.02.13-.02h2.72l.15.02h.12l.16.02h.12l.15.02.13.02.15.03.12.02.15.03.12.03.16.03.11.03.16.04.12.03.14.04.13.03.15.04.13.04.14.04.14.04.13.04.14.05.12.04.15.05.15.05.12.05.14.05.14.06.12.05.14.06.15.06.13.06.18.08.08.04.17.08.11.06.26.14.2-.05.31-.22.19-.13.21-.14.17-.11.21-.14.18-.11.19-.12.18-.11.19-.11.19-.11.18-.1.18-.09.18-.1.18-.09.16-.09.18-.09.17-.08.16-.08.17-.08.16-.07.16-.07.15-.06.16-.07.15-.06.15-.05.15-.06.14-.05.15-.05.13-.04.16-.05.12-.03.15-.04.13-.03.13-.03.14-.03.12-.02.13-.02.12-.02h1.18l.11.02h.07l.11.03.07.02.1.03.08.03.08.03.07.03.08.04.04.03.09.06.05.03.08.06s.08.07.12.11c.04.04.07.08.11.12.02.03.04.05.06.08l.03.05.06.09.03.04s.03.06.04.09l.03.07s.02.05.03.08c.01.02.02.05.03.08 0 .03.02.07.03.1 0 .02.02.05.02.07l.03.1s0 .05.02.08Zm-13.62 5.51.04-.05.06-.08.02-.03.05-.07.05-.06.03-.04.03-.03.02-.03.07-.08.08-.1.09-.11.08-.1.02-.02.07-.08.03-.03.06-.07.07-.08.03-.04.06-.06.05-.06.05-.06c.16-.18.31-.36.5-.53-.23-.1-.47-.19-.7-.27h-.03l-.31-.1-.16-.05-.08-.03-.09-.02-.09-.03-.08-.02-.09-.03-.08-.02-.1-.02-.08-.02-.09-.02-.08-.02-.09-.02h-.08l-.1-.02h-.25l-.1-.02h-2.9l-.11.02h-.08l-.1.02-.08.02-.11.02h-.05l-.13.03-.18.04-.18.04-.09.03-.09.03-.11.03-.07.02-.1.03-.1.03-.08.03-.09.03-.1.03-.09.03-.09.03-.09.03-.09.04-.09.04-.09.04-.09.04-.1.04-.08.04-.1.04-.08.04-.1.05-.07.03-.12.06-.06.03-.12.06-.17.09-.18.1-.11.07-.07.04-.08.05-.11.07-.06.04-.13.08-.06.04-.11.08-.08.05-.1.07-.08.06-.1.07-.08.06-.1.08-.07.05-.1.08-.08.07-.09.08-.08.07-.1.09-.07.06-.12.11-.06.05-.11.1-.07.06-.13.12-.04.04-.17.17-2.47 2.47-.4.39c.14.12.29.24.44.35l.04.03.08.06.05.03.08.06.12.08.13.09.13.09.09.06.04.03.03.02.03.03.09.06.06.04.07.04.08.05.06.04.08.04.07.04.06.03.09.05.05.03.08.05.07.04.12.07h.02l.13.07.14.07.13.07.14.07.1.05.06.03.07.03.08.03.07.03.08.04.08.03.05.03.09.04.06.03.1.04.14.05.13.05.14.05.14.05.1.03.06.02.09.03.06.02.09.03.05.02.1.03.05.02.1.03.05.02.1.03.06.02.09.03.08.02h.07l.1.03h.07l.14.03.15.03.14.03.13.03h.02l.13.03h.03l.1.02h.07l.08.02h.07l.09.02h.47l.14.02.15.02h2.15l.77.04c.03-.14.06-.27.1-.41l.02-.07v-.02l.03-.11.04-.15.03-.14.03-.12v-.07l.03-.1v-.04l.03-.09.03-.08v-.02l.02-.08v-.02l.04-.11v-.03l.04-.13v-.03l.04-.13.05-.13.04-.12v-.03l.04-.1v-.02l.03-.07v-.04l.02-.06.03-.07v-.02l.03-.08.03-.09v-.07l.04-.11v-.02l.05-.12.05-.13.05-.12v-.03l.05-.1.04-.09.02-.03.03-.06.03-.07v-.02l.04-.1.04-.09.02-.04.05-.1v-.02l.06-.12.06-.12.06-.11.04-.08.03-.05.04-.08.03-.05.04-.07.04-.08.03-.05.04-.07.04-.07.02-.03.06-.1.07-.11.07-.12.07-.11.06-.09.02-.03.05-.08v-.02l.03-.05.02-.03.05-.08.03-.04.05-.08.02-.04.03-.03.02-.03.06-.08.08-.11.08-.11.08-.1.02-.02.07-.09.06-.08Zm9.14 7.14-.02-.1v-.08l-.02-.09v-.08l-.02-.09-.02-.09-.02-.08-.02-.1-.02-.07-.02-.1-.02-.09-.02-.08-.02-.08-.03-.11-.02-.07-.03-.13v-.05c-.02-.06-.03-.11-.05-.17-.02-.06-.03-.11-.05-.17l-.04-.11-.02-.06v-.02c.04.09-.05-.14-.15-.37h-.02c-.17.17-.35.34-.53.5l-.06.05-.05.05-.06.05-.04.03-.08.07-.07.06-.03.03-.08.07-.02.02-.1.08-.11.09-.1.08-.08.07-.03.02-.03.03-.04.03-.06.05-.08.05-.03.02-.08.06-.05.04-.08.05-.09.06-.02.02-.1.08-.11.08-.11.08-.1.07h-.02l-.03.02-.03.02-.07.05-.07.05-.03.02-.08.05-.04.03-.08.05-.03.03-.09.06-.11.07-.12.07-.22.13h-.03l-.11.06-.11.06-.23.12-.05.03-.08.04-.11.06-.48.24h-.02l-.09.05h-.02l-.07.03-.06.03-.03.02-.09.04-.25.11-.13.05-.12.05-.09.04-.03.02h-.04l-.09.03-.1.04-.04.02-.11.04-.13.05-.1.04h-.03l-.12.04-.13.05-.13.04h-.02l-.11.04-.09.03h-.05l-.1.03h-.03l-.11.03h-.03l-.11.03h-.04l-.09.03-.12.03-.13.04-.15.04-.11.03h-.02l-.07.02-.41.09c0 .12-.02.25-.02.37v2l.02.15v.15l.02.14v.64l.02.08v.07l.02.1v.03l.03.13v.02l.03.13v.02l.03.13.03.15.03.14v.07l.03.1.02.07.02.08.02.09.02.06.03.1.02.05.03.1v.05l.03.1.02.05.03.1.02.06.03.09.02.06.03.1.05.14.05.14.05.13.06.13.04.1.03.06.04.09.02.05.03.08.03.08.03.07.03.08.03.07.03.06.05.1.07.14.07.13.07.14.07.13v.02l.06.12.04.07.04.08.03.05.05.09.03.06.04.07.04.08.04.06.05.08.04.07.04.06.06.09.03.04.02.03.03.04.06.09.08.13.09.13.08.12.06.08.03.05.06.08.03.04c.11.15.23.3.35.44l.4-.4 2.46-2.47.17-.18.04-.04.12-.13.06-.07.1-.11.05-.06.1-.12.06-.07.09-.1.07-.08.08-.09.07-.08.08-.1.05-.07.08-.11.06-.08.08-.1.06-.08.07-.1.05-.08.08-.11.04-.06.08-.13.04-.06.07-.11.05-.08.1-.17c.03-.06.07-.12.1-.18l.09-.17.06-.12.03-.06.06-.12.03-.06.05-.1.04-.08.04-.1.04-.08.04-.1.04-.09.04-.09.04-.1.03-.08.04-.11.03-.08.03-.1.03-.1.03-.09.03-.08.03-.1.03-.08.03-.1.02-.08.03-.09.03-.1c.02-.06.03-.12.04-.18.02-.06.03-.12.04-.18l.03-.13v-.05l.02-.11.02-.08.02-.1v-.08l.02-.1v-2.9Zm.77-10.4c-.36.12-.71.26-1.06.4l-.17.07h-.02l-.04.02-.14.06-.07.03-.12.06-.06.03-.12.06-.08.04-.14.07-.03.02c-.06.03-.13.06-.19.09l-.16.09-.08.04-.11.06-.07.04-.1.06-.07.04-.12.07-.04.03-.15.09H38l-.17.1h-.03l-.13.08-.08.06-.09.06-.07.04-.11.08-.05.03-.12.08-.05.03-.14.1-.02.02-.04.03-.11.08-.06.05-.09.07-.08.06-.08.07-.06.04-.11.09-.05.04-.09.08-.08.06-.13.12-.02.02-.12.11-.06.05-.09.08-.05.05-.09.08-.06.06-.1.09-.03.03-.14.14-.13.14-.04.04-.1.11-.03.04-.1.11-.04.05-.08.1-.05.05-.13.15-.11.14-.04.05-.09.11-.03.03-.09.12-.04.05-.08.11-.04.06-.08.11-.03.04v.02l-.11.16-.1.14-.04.06-.07.1-.05.07-.06.09-.05.07-.07.12-.03.05-.09.15v.04l-.09.15-.03.05-.07.13-.03.06-.07.12-.03.07-.06.11-.03.07-.08.15v.03l-.09.18v.02c-.03.05-.05.11-.08.17l-.03.06-.06.13-.03.07-.06.13-.03.06-.06.15-.02.04v.02c-.14.33-.26.67-.37 1.02.35-.11.69-.24 1.02-.37l-.04-.04h.02l.04-.02.15-.06.06-.03.13-.06.07-.03.13-.06.06-.03.17-.08h.02l.18-.09h.03l.15-.08.06-.03.12-.06.06-.03.12-.07.06-.03.14-.08.04-.02.18-.1.18-.11h.02l.16-.1.03-.02.14-.09.04-.03.14-.09.03-.02.12-.08.05-.04.14-.1h.02l.03-.02.13-.1.04-.03.12-.09.05-.04.12-.09.04-.03.14-.11h.02l.16-.13.15-.13.05-.05.1-.08.05-.04.1-.1.04-.03.11-.1.04-.03.14-.13.14-.14.03-.03.09-.1.06-.06.09-.1.04-.04.09-.1.05-.06.11-.13.12-.14.04-.05.08-.1.05-.05.08-.1.04-.05.09-.11.03-.04.09-.12.03-.04.09-.13.02-.03.11-.16.03-.04.09-.13.03-.05.08-.11.04-.06.08-.12.03-.04.08-.13.03-.04v-.02l.09-.15.1-.17.03-.04.08-.13.03-.06.07-.12.04-.07.06-.11.03-.06.09-.18.09-.19.02-.05.07-.13.03-.07.05-.11.04-.08.04-.1.04-.09.05-.1.03-.07c.03-.06.05-.12.07-.17.14-.34.28-.7.4-1.05Zm3.71-7.79.02.12v1.19l-.02.1s-.02.05-.02.08l-.03.1s-.01.05-.02.07c0 .03-.03.07-.03.1s-.02.05-.03.08l-.03.08-.03.06s-.03.06-.04.09l-.03.04-.06.09-.03.05s-.04.06-.06.08c-.03.04-.07.08-.11.12-.04.04-.08.07-.12.11l-.08.06-.05.03-.09.06-.04.03-.08.04-.07.03-.08.03-.08.03-.1.03-.07.02s-.08.03-.11.03l-.07.02-.11.02h-1.18l-.12-.02-.13-.02-.12-.03-.14-.03-.13-.03-.13-.03-.15-.04-.12-.03-.16-.05-.13-.04-.15-.05-.14-.05-.15-.06-.15-.05-.15-.06-.16-.07-.15-.06-.16-.07-.16-.07-.17-.08-.16-.08-.17-.08-.18-.09-.16-.08-.18-.09-.18-.1-.18-.09-.18-.1-.19-.1-.19-.11-.18-.11-.19-.12-.18-.11-.21-.14-.17-.11-.21-.14-.19-.13-.31-.22-.2-.09-.26.14-.11.05-.17.08-.08.04-.18.08-.13.06-.15.06-.14.06-.12.05-.14.06-.14.05-.12.05-.15.05-.15.05-.12.04-.14.05-.13.04-.14.04-.14.04-.13.04-.15.04-.13.04-.14.03-.12.03-.16.04-.11.02-.16.03-.12.03-.15.03-.12.02-.15.03-.13.02-.15.02-.12.02-.16.02-.12.02h-3l-.14-.02-.13-.02-.14-.02-.12-.02-.15-.03-.12-.02-.15-.03-.11-.02-.15-.03-.12-.03-.14-.03-.13-.03-.14-.04-.11-.03-.15-.04-.12-.03-.13-.04-.14-.04-.12-.04-.13-.04-.14-.05-.11-.04-.16-.06-.1-.04-.15-.06-.11-.04-.14-.06-.12-.05-.14-.06-.12-.05-.12-.06-.14-.06-.11-.05-.14-.07-.12-.06-.13-.07-.13-.07-.13-.07-.1-.06-.14-.08-.13-.07-.11-.07-.13-.08-.12-.08-.11-.07-.13-.09-.13-.09-.1-.07-.14-.1-.11-.07-.11-.08-.13-.09-.14-.11-.08-.07-.17-.14-.06-.05-.13-.11-.1-.08-.21-.18-.15-.14-.07-.06-.21-.2-.21-.2-.22-.21-4.77-4.78s-.08-.1-.11-.16a.646.646 0 0 1-.04-.19c0-.13.05-.25.14-.35l.03-.03h.02l.17-.16.06-.06.13-.13.04-.04.14-.14.07-.06.13-.12.05-.05.13-.12.07-.06.12-.11.07-.07.1-.09.09-.08.11-.09.08-.07.12-.1.06-.05.15-.13.03-.03.18-.15c.12-.1.23-.19.35-.28l.04-.03c.12-.1.24-.19.37-.28l.02-.02.17-.13.02-.02.17-.12.03-.02.15-.11.07-.05.13-.08.08-.05.12-.08.06-.04.15-.1.05-.03.15-.09.05-.03.14-.09.07-.04.11-.07.09-.05.11-.07.08-.05.11-.06.09-.05.13-.07.07-.04.13-.07.08-.04.12-.06.08-.04.2-.1.21-.1.19-.09.08-.03.14-.06.07-.03.14-.06.1-.04.1-.04.11-.04.11-.04.1-.04.11-.04.1-.03.12-.04.11-.04.11-.03.12-.03.11-.04.1-.03.11-.03.12-.03.11-.03.11-.03.13-.03.1-.03.14-.03.08-.02.12-.03.12-.03.22-.05.23-.04h.07l.17-.03h.05l.19-.03h.06l.17-.03h.11l.13-.02.12-.02h3.05v-2.86l.02-.14v-.09l.02-.15.02-.12.02-.11.02-.13.02-.11v-.08l.03-.16c.01-.08.04-.15.04-.23l.05-.22.03-.13.03-.11.03-.13.03-.1.03-.12.03-.12.03-.09.03-.13.03-.11.03-.11.03-.1.04-.11.04-.12.03-.11.04-.11.04-.12.03-.1.04-.11.04-.1.04-.11.04-.11.04-.1.04-.1.05-.13.04-.09.05-.12.04-.1.05-.1.05-.11.09-.2c.03-.07.06-.13.1-.2l.03-.07.07-.13.03-.07.08-.14.03-.05.08-.14.05-.08.07-.12.05-.08.07-.11.05-.09.07-.12.05-.08.08-.12.04-.07.08-.14.04-.07.08-.13.05-.07.08-.12.05-.07.09-.14.04-.06.12-.17.02-.02.13-.18v-.02l.14-.19c.09-.12.19-.24.28-.37l.14-.17.02-.02.03-.04.13-.15.15-.18.03-.03.13-.15.05-.06.1-.12.07-.08.09-.11.08-.09.09-.1.06-.07.11-.12.06-.07.12-.13.05-.05.12-.13.06-.07.14-.14.03-.04.13-.13.06-.06.16-.16V.13l.03-.03a.5.5 0 0 1 .54-.1c.06.02.12.06.16.11l4.78 4.77.21.22c.07.07.14.14.2.21l.2.21.06.07c.04.05.09.1.14.15l.18.21.08.1.11.13.05.06.14.17.07.09.11.14.09.13.08.11.08.1.09.14.07.1.08.13.09.13.07.11.08.12.08.13.07.11.08.13.08.14.06.1.07.13.07.13.07.13.06.12.07.14.05.11.06.13.06.13.05.12.06.14.05.12.06.14.04.11.06.15.04.1.06.16.04.11.05.14.05.13.04.13.04.14.04.13.03.12.04.15.03.11.04.14.03.13.03.14.03.12.03.15.02.11.03.15.02.12.03.15.02.12.02.14v.13l.02.14.02.13v2.88l-.02.12-.02.16-.02.12-.03.15-.02.13c-.03.05-.03.1-.03.15l-.02.12-.03.15-.02.12-.04.16-.02.11c-.01.05-.04.11-.04.16l-.03.12-.03.14-.04.13c-.01.05-.04.1-.04.15l-.04.13-.04.14-.04.14-.04.13-.05.14-.04.12-.05.15c-.02.05-.03.1-.05.15l-.05.12s-.03.09-.05.14l-.06.14-.05.13c-.02.05-.04.1-.06.14l-.06.15-.06.13-.08.18-.04.09c-.03.05-.06.11-.08.17l-.05.11-.13.26c-.04.09-.09.18-.14.26l.22.31.13.19c.04.07.09.14.14.21l.11.17.14.21.11.18.12.2.11.18.11.19.1.19.1.18.09.17c.03.06.07.13.1.19l.09.18.08.17.09.18.08.17.08.16.08.17.07.16.07.17.06.15.07.16.06.15.06.15c.02.05.03.1.05.15l.05.14.05.15.04.13.05.15.03.13.04.14.03.14.03.13.03.14c0 .04.03.08.03.12l.02.13ZM31.29 14.16c0 .12.02.25.02.37l.41.09.07.02h.02l.11.03.15.04.13.03.12.03.09.03h.04l.11.03h.03l.11.03h.03l.1.03.05.02.09.03.11.04h.02l.13.04.13.05.12.04h.03l.1.04.13.05.11.04.04.02.1.04.09.03.04.02h.03l.09.04.12.05.13.05.25.11.09.04h.03l.06.03.07.03h.02l.09.04h.02l.48.24.11.06.08.04.05.03.23.13.11.06.11.06.03.02.22.13.12.07.11.07.09.06.03.02.08.05.04.03.08.05.03.02.07.05.07.05.03.02.03.03h.02l.1.07.11.08.11.08.1.08h.02l.09.07.08.06.05.04.08.06.03.02.08.05.06.05.04.03.03.03.03.02.08.07.1.08.11.09.1.08.02.02.08.07.03.03.07.06.08.07.04.03.06.06.05.05.06.05c.18.16.36.33.53.5h.02c.1-.23.19-.46.15-.42l.02-.06.04-.11c.02-.05.03-.11.05-.17.02-.06.03-.11.05-.17v-.05l.03-.13.02-.07.03-.11.02-.08.02-.09.02-.09.02-.1.02-.07.02-.1.02-.08.02-.09.02-.09v-.09l.02-.09v-.08l.02-.1v-2.9l-.02-.1v-.08l-.02-.1-.02-.08-.02-.11v-.05l-.03-.13c-.01-.06-.03-.12-.04-.18-.01-.06-.03-.12-.04-.18l-.03-.1-.03-.09-.02-.08-.03-.1-.03-.08-.03-.11-.03-.08-.03-.09-.03-.1-.03-.1-.03-.08-.04-.11-.03-.08-.04-.09-.04-.09-.04-.09-.04-.1-.04-.08-.04-.1-.04-.09-.05-.1-.03-.07-.06-.12-.03-.06-.06-.12-.09-.17c-.03-.06-.07-.12-.1-.18l-.1-.17-.05-.08-.07-.11-.04-.06-.08-.13-.04-.06-.08-.11-.05-.08-.07-.1-.06-.08-.08-.1-.06-.08-.08-.1-.05-.07-.08-.1-.07-.08-.08-.09-.07-.08-.09-.1-.06-.07-.1-.12-.05-.06-.1-.11-.06-.07-.12-.13-.04-.04-.17-.17L34.65 5l-.4-.4c-.12.14-.24.29-.35.44l-.03.04-.06.08-.03.05-.06.09-.08.12-.09.13-.08.13-.06.09-.03.04-.02.03-.03.03-.06.09-.04.06-.04.07-.05.08-.04.06-.04.08-.04.07-.03.06-.05.09-.03.05-.04.08-.04.07-.06.12v.02L32.7 7l-.07.14-.07.13-.07.14-.05.1-.03.06-.03.07-.03.08-.03.07-.03.08-.03.08-.02.05-.04.09-.03.06-.04.1-.06.14-.05.13-.05.14-.05.14-.03.1-.02.06-.03.09-.02.06-.03.09-.02.05-.03.1v.05l-.03.1-.02.05-.03.1-.02.06-.02.09-.02.08-.02.07-.03.1v.07l-.03.14-.03.15-.03.14-.03.13v.02l-.03.13v.03l-.02.1v.07l-.02.08v.64l-.02.14v.17l-.02.15v2Zm1.5 11.38a8.27 8.27 0 0 1-.5-.53l-.05-.06-.05-.06-.06-.06-.03-.04-.07-.08-.06-.07-.03-.03-.07-.08-.02-.02-.08-.1-.09-.11-.08-.1-.07-.08-.02-.03-.03-.03-.03-.04-.05-.06-.05-.08-.02-.03-.06-.08-.04-.05-.06-.07-.07-.09-.02-.02-.08-.1-.08-.11-.08-.11-.06-.09-.02-.03-.03-.03-.02-.03-.05-.08-.03-.04-.05-.08-.02-.03-.03-.05v-.02l-.05-.08-.02-.03-.06-.09-.07-.11-.07-.12-.07-.11-.06-.1-.02-.03-.04-.07-.04-.07-.03-.05-.04-.08-.04-.07-.03-.05-.04-.08-.03-.05-.04-.09-.06-.11-.06-.12-.06-.12v-.02l-.05-.1-.02-.04-.04-.09-.04-.09v-.03l-.03-.07-.03-.06-.02-.03-.04-.09-.05-.1v-.03l-.05-.12-.05-.13-.05-.12v-.02l-.04-.1v-.07l-.03-.09-.03-.08v-.03l-.03-.07-.02-.06v-.04l-.03-.07v-.02l-.04-.1v-.03l-.04-.12-.05-.13-.04-.13v-.02l-.04-.13v-.03l-.04-.11v-.02l-.02-.08v-.02l-.03-.08-.03-.09v-.04l-.03-.09v-.07l-.03-.12-.03-.13-.04-.15-.03-.11v-.02l-.02-.07c-.03-.14-.07-.27-.1-.41l-.78.03h-1.98l-.15.02-.15.02-.14.02h-.31l-.11.02h-.22l-.08.02h-.07l-.1.02h-.03l-.13.03h-.02l-.13.03-.14.03-.15.03-.14.03h-.07l-.1.03-.07.02-.08.02-.09.03-.06.02-.1.03-.05.02-.1.03-.05.02-.1.03-.05.02-.09.03-.06.02-.09.03-.06.02-.1.03-.14.05-.14.05-.13.05-.14.06-.1.04-.06.03-.09.04-.05.03-.08.03-.08.03-.07.03-.08.03-.07.03-.06.03-.1.05-.14.07-.13.07-.14.07-.13.07h-.02l-.12.06-.07.04-.08.04-.05.03-.09.05-.06.03-.07.04-.08.04-.06.04-.08.05-.07.04-.06.04-.09.06-.03.03-.03.02-.04.03-.09.06-.13.09-.13.09-.12.08-.08.06-.05.03-.08.06-.04.03c-.15.11-.3.23-.44.35l.4.4 2.47 2.47.17.17.04.04.13.12.07.06.11.1.06.05.12.1.07.06.1.09.08.07.09.08.08.07.1.08.07.05.1.08.08.06.1.08.08.06.1.07.08.05.11.08.06.04.13.08.06.04.11.07.08.05.07.04.11.07.18.1.17.09.12.06.06.03.12.06.07.03.1.05.08.04.1.04.08.04.1.04.09.04.09.04.09.04.09.03.09.03.09.03.09.03.1.03.09.03.08.03.1.03.1.03.07.02.11.03.09.03.09.03.18.04.18.04.13.03h.05l.11.02h.08l.1.02h.08l.11.02h.07l.11.02h2.9l.1-.02h.07l.1-.02.08-.02.09-.02.08-.02.09-.02.08-.02.1-.02.08-.02.09-.03.08-.02.09-.02.09-.03.08-.03.16-.05.31-.1h.03c.24-.08.47-.17.7-.27Zm8.37 1.44c-.13-.36-.26-.71-.4-1.05a1.22 1.22 0 0 1-.07-.17l-.03-.07-.05-.1-.04-.09-.04-.1-.04-.08-.05-.11-.03-.07-.07-.13-.02-.05-.09-.19-.09-.18-.03-.07-.06-.11-.04-.07-.07-.12-.03-.06-.08-.13-.03-.04-.1-.17-.09-.15-.03-.04-.08-.13-.03-.04-.08-.12-.04-.06-.08-.11-.03-.05-.09-.13-.03-.04-.11-.16-.02-.03-.09-.13-.03-.04-.09-.12-.03-.04-.09-.11-.04-.05-.08-.1-.05-.05-.08-.1-.04-.05-.12-.14-.11-.13-.05-.06-.09-.09-.04-.04-.09-.1-.06-.06-.09-.1-.03-.03-.14-.14-.14-.13-.04-.04-.11-.1-.04-.03-.1-.1-.05-.04-.1-.08-.05-.05-.15-.13-.16-.13h-.02l-.14-.11-.04-.03-.12-.09-.05-.04-.12-.09-.04-.03-.13-.09-.03-.03h-.02l-.14-.1-.05-.04-.12-.09-.03-.02-.14-.09-.04-.03-.14-.09-.03-.02-.16-.1h-.02l-.18-.11-.18-.1-.04-.02-.14-.08-.06-.03-.12-.07-.06-.03-.12-.06-.06-.03-.15-.08h-.03l-.18-.09h-.02l-.17-.08-.06-.03-.13-.06-.07-.03-.13-.06-.06-.03-.15-.06-.04-.02h-.02.04c-.33-.14-.67-.27-1.02-.38.11.35.24.69.37 1.02v.03l.02.04.06.15.03.06.06.13.03.07.06.13.03.06.08.17.09.18v.03l.08.15.03.07.06.12.03.06.07.12.03.06.07.13.03.04.09.16v.04l.09.15.03.05.07.12.05.07.06.09.05.07.07.11.04.06.1.14v.02l.11.16.03.04.08.11.04.06.08.1.04.05.09.12.03.04.09.11.04.05.11.14.13.15.05.05.08.1.04.05.1.1.03.04.1.11.04.04.13.14.14.14.03.03.1.09.06.06.09.08.05.05.09.08.06.05.12.11h.02l.13.12.08.07.09.08.05.04.11.09.06.04.08.07.08.06.09.07.06.05.11.08.04.03h.02l.14.1.05.03.12.08.05.03.11.08.07.04.09.06.08.05.13.08h.03l.17.1h.02l.15.09.04.03.12.07.07.04.1.06.07.04.11.06.08.04.16.08.19.09h.03l.14.07.08.04.12.06.06.03.12.06.07.03.14.06.04.02h.02l.17.08c.35.14.7.28 1.06.4ZM76.6 42.22c.02.06.04.13.04.19s-.01.13-.03.19c-.02.06-.06.11-.11.16l-.03.03-.02.02-.16.16-.06.06-.14.13-.03.03-.15.14-.06.06-.13.12-.05.05-.13.12-.07.06-.12.11-.08.07-.1.09-.09.08-.11.09-.08.07-.12.1-.06.05-.15.13-.03.03-.18.15-.15.12-.04.03-.02.02-.17.14c-.12.1-.25.19-.37.28l-.19.14h-.02l-.18.13h-.02l-.17.12-.06.04-.13.09-.07.05-.12.08-.07.05-.13.08-.07.04-.14.08-.07.04-.12.08-.08.05-.12.07-.09.05-.11.07-.08.05-.12.07-.08.05-.14.08-.05.03-.14.08-.07.03-.13.07-.07.03-.19.1-.2.1-.11.05-.1.04-.1.04-.12.05-.08.04-.13.05-.1.04-.1.04-.11.04-.11.04-.11.04-.11.04-.1.04-.12.04-.11.04-.1.03-.12.04-.11.03-.11.03-.11.03-.11.03-.12.03-.1.03-.12.03-.12.03-.09.03-.13.03-.11.02-.13.03c-.07.02-.15.03-.22.05l-.23.04-.16.03h-.08l-.12.02-.13.02-.12.02-.12.02-.15.02h-.09l-.14.02h-2.86v2.89l-.02.12-.02.13v.11l-.03.17v.06c0 .07-.02.13-.03.19v.06l-.03.17v.07c0 .08-.03.15-.04.23 0 .08-.03.15-.04.22l-.03.12-.03.12-.02.09-.03.14-.03.1-.03.13-.03.11-.03.11-.03.13-.03.11-.03.1-.03.11-.04.12-.03.11-.04.11-.04.12-.04.1-.04.11-.04.11-.04.11-.04.11-.04.1-.04.1-.06.14-.03.06-.06.14-.03.08-.09.19-.1.21-.09.2-.04.08-.06.11-.04.08-.07.13-.04.07-.07.13-.05.09-.07.11-.05.08-.07.11-.05.09-.07.12-.04.07-.09.14-.03.05-.09.15-.03.05-.09.14-.04.06-.08.12-.06.08-.08.13-.05.07-.11.15-.03.03-.12.17-.02.02-.13.17-.02.02-.28.37-.03.04-.28.35-.15.18-.03.03-.13.15-.05.06-.1.12-.07.08-.09.11-.08.09-.09.1-.07.08-.11.12-.06.07-.12.13-.05.05-.12.13-.06.06-.14.14-.03.04-.13.13-.06.06-.16.16-.02.02-.03.03s-.1.08-.16.11c-.06.02-.12.04-.19.04s-.13-.01-.19-.04a.355.355 0 0 1-.16-.11l-4.77-4.77c-.07-.07-.14-.14-.21-.22-.07-.07-.14-.14-.2-.21-.07-.07-.13-.14-.19-.21l-.06-.07-.14-.15-.18-.21-.08-.11-.11-.13-.05-.06-.14-.17-.07-.08-.11-.14-.09-.13-.08-.11-.07-.1-.1-.14-.07-.1-.09-.13-.08-.13-.07-.11-.07-.12-.08-.13-.07-.11-.08-.13-.08-.14-.06-.1-.07-.13-.07-.13-.07-.13-.06-.11-.07-.14-.05-.11-.06-.13-.06-.13-.05-.12-.06-.14-.05-.12s-.04-.09-.06-.14l-.04-.11-.06-.15-.04-.1-.06-.16-.04-.11-.05-.14-.04-.13-.04-.13-.04-.14-.04-.13-.03-.12-.04-.15-.03-.11-.04-.14-.03-.13-.03-.14-.03-.12-.03-.15-.02-.11-.03-.15-.02-.12-.03-.15-.02-.12-.02-.14-.02-.13-.02-.14v-2.62l.02-.15v-.12c0-.05 0-.1.02-.16v-.12l.02-.15.02-.13.03-.15.02-.13.03-.15.03-.12c0-.06.02-.11.03-.17l.03-.1c0-.06.03-.11.04-.16l.03-.12.04-.14.03-.13c0-.05.03-.1.04-.15l.04-.13s.03-.09.04-.14l.04-.14.04-.13.05-.15.04-.12.05-.15.05-.15.05-.12s.04-.09.05-.14l.06-.14.05-.13s.04-.1.06-.14c.02-.05.04-.1.06-.14l.06-.13.08-.19.04-.08c.03-.06.05-.11.08-.17l.05-.11c.04-.08.09-.17.14-.26l-.08-.27-.22-.31-.13-.19-.14-.21-.11-.17c-.05-.07-.09-.14-.14-.21l-.11-.18-.12-.2-.11-.18-.11-.19-.11-.19-.1-.18-.09-.18-.1-.18-.09-.18-.08-.17-.09-.18-.08-.17-.08-.16-.08-.17-.07-.16-.07-.17-.06-.15-.07-.16-.06-.15-.05-.15-.06-.15-.05-.14c-.02-.05-.03-.1-.05-.15l-.04-.13c-.02-.05-.03-.11-.05-.16-.02-.05-.02-.08-.03-.12 0-.04-.03-.1-.04-.15l-.03-.13-.03-.14c0-.04 0-.09-.03-.14-.03-.04-.02-.08-.02-.12 0-.04 0-.08-.02-.13-.02-.04 0-.08-.02-.12-.02-.04 0-.08 0-.12V33.5l.02-.11s.01-.04.02-.07l.03-.11s0-.05.02-.07c.02-.02.02-.07.03-.1l.03-.08s.02-.06.03-.08c.01-.03.02-.04.03-.07 0-.02.03-.06.04-.09l.03-.04.06-.09.03-.05s.04-.06.06-.08.07-.08.11-.12c.04-.04.08-.07.12-.11l.08-.06.05-.03.09-.06.04-.03.09-.04.07-.03.08-.03.08-.03.1-.03.07-.02.1-.03.08-.02.1-.02.09-.02h1.09l.12.02.13.02.12.02.14.03.13.03.14.03.14.03.13.04.15.04.13.04.15.05.14.05.15.05.16.06.15.06.16.07.15.06.17.07.16.07.17.08.16.08.17.08.18.09.17.08.18.09.19.1.17.09.18.1.19.11.19.11.18.11.2.12.18.11.21.14.17.11.21.14.19.13.31.22.26-.14.26-.14.11-.06.17-.08.08-.04.19-.08.13-.06.14-.06.14-.06.13-.05.14-.06.14-.05.12-.05.15-.05.15-.05.12-.04.15-.05.13-.04.14-.04.14-.04.12-.04.15-.04.13-.03.14-.04.12-.03c.05 0 .11-.03.16-.04l.11-.03.16-.03.12-.03.15-.03.12-.02.15-.03.13-.02.15-.02h.12l.16-.02h.12l.15-.02h2.72l.13.02.14.02.13.02.14.02.12.02.15.03.12.02.15.03.11.02.15.03.12.03.14.03.13.03.15.04.11.03.15.04.12.03.13.04.14.04.13.04.13.04.14.05.11.04.16.06.1.04.15.06.11.04.14.06.12.05.14.06.12.06.13.06.13.06.11.05.14.07.11.06.13.07.12.07.13.07.1.06.14.08.13.07.11.07.13.08.12.08.11.07.13.09.13.09.1.07.14.1.1.07.11.08.13.09.14.11.08.07.17.14.06.04.13.11.11.08.21.18.15.14.07.06.21.2.21.2.21.21 4.77 4.78s.08.1.11.16Zm-26.16-4.89.04.08.07.13.02.03.09.19.08.16.04.07.06.11.04.07.06.1.04.07.07.12.03.05.09.15v.02l.1.17v.02l.08.13.06.08.06.09.05.07.08.11.03.05.08.12.03.05.1.14v.02l.03.04.08.12.05.06.07.09.06.08.07.08.04.06.09.11.04.05.08.09.06.08s.08.09.12.14l.02.02.11.12.05.06.08.09.05.05.08.09.06.06.09.1.03.03.14.14.14.13.04.03.11.1.04.03.11.1.05.04.1.08.05.05.15.13.14.11.05.04.11.09.03.03.12.09.05.04.1.08.06.04.11.08.04.03h.02l.16.11.14.1.06.04.1.07.07.05.09.06.07.05.12.07.05.03.15.09h.04l.15.09.05.03.13.07.06.03.12.07.07.03.11.06.07.03.15.08h.03l.18.09h.02l.17.08.06.03.12.06.07.03.13.06.06.03.15.06.04.02h.03c.33.14.67.26 1.02.37-.12-.35-.24-.69-.37-1.02l-.06.03v-.02l-.02-.04-.06-.15-.03-.06-.06-.13-.03-.07-.06-.13-.03-.06-.08-.17v-.02l-.09-.18v-.03l-.08-.15-.03-.07-.06-.11-.03-.07-.07-.12-.03-.06-.08-.14-.02-.04-.1-.18c-.03-.06-.07-.12-.11-.18v-.02l-.1-.16-.02-.03-.09-.14-.03-.04-.09-.14-.02-.03-.08-.12-.03-.05-.1-.14v-.02l-.02-.03-.1-.13-.03-.03-.09-.12-.04-.05-.09-.12-.03-.03-.11-.14v-.02l-.13-.15-.13-.15-.05-.05-.08-.1-.04-.05-.09-.11-.04-.04-.1-.11-.03-.04-.13-.14-.14-.14-.03-.03-.1-.09-.06-.06-.1-.09-.04-.04-.1-.09-.05-.05-.13-.11-.14-.12-.05-.04-.1-.08-.05-.05-.1-.08-.05-.04-.11-.09-.04-.03-.12-.09-.04-.03-.13-.09-.03-.03-.16-.11-.04-.03-.13-.09-.05-.04-.11-.07-.06-.04-.12-.08-.04-.03-.13-.08-.04-.03-.15-.09-.17-.1-.04-.03-.13-.08-.06-.03-.12-.07-.07-.04-.11-.06-.06-.03-.18-.09-.19-.09-.05-.03-.13-.06-.08-.04-.11-.05-.08-.04-.1-.04-.09-.04L51 36l-.07-.03-.17-.08c-.34-.14-.69-.28-1.05-.41.12.36.26.71.4 1.06l.07.17v.02l.02.04.06.14.03.07.06.12.03.06.06.12Zm9.19 10.97v.02l-.41-.09-.07-.02h-.02l-.11-.03-.15-.04-.14-.04-.12-.03h-.07l-.1-.03h-.04l-.09-.03-.08-.03h-.02l-.08-.02h-.02l-.11-.03h-.03l-.12-.04h-.04l-.13-.04-.13-.05-.12-.04h-.03l-.1-.04h-.02l-.07-.03h-.04l-.06-.02-.07-.03h-.02l-.08-.03-.09-.03h-.07l-.11-.04h-.02l-.12-.05-.13-.05-.12-.05h-.03l-.1-.04-.09-.04-.03-.02-.06-.03-.07-.03h-.02l-.1-.05-.09-.04-.04-.02-.1-.05h-.02l-.12-.06-.12-.06-.11-.06-.08-.04-.05-.03-.08-.04-.05-.03-.07-.03-.07-.04-.05-.03-.07-.04-.07-.04h-.03l-.1-.06-.11-.07-.12-.07-.11-.07-.09-.06-.03-.03-.08-.05h-.02l-.05-.03-.02-.02-.08-.05-.04-.03-.08-.05-.04-.02-.03-.02-.03-.02-.09-.06-.11-.08-.11-.08-.1-.08-.02-.02-.09-.06-.08-.05-.05-.04-.08-.06-.03-.02-.07-.05-.06-.05-.04-.03-.03-.03-.03-.02-.08-.07-.1-.08-.11-.09-.1-.08-.02-.02-.08-.07-.03-.03-.07-.06-.08-.07-.03-.03-.06-.05-.06-.05-.06-.05c-.18-.16-.36-.31-.53-.5-.1.23-.19.47-.27.71v.03c-.03.1-.07.2-.1.31l-.05.16-.03.08-.02.09-.03.09-.02.08-.03.09-.02.08-.02.1-.02.08-.02.09-.02.08-.02.09-.02.08-.02.1v.25l-.02.1v2.72l.02.11v.07l.02.11v.08l.02.1v.08l.02.11v.05l.03.13c0 .06.03.12.04.18 0 .06.03.12.04.18l.03.1.03.09.03.11.02.07.03.1.03.09.03.08.03.09.03.1.03.09.03.09.03.09.04.09.04.09.04.09.04.09.04.1.04.08.04.1.04.08.05.1.03.06.06.12.03.06.06.12.09.17c.03.06.07.12.1.18l.07.11.04.07.05.08.07.11.03.06.08.13.04.06.08.11.05.08.07.1.06.08.07.1.06.08.08.11.06.07.08.1.07.08.08.09.07.08.08.1.06.07.1.12.05.06.1.11.06.07s.08.08.12.13l.04.04.17.18 2.46 2.47.4.4c.12-.14.23-.29.35-.44l.03-.04.06-.08.03-.05.06-.08.08-.12.09-.13.09-.13.06-.09.03-.04.02-.03.02-.04.06-.09.04-.06.04-.07.05-.08.04-.06.05-.08.04-.07.03-.06.05-.09.03-.05.04-.08.04-.07.07-.12v-.02l.07-.13.07-.14.07-.13.07-.14.05-.1.03-.06.03-.07.04-.08.03-.07.04-.08.03-.08.03-.05.04-.09.03-.06.04-.1.05-.13.05-.13.05-.14.05-.14.03-.1.02-.06.03-.09.02-.06.03-.1.02-.05.03-.1.02-.05.03-.1v-.05l.03-.1.02-.06.03-.09.02-.08.02-.07.03-.1v-.07l.03-.14.03-.15.03-.13v-.02l.03-.13v-.02l.03-.13v-.03l.02-.1v-.07l.02-.08v-.22l.02-.11v-.45l.02-.15v-2.16c.09-.56.09-.69.08-.81Zm12.48-5.86-.4-.39-2.47-2.47-.17-.17-.04-.04-.13-.12-.07-.06-.11-.1-.06-.05-.12-.11-.07-.06-.1-.09-.08-.07-.09-.08-.08-.07-.1-.08-.07-.05-.11-.08-.08-.06-.1-.07-.08-.06-.1-.07-.08-.05-.11-.08-.06-.04-.12-.08-.06-.04-.1-.07-.08-.05-.17-.1-.18-.1-.17-.09-.12-.06-.06-.03-.12-.06-.06-.03-.1-.05-.08-.04-.09-.04-.09-.04-.1-.04-.09-.04-.09-.04-.1-.04-.08-.03-.11-.04-.08-.03-.1-.03-.1-.03-.09-.03-.09-.03-.1-.03-.08-.03-.1-.03-.08-.03-.09-.03-.1-.03-.18-.04-.18-.04-.13-.03h-.05l-.11-.02-.08-.02-.1-.02h-.08l-.1-.02h-2.9l-.1.02h-.26l-.09.02-.09.02-.08.02-.1.02-.07.02-.1.02-.09.02-.08.02-.08.02-.11.03h-.07l-.13.04h-.05l-.17.05-.17.05-.11.04-.06.02h-.02c.07.02-.17.11-.4.21.17.18.34.36.5.54l.05.06.05.06.05.06.03.04.07.08.06.07.03.03.07.09.02.02.08.1.09.11.08.1.07.08.02.03.03.03.03.04.05.06.05.07.03.03.06.08.04.05.05.08.06.09v.02l.08.1.08.11.08.11.07.1v.02l.02.03.03.04.04.07.05.07.02.03.05.08.03.04.05.08.02.03.06.09.07.11.07.12.13.22v.03l.06.11.06.11.12.23.03.05.05.08.06.11c.08.16.16.31.24.48v.02l.05.1v.02l.03.07.03.06.02.03.04.09.11.25.05.13.05.12.04.09.02.03v.04l.03.09.04.1.02.04.04.11.05.13.04.1v.03l.04.12.05.13.04.13v.02l.04.11.03.09.02.05.03.09v.03l.03.11v.03l.03.1v.04l.03.09.03.12.04.14.04.15.03.11v.02l.02.07c.03.14.07.27.09.41l.37.02h2.16l.15-.02h.02l.14-.02h.47l.09-.02h.07l.08-.02h.07l.1-.02h.03l.13-.03h.02l.13-.03h.02l.14-.03.15-.03.14-.03h.07l.1-.03h.07l.08-.02.09-.03.06-.02.1-.03.05-.02.1-.03.05-.02.1-.03.06-.02.09-.03.06-.02.09-.03.06-.02.1-.03.14-.05.14-.05h.02l.13-.05.13-.05.1-.04.06-.03.09-.04.05-.03.08-.03.08-.04.07-.03.08-.03.07-.03.06-.03.1-.05.14-.07.13-.07.14-.07.13-.07h.02l.12-.07.07-.04.08-.05.05-.03.09-.05.06-.03.07-.04.08-.04.06-.04.08-.05.07-.04.06-.04.09-.06.04-.03.03-.02.04-.03.09-.06.13-.09.13-.09.12-.09.08-.06.05-.03.08-.06.04-.03c.15-.11.29-.23.44-.35Z"/></svg>