<svg xmlns="http://www.w3.org/2000/svg" xml:space="preserve" style="enable-background:new 0 0 48 48" viewBox="0 0 48 48"><path d="M46.6 5.1h-2.2c-2.2 0-4 1.6-4.2 3.8l-1.4 10.2c-.4-.1-.7-.1-1-.1-1.1 0-2.2.4-3 1.3l-8.4 8.4c-.9.9-1.7 2-2.3 3.1-.6-1.1-1.4-2.2-2.3-3.1l-8.4-8.4c-.8-.8-1.9-1.3-3-1.3-.3 0-.6 0-.9.1L7.9 8.9c-.3-2.2-2.1-3.8-4.3-3.8H1.4C.6 5.1 0 5.7 0 6.5v19.3c0 1.1.4 2.2 1.3 3l9.8 9.8v8c0 .8.6 1.4 1.4 1.4h23.1c.8 0 1.4-.6 1.4-1.4v-8l9.8-9.8c.8-.8 1.3-1.9 1.3-3V6.5c-.1-.8-.7-1.4-1.5-1.4zm-24 40.1h-8.7V38c0-.4-.1-.7-.4-1L3.2 26.8c-.3-.3-.4-.6-.4-1V7.9h.8c.7 0 1.4.6 1.5 1.3l1.6 11.5c-.5.8-.7 1.6-.7 2.5 0 1.1.4 2.2 1.3 3l5.4 5.4c1.3 1.3 3.3-.7 2-2l-5.4-5.4c-.3-.3-.4-.6-.4-1s.1-.8.4-1c.3-.3.6-.4 1-.4s.8.2 1 .4l8.4 8.4c1.9 1.9 2.9 4.3 2.9 7v7.6zm22.6-19.4c0 .4-.2.8-.4 1L34.6 37c-.3.3-.4.6-.4 1v7.2h-8.7v-7.6c0-2.6 1-5.1 2.9-7l8.4-8.4c.3-.3.6-.4 1-.4s.8.1 1 .4c.3.3.4.6.4 1s-.2.8-.4 1l-5.4 5.4c-1.3 1.3.7 3.3 2 2l5.4-5.4c.8-.8 1.3-1.9 1.3-3 0-.9-.3-1.7-.8-2.5l1.6-11.5c.1-.7.7-1.3 1.5-1.3h.8v17.9zm-21.2-5c4.1 0 7.5-3.3 7.5-7.5 0-.6 0-2.5-3.2-7.9-1.5-2.6-3-4.7-3.1-4.8-.3-.4-.7-.6-1.2-.6s-.9.2-1.1.6c-.1.1-1.6 2.2-3.1 4.8-3.2 5.4-3.2 7.3-3.2 7.9-.1 4.1 3.3 7.5 7.4 7.5zm-1.8-14c.6-1.1 1.3-2.1 1.8-2.9.5.8 1.2 1.8 1.8 2.9 2.5 4.3 2.8 6 2.8 6.5 0 2.6-2.1 4.6-4.6 4.6s-4.6-2.1-4.6-4.6c-.1-.5.2-2.2 2.8-6.5z"/></svg>