<svg xmlns="http://www.w3.org/2000/svg" xml:space="preserve" style="enable-background:new 0 0 48 48" viewBox="0 0 48 48"><path d="M47.9 21.4c-.1-.7-.6-1.2-1.2-1.2-.1 0-1.4-.2-3.2.1-2.3.3-4.2 1.1-5.5 2.4V18h.5c.8 0 1.4-.6 1.4-1.4 0-.8-.6-1.4-1.4-1.4H38V1.4c0-.8-.6-1.4-1.4-1.4h-7.5c-.8 0-1.4.6-1.4 1.4v6.1c-1.3-1.2-3.2-2.1-5.5-2.4-1.8-.1-3.2 0-3.2 0-.7.1-1.2.6-1.2 1.2 0 .1-.2 1.4.1 3.2.3 2.4 1.2 4.4 2.5 5.7 1.3 1.3 3.3 2.2 5.7 2.5.3 0 .6.1.9.1h.8V30h-.5c-.8 0-1.4.6-1.4 1.4 0 .8.6 1.4 1.4 1.4h.5v13.7c0 .8.6 1.4 1.4 1.4h7.5c.8 0 1.4-.6 1.4-1.4V32.9h.8c.3 0 .6 0 .9-.1 2.4-.3 4.4-1.2 5.7-2.5 1.3-1.3 2.2-3.3 2.5-5.7.1-1.8 0-3.1-.1-3.2zm-25.6-8.2c-1.5-1.5-1.8-3.9-1.8-5.4 1.5 0 3.9.3 5.4 1.8 1.5 1.5 1.8 3.9 1.8 5.4-1.5 0-3.9-.3-5.4-1.8zm12.9 32h-4.7V32.9h4.7v12.3zm0-15.1h-4.7V17.9h4.7v12.2zm0-15h-4.7V2.8h4.7v12.3zm8.2 13.2c-1.5 1.5-3.9 1.8-5.4 1.8 0-1.5.3-3.9 1.8-5.4 1.5-1.5 3.9-1.8 5.4-1.8-.1 1.5-.4 3.9-1.8 5.4zm-22.6 5.6h-.5V20.2c0-.8-.6-1.4-1.4-1.4h-7.5c-.8 0-1.4.6-1.4 1.4v6.1c-1.3-1.2-3.2-2.1-5.5-2.4-1.7-.2-3.1-.1-3.2-.1-.7.1-1.2.6-1.2 1.2 0 .1-.2 1.4.1 3.2.3 2.4 1.2 4.4 2.5 5.7C4 35.4 6 36.3 8.4 36.6c.3 0 .6.1.9.1h.7v9.9c0 .8.6 1.4 1.4 1.4h7.5c.8 0 1.4-.6 1.4-1.4v-9.9h.5c.8 0 1.4-.6 1.4-1.4 0-.8-.6-1.4-1.4-1.4zM4.6 32.1c-1.5-1.5-1.8-3.9-1.8-5.4 1.5 0 3.9.3 5.4 1.8C9.7 30 10 32.4 10 33.9c-1.5-.1-3.9-.4-5.4-1.8zm12.9 13.1h-4.7v-8.5h4.7v8.5zm0-11.3h-4.7V21.6h4.7v12.3z"/></svg>