<svg xmlns="http://www.w3.org/2000/svg" viewBox="0 0 91.3 100"><path fill-rule="evenodd" d="M43.48 81.85v4.79h-1.15v-4.49c0-1.39-.81-2.22-2.15-2.22-1.6.04-2.53 1.21-2.53 2.89v3.83h-1.16v-4.49c0-1.39-.8-2.22-2.15-2.22-1.6.04-2.55 1.21-2.55 2.89v3.83h-1.14v-7.77h1.14v1.76c.52-1.21 1.56-1.8 2.96-1.8s2.47.74 2.78 2.02c.49-1.36 1.57-2.02 3.06-2.02v-.02c1.81 0 2.88 1.14 2.88 3.03ZM17.69 80.6v-1.71h-1.14v7.77h1.15v-4.13c.13-1.56 1.15-2.58 2.78-2.56v-1.12a2.884 2.884 0 0 0-2.8 1.74Zm55.52 2c0 1.05-.56 1.79-1.49 1.8-.78 0-1.26-.55-1.26-1.45v-4.3h-2.62v5.05c0 1.86 1.12 3.06 2.85 3.06a2.804 2.804 0 0 0 2.55-1.42v1.3h2.62v-7.99h-2.64v3.94Zm-46.42 3.79c-.54.22-1.12.33-1.7.31-2.27 0-3.85-1.61-3.85-3.93s1.59-3.93 3.84-3.93v-.02c2.5 0 3.74 1.73 3.61 4.37h-6.32c.05.7.38 1.36.9 1.84.52.47 1.21.73 1.91.7.45 0 .89-.07 1.3-.24.41-.17.79-.42 1.1-.75l.63.67c-.4.42-.89.76-1.42.98Zm-4.42-4.11h5.3c-.06-1.51-1.1-2.48-2.59-2.48s-2.55.97-2.71 2.48Zm66.08-3.73h-.02c-.59-.04-1.18.12-1.68.44s-.89.79-1.11 1.34c-.4-1.12-1.35-1.79-2.65-1.79-.52-.02-1.04.1-1.49.35-.46.25-.84.62-1.1 1.07v-1.31h-2.6v7.99h2.61V82.7c0-1.05.59-1.79 1.52-1.8.81 0 1.31.55 1.31 1.46v4.29h2.62V82.7c0-1.05.57-1.79 1.5-1.8.81 0 1.31.55 1.31 1.46v4.29h2.62v-5.04c0-1.88-1.13-3.06-2.85-3.06Zm-25.97 2.33c0-.34.32-.5.75-.5.62-.02 1.52.27 2.5.79l.02.02.88-1.71c-1-.61-2.14-.93-3.31-.93-1.87 0-3.27.92-3.27 2.59 0 2.76 4.11 2.22 4.11 3.31 0 .32-.35.49-.84.49-1.02-.04-2-.39-2.83-.99l-.82 1.7c1.04.76 2.3 1.16 3.59 1.14 1.94 0 3.37-.93 3.37-2.57.02-2.78-4.16-2.28-4.16-3.32ZM1.17 76.32H0v10.33h5.69v-1.08H1.17v-9.25Zm57.9 6.38c0 2.44-1.44 4.05-3.65 4.05a2.886 2.886 0 0 1-2.39-1.12v3.9h-2.62V78.67h2.62v1.03c.27-.36.63-.65 1.03-.84.41-.2.85-.29 1.3-.28v-.02c2.22 0 3.71 1.7 3.71 4.14Zm-2.63-.07c0-1.18-.72-2-1.72-2s-1.69.82-1.69 2 .69 1.98 1.69 1.98 1.72-.79 1.72-1.98Zm-41.91.12c0 2.32-1.62 3.95-3.93 3.95s-3.93-1.64-3.93-3.95 1.62-3.91 3.93-3.91v-.02c2.3 0 3.93 1.61 3.93 3.93Zm-1.15.02c0-1.71-1.16-2.91-2.78-2.91-1.63-.01-2.78 1.17-2.78 2.91s1.16 2.92 2.78 2.92 2.78-1.21 2.78-2.92Zm34.95-6.47h-2.69v10.36h2.69V76.3ZM21.82 98.63h.54v-5.2h-.54v5.2Zm-5.19-2.75c0-.35.32-.5.72-.5.35 0 .69.11.98.29l.21-.42c-.35-.22-.76-.34-1.17-.34-.67 0-1.26.3-1.26 1 0 1.3 2.05.85 2.03 1.74 0 .37-.35.54-.79.54-.45 0-.88-.17-1.22-.47l-.21.4c.39.34.89.53 1.41.52.71 0 1.35-.32 1.35-1.04 0-1.32-2.05-.9-2.05-1.73Zm10.79-.95Zm47.94 2.06h-2.99c.02.33.18.65.42.87.25.22.57.34.91.33.21 0 .42-.04.62-.12.2-.08.37-.2.52-.35l.3.32c-.19.2-.42.36-.68.46-.25.1-.53.15-.8.15-.49 0-.96-.2-1.31-.55-.35-.35-.54-.82-.54-1.32s.2-.97.54-1.32c.35-.35.82-.55 1.31-.55 1.19 0 1.77.82 1.7 2.06Zm-.48-.43c0-.16-.03-.32-.09-.47-.06-.15-.15-.28-.27-.39-.12-.11-.25-.2-.4-.25-.15-.05-.31-.08-.47-.07-.32-.01-.64.1-.88.32s-.38.53-.4.85h2.51Zm-18.64-1.63c-.68 0-1.18.27-1.43.85v-2.34h-.54v5.2h.53v-1.81c0-.8.46-1.36 1.24-1.37.14-.01.28 0 .42.05.13.05.25.12.35.23.1.1.18.22.22.36.05.13.06.28.05.42v2.13h.57v-2.27c0-.9-.53-1.44-1.41-1.44Zm7.99 2.06h-3c.03.33.18.65.43.87.25.22.57.34.91.33.21 0 .42-.04.62-.12.2-.08.37-.2.52-.35l.3.32c-.19.2-.42.36-.67.46-.26.11-.53.15-.8.15-.49 0-.96-.2-1.31-.55-.35-.35-.54-.82-.54-1.32s.2-.97.54-1.32c.35-.35.82-.55 1.31-.55 1.19 0 1.77.82 1.71 2.06Zm-.48-.43c0-.16-.03-.32-.09-.47-.06-.15-.15-.28-.27-.39-.12-.11-.25-.2-.4-.25-.15-.05-.31-.08-.47-.07-.32-.01-.64.1-.88.32s-.38.53-.4.85h2.51Zm4.18-.79v-.82h-.54v3.68h.54v-1.96c0-.17.04-.33.11-.49.07-.15.17-.29.29-.41.12-.11.27-.2.43-.26.16-.05.33-.08.49-.06v-.53c-.28 0-.56.07-.79.22-.24.15-.42.37-.53.63Zm-20.62-.84c-.29-.02-.59.05-.84.2-.25.15-.46.37-.58.64v-.81h-.54v3.68h.54v-1.96c0-.16.03-.32.1-.47.06-.15.15-.28.27-.39.12-.11.25-.2.4-.26.15-.06.31-.09.47-.08.14-.01.28 0 .42.05.13.05.25.13.35.23.1.1.18.22.22.36.05.13.06.28.05.42v2.13h.54V96.4c0-.91-.52-1.45-1.39-1.45Zm-18.15 1.13c.09.23.13.48.12.73 0 .37-.11.73-.31 1.04-.2.31-.49.55-.83.69-.34.14-.71.18-1.07.11-.36-.07-.69-.25-.95-.51s-.44-.59-.51-.95-.04-.74.1-1.08c.14-.34.38-.63.68-.84.3-.21.66-.32 1.03-.32.24-.01.49.03.72.11.23.09.44.22.62.4.18.17.31.38.4.62Zm-.42.17c-.11-.25-.3-.46-.53-.61-.23-.14-.51-.22-.78-.2a1.325 1.325 0 0 0-.96.4 1.313 1.313 0 0 0-.36.97c0 .28.08.55.23.78.15.23.37.41.63.51.26.1.54.13.81.07s.52-.2.71-.39c.19-.2.32-.45.36-.72.05-.27.01-.55-.1-.8Zm13.18-.03v2.43h-.51v-.57a1.585 1.585 0 0 1-1.35.59c-.77 0-1.26-.47-1.26-1.11s.51-1.06 1.38-1.06h1.21v-.23c0-.55-.34-.87-.98-.87-.42.01-.83.16-1.17.43l-.23-.38c.43-.33.96-.5 1.5-.5.91 0 1.42.49 1.42 1.27Zm-.53.72h-1.14c-.63 0-.95.2-.95.6s.33.68.84.68a1.182 1.182 0 0 0 1.25-.83v-.45Zm-6.27-1.97h.54v3.29c0 1.08-.73 1.76-1.85 1.76-.55 0-1.08-.19-1.5-.54l.25-.4c.34.3.78.47 1.24.47.17.02.35 0 .51-.06.16-.06.31-.15.44-.27.13-.12.22-.27.29-.43.06-.16.09-.34.09-.51v-.54c-.13.24-.33.45-.57.58-.24.14-.51.2-.79.19-.99 0-1.68-.74-1.68-1.78-.02-.23.01-.46.09-.67.08-.22.2-.41.35-.58.16-.17.34-.3.55-.39.21-.09.43-.13.66-.13.28-.02.55.05.8.19.24.14.44.34.57.59v-.77Zm0 1.76c0-.26-.08-.52-.22-.74a1.31 1.31 0 0 0-.6-.49c-.24-.1-.51-.12-.77-.07-.26.05-.49.19-.67.38s-.3.43-.35.69c-.05.26-.01.53.1.77s.28.44.51.58c.22.14.48.21.74.2.17 0 .34-.03.5-.1.16-.07.3-.16.42-.29.12-.12.21-.27.27-.43.06-.16.09-.33.08-.5ZM82.38 1.3c.08-.13.12-.28.13-.43 0-.15-.03-.3-.11-.43a.864.864 0 0 0-.31-.32.821.821 0 0 0-.43-.12H60.67c-6.73 0-14.56.99-19.96 5.37-5.28 4.28-6.62 9.97-6.62 16.47v9.69s-.01.07-.03.1c-.02.03-.05.05-.09.06s-.07 0-.11 0a.178.178 0 0 1-.08-.07L17.69 5.53s-.02-.06-.02-.09 0-.06.02-.09a.17.17 0 0 1 .06-.06c.03-.02.06-.02.09-.02h6.64s.06 0 .08.02c.03.01.05.03.06.06l5.32 8.62s.06.06.1.08c.04.01.08 0 .12 0 2.03-.93 3.88-3.47 2.01-6.49-1.53-2.49-3.07-4.98-4.6-7.47-.01-.03-.04-.05-.06-.06s-.05-.02-.08-.02H9.6c-.15 0-.3.04-.43.11a.864.864 0 0 0-.42.75c0 .15.05.3.13.43l36.04 58.46c.08.12.19.22.31.29a.857.857 0 0 0 .82-.01c.12-.07.23-.17.3-.3l15.53-25.2s.02-.04.02-.06v-.07c0-.03-.01-.04-.03-.06-.01-.02-.03-.03-.05-.04-1.93-1.26-4.92-1.75-6.77 1.25l-9.29 15.07s-.04.05-.06.06-.05.02-.08.02-.06 0-.08-.02-.05-.03-.06-.06l-5.02-8.15-1.08 1.75V21.95c-.16-4.69.88-9.4 4.67-12.49 4.36-3.53 11.22-4.19 16.62-4.19h12.76s.06 0 .09.02.05.04.06.06c.02.03.02.06.02.09s0 .06-.02.09l-6.26 10.16c-4.45 7.22-10.17 9.95-18.39 10.58h-.02c-.02 0-.05 0-.07-.01-.02 0-.05-.03-.06-.04a.161.161 0 0 1-.04-.07v-.08c1.6-8.65 10.77-15.29 18.92-17.56a.17.17 0 0 0 .1-.07c.02-.03.03-.07.03-.11s-.02-.08-.05-.11c-.03-.03-.07-.04-.11-.05-5.86-.31-25.94 4.71-26.09 23.42 0 .02 0 .05.01.07s.02.04.04.06c.02.02.04.03.06.04.02 0 .04.01.07.01 12.88-.17 22.44-1.23 29.83-12.87L82.38 1.3Z"/></svg>