<svg xmlns="http://www.w3.org/2000/svg" xml:space="preserve" style="enable-background:new 0 0 40 40" viewBox="0 0 40 40"><path d="M38.6 8.4c0-2.8-1.7-4.9-4.5-5.5-4-.9-8-1.8-12.1-2.6-1.1-.2-2.2-.4-3.3-.2C14.4 1.1 10 2 5.7 3c-2.5.5-4.3 2.6-4.3 5.2v7c0 2.4.2 4.8.9 7.1 2.4 8.2 7.6 13.9 15.5 17.2 1.5.6 3 .6 4.4 0 2.6-1 5-2.4 7.1-4.2 5.9-5 9-11.3 9.3-19 .1-2.6 0-5.2 0-7.9zM34.8 17c-.3 5.3-2.3 9.9-6 13.8-2.2 2.3-4.9 4.1-7.9 5.3-.3.1-.6.2-.9.2-.3 0-.6-.1-.9-.2-7.5-3.2-12-8.7-13.6-16.5-.4-2-.4-4-.4-6V8.3c0-1.1.6-1.7 1.7-2l12.6-2.7c.4-.1.8-.1 1.2 0 4.3.9 8.5 1.8 12.8 2.8 1 .2 1.6.9 1.6 1.8-.1 3 0 5.9-.2 8.8zm-5.4-2.6c.1.7-.2 1.2-.7 1.7-1.8 1.8-3.7 3.5-5.5 5.3-1 1-2.1 2-3.1 3-.9.8-2.1.8-3 0-1.4-1.3-2.8-2.6-4.1-3.9-1.1-1-.6-2.7.8-3.1.7-.2 1.3 0 1.8.5.8.8 1.7 1.6 2.6 2.4l.3.3 3.1-3c1.5-1.4 3-2.9 4.5-4.3.2-.2.5-.4.9-.5.3-.1.7-.1 1 .1.8.3 1.3.8 1.4 1.5z"/></svg>