<svg xmlns="http://www.w3.org/2000/svg" xml:space="preserve" style="enable-background:new 0 0 40 40" viewBox="0 0 40 40"><path d="m37.9 35.1-10-4.3v-2.6c1-1.3 1.7-2.9 1.9-4.6h2.1c1.9 0 3.5-1.6 3.5-3.5V15c0-1.8-1.3-3.2-3-3.4C32.1 4 27.9 0 20 0S7.9 4 7.7 11.7c-1.7.2-3.1 1.7-3.1 3.4v5.1c0 1.9 1.6 3.5 3.5 3.5h2.1c.2 1.7.9 3.3 2 4.6v2.6l-10 4.3C.8 35.7 0 36.9 0 38.3v.6c0 .6.5 1.1 1.1 1.1h37.8c.6 0 1.1-.5 1.1-1.1v-.6c0-1.4-.8-2.6-2.1-3.2zM16 36.3c-1.7-1.7-1.7-4.5-1.6-4.7v-1.3c1.6 1 3.5 1.6 5.6 1.6 2.1 0 4-.6 5.6-1.7v1.4s.1 2.9-1.6 4.7c-.9 1-2.3 1.5-4 1.5-1.7 0-3.1-.5-4-1.5zm11.7-14.4-2.3 1.5c-.7.5-1.6.7-2.4.7h-2c-.6 0-1.1.5-1.1 1.1s.5 1.1 1.1 1.1h2c1.3 0 2.6-.4 3.7-1.1l.6-.4c-1 2.9-3.8 4.8-7.2 4.8-4.4 0-7.7-3.1-7.7-7.3v-9.5c.5-2.2 1.2-3.6 2-4 .8-.5 2 0 3.2.5.7.4 1.6.7 2.4.7.8 0 1.6-.3 2.5-.7 1.1-.5 2.2-.9 3.1-.5.8.4 1.6 1.8 2.1 4v9.1zm5.5-6.8v5.1c0 .7-.6 1.2-1.2 1.2h-2v-7.5h2c.6 0 1.2.5 1.2 1.2zM20 2.2c6.6 0 9.9 3.1 10.1 9.4h-.5c-.7-2.5-1.7-4.1-3-4.8-1.7-.9-3.5-.2-4.9.4-.6.3-1.3.5-1.7.5-.4 0-1.1-.3-1.7-.5-1.5-.6-3.3-1.3-5-.3-1.3.7-2.3 2.3-2.9 4.7h-.5c.2-6.3 3.5-9.4 10.1-9.4zm-13.2 18v-5.1c0-.7.6-1.2 1.2-1.2h2v7.5H8c-.6 0-1.2-.5-1.2-1.2zM3 37.2l9.3-3.9c.2 1.3.7 3.1 2.1 4.6h-12c.1-.4.3-.6.6-.7zm22.7.6c1.4-1.4 1.9-3.3 2.1-4.6l9.3 4c.3.1.5.3.6.6h-12z"/></svg>