<svg xmlns="http://www.w3.org/2000/svg" xml:space="preserve" style="enable-background:new 0 0 40 40" viewBox="0 0 40 40"><path d="M36.5 4.9h-33c-.3 0-.6 0-.9.1C1 5.3 0 6.6 0 8.4v23c0 .4 0 .7.1 1 .3 1.7 1.6 2.7 3.4 2.7h33c2.2 0 3.5-1.4 3.5-3.7v-23c0-2.1-1.3-3.5-3.5-3.5zM2.8 13V8.5c0-.6.1-.7.7-.7h33.1c.5 0 .7.1.7.6v6.2H2.8V13zm34.4 18.4c0 .7-.1.8-.8.8H3.6c-.7 0-.8-.1-.8-.8V17.5h34.4v13.9zM34 25.8c.2.2.4.6.4.9 0 .4-.1.7-.3 1-.2.3-.5.5-.9.5h-7.6c-1 0-1.7-1-1.4-1.9.1-.3.2-.5.5-.7.2-.2.5-.3.8-.3h7.6c.3.1.7.2.9.5zm-26 0c.3.3.4.6.4 1s-.2.8-.4 1c-.3.3-.6.4-1 .4s-.7-.2-1-.4c-.3-.3-.4-.7-.4-1 0-.2 0-.4.1-.6.1-.2.2-.3.3-.5.1-.1.3-.2.5-.3.2-.1.4-.1.5-.1.4.1.7.2 1 .5zm9.6.5c.1.2.1.4.1.6 0 .4-.2.8-.4 1-.3.3-.6.4-1 .4s-.7-.2-1-.4c-.3-.3-.4-.6-.4-1 0-.2 0-.4.1-.6.1-.2.2-.3.3-.5.1-.1.3-.2.5-.3.2-.1.4-.1.5-.1.2 0 .4 0 .5.1.2.1.3.2.4.3.2.2.3.3.4.5zm-5-.5c.3.3.4.6.4 1 0 .2 0 .4-.1.6-.1.2-.2.4-.3.5s-.3.3-.5.3c-.2.1-.4.1-.6.1-.2 0-.4 0-.6-.1-.2-.1-.3-.2-.5-.4-.1-.1-.2-.3-.3-.5-.1-.2-.1-.4-.1-.6 0-.4.2-.8.4-1s.6-.4 1-.4c.6.1 1 .2 1.2.5z"/></svg>