<svg xmlns="http://www.w3.org/2000/svg" xml:space="preserve" style="enable-background:new 0 0 40 40" viewBox="0 0 40 40"><path d="M11.7 18.8H1.6c-.8 0-1.3-.3-1.6-1v-.6c.3-.7.9-1 1.7-1h10.1c.7 0 1.2.3 1.4.9.1.2.1.4.1.6 0 .2-.1.4-.2.5-.1.2-.2.3-.4.4s-.3.2-.5.2h-.5zM40 28.2c0 1-.5 1.5-1.5 1.5h-3c-.3 0-.4.1-.5.3-.7 2.1-2.6 3.4-4.8 3.4-2.2 0-4-1.3-4.7-3.4-.1-.3-.2-.3-.5-.3h-6.7c-.3 0-.4.1-.5.4-.3 1-1 1.9-1.8 2.5s-2 .8-3 .8c-2.1 0-4-1.3-4.8-3.4-.1-.3-.2-.4-.5-.4H4.9c-.8 0-1.3-.5-1.4-1.2-.1-.8.5-1.4 1.3-1.4h3.1c.2-.8.6-1.5 1.1-2.1 2.5-2.9 7.2-2 8.5 1.7.1.4.3.5.7.5h6.5c.3 0 .4-.1.6-.4.3-1 1-1.9 1.8-2.5s1.9-1 3-1 2.1.3 2.9 1c.9.6 1.5 1.5 1.8 2.5.1.3.2.4.5.4h2v-6.2c0-.2-.1-.4-.2-.6-.4-.6-.9-1.2-1.4-1.8l-.3-.3c-.1-.1-.2-.1-.4-.1h-9.1c-1.1 0-1.6-.5-1.6-1.6V8H5.2c-.2 0-.5 0-.7-.1-.6-.2-1-.7-.9-1.3 0-.3.1-.6.3-.8.2-.2.5-.3.7-.4h20.8c1.2 0 1.6.4 1.6 1.6v1h5.2c.7 0 1.1.3 1.4.9 1 2 2.1 4 3 6.1.7 1.4 1.7 2.6 2.6 3.8.5.6.7 1.3.7 2 .1 2.4.1 4.9.1 7.4zm-5.8-12.6c-.8-1.7-1.6-3.3-2.4-4.9 0-.1-.2-.2-.4-.2h-4.3v5h7.1zM15.5 28.4c0-.5-.1-1-.4-1.4-.3-.4-.7-.8-1.1-1-.5-.2-1-.3-1.4-.2-.5.1-.9.3-1.3.7-.4.3-.6.8-.7 1.3-.1.5-.1 1 .1 1.5s.5.9.9 1.2c.4.3.9.5 1.4.5.3 0 .7 0 1-.2.3-.1.6-.3.8-.5.2-.2.4-.5.6-.8s.1-.8.1-1.1zm17.2-.1c0-.7-.3-1.3-.8-1.8s-1.1-.7-1.8-.7c-.5 0-1 .2-1.4.4-.4.3-.7.7-.9 1.1-.2.5-.2 1-.1 1.5s.3.9.7 1.3c.4.4.8.6 1.3.7s1 0 1.4-.2c.5-.2.8-.5 1.1-.9.4-.4.5-.9.5-1.4zM3.5 13.8H14.1c.2 0 .3 0 .5-.1s.3-.2.4-.3c.1-.1.2-.3.3-.5.1-.2.1-.3.1-.5 0-.7-.6-1.1-1.3-1.1H3.5c-.8 0-1.4.7-1.2 1.5-.1.6.4 1 1.2 1zm6.8 9.1c.1-.2.1-.4.1-.6 0-.2-.1-.4-.2-.6-.1-.2-.3-.3-.4-.4-.2-.1-.4-.1-.6-.1H3.3c-.7 0-1.2.5-1.3 1.2 0 .2 0 .3.1.5s.2.3.3.4c.1.1.3.2.4.3.2.1.3.1.5.1h5.8c.6.1 1-.2 1.2-.8z"/></svg>