<svg xmlns="http://www.w3.org/2000/svg" xml:space="preserve" style="enable-background:new 0 0 100 100" viewBox="0 0 100 100"><path d="m98.5 48.5-7.7-7.8c-1.9-1.9-4-3.5-6.4-4.6 1.4-3.3 2.1-6.8 2.1-10.4V14.9c0-1.2-.9-2.1-2.1-2.1H73.8c-3.5 0-6.9.7-10.2 2.2-1.2-2.4-2.7-4.6-4.5-6.5L51.4.7c-.8-.8-2.1-.8-2.9 0l-7.7 7.8c-1.9 1.9-3.4 4.1-4.5 6.5-3.2-1.4-6.6-2.2-10.2-2.2H15.5c-1.1 0-2.1.9-2.1 2.1v10.8c0 3.6.7 7.1 2.1 10.4-2.4 1.2-4.5 2.7-6.4 4.6l-7.7 7.8c-.8.8-.8 2.1 0 3l7.7 7.8c1.9 1.9 4 3.5 6.4 4.6-1.4 3.3-2.1 6.8-2.1 10.4v10.8c0 1.2.9 2.1 2.1 2.1h10.6c3.5 0 6.9-.7 10.2-2.2 1.2 2.4 2.7 4.6 4.5 6.5l7.7 7.8c.4.4.9.6 1.5.6s1.1-.2 1.5-.6l7.7-7.8c1.9-1.9 3.4-4.1 4.5-6.5 3.2 1.4 6.6 2.2 10.2 2.2h10.6c1.1 0 2.1-.9 2.1-2.1V74.3c0-3.6-.7-7.1-2.1-10.4 2.4-1.2 4.5-2.7 6.4-4.6l7.7-7.8c.7-.8.7-2.2-.1-3zm-34 16.3c2.8 1.1 5.7 1.6 8.6 1.6h.6c2.3 0 4.6-.3 6.8-1 1.2 2.8 1.8 5.8 1.8 8.8V83h-8.6c-3 0-5.9-.6-8.6-1.9.6-2.2 1-4.6 1-6.9v-.6c.1-3-.5-6-1.6-8.8zM38 73.6c0-5.3 2.1-10.6 5.8-14.3l4.2-4.2v5.8c0 5.8-2.3 11.4-6.3 15.5l-.3.3c-.9.9-1.8 1.7-2.8 2.4-.4-1.6-.6-3.2-.6-4.8v-.7zm-3.2 7.6c-2.7 1.2-5.7 1.9-8.6 1.9h-8.6v-8.7c0-3 .6-6.1 1.8-8.8 2.2.7 4.5 1 6.8 1h.6c3 0 5.9-.6 8.6-1.6-1.1 2.8-1.6 5.8-1.6 8.8v.6c0 2.2.4 4.5 1 6.8zm.7-46c-2.8-1.1-5.7-1.6-8.6-1.6h-.6c-2.3 0-4.6.3-6.8 1-1.2-2.8-1.8-5.8-1.8-8.8v-8.7h8.6c3 0 5.9.6 8.6 1.9-.6 2.2-1 4.6-1 6.9v.6c-.1 2.9.5 5.9 1.6 8.7zM62 26.4c0 5.3-2.1 10.6-5.8 14.3L52 44.9v-5.8c0-5.8 2.3-11.4 6.3-15.5l.3-.3c.9-.9 1.8-1.7 2.8-2.4.4 1.6.6 3.2.6 4.8v.7zm3.2-7.6c2.7-1.2 5.7-1.9 8.6-1.9h8.6v8.7c0 3-.6 6.1-1.8 8.8-2.2-.7-4.5-1-6.8-1h-.6c-3 0-5.9.6-8.6 1.6 1.1-2.8 1.6-5.8 1.6-8.8v-.6c0-2.2-.4-4.5-1-6.8zm8.6 18.9c1.6 0 3.1.2 4.7.6-.7 1-1.5 2-2.4 2.9l-.3.3c-4 4.1-9.5 6.4-15.1 6.4h-5.8l4.2-4.3c3.7-3.8 8.8-5.9 14-5.9h.7zM60.6 52.1c.1 0 .1 0 0 0 5.7 0 11.2 2.3 15.2 6.4l.3.3c.9.9 1.7 1.8 2.4 2.9-1.5.4-3.1.6-4.7.6h-.7c-5.2 0-10.3-2.2-14-5.9L55 52.1h5.6zm-4.8-31.7-.3.3c-2.3 2.3-4.2 5.2-5.4 8.2-1.3-3-3.1-5.9-5.4-8.2l-.3-.3c-1.3-1.3-2.7-2.5-4.3-3.5 1-2.1 2.3-3.9 3.8-5.5L50 5l6.2 6.3c1.6 1.6 2.9 3.5 3.8 5.5-1.5 1.1-2.9 2.3-4.2 3.6zm-7.9 24.5-4.2-4.2c-3.7-3.8-5.8-9-5.8-14.3v-.6c0-1.6.2-3.2.6-4.8 1 .7 1.9 1.5 2.8 2.4l.3.3c4 4.1 6.3 9.7 6.3 15.5v5.7zm-8.5 3c-.1 0-.1 0 0 0-5.7 0-11.2-2.3-15.2-6.4l-.3-.3c-.9-.9-1.7-1.8-2.4-2.9 1.5-.4 3.1-.6 4.7-.6h.7c5.2 0 10.3 2.2 14 5.9l4.2 4.3h-5.7zM21.5 61.7c.7-1 1.5-2 2.4-2.9l.3-.3c4-4.1 9.5-6.4 15.1-6.4h5.8l-4.2 4.3c-3.7 3.8-8.8 5.9-14 5.9h-.7c-1.6 0-3.2-.2-4.7-.6zm-4-22c1 1.6 2.1 3 3.4 4.4l.3.3c2.3 2.3 5.1 4.2 8.1 5.5-3 1.3-5.8 3.2-8.1 5.5l-.2.5c-1.3 1.3-2.4 2.8-3.4 4.4-2-1-3.8-2.3-5.4-3.9L5.9 50l6.2-6.3c1.6-1.7 3.4-3 5.4-4zm26.7 39.9.3-.3c2.3-2.3 4.2-5.2 5.4-8.2 1.3 3 3.1 5.9 5.4 8.2l.3.3c1.3 1.3 2.7 2.5 4.3 3.5-1 2.1-2.3 3.9-3.8 5.5L50 94.9l-6.2-6.3c-1.6-1.6-2.9-3.5-3.8-5.5 1.5-1 2.9-2.2 4.2-3.5zm7.9-24.5 4.2 4.2c3.7 3.8 5.8 9 5.8 14.3v.6c0 1.6-.2 3.2-.6 4.8-1-.7-1.9-1.5-2.8-2.4l-.3-.3c-4-4.1-6.3-9.7-6.3-15.5v-5.7zm30.4 5.1c-1-1.6-2.1-3-3.4-4.4l-.3-.3c-2.3-2.3-5.1-4.2-8.1-5.5 3-1.3 5.8-3.2 8.1-5.5l.3-.3c1.3-1.3 2.4-2.8 3.4-4.4 2 1 3.8 2.3 5.4 3.9l6.2 6.3-6.2 6.3c-1.6 1.6-3.4 3-5.4 3.9z"/></svg>