<svg xmlns="http://www.w3.org/2000/svg" xml:space="preserve" style="enable-background:new 0 0 24 24" viewBox="0 0 24 24"><path d="M11 21.5c0 1.1-.9 2-2 2s-2-.9-2-2 .9-2 2-2 2 .9 2 2zM24 6.7l-1.6 8.4c-.1.7-.5 1.3-1.1 1.8-.5.4-1.2.7-1.9.7H9.6c-.7 0-1.3-.2-1.9-.7-.5-.4-.9-1.1-1.1-1.8L5 6.7v-.1l-.8-4.1H1c-.6 0-1-.4-1-1s.4-1 1-1h4c.5 0 .9.3 1 .8l.8 4.2H23c.3 0 .6.1.8.4.2.2.2.5.2.8zm-2.2.8H7.2l1.4 7.2c0 .2.2.4.4.6.2.1.4.2.6.2h9.7c.3 0 .5-.1.7-.2.2-.1.3-.4.4-.6l1.4-7.2zm-1.8 12c-1.1 0-2 .9-2 2s.9 2 2 2 2-.9 2-2-.9-2-2-2z"/></svg>