<svg xmlns="http://www.w3.org/2000/svg" xml:space="preserve" style="enable-background:new 0 0 24 24" viewBox="0 0 24 24"><path d="M12 22.6c-.3 0-.5-.1-.7-.3L2 13c-1.3-1.3-2-3-2-4.8s.7-3.5 2-4.8 3-2 4.8-2c1.8 0 3.5.7 4.8 2l.4.4.4-.4c.6-.6 1.4-1.1 2.2-1.5 1.7-.7 3.6-.7 5.2 0 .8.3 1.6.8 2.2 1.5.6.6 1.1 1.4 1.5 2.2.3.8.5 1.7.5 2.6 0 .9-.2 1.8-.5 2.6s-.8 1.6-1.5 2.2l-9.3 9.3c-.2.2-.4.3-.7.3zM6.8 3.5c-1.2 0-2.4.5-3.3 1.4S2.1 7 2.1 8.2s.5 2.4 1.4 3.3L12 20l8.5-8.5c.4-.4.8-1 1-1.5.2-.6.4-1.2.4-1.8s-.1-1.2-.4-1.8c-.2-.6-.6-1.1-1-1.5-.4-.4-1-.8-1.5-1-1.2-.5-2.5-.5-3.6 0-.6.2-1.1.6-1.5 1L12.7 6c-.4.4-1.1.4-1.5 0l-1.1-1.1c-.8-.9-2-1.4-3.3-1.4z"/></svg>