<svg xmlns="http://www.w3.org/2000/svg" viewBox="0 0 432 288"><path fill="#fff" d="M1.85 25.63c-.61-.11-1.22-.18-1.85-.21v-.27c.64.03 1.27.1 1.89.21.28.05.55.11.83.17 4.25.98 7.82 3.02 11.9 6.84.36.33.72.68 1.1 1.04.25.25.51.5.77.76.61.61 1.23 1.27 1.82 1.9 2.08 2.21 4.22 4.49 6.66 5.36.1.04.2.07.3.1.86.26 1.67.34 2.48.23 1.98-.26 3.62-1.2 5.35-2.19 1.54-.88 3.13-1.79 5-2.21 2.45-.54 5.05-.14 7.57.25.54.08 1.08.17 1.61.24 1.46.2 3.05.34 4.85.43 7.83.37 13.79-.04 19.32-1.34 1.24-.29 2.23-.58 3.13-.92.34-.13.69-.27 1.02-.42 1.56-.71 2.86-1.68 3.87-2.88.62-.73 1.12-1.51 1.64-2.35.41-.65.84-1.33 1.34-1.98 1.36-1.79 3.26-3.15 5.51-3.94.45-.16.92-.28 1.44-.37.41-.07.81-.12 1.19-.17h.04c1.73-.21 3.37-.41 4.78-1.89l.37-.39c1.38-1.46 2.68-2.84 4.39-4.12 2.47-1.85 5.49-3.46 8.72-4.66.14-.05.29-.1.43-.15.15-.05.29-.1.44-.15 2.57-.86 5.27-1.45 7.87-2.02 3.59-.79 7.29-1.6 10.73-3.12l.66-.29c2.86-1.26 6.79-2.98 9.08-5.37.51-.53.91-1.1 1.26-1.76h.28c-.37.73-.81 1.37-1.37 1.95-2.32 2.42-6.27 4.16-9.15 5.43l-.66.29c-3.46 1.53-7.18 2.35-10.78 3.14-2.6.57-5.29 1.16-7.85 2.01-.15.05-.29.1-.44.15-.14.05-.28.1-.43.15-3.21 1.19-6.21 2.78-8.66 4.62-1.69 1.27-2.98 2.64-4.35 4.09l-.37.39c-1.47 1.55-3.15 1.75-4.92 1.96h-.04c-.37.05-.77.1-1.18.17-.51.09-.97.21-1.4.36-2.2.77-4.07 2.11-5.4 3.85-.49.65-.91 1.32-1.33 1.97-.53.84-1.04 1.64-1.66 2.38-1.03 1.22-2.37 2.21-3.96 2.94-.34.16-.69.3-1.03.43-.9.34-1.91.63-3.16.93-5.55 1.3-11.53 1.72-19.38 1.35-1.81-.09-3.4-.24-4.87-.44-.54-.07-1.08-.16-1.62-.24-2.5-.39-5.08-.78-7.48-.25-1.84.41-3.41 1.31-4.93 2.18-1.75 1-3.41 1.95-5.44 2.22-.84.11-1.69.03-2.58-.24-.1-.03-.21-.07-.31-.1-2.49-.89-4.65-3.19-6.75-5.43-.59-.63-1.21-1.29-1.82-1.9-.26-.26-.51-.51-.77-.75-.37-.36-.74-.71-1.1-1.04-4.05-3.78-7.58-5.81-11.79-6.78-.27-.06-.54-.12-.82-.17Zm-.32-9.07c4.39.63 7.97 2.24 11.61 5.21.39.32.74.62 1.09.92.25.22.5.45.75.68.85.79 1.67 1.67 2.47 2.52 1.91 2.05 3.71 3.98 5.9 4.79.84.32 1.63.43 2.43.37 1.94-.14 3.57-.9 5.29-1.7 1.43-.66 2.9-1.35 4.58-1.66 2.36-.44 4.88-.06 7.32.3l1.21.18c1.33.19 2.76.34 4.52.49l1.04.09c5.86.51 11.39.99 16.91.24 1.16-.16 2.1-.35 2.97-.59.33-.09.66-.2.98-.31 1.5-.54 2.79-1.34 3.85-2.4.67-.67 1.23-1.41 1.82-2.18.39-.51.79-1.04 1.23-1.56 1.34-1.56 3.12-2.79 5.13-3.54.41-.16.84-.28 1.31-.38.37-.08.75-.14 1.09-.2 1.67-.27 3.24-.52 4.66-1.87l.2-.19c1.4-1.34 2.73-2.6 4.38-3.78 2.37-1.68 5.1-3.14 8.13-4.34.13-.05.26-.1.4-.15.13-.05.27-.1.4-.15 2.25-.83 4.63-1.47 6.92-2.09 3.44-.93 7-1.9 10.29-3.51.41-.2.84-.41 1.3-.62.73-.35 1.5-.72 2.28-1.11h-.59c-.61.3-1.22.59-1.79.87-.45.22-.89.42-1.3.62-3.27 1.6-6.81 2.56-10.25 3.49-2.3.62-4.67 1.27-6.94 2.09-.14.05-.27.1-.41.15-.13.05-.27.1-.4.15-3.04 1.21-5.8 2.68-8.18 4.37-1.67 1.19-3 2.46-4.41 3.8l-.2.19c-1.36 1.3-2.9 1.55-4.53 1.81-.35.06-.73.12-1.1.2-.48.1-.92.23-1.34.39-2.05.77-3.85 2.02-5.22 3.61-.45.52-.85 1.06-1.25 1.57-.58.77-1.14 1.5-1.8 2.16-1.03 1.03-2.3 1.82-3.76 2.34-.31.11-.64.22-.96.31-.86.24-1.8.43-2.94.58-5.49.75-11.01.27-16.86-.24l-1.04-.09c-1.76-.15-3.19-.31-4.51-.49L43 27.72c-2.45-.37-4.99-.75-7.39-.3-1.7.32-3.19 1.01-4.63 1.67-1.71.79-3.32 1.54-5.21 1.68-.75.06-1.49-.05-2.26-.33-.02 0-.05-.02-.07-.03-2.14-.79-3.92-2.7-5.81-4.73-.8-.86-1.62-1.74-2.48-2.53-.25-.24-.51-.46-.76-.69-.35-.3-.71-.61-1.1-.92-3.68-3-7.29-4.62-11.73-5.26-.26-.04-.52-.07-.79-.1-.25-.03-.51-.02-.77-.03v.27c.25.01.5 0 .75.03.26.03.52.06.78.1Zm2.28 18.48c4.73 1.44 8.21 4.38 11.96 8.35l1.1 1.16c.26.27.51.55.78.82.3.32.6.65.9.97 2.62 2.84 5.32 5.76 8.48 6.56.96.24 1.85.27 2.73.11 2.13-.39 3.9-1.58 5.62-2.73 1.61-1.08 3.27-2.19 5.26-2.7 2.48-.64 5.16-.21 7.74.21.63.1 1.29.21 1.93.29 1.62.22 3.33.34 5.22.38 7.34.12 14.15-.87 20.81-3.02 1.33-.43 2.4-.83 3.34-1.26.37-.17.74-.36 1.09-.55 1.69-.93 3.06-2.1 4.07-3.49.6-.82 1.06-1.68 1.56-2.59.42-.77.85-1.58 1.37-2.34 1.31-1.94 3.27-3.38 5.66-4.17.46-.15.96-.27 1.5-.34.42-.06.84-.1 1.26-.13h.09c1.88-.16 3.67-.31 5.18-2.06l.49-.57c1.36-1.57 2.64-3.06 4.38-4.42 2.58-2.03 5.76-3.72 9.2-4.9.15-.05.3-.1.46-.15.16-.05.31-.1.47-.15 2.86-.88 5.86-1.4 8.77-1.91 3.76-.66 7.64-1.34 11.28-2.79 2.74-1.09 6.88-2.73 9.56-5.14.69-.62 1.28-1.31 1.8-2.11.88-1.36.98-2.52.96-3.47-.02-.95-.23-1.89-.45-2.89h-.25c.23 1 .44 1.95.46 2.89.02.91-.07 2.01-.91 3.31-.51.78-1.09 1.45-1.76 2.06-2.66 2.38-6.77 4.01-9.49 5.09-3.62 1.44-7.49 2.12-11.24 2.78-2.91.51-5.92 1.04-8.79 1.92-.16.05-.32.1-.47.15-.15.05-.31.1-.46.15-3.46 1.19-6.67 2.9-9.27 4.94-1.75 1.38-3.04 2.87-4.41 4.46l-.49.57c-1.45 1.67-3.18 1.81-5.02 1.97h-.09c-.43.04-.85.08-1.28.14-.56.08-1.07.19-1.54.35-2.44.81-4.44 2.28-5.79 4.27-.53.78-.96 1.58-1.38 2.36-.49.9-.95 1.76-1.54 2.56-.99 1.36-2.33 2.51-3.99 3.41-.34.19-.7.37-1.07.54-.94.43-1.99.83-3.32 1.25-6.64 2.14-13.43 3.13-20.74 3.01-1.88-.03-3.58-.16-5.19-.38-.64-.09-1.29-.19-1.93-.29-2.61-.42-5.31-.85-7.83-.2-2.03.52-3.71 1.65-5.34 2.74-1.77 1.19-3.45 2.32-5.53 2.7-.85.16-1.71.12-2.63-.11-3.09-.78-5.77-3.68-8.36-6.49-.3-.33-.6-.65-.9-.97-.26-.28-.52-.56-.78-.83l-1.1-1.16c-3.78-3.99-7.28-6.94-12.07-8.41a15.066 15.066 0 0 0-3.87-.67v.27a14.373 14.373 0 0 1 3.8.66Zm8.02-24.09c.39.27.74.53 1.08.8.25.19.5.4.74.61 1.04.88 1.99 1.94 2.92 2.96 1.59 1.76 3.1 3.42 4.94 4.24.77.34 1.52.51 2.28.5 1.86-.02 3.49-.58 5.2-1.17 1.31-.46 2.67-.93 4.16-1.14 2.38-.34 4.91.03 7.34.38l.62.09c1.09.15 2.19.3 3.24.43l.93.12c1.87.24 3.69.55 5.45.85 3.79.64 7.37 1.24 11.07 1.15 1.05-.02 1.96-.11 2.79-.25.31-.05.62-.12.93-.2 1.4-.35 2.66-.97 3.74-1.85.75-.61 1.39-1.3 2.07-2.04.34-.37.69-.74 1.05-1.12 1.38-1.38 3.06-2.5 4.86-3.23.38-.16.78-.29 1.21-.4.37-.1.73-.18 1.01-.23 1.46-.31 2.98-.63 4.35-1.78l.09-.07c1.41-1.19 2.75-2.31 4.35-3.38 2.21-1.48 4.76-2.84 7.59-4.06.12-.05.24-.1.37-.15l.37-.15c1.67-.68 3.42-1.27 5.13-1.84h-.82c-1.48.5-2.96 1.01-4.4 1.59l-.37.15c-.12.05-.25.1-.37.16-2.84 1.22-5.41 2.6-7.63 4.08-1.61 1.08-2.95 2.21-4.37 3.4l-.09.07c-1.32 1.11-2.81 1.43-4.25 1.73-.28.06-.64.14-1.02.24-.44.12-.84.25-1.24.41-1.83.74-3.54 1.87-4.94 3.28-.37.38-.72.76-1.06 1.12-.67.73-1.31 1.42-2.04 2.01a9.355 9.355 0 0 1-3.64 1.8c-.3.08-.61.14-.91.2-.82.14-1.72.23-2.76.25-3.67.09-7.24-.51-11.02-1.15-1.76-.3-3.58-.6-5.46-.85l-.93-.12c-1.06-.14-2.15-.28-3.24-.43l-.61-.09c-2.45-.36-4.99-.72-7.41-.38-1.51.22-2.88.69-4.2 1.15-1.7.59-3.3 1.15-5.13 1.16-.73 0-1.44-.15-2.19-.48-1.8-.8-3.29-2.44-4.86-4.18-.93-1.03-1.9-2.09-2.94-2.99-.25-.21-.5-.42-.75-.61-.35-.27-.7-.53-1.1-.81C8.66 8.43 5.1 7.29.4 7.04c-.13 0-.27 0-.4-.01v.27c.13 0 .26 0 .39.01 4.71.25 8.13 1.34 11.44 3.64Zm4.99 43.51c.35.41.72.83 1.1 1.26l.43.49c3.03 3.47 6.47 7.39 10.46 8.19 1.06.21 2.05.21 3.02-.02 2.31-.53 4.16-1.95 5.95-3.31 1.66-1.27 3.38-2.58 5.45-3.17 2.5-.71 5.24-.26 7.89.18.74.12 1.48.24 2.21.34 1.78.24 3.62.35 5.61.33 7.38-.08 14.49-1.58 22.37-4.72.99-.39 2.29-.93 3.55-1.61 2.39-1.27 4.23-2.9 5.47-4.83.59-.92 1.05-1.91 1.5-2.88.41-.88.84-1.8 1.36-2.66 1.26-2.05 3.24-3.55 5.73-4.32.46-.14.96-.25 1.53-.31.5-.05.99-.08 1.47-.1 1.98-.1 4.03-.21 5.7-2.28l.6-.76c1.34-1.68 2.6-3.26 4.35-4.69 2.67-2.18 5.99-3.95 9.61-5.12.33-.1.66-.2.98-.3 3.15-.89 6.46-1.35 9.66-1.79 3.92-.55 7.98-1.11 11.83-2.47 3.58-1.27 8.68-3.32 11.49-6.5 1.28-1.45 1.61-2.75 1.75-3.6.2-1.2.01-2.34-.18-3.55-.13-.8-.26-1.64-.3-2.56-.02-.58-.05-1.23-.01-1.86.04-.67.13-1.28.27-1.84h-1c-.12.55-.21 1.13-.25 1.77-.04.69-.01 1.38 0 1.98.04.99.18 1.86.31 2.7.19 1.16.35 2.17.18 3.18-.13.78-.41 1.83-1.49 3.05-2.66 3.01-7.6 4.99-11.09 6.22-3.76 1.33-7.77 1.89-11.65 2.43-3.23.45-6.57.92-9.78 1.82l-1.02.3c-3.73 1.2-7.16 3.03-9.93 5.29-1.83 1.5-3.13 3.12-4.5 4.85l-.6.75c-1.39 1.73-3.07 1.81-5 1.91-.5.03-1.01.05-1.52.11-.63.07-1.19.18-1.7.34-2.72.85-4.89 2.49-6.27 4.76-.56.91-1 1.86-1.42 2.77-.45.97-.88 1.89-1.43 2.75-1.14 1.78-2.85 3.29-5.09 4.48-1.23.66-2.49 1.18-3.46 1.57-7.77 3.09-14.77 4.57-22.04 4.65-1.95.02-3.75-.08-5.48-.32-.73-.1-1.46-.22-2.19-.34-2.75-.45-5.6-.92-8.29-.15-2.25.64-4.04 2.01-5.77 3.33-1.79 1.37-3.48 2.66-5.59 3.14-.85.2-1.71.2-2.64.01-3.68-.74-6.99-4.53-9.92-7.88l-.43-.49c-.38-.42-.74-.84-1.09-1.25-4.01-4.65-7.73-8.64-13.3-10.41-1.36-.43-2.76-.67-4.23-.71v1.07c1.38.04 2.69.26 3.95.66 5.3 1.71 8.82 5.42 12.86 10.11ZM52.11 4.31c.86.22 1.65.36 2.42.42.28.02.55.03.82.03 1.19 0 2.37-.24 3.51-.75 1.16-.52 2.23-1.25 3.26-1.96.97-.66 2.09-1.4 3.28-2.05h-.53c-1.04.6-2.02 1.24-2.88 1.83-1.02.71-2.08 1.43-3.22 1.94-1.12.49-2.27.74-3.42.73-.26 0-.53-.01-.8-.03-.75-.06-1.53-.19-2.38-.41-2.21-.57-4.3-1.54-6.5-2.57A71.1 71.1 0 0 0 42.35.01h-.73c1.35.53 2.66 1.13 3.95 1.73 2.12.99 4.3 2.01 6.54 2.59ZM11.6.82c.24.16.48.34.73.54 1.19.92 2.22 2.12 3.22 3.28 1.33 1.54 2.58 2.99 4.13 3.81.71.37 1.41.58 2.13.63 1.83.12 3.49-.25 5.24-.63 1.15-.26 2.35-.52 3.61-.64 2.4-.22 4.86.09 7.39.46 1.43.21 2.63.39 3.83.61 2.38.43 4.66 1.11 6.86 1.76 2.8.83 5.44 1.62 8.22 1.91.95.1 1.81.13 2.6.08.28-.02.58-.04.87-.08 1.3-.17 2.52-.61 3.63-1.3.89-.55 1.66-1.23 2.49-1.95l.7-.61c1.44-1.22 3.03-2.23 4.6-2.91.35-.15.72-.3 1.11-.42.27-.09.56-.17.92-.27 1.54-.41 2.81-.8 4.04-1.69 1.35-.98 2.75-1.99 4.3-2.95.24-.15.5-.3.75-.45h-.51c-.12.07-.24.14-.36.22-1.56.97-2.96 1.98-4.31 2.96-1.2.87-2.45 1.25-3.96 1.65-.37.1-.66.18-.93.27-.39.13-.77.27-1.13.43-1.59.69-3.19 1.71-4.65 2.95-.24.2-.47.41-.71.61-.82.71-1.59 1.38-2.46 1.93-1.08.68-2.27 1.1-3.53 1.27-.29.04-.58.07-.86.08-.79.05-1.63.02-2.57-.08-2.76-.29-5.39-1.08-8.18-1.9-2.21-.66-4.49-1.33-6.88-1.76-1.2-.22-2.4-.4-3.83-.61-2.54-.37-5.02-.69-7.44-.47-1.28.12-2.48.39-3.64.64-1.74.38-3.38.75-5.18.63-.69-.05-1.36-.24-2.04-.6-1.51-.8-2.75-2.23-4.06-3.75-1.01-1.17-2.05-2.38-3.26-3.31-.26-.2-.5-.38-.74-.54-.3-.21-.62-.41-.95-.6h-.54c.09.05.19.09.28.14.38.22.74.45 1.08.68Zm417.7 4.64c-1.53-1.94-3.32-3.73-5.13-5.46h-.37c1.88 1.78 3.74 3.63 5.32 5.64a24.75 24.75 0 0 1 2.89 4.67v-.57c-.8-1.6-1.75-3.06-2.71-4.27ZM4.9 53.07c.31.12.63.23.93.36 5.19 2.18 8.65 6.6 12.32 11.27.29.37.58.74.88 1.12l.24.3c3.25 4 7.08 8.31 11.4 9.01 1.05.17 2.08.12 3.05-.15 2.34-.64 4.2-2.23 6.01-3.77 1.76-1.5 3.58-3.05 5.86-3.75 2.68-.84 5.59-.34 8.41.14.8.14 1.63.28 2.44.38 1.91.25 3.85.34 5.95.26 7.29-.27 14.72-2.27 23.37-6.27.31-.15.63-.29.94-.44 1.07-.52 1.95-.98 2.74-1.45 2.46-1.45 4.33-3.19 5.54-5.18.24-.4.46-.81.68-1.26.33-.68.62-1.39.91-2.08.36-.89.74-1.81 1.21-2.69.26-.49.56-.96.88-1.4 1.24-1.69 3.04-2.95 5.19-3.66.5-.16 1.03-.28 1.63-.36.69-.09 1.38-.12 2.05-.14 1.98-.07 3.86-.13 5.42-1.96.33-.38.63-.77.94-1.18l.07-.09c1.28-1.71 2.49-3.33 4.18-4.8.32-.28.65-.55.98-.81 2.65-2.08 5.9-3.75 9.38-4.83.35-.11.71-.21 1.07-.3.2-.05.41-.11.61-.16 3.35-.83 6.83-1.2 10.2-1.57 4.06-.44 8.25-.89 12.24-2.13 5.52-1.73 9.5-3.89 11.84-6.4 1.24-1.33 1.65-2.56 1.85-3.37.28-1.12.21-2.23.14-3.41-.02-.32-.04-.65-.05-.98a14.685 14.685 0 0 1 .24-3.46c.38-2.07 1.22-3.39 2.72-4.26.47-.28.88-.48 1.27-.63.54-.21 1.13-.35 1.78-.43 2.79-.35 5.72-.15 8.5.58.58.15 1.27.38 2 .63.83.28 1.69.56 2.51.78.73.19 1.47.37 2.03.4 1.23.06 2.06-.55 2.86-1.14.37-.28.73-.54 1.12-.73 1.69-.85 3.88-1.93 6.35-3.03h-.64c-2.25 1.02-4.25 2-5.82 2.79-.41.21-.79.49-1.15.76-.77.57-1.56 1.16-2.71 1.1-.54-.03-1.31-.21-1.98-.39-.82-.22-1.67-.5-2.5-.78-.74-.25-1.44-.48-2.02-.63-2.8-.74-5.77-.94-8.58-.59-.67.09-1.27.23-1.83.45-.4.16-.82.36-1.3.64-1.55.9-2.45 2.31-2.84 4.44a15.247 15.247 0 0 0-.24 3.53c.01.34.03.67.05.99.07 1.15.13 2.25-.13 3.32-.31 1.26-.86 2.26-1.79 3.25-2.31 2.48-6.26 4.61-11.73 6.33-3.96 1.24-8.15 1.69-12.19 2.12-3.38.36-6.87.74-10.23 1.57-.21.05-.41.1-.61.16-.36.1-.72.2-1.07.31-3.51 1.09-6.78 2.77-9.46 4.87-.33.26-.66.54-.99.82-1.7 1.49-2.92 3.12-4.21 4.84l-.07.09c-.3.4-.6.78-.93 1.16-1.49 1.75-3.32 1.81-5.25 1.88-.67.02-1.37.05-2.07.14-.61.08-1.16.2-1.67.37-2.2.72-4.03 2.02-5.31 3.75-.33.44-.63.93-.9 1.43-.47.89-.85 1.82-1.22 2.71-.28.69-.57 1.4-.9 2.07-.22.45-.44.85-.67 1.24-1.19 1.96-3.03 3.67-5.45 5.1-.79.47-1.65.92-2.72 1.44-.31.15-.63.3-.94.44-8.62 3.99-16.02 5.98-23.28 6.25-2.08.08-4.01 0-5.91-.26-.81-.11-1.63-.25-2.43-.38-2.84-.48-5.79-.98-8.52-.13-2.32.72-4.16 2.29-5.94 3.8-1.87 1.59-3.63 3.09-5.92 3.72-.95.26-1.92.31-2.96.14-4.24-.68-8.03-4.96-11.25-8.92l-.24-.3c-.3-.38-.59-.75-.88-1.12-3.69-4.7-7.17-9.15-12.42-11.35-.3-.12-.6-.24-.91-.36-.01 0-.02 0-.03-.01-1.58-.56-3.22-.85-4.98-.87v.27c1.73.02 3.35.3 4.9.86Zm3.39 36.4c.37.18.74.37 1.1.57 5.2 2.96 8.23 8.29 11.44 13.94.52.91 1.05 1.85 1.59 2.77.31.52.61 1.04.93 1.55.08.14.17.28.26.42 4.2 6.61 9.55 10.67 14.3 10.86 1.3.05 2.57-.17 3.76-.66 2.78-1.13 4.85-3.53 6.86-5.84 2.02-2.33 4.12-4.74 6.92-5.85 3.16-1.24 6.63-.6 9.99.02 1.08.2 2.21.41 3.3.55 2.42.31 4.93.31 7.48 0 9.93-1.19 19.26-6.75 27.87-12.58.37-.25.73-.5 1.1-.75.97-.67 2.12-1.47 3.21-2.31 3.07-2.36 5.11-4.63 6.42-7.14.28-.54.53-1.1.75-1.67.46-1.21.78-2.49 1.09-3.74.22-.87.44-1.77.71-2.64.23-.74.47-1.38.75-1.98 1.14-2.5 3.17-4.36 5.85-5.38.54-.2 1.1-.37 1.74-.5 1.29-.28 2.59-.21 3.84-.14 2.13.12 4.15.23 5.82-1.4.43-.42.83-.92 1.19-1.5.3-.48.59-.95.87-1.42 1.16-1.92 2.26-3.73 3.8-5.4.38-.41.75-.79 1.15-1.15 3.18-2.91 7.23-5.1 11.71-6.31.44-.12.9-.23 1.36-.33.26-.06.52-.11.78-.16 4.71-.92 9.58-.98 14.29-1.05 4.71-.06 9.58-.13 14.29-1.05 5.49-1.08 10.4-3.36 13.83-6.42 1.05-.93 1.88-1.97 2.61-3.27.73-1.29 1.18-2.68 1.66-4.14l.09-.26c.21-.63.43-1.17.69-1.64.3-.55.67-1.02 1.16-1.48 1.17-1.09 2.65-1.25 4.94-.53.22.07.45.13.67.2.26.07.52.15.78.23.63.2 1.27.43 1.9.67a256.5 256.5 0 0 1 8.55 3.52l.7.3c1.36.59 2.77 1.2 4.18 1.71.71.26 1.47.52 2.18.71 1.29.34 2.46.36 3.6.38.38 0 .77.01 1.16.03 2.99.14 6.11-.03 9.25-.49 1.71-.25 3.44-.64 5.14-1.15 4.22-1.27 8.47-3.43 12.28-6.25 7.67-5.65 11.7-12.36 11.35-18.89-.19-3.53-1.09-6.32-2.57-9.97l-.2-.41c-.33-.68-.66-1.36-.98-2.05h-.27c.34.73.69 1.46 1.03 2.18l.19.4c1.47 3.61 2.36 6.38 2.55 9.87.35 6.43-3.65 13.06-11.24 18.65-3.78 2.8-8 4.95-12.2 6.21-1.69.51-3.41.9-5.11 1.14-3.13.46-6.23.62-9.21.49-.39-.02-.78-.02-1.16-.03-1.17-.02-2.28-.04-3.54-.37a27.2 27.2 0 0 1-2.16-.71c-1.41-.51-2.81-1.12-4.17-1.71l-.7-.3c-3.01-1.3-5.89-2.49-8.56-3.53-.63-.25-1.27-.47-1.91-.68-.26-.08-.53-.16-.78-.23-.23-.07-.45-.13-.67-.2-2.39-.75-3.93-.57-5.17.59-.51.48-.9.97-1.21 1.55-.26.48-.49 1.03-.71 1.68l-.09.26c-.47 1.45-.92 2.82-1.64 4.09-.72 1.27-1.54 2.29-2.56 3.2-3.4 3.03-8.27 5.29-13.72 6.37-4.69.91-9.55.98-14.25 1.04-4.72.06-9.61.13-14.33 1.05-.26.05-.52.1-.78.16-.46.1-.92.22-1.37.34-4.52 1.23-8.6 3.43-11.81 6.37-.4.37-.78.75-1.16 1.16-1.55 1.69-2.66 3.51-3.83 5.44-.28.47-.57.94-.87 1.42-.35.56-.73 1.05-1.15 1.45-1.6 1.55-3.56 1.44-5.64 1.33-1.27-.07-2.58-.14-3.9.14-.65.14-1.22.31-1.77.51-2.75 1.05-4.82 2.96-5.99 5.52-.28.61-.53 1.26-.76 2.01-.27.88-.5 1.78-.72 2.66-.31 1.23-.62 2.51-1.08 3.7-.21.56-.46 1.11-.74 1.64-1.29 2.48-3.31 4.72-6.35 7.06-1.09.84-2.23 1.63-3.2 2.3-.37.25-.73.5-1.1.75-8.58 5.81-17.89 11.35-27.77 12.54-2.53.31-5.02.31-7.42 0-1.09-.14-2.21-.35-3.29-.54-3.39-.63-6.9-1.27-10.12 0-2.86 1.13-4.97 3.56-7.02 5.92-1.99 2.29-4.04 4.66-6.77 5.77-1.17.48-2.4.69-3.67.64-4.67-.19-9.94-4.2-14.1-10.74-.09-.14-.17-.27-.26-.41-.32-.51-.62-1.03-.93-1.55-.54-.92-1.07-1.85-1.58-2.76-3.22-5.68-6.27-11.05-11.53-14.04-.36-.21-.73-.4-1.11-.58-2.54-1.21-5.31-1.73-8.39-1.57v.27c3.05-.16 5.78.34 8.29 1.55Zm422.03-63.7c.69-.7 1.22-1.25 1.68-1.87v.42c-.43.54-.92 1.04-1.51 1.64l-.3.3c-3.26 3.31-7.31 9.97-9.64 14.84-.89 1.87-1.6 3.55-2.28 5.18-1.43 3.4-2.66 6.34-4.85 8.91l-.04.03c-3.6 1.57-7.64 2.21-12.72 1.99-1.17-.05-2.3-.21-3.35-.37-.44-.07-.89-.15-1.34-.22-.81-.14-1.64-.28-2.48-.39l-.82-.12c-1.07-.17-2.17-.34-3.25-.2-.24.03-.49.1-.74.21-.98.43-1.95 1.39-2.96 2.94-.45.69-.83 1.48-1.21 2.24-.2.4-.38.78-.57 1.13-1.08 2-2.03 3.39-3 4.39-.94.97-1.92 1.72-2.99 2.32-1.21.67-2.57 1.31-4.15 1.96-4.56 1.87-9.72 4-11.91 8.27-.55 1.08-.91 2.23-1.1 3.53-.2 1.4-.17 2.81-.15 4.17.02 1.27.05 2.57-.11 3.87-.22 1.82-.85 3.55-1.85 5.12-1.73 2.71-4.62 4.82-7.98 6.08 3.85 1.16 7.57 3.02 11.02 5.2 3.96-1.6 7.22-4.36 8.73-7.79.75-1.7 1.15-3.56 1.2-5.52.03-1.1-.04-2.22-.11-3.3-.11-1.74-.22-3.54.06-5.35.23-1.4.65-2.66 1.31-3.84 2.44-4.33 7.65-6.39 12.69-8.38l.52-.2c1.6-.63 3.07-1.37 4.37-2.21 1.04-.67 2.01-1.55 2.96-2.67 1.05-1.23 1.99-3.07 2.9-4.85l.15-.29c.56-1.09 1.19-2.33 1.99-3.15 1.11-1.13 2.38-1.87 3.66-2.16.31-.07.59-.1.86-.1 1.17 0 2.35.28 3.49.55.3.07.59.14.87.2.59.13 1.18.26 1.77.4.75.17 1.52.35 2.28.5.76.16 1.62.32 2.52.45.56-.13 1.14-.23 1.76-.25.33-.01.63 0 .91.03.87.1 1.74.32 2.6.57 3.49 0 6.55-.47 9.39-1.47 1.31-1.14 2.39-2.41 3.39-3.81v.43c-.96 1.31-2 2.51-3.26 3.6l-.04.02c-2.64.93-5.45 1.41-8.62 1.48.06.02.12.04.19.06.32.1.64.19.95.28l.87.25c.8.23 1.62.46 2.44.68 1.54-.61 3.25-.54 4.74-.39.36.04.68.09.97.15.59.13 1.18.31 1.77.5v.28c-.61-.2-1.22-.38-1.82-.51-.28-.06-.59-.11-.94-.15-1.34-.14-2.87-.21-4.26.24.17.05.35.1.52.14 1.03.25 2.39.57 3.79.78.93.14 1.84.25 2.72.33v.27c-.89-.08-1.8-.19-2.75-.33-1.41-.21-2.78-.53-3.81-.79-.3-.07-.6-.16-.91-.24-1.2.51-2.05 2.02-2.72 3.42-.35.74-.69 1.51-1.01 2.26-.61 1.41-1.19 2.75-1.8 3.67-1 1.5-1.97 2.62-3.08 3.52-1.45 1.18-3.06 2.09-4.93 2.77-.56.2-1.12.41-1.69.62-5.37 1.94-10.93 3.95-13.73 8.25-.82 1.28-1.36 2.65-1.64 4.19-.46 2.57-.05 5.16.36 7.65.11.69.23 1.4.32 2.1.35 2.58.37 4.69.04 6.64-.67 3.97-3.16 7.56-7.02 10.13-2.87 1.91-6.36 3.12-9.89 3.49 2.06 1.89 4.13 3.77 6.26 5.57.86.09 1.73.14 2.62.13 4.72-.07 9.54-1.69 13.2-4.45 3.92-2.95 6.25-6.96 6.55-11.29.18-2.5-.23-4.98-.66-7.07l-.3-1.42c-.62-2.93-1.27-5.97-.69-9.02.32-1.67.93-3.15 1.87-4.51 3.05-4.43 8.87-6.44 14.5-8.38.75-.26 1.49-.51 2.21-.77 1.97-.7 3.64-1.68 5.1-3 1.1-.99 2.1-2.25 3.06-3.86.18-.3.35-.66.53-1.05v.59c-.11.22-.21.42-.32.61-.97 1.63-1.99 2.92-3.11 3.92-1.49 1.34-3.19 2.34-5.18 3.05-.72.26-1.46.51-2.21.77-5.59 1.93-11.38 3.93-14.38 8.29-.92 1.34-1.51 2.78-1.82 4.41-.57 2.99.07 6 .69 8.9l.3 1.42c.43 2.11.84 4.61.66 7.15-.31 4.41-2.68 8.49-6.66 11.48-3.71 2.79-8.57 4.43-13.34 4.5-.76.01-1.52-.03-2.26-.09 1.97 1.65 3.99 3.22 6.07 4.64.28.09.55.18.83.26 2.22.63 4.59.89 7.04.76 5.06-.26 10.11-2.2 13.85-5.32 4.04-3.37 6.24-7.85 6.2-12.62-.02-2.59-.64-5.16-1.28-7.58l-.18-.7c-.89-3.36-1.81-6.84-1.12-10.33.35-1.76 1.02-3.31 2.05-4.74 3.07-4.23 8.63-6.26 14.18-8.11v.28c-5.48 1.83-10.97 3.84-13.98 7.99-1.01 1.39-1.66 2.91-2.01 4.63-.68 3.43.19 6.72 1.11 10.2l.18.7c.64 2.44 1.27 5.04 1.29 7.65.04 4.85-2.2 9.41-6.3 12.83-3.78 3.16-8.88 5.12-13.99 5.37-2.47.12-4.86-.13-7.1-.77 3.57 2.34 7.33 4.24 11.4 5.33 7.27 1.94 16-.29 21.71-5.56 4.01-3.7 6.02-8.51 5.64-13.54-.2-2.68-1.05-5.36-1.86-7.95-1.22-3.85-2.47-7.83-1.64-11.89.75-3.65 2.81-6.24 5.54-8.22V91c-2.27 1.79-3.96 4.07-4.58 7.13-.77 3.76.39 7.43 1.61 11.31.84 2.66 1.7 5.4 1.92 8.21.4 5.38-1.72 10.51-5.98 14.44-5.94 5.48-15.01 7.8-22.58 5.78-5.37-1.43-10.19-4.21-14.73-7.59-3.25-1.32-6.29-3.12-9.25-5.25-3.74-1.34-7.2-3.34-10.57-5.76-3.71-1.31-7.15-3.3-10.52-5.72-.07-.02-.14-.05-.2-.07-3.72-1.33-7.17-3.37-10.39-5.67-.2-.07-.4-.13-.6-.21-3.23-1.21-6.23-2.95-9.1-4.94-.74.2-1.48.44-2.22.72-14.92 5.8-17.64 23.67-20.51 42.58-2.63 17.29-5.34 35.18-18 44.05-10.4 7.29-23.91 5.46-36.86 2.95l-82.25-15.91c-16.83-3.25-35.9-6.94-53.62-1.93-13.61 3.85-25.37 13.77-30.68 25.89-.99 2.25-1.73 4.42-2.22 6.47.18.65.37 1.28.55 1.9.18.6.35 1.18.5 1.73.15.55.34 1.11.54 1.66.22.45.44.9.66 1.34.33.65.63 1.26.91 1.85.74 1.57 1.72 3.11 2.77 4.73.86 1.34 1.72 2.7 2.47 4.1.22.25.43.5.66.76 1.51 1.73 3.03 3.5 4.25 5.39 3.28 3.02 6.48 6.19 7.74 10.15 1 3.15-.38 8.45-1.3 11.95l-.24.92c-2.08 8.12-6.29 16.05-12.17 22.93-3.55 4.16-7.6 7.86-12.01 11.07h-1.81c4.84-3.35 9.27-7.3 13.1-11.79 5.78-6.76 9.91-14.54 11.95-22.5l.24-.92c.83-3.17 2.22-8.47 1.32-11.31-.91-2.85-2.96-5.32-5.31-7.65.3.74.56 1.5.72 2.29.28 1.39.09 3.38-.54 5.93-.56 2.23-1.37 4.45-1.85 5.77-2.64 7.23-7.05 13.85-13.11 19.7-3.82 3.69-8.22 6.94-13.07 9.67a72.412 72.412 0 0 1-14.49 6.19c-4.82 1.49-9.74 2.51-14.6 3.02-1.51.16-3.05.29-4.58.38-11.38.67-23.28-.55-36.4-3.75-2.43-.59-4.92-1.25-7.52-2v-.28c2.62.76 5.13 1.43 7.57 2.02 13.09 3.19 24.97 4.41 36.33 3.74 1.53-.09 3.07-.22 4.57-.38 4.85-.51 9.75-1.53 14.56-3.01 5.02-1.53 9.88-3.61 14.44-6.18 4.83-2.72 9.21-5.96 13.02-9.63 6.03-5.82 10.42-12.41 13.04-19.6.48-1.32 1.29-3.53 1.84-5.74.63-2.51.81-4.46.54-5.81-.19-.97-.51-1.9-.92-2.79-.85-.83-1.74-1.64-2.62-2.44-.55-.5-1.08-.99-1.6-1.48.1.5.18 1.01.21 1.53.09 1.36-.25 3.22-1.02 5.52-.53 1.59-1.28 3.36-2.22 5.26-3.16 6.36-7.78 11.8-14.13 16.63-3.77 2.86-8.09 5.35-12.85 7.39-4.37 1.87-9.06 3.38-13.95 4.49-4.81 1.1-9.52 1.83-14 2.19-1.44.12-2.92.21-4.39.27-11.12.49-22.85-.56-34.88-3.13-1.16-.25-2.34-.51-3.53-.79v-.27c1.22.29 2.41.55 3.58.8 12.01 2.57 23.72 3.62 34.82 3.13 1.46-.06 2.94-.16 4.38-.27 4.47-.36 9.17-1.09 13.97-2.19 4.87-1.11 9.55-2.62 13.91-4.48 4.74-2.03 9.05-4.5 12.8-7.36 6.32-4.8 10.92-10.21 14.06-16.54.94-1.89 1.68-3.64 2.21-5.22.76-2.26 1.1-4.08 1.01-5.41-.04-.63-.16-1.25-.3-1.86-1.05-.99-2.03-1.97-2.88-2.98-.53-.62-1.11-1.28-1.73-1.97l-.03-.03c.03.56.04 1.11 0 1.68-.1 1.34-.61 3.06-1.51 5.1-.91 2.08-2.02 3.87-2.6 4.75-3.57 5.43-8.53 9.87-15.15 13.56-3.73 2.08-7.87 3.75-12.64 5.1-4.2 1.19-8.59 2.11-13.41 2.79-4.97.71-9.36 1.16-13.4 1.36a162.465 162.465 0 0 1-37.11-2.27v-.27a162.47 162.47 0 0 0 32.91 2.45c1.4-.04 2.81-.1 4.19-.17 4.04-.21 8.41-.65 13.38-1.36 4.81-.69 9.19-1.6 13.38-2.79 4.75-1.35 8.87-3.01 12.59-5.08 6.59-3.67 11.52-8.08 15.06-13.48.57-.87 1.67-2.64 2.57-4.71.87-1.98 1.38-3.72 1.48-5.01.05-.66.03-1.32-.03-1.96-1.56-1.75-3.27-3.7-4.55-5.81-.04.88-.15 1.77-.36 2.66-.31 1.32-1 2.94-1.98 4.69-.83 1.47-1.89 2.97-2.97 4.23-4 4.65-9.14 7.98-16.17 10.49-3.64 1.29-7.59 2.19-12.42 2.82-3.76.49-7.97.85-12.88 1.1l-1.39.07c-3.72.19-7.56.39-11.41.47-1.33.03-2.67.05-4 .06-10 .1-19.01-.34-27.41-1.33v-.27c8.4.99 17.41 1.43 27.41 1.33 1.33-.01 2.67-.04 4-.06 3.85-.08 7.69-.28 11.4-.47l1.38-.07c4.9-.25 9.11-.61 12.86-1.09 4.82-.62 8.75-1.52 12.38-2.81 6.99-2.49 12.1-5.8 16.07-10.42 1.07-1.25 2.12-2.74 2.94-4.19.98-1.72 1.65-3.32 1.96-4.61.24-1.01.34-2.01.36-3.01-1.18-2.06-1.93-4.26-1.71-6.58.06-.59.14-1.19.24-1.8-.23-.99-.32-1.9-.27-2.79.02-.44.05-.85.09-1.24-.29-1.12-.49-2.26-.49-3.4 0-.47.02-1.02.07-1.58-.23-1.04-.41-2.05-.47-3.05-.04-.77-.04-1.43.03-2.11-.05.41-.11.84-.17 1.27-.23 1.63-.42 3.32-.59 4.82l-.03.27c-.15 1.33-.23 2.71-.3 4.05-.18 3.34-.37 6.79-1.73 10.08-.54 1.33-1.4 2.8-2.46 4.27-.99 1.36-2.14 2.65-3.34 3.71-4.4 3.91-9.86 6.27-17.2 7.41-3.48.54-7.25.71-12.21.53-2.54-.09-5.17-.23-7.95-.38-1.42-.08-2.88-.15-4.38-.23-3.59-.18-7.34-.23-10.98-.27l-1.22-.02c-1.27-.02-2.54-.03-3.81-.04-7.74-.07-14.92-.19-21.91-.61v-.27c6.98.42 14.17.53 21.91.61 1.27.01 2.54.03 3.81.04l1.22.02c3.63.05 7.39.1 10.98.27 1.5.07 2.96.15 4.39.23 2.78.15 5.41.29 7.95.38 4.94.17 8.7.01 12.16-.53 7.29-1.14 12.72-3.47 17.08-7.36 1.18-1.06 2.33-2.32 3.31-3.67 1.05-1.45 1.89-2.91 2.43-4.22 1.33-3.25 1.52-6.68 1.71-9.99.07-1.34.15-2.72.3-4.06l.03-.27c.17-1.5.36-3.2.59-4.83.1-.73.19-1.43.25-2.07-.11-.57-.21-1.13-.27-1.68-.08-.68-.15-1.42-.06-2.19.02-.19.03-.4.05-.59-.04-.18-.07-.37-.11-.55-.16.65-.4 1.41-.69 2.31-.15.45-.3.9-.45 1.37-.42 1.27-.86 2.58-1.21 3.69-.31 1.01-.62 2.06-.91 3.07-1.05 3.65-2.14 7.42-4.18 10.77-.81 1.33-1.83 2.67-2.94 3.86-1.15 1.23-2.39 2.3-3.71 3.2-4.86 3.28-10.65 4.66-18.22 4.34-4.12-.18-8.19-.95-11.99-1.75l-.83-.18c-3.45-.73-7.02-1.49-10.97-2.12-3.4-.53-7.08-.89-11.59-1.11-1.15-.06-2.33-.11-3.61-.15-3.8-.12-7.67-.16-11.42-.2l-4.99-.06v-.27c1.67.02 3.34.05 4.99.06 3.74.04 7.62.08 11.42.2 1.29.04 2.47.09 3.62.15 4.51.23 8.2.59 11.61 1.12 3.95.63 7.52 1.39 10.98 2.12l.83.18c3.79.8 7.85 1.57 11.95 1.75 7.52.32 13.27-1.04 18.09-4.3 1.3-.88 2.54-1.94 3.67-3.16 1.1-1.18 2.1-2.5 2.91-3.82 2.02-3.32 3.1-7.08 4.15-10.71.29-1.01.6-2.06.91-3.07.35-1.11.78-2.43 1.21-3.69.15-.46.31-.92.45-1.37.39-1.17.67-2.1.8-2.83-.05-.23-.1-.47-.14-.7-.12-.66-.23-1.38-.17-2.12.02-.31.03-.65.03-.99-.28.63-.64 1.34-1.05 2.12-.39.74-.81 1.51-1.23 2.28-.52.96-1.04 1.9-1.47 2.74l-.39.77c-2.94 5.73-6.28 12.23-11.27 16.36-6.11 5.05-13.84 6.36-23.64 4.01-4.05-.97-8.06-2.53-11.82-4.05-3.82-1.54-7.3-2.9-11.22-3.98-4.17-1.16-8.86-1.87-14.33-2.18-3.61-.2-7.26-.23-10.88-.2v-1.06c3.63-.02 7.3 0 10.93.2 5.54.31 10.29 1.03 14.52 2.21 3.97 1.09 7.47 2.46 11.32 4.01 3.73 1.5 7.71 3.05 11.69 4.01 9.5 2.28 16.96 1.03 22.83-3.82 4.83-3.99 8.12-10.39 11.01-16.03l.39-.77c.43-.84.95-1.79 1.48-2.76.42-.76.84-1.53 1.22-2.26.57-1.08 1.1-2.11 1.33-2.82.09-.3.15-.57.2-.84-.1-.48-.17-.98-.15-1.5.02-.35 0-.73-.02-1.13-.09-.33-.2-.65-.31-.96-.26-.74-.52-1.51-.53-2.36-.27.46-.6.97-.97 1.55-.57.88-1.21 1.8-1.82 2.69-.38.56-.75 1.09-1.08 1.58l-.58.87c-3.26 4.87-6.64 9.91-11.41 13.61-6.13 4.77-13.57 6.56-22.11 5.35-3.48-.5-7.26-1.7-11.9-3.81-1.11-.5-2.25-1.04-3.36-1.56-1.97-.92-4.01-1.88-6.08-2.77-.46-.2-.93-.4-1.4-.59a65.105 65.105 0 0 0-13.5-3.96c-2.12-.39-4.3-.69-6.47-.9-1.65-.16-3.38-.26-5.24-.31v-.27c1.87.05 3.6.15 5.26.31 2.18.21 4.36.51 6.49.9 4.69.85 9.13 2.15 13.55 3.97.47.2.94.39 1.41.59 2.08.89 4.12 1.85 6.09 2.77 1.1.52 2.25 1.05 3.35 1.56 4.61 2.09 8.37 3.29 11.84 3.79 8.48 1.21 15.85-.58 21.93-5.3 4.75-3.68 8.11-8.7 11.36-13.55l.58-.87c.33-.49.7-1.03 1.08-1.59.61-.89 1.25-1.81 1.82-2.68.46-.71.85-1.33 1.15-1.86-.02-.29-.05-.61-.09-.97-.16-1.37-.35-3.16.44-5.19 0-.21 0-.42.04-.64.06-.39.07-.83.08-1.35.02-1.49.04-3.34 1.5-5.47 1.09-1.59 2.54-3.36 4.56-5.56 5.67-6.14 12.95-11.94 20.5-16.32 1.71-1 3.49-1.95 5.28-2.83.55-.27 1.09-.53 1.64-.79 1.83-.86 3.68-1.68 5.46-2.47 2.11-.93 4.09-1.82 5.99-2.73 2.13-1.03 3.91-1.96 5.45-2.86.68-.4 1.33-.79 1.98-1.18.72-.43 1.44-.86 2.16-1.28 1.16-.67 2.26-1.25 3.39-1.77 2.25-1.03 4.82-1.72 7.64-2.03.52-.06 1.06-.1 1.6-.14.87-.06 1.8-.07 2.75-.05 1.71.03 3.43.25 5.09.46 2.87.37 5.58.72 8.12.1.85-.21 1.53-.43 2.16-.71 3.55-1.55 6.76-2.66 10.43-3.61 6.1-1.58 13.11-2.31 20.27-2.13 3.05.08 6.39.29 10.23.64 1.07.1 2.16.21 3.25.32 8.82.88 17.94 1.79 25.77-1.84 8.4-3.9 12.47-12.91 15.92-21.81.95-2.44 1.8-4.99 2.62-7.45.9-2.7 1.83-5.5 2.89-8.12 2.3-5.7 5.76-8.64 10.87-9.27.32-.04.61-.04.92-.06-.93-.56-1.85-1.14-2.76-1.72-1.62-.63-3.21-1.34-4.75-2.13-.31 0-.6 0-.93.02-4.84.32-7.96 2.78-10.12 8-.84 2.02-1.61 4.14-2.36 6.18-.98 2.67-1.99 5.44-3.16 8.06-3.39 7.56-7.69 15.91-15.84 19.37-7.48 3.17-16.03 2.42-24.3 1.7-1.28-.11-2.61-.23-3.9-.33-3.71-.28-6.94-.41-9.87-.41-6.85.01-13.55 1.06-19.38 3.03-3.35 1.13-6.19 2.4-9.51 4.22-.68.37-1.36.65-2 .9-2.59 1.01-5.39.68-8.35.33-1.42-.17-2.89-.34-4.36-.36-.95-.02-1.82.01-2.64.09-.51.05-1.03.1-1.53.18-2.68.38-5.09 1.15-7.17 2.28-1.06.58-2.06 1.21-3.07 1.94-.87.63-1.7 1.26-2.58 1.93-.35.26-.7.53-1.05.8a65.544 65.544 0 0 1-4.76 3.28c-2.67 1.67-5.65 3.22-8.81 4.86-.59.3-1.18.61-1.77.92-.52.27-1.03.54-1.55.82-1.76.94-3.45 1.9-5.02 2.86-7.06 4.26-14.14 9.77-19.93 15.52-1.52 1.51-3.26 3.28-4.63 5.01-1.36 1.72-1.64 3.27-1.86 4.52-.09.5-.17.97-.31 1.38-.22.62-.19 1.21-.17 1.83.04.97.09 2.07-.77 3.51-.32.54-.84 1.17-1.45 1.91l-.18.22c-.83 1.01-1.78 2.06-2.61 2.98l-1.08 1.19c-3.5 3.89-7.12 7.92-11.84 11.32-6.62 4.8-13.64 7.08-20.88 6.75-3.64-.16-7.57-1.33-12.02-3.58-2.42-1.22-4.87-2.64-7.24-4.01-.62-.36-1.25-.72-1.87-1.08l-.6-.35c-.23-.14-.47-.27-.71-.41-4.59-2.62-8.6-4.44-12.6-5.73-2.17-.7-4.23-1.22-6.28-1.59-1.94-.36-4.01-.58-6.23-.67v-.27c2.23.09 4.31.31 6.27.67 2.06.37 4.13.9 6.31 1.6 4.03 1.3 8.04 3.12 12.64 5.75.24.14.47.27.71.41l.6.35c.62.36 1.25.72 1.88 1.08 2.37 1.37 4.82 2.78 7.23 4 4.42 2.23 8.33 3.39 11.93 3.55 7.18.32 14.16-1.94 20.73-6.71 4.7-3.39 8.31-7.4 11.8-11.29l1.08-1.19c.84-.92 1.78-1.97 2.61-2.97l.18-.22c.57-.7 1.12-1.36 1.43-1.88.82-1.37.78-2.38.73-3.36-.03-.65-.05-1.27.18-1.94.14-.39.21-.83.3-1.33.23-1.28.51-2.86 1.92-4.64 1.38-1.74 3.12-3.52 4.65-5.03 5.81-5.76 12.91-11.28 19.98-15.55 1.58-.96 3.28-1.92 5.04-2.86.52-.28 1.04-.55 1.55-.82.59-.31 1.18-.61 1.77-.92 3.15-1.64 6.13-3.18 8.79-4.85 1.67-1.05 3.23-2.12 4.75-3.27.36-.27.7-.54 1.05-.8.88-.67 1.71-1.3 2.58-1.94a28.04 28.04 0 0 1 3.09-1.95c2.11-1.15 4.55-1.93 7.25-2.31.51-.07 1.02-.13 1.54-.18.83-.07 1.7-.1 2.66-.09 1.48.02 2.95.19 4.38.36 2.94.34 5.71.67 8.24-.32.63-.25 1.31-.52 1.97-.89 3.33-1.83 6.18-3.09 9.55-4.23 5.85-1.98 12.58-3.03 19.45-3.04 2.94 0 6.17.13 9.88.41 1.29.1 2.62.21 3.9.33 8.24.72 16.76 1.46 24.19-1.68 8.07-3.42 12.34-11.72 15.71-19.23 1.17-2.61 2.18-5.38 3.16-8.05.75-2.05 1.52-4.17 2.36-6.19 2.2-5.31 5.39-7.83 10.33-8.15.16-.01.31 0 .46 0-1.64-.86-3.24-1.77-4.78-2.69l-1.59-.96c-.16-.06-.33-.13-.5-.2-.41-.03-.8-.04-1.13-.04-4.58-.01-7.53 2.11-9.56 6.88-.6 1.41-1.18 2.86-1.73 4.26-1.15 2.89-2.34 5.88-3.79 8.66-3.68 7.03-8.13 13.93-15.64 16.78-7.07 2.69-15.02 2.09-22.7 1.52-1.5-.11-3.06-.23-4.57-.31-3.57-.21-6.69-.26-9.52-.17-6.61.21-13.02 1.57-18.55 3.94-2.99 1.28-5.49 2.69-8.63 4.84-.58.4-1.18.73-1.77 1.06l-.04.02c-2.55 1.42-5.37 1.12-8.36.8-1.24-.13-2.51-.27-3.79-.28a20.133 20.133 0 0 0-4.01.34c-2.56.45-4.84 1.31-6.77 2.56-1 .64-1.9 1.33-2.76 2.11-1.04.94-2 1.9-3.02 2.91l-.09.09c-1.5 1.49-2.76 2.64-4.06 3.7-2.84 2.31-6.34 4.4-9.69 6.35l-1.47.86c-1.89 1.11-3.41 2.03-4.78 2.89-6.41 4.04-13.31 9.28-19.43 14.76-1.64 1.47-3.34 2.99-4.72 4.48-1.29 1.39-1.79 2.67-2.19 3.7-.2.5-.38.97-.62 1.38-.32.54-.42 1.06-.53 1.62-.16.81-.34 1.73-1.25 2.84-.35.42-.85.88-1.39 1.38l-.39.36c-1.08 1-2.33 2.01-3.31 2.78-3.74 2.95-7.88 6.13-12.84 9.45-6 4.01-12.53 7.77-19.65 8.16-3.71.2-7.79-.93-12.15-3.35-3.18-1.77-6.23-3.95-8.79-5.85-.26-.19-.52-.39-.79-.59l-.43-.33c-3.38-2.54-7.34-5.42-11.7-7.5-2.1-1-4.09-1.75-6.1-2.28-2.23-.61-4.62-.96-7.21-1.07v-.27c2.61.11 5.02.46 7.27 1.07 2.02.54 4.03 1.29 6.14 2.3 4.38 2.09 8.36 4.98 11.74 7.53l.43.33c.26.2.52.4.79.59 2.56 1.89 5.6 4.07 8.76 5.83 4.31 2.4 8.36 3.52 12.02 3.32 7.07-.38 13.57-4.13 19.54-8.12 4.96-3.31 9.09-6.5 12.83-9.44.97-.77 2.23-1.78 3.3-2.77l.39-.36c.53-.49 1.03-.95 1.36-1.35.87-1.05 1.04-1.9 1.2-2.72.11-.58.22-1.13.56-1.7.23-.39.4-.83.6-1.34.41-1.05.93-2.36 2.25-3.79 1.39-1.5 3.09-3.02 4.74-4.5 6.13-5.49 13.04-10.74 19.46-14.79 1.37-.86 2.89-1.78 4.79-2.9l1.47-.86c3.34-1.94 6.83-4.03 9.66-6.33 1.3-1.06 2.55-2.19 4.05-3.68l.1-.09c1.02-1.01 1.98-1.97 3.03-2.92.87-.79 1.79-1.49 2.8-2.14 1.96-1.26 4.27-2.14 6.86-2.59.48-.09.98-.16 1.49-.22.8-.09 1.64-.13 2.57-.12 1.29.01 2.57.15 3.81.29 2.95.32 5.74.62 8.22-.77l.04-.02c.58-.32 1.18-.66 1.75-1.05 3.15-2.16 5.66-3.57 8.67-4.86 5.56-2.38 12-3.75 18.64-3.96 2.84-.09 5.96-.03 9.54.17 1.51.09 3.07.2 4.57.32 7.66.57 15.58 1.16 22.6-1.51 7.44-2.83 11.85-9.68 15.51-16.66 1.45-2.77 2.63-5.75 3.78-8.63.56-1.41 1.14-2.86 1.74-4.27 2.08-4.88 5.1-7.05 9.79-7.03h.42c-1.97-.83-4.06-1.84-6.37-3.08-.49-.26-.97-.53-1.46-.8a.59.59 0 0 1-.14-.02c-4.38-.38-7.07 1.35-9.01 5.76-.35.79-.69 1.59-1.03 2.38-1.33 3.11-2.71 6.33-4.51 9.22-3.31 5.32-8.05 11.75-15.44 14.2-6.65 2.21-13.98 1.76-21.07 1.32-1.73-.11-3.52-.22-5.26-.28-3.44-.13-6.44-.12-9.17.06-6.31.4-12.61 2.12-17.73 4.85-3.03 1.61-5.29 3.35-7.74 5.46-.44.38-.91.73-1.36 1.07l-.24.18c-2.47 1.87-5.27 1.59-8.25 1.28-1.09-.11-2.21-.23-3.34-.23-.9 0-1.7.04-2.45.15-.49.07-.96.16-1.42.25-2.45.52-4.59 1.47-6.37 2.83-.92.7-1.72 1.45-2.46 2.29-.96 1.09-1.81 2.22-2.6 3.27-1 1.33-2.07 2.74-3.36 4.12-2.57 2.74-5.89 5.04-8.8 6.93-.46.3-.92.6-1.39.9l-.95.61c-1.18.76-2.4 1.54-3.59 2.33-5.5 3.62-11.69 8.2-18.92 14.01-.34.27-.67.54-1.01.8-1.36 1.09-2.65 2.11-3.81 3.16-1.17 1.05-1.83 2.02-2.41 2.87-.35.51-.67.99-1.06 1.4-.42.45-.67.9-.93 1.38-.37.68-.76 1.39-1.7 2.19-.39.33-.88.65-1.41 1-.17.11-.34.22-.51.34-.99.66-2.17 1.34-3.52 2.03-1.19.61-2.36 1.18-3.61 1.79-3.06 1.5-6.22 3.04-9.65 5.14-1.58.96-3.08 1.96-4.53 2.91-4.59 3.03-8.92 5.89-13.89 6.65-3.79.58-7.92-.47-12.28-3.12-2.67-1.63-5.52-3.86-8.46-6.62-.27-.25-.54-.51-.81-.77l-.83-.8c-3.37-3.26-6.55-6.35-10.3-8.78-1.98-1.29-3.91-2.26-5.88-2.96a.689.689 0 0 1-.08-.03c-2.5-.89-5.19-1.37-8.15-1.45v-.27c2.99.08 5.71.56 8.23 1.46.03.01.06.02.08.03 1.99.71 3.93 1.69 5.93 2.98 3.77 2.45 6.96 5.54 10.33 8.81l.83.8.8.77c2.93 2.75 5.76 4.96 8.42 6.59 4.31 2.62 8.38 3.66 12.12 3.09 4.92-.75 9.24-3.6 13.8-6.61 1.45-.96 2.96-1.95 4.54-2.92 3.44-2.1 6.61-3.66 9.67-5.15 1.24-.61 2.42-1.18 3.6-1.79 1.34-.69 2.52-1.36 3.49-2.02.17-.11.34-.23.51-.34.52-.34 1.01-.66 1.38-.98.9-.77 1.28-1.45 1.64-2.12.27-.49.52-.96.97-1.43.37-.4.68-.85 1.03-1.37.59-.86 1.25-1.84 2.44-2.92 1.17-1.05 2.46-2.08 3.82-3.17.33-.27.67-.53 1.01-.8 7.24-5.81 13.43-10.39 18.94-14.02 1.19-.79 2.42-1.57 3.6-2.33l.95-.61c.46-.3.93-.6 1.38-.9 2.9-1.88 6.2-4.17 8.76-6.89 1.28-1.36 2.35-2.77 3.34-4.1.79-1.06 1.65-2.19 2.62-3.29.75-.85 1.57-1.61 2.5-2.32 1.81-1.38 3.98-2.34 6.47-2.87.46-.1.94-.19 1.43-.26.76-.11 1.57-.16 2.48-.15 1.14 0 2.27.12 3.36.23 2.93.3 5.69.58 8.08-1.24l.24-.18c.45-.34.91-.68 1.35-1.06 2.47-2.12 4.74-3.86 7.79-5.49 5.15-2.74 11.48-4.48 17.82-4.88 2.74-.17 5.75-.19 9.2-.06 1.74.07 3.54.18 5.27.28 7.07.43 14.37.88 20.98-1.31 7.32-2.43 12.03-8.8 15.31-14.09 1.78-2.87 3.16-6.08 4.49-9.18.34-.79.68-1.59 1.03-2.38 1.9-4.32 4.64-6.17 8.83-5.93-.18-.1-.36-.21-.55-.31-2.72-.91-5.51-2.09-8.41-3.55l-.39-.21c-2.85.06-4.78 1.59-6.26 4.85l-.24.54c-1.59 3.5-3.09 6.8-5.3 9.74-4.72 6.27-9.7 10.07-15.24 11.61-6.21 1.73-12.9 1.41-19.38 1.1-1.98-.09-4.03-.19-6.02-.23-3.32-.06-6.2.03-8.82.29-6.14.6-12.14 2.65-16.9 5.76-2.88 1.88-4.89 3.95-6.86 6.08-.35.38-.71.74-1.06 1.09l-.34.34c-2.34 2.35-5.11 2.08-8.04 1.79-.97-.1-1.98-.2-2.99-.2-.87 0-1.64.05-2.35.18-.46.08-.92.18-1.36.29-2.35.6-4.36 1.64-5.97 3.1-.82.74-1.55 1.57-2.16 2.46-.8 1.16-1.48 2.39-2.09 3.54l-.09.18c-.77 1.45-1.57 2.94-2.57 4.36-1.75 2.49-4.19 4.81-7.92 7.51-.43.31-.87.62-1.3.93-.94.67-1.92 1.34-2.86 1.98-.48.33-.96.66-1.43.99-3.64 2.52-7.36 5.23-10.95 7.86-2.58 1.89-5.02 3.67-7.45 5.4-.71.5-1.42.99-2.12 1.48-.98.68-1.91 1.31-2.8 1.96-.97.71-1.7 1.38-2.35 1.98-.62.56-1.15 1.05-1.76 1.47-.5.35-.89.7-1.3 1.06-.59.53-1.2 1.07-2.17 1.62-.46.26-.99.48-1.55.72-.17.07-.33.14-.5.21-1.11.48-2.4.92-3.72 1.28-1.05.28-2.12.54-3.17.79-3.4.81-6.91 1.65-10.51 3.63-2.6 1.43-4.86 3.23-7.05 4.96-3.27 2.59-6.35 5.04-10.15 6-3.85.98-8.03 0-12.4-2.89-2.77-1.84-5.58-4.39-8.14-7.38-.31-.37-.62-.74-.92-1.11l-.11-.13c-.53-.65-1.06-1.31-1.59-1.96-2.69-3.34-5.23-6.49-8.32-9.09-1.89-1.59-3.76-2.79-5.73-3.66-2.78-1.24-5.81-1.85-9.19-1.86V133c3.42 0 6.48.62 9.28 1.88 1.99.89 3.88 2.1 5.79 3.7 3.11 2.62 5.77 5.92 8.35 9.12.53.65 1.05 1.31 1.59 1.96l.11.13c.31.37.61.74.92 1.11 2.54 2.98 5.34 5.51 8.09 7.34 4.32 2.86 8.43 3.82 12.22 2.85 3.75-.95 6.82-3.38 10.06-5.96 2.2-1.74 4.47-3.54 7.08-4.99 3.62-2 7.15-2.84 10.56-3.66 1.04-.25 2.12-.51 3.16-.79 1.31-.36 2.59-.8 3.69-1.27.17-.07.34-.14.5-.21.56-.23 1.08-.45 1.53-.71.95-.53 1.55-1.07 2.13-1.59.4-.36.81-.72 1.32-1.08.6-.42 1.12-.9 1.73-1.45.65-.6 1.4-1.28 2.38-1.99.89-.65 1.82-1.29 2.8-1.97.7-.48 1.41-.97 2.12-1.48 2.43-1.72 4.87-3.51 7.45-5.39 3.6-2.63 7.31-5.34 10.96-7.86.48-.33.96-.66 1.43-.99.94-.65 1.92-1.32 2.86-1.98.44-.31.87-.62 1.3-.93 3.7-2.68 6.12-4.98 7.86-7.45.99-1.41 1.78-2.89 2.55-4.33l.09-.17c.62-1.16 1.3-2.39 2.11-3.57.63-.91 1.37-1.76 2.2-2.51 1.65-1.49 3.69-2.55 6.07-3.15.45-.11.91-.21 1.38-.3.73-.13 1.51-.19 2.39-.18 1.02 0 2.03.1 3.01.2 2.88.28 5.59.55 7.85-1.72l.34-.34c.35-.35.71-.71 1.06-1.09 1.98-2.14 4-4.22 6.91-6.12 4.79-3.13 10.83-5.19 17-5.8 2.63-.26 5.52-.35 8.85-.29 2 .04 4.05.14 6.03.23 6.45.31 13.13.63 19.3-1.09 5.49-1.53 10.43-5.3 15.11-11.52 2.2-2.92 3.69-6.21 5.27-9.69l.24-.54c1.43-3.15 3.35-4.74 6.05-4.96-2.43-1.28-4.83-2.73-7.17-4.19-2.52-.18-4.28 1.09-5.66 3.99-1.45 3.08-3.08 6.32-5.56 8.96-4.48 4.78-9.54 7.82-15.03 9.02-5.71 1.25-11.73 1.05-17.55.85-2.27-.08-4.63-.16-6.92-.15-3.19.01-5.96.18-8.48.52-5.98.81-11.69 3.18-16.07 6.67-2.45 1.95-4.09 4.1-5.98 6.7-.34.47-.69.93-1.05 1.4l-.16.21c-2.16 2.84-4.88 2.58-7.76 2.3-.88-.09-1.79-.17-2.71-.17-.83 0-1.57.07-2.26.21-.44.09-.88.2-1.3.33-2.25.67-4.12 1.81-5.57 3.37-.73.79-1.36 1.68-1.86 2.64-.65 1.25-1.15 2.57-1.58 3.81l-.2.56c-.51 1.46-1.03 2.97-1.76 4.39-1.41 2.76-3.64 5.33-7.03 8.09-.4.33-.81.65-1.22.97-1.27.98-2.58 1.94-3.86 2.87l-.19.14c-.86.62-1.72 1.25-2.58 1.88-5.01 3.66-10.19 7.44-15.31 10.61-1.53.95-3.08 1.82-4.57 2.67l-.44.25c-.53.3-1.02.59-1.49.87-1.16.68-2.16 1.27-3.27 1.76-.39.17-.76.34-1.12.51-1.01.47-1.97.91-3.19 1.29-.62.19-1.27.33-1.97.48l-.23.05c-1.25.27-2.57.45-3.92.53-1.11.07-2.25.08-3.35.1-3.55.05-7.22.1-10.74 1.82-2.95 1.45-5.31 3.81-7.58 6.09-2.62 2.63-5.1 5.11-8.39 6.28-3.85 1.37-8.18.46-12.52-2.65-2.8-2.01-5.57-4.9-7.81-8.15-.32-.46-.63-.93-.94-1.41-.67-1.02-1.34-2.08-1.98-3.1-2.14-3.39-4.34-6.89-7.02-9.71-1.77-1.87-3.58-3.3-5.55-4.35-3.03-1.63-6.38-2.36-10.18-2.23v-.27c3.84-.13 7.22.61 10.29 2.26 1.99 1.07 3.83 2.51 5.61 4.4 2.7 2.84 4.91 6.36 7.05 9.75.64 1.02 1.31 2.08 1.98 3.1.31.47.62.94.94 1.4 2.22 3.23 4.97 6.1 7.75 8.09 4.27 3.06 8.53 3.97 12.31 2.62 3.23-1.15 5.69-3.61 8.3-6.22 2.29-2.3 4.66-4.67 7.65-6.14 3.57-1.74 7.27-1.79 10.84-1.84 1.1-.01 2.24-.03 3.34-.1 1.34-.08 2.65-.26 3.89-.53l.23-.05c.69-.15 1.34-.29 1.95-.48 1.21-.38 2.16-.81 3.17-1.28.36-.17.73-.34 1.13-.51 1.09-.48 2.09-1.06 3.24-1.74.47-.28.96-.57 1.5-.87l.44-.25c1.49-.85 3.04-1.72 4.57-2.67 5.11-3.17 10.29-6.95 15.3-10.6.87-.63 1.73-1.26 2.58-1.88l.19-.14c1.27-.93 2.59-1.88 3.85-2.86.41-.32.82-.64 1.22-.97 3.36-2.74 5.57-5.28 6.96-8.01.72-1.41 1.24-2.91 1.75-4.36l.2-.56c.44-1.25.94-2.58 1.6-3.85.51-.98 1.15-1.89 1.9-2.7 1.48-1.6 3.39-2.75 5.68-3.44.43-.13.88-.24 1.32-.34.7-.15 1.46-.22 2.3-.22.93 0 1.84.09 2.73.18 2.81.27 5.47.53 7.55-2.21l.16-.21c.35-.47.71-.93 1.05-1.4 1.9-2.62 3.55-4.78 6.02-6.75 4.41-3.52 10.16-5.9 16.19-6.72 2.53-.34 5.31-.52 8.51-.53 2.3 0 4.65.07 6.93.15 5.8.2 11.81.4 17.49-.84 5.44-1.2 10.46-4.21 14.91-8.95 2.45-2.62 4.07-5.83 5.51-8.89 1.33-2.8 3.05-4.14 5.43-4.14-.45-.28-.9-.56-1.34-.84-.78-.49-1.55-.98-2.32-1.46-2.28-1.42-3.99-1.89-5.36-1.46-1.12.35-2.06 1.31-2.86 2.93-1.35 2.72-2.97 5.55-5.67 7.77-4.08 3.34-9.41 5.65-14.99 6.51-5.12.78-10.37.68-15.44.57-5.35-.11-10.88-.22-16.21.72-5.78 1.02-11.13 3.67-15.06 7.48-2.17 2.1-3.5 4.49-4.91 7.02-.37.66-.74 1.33-1.13 2.01-2.07 3.56-4.97 3.28-7.77 3.01-1.48-.14-3.02-.29-4.52.08-2.63.65-6.11 2.32-7.72 6.59-.58 1.53-.9 3.21-1.21 4.83-.29 1.53-.59 3.11-1.11 4.61-2.04 5.87-7.13 9.78-11.23 12.91-12.89 9.89-25.64 18.62-39.8 16.83-1.23-.16-2.5-.4-3.72-.63-3.59-.68-7.31-1.39-10.61.02-2.98 1.27-5.07 3.94-7.29 6.78-2.14 2.74-4.36 5.57-7.45 6.99-7.77 3.57-16.11-3.46-20.59-11.5-1.01-1.81-1.96-3.73-2.88-5.59-2.95-5.97-6.01-12.14-11.32-15.47-3.21-2.01-6.82-2.82-10.98-2.49v-1.07c4.34-.33 8.11.53 11.47 2.64 5.55 3.48 8.67 9.79 11.69 15.88.91 1.85 1.86 3.76 2.85 5.55 4.26 7.66 12.14 14.39 19.36 11.07 2.87-1.32 5.01-4.05 7.08-6.7 2.2-2.81 4.47-5.71 7.68-7.08 3.57-1.52 7.42-.78 11.14-.08 1.21.23 2.45.47 3.66.62 13.81 1.74 26.38-6.88 39.11-16.64 3.98-3.05 8.94-6.85 10.87-12.42.49-1.42.79-2.96 1.07-4.45.32-1.67.65-3.39 1.26-5.02 1.41-3.71 4.31-6.2 8.41-7.22 1.65-.41 3.27-.25 4.83-.1 2.74.26 5.1.49 6.85-2.52.39-.67.76-1.34 1.12-1.99 1.45-2.6 2.81-5.05 5.1-7.26 4.07-3.94 9.59-6.68 15.55-7.73 5.42-.95 10.99-.84 16.39-.73 5.04.1 10.25.21 15.29-.56 5.43-.83 10.59-3.07 14.54-6.31 2.56-2.09 4.11-4.8 5.4-7.42.94-1.89 2.07-3.02 3.46-3.45 1.65-.51 3.59-.01 6.12 1.56.78.48 1.55.97 2.33 1.46 1.18.75 2.39 1.5 3.6 2.24.54.17 1.13.37 1.73.66 2.24 1.07 4.5 2.37 6.73 3.69.34.08.69.18 1.04.3.02 0 .05.02.07.03 1.79.66 3.58 1.52 5.36 2.47 4.67 1.51 9.09 2.19 13.37 2.06 8.48-.26 17.25-5.3 22.33-12.83 3.75-5.56 4.97-11.84 3.42-17.68-.98-3.71-2.99-7.08-4.93-10.34-2.11-3.54-4.29-7.21-5.22-11.38-.35-1.55-.23-3.5.27-5.48h1.02c-.51 1.89-.66 3.76-.33 5.23.89 4 3.03 7.58 5.09 11.05 1.98 3.32 4.02 6.76 5.04 10.62 1.63 6.16.36 12.77-3.57 18.6-5.25 7.79-14.32 12.99-23.09 13.26-2.77.09-5.59-.17-8.49-.75 2.48.96 4.95 2.26 7.39 3.72 1.24.38 2.49.87 3.73 1.43 2.8.53 5.7.64 8.44.28 1.12-.14 2.21-.39 3.24-.72.92-.29 1.83-.68 2.7-1.16 1.31-.72 2.42-1.54 3.7-2.49.38-.28.78-.57 1.19-.87.96-.7 1.95-1.37 3-2.08 2.12-1.44 4.3-2.92 6.2-4.6 1.29-1.13 2.45-2.49 3.46-4.03.54-.81 1.03-1.76 1.51-2.68.44-.85.85-1.64 1.29-2.33.16-.26.33-.5.48-.74.27-.4.52-.78.75-1.17.72-1.22 1.24-2.3 1.65-3.39.83-2.19 1.21-4.36 1.17-6.64-.63-3.52-2.14-6.66-3.74-9.98-1.18-2.45-2.4-4.99-3.22-7.69-.4-1.32-.66-2.42-.81-3.47-.38-2.64.6-6.43 2.36-9.41h.3c-1.78 2.95-2.79 6.74-2.42 9.37.15 1.04.4 2.13.8 3.43.82 2.68 2.03 5.21 3.21 7.65 1.54 3.19 3.13 6.5 3.77 10.08.05 2.34-.34 4.54-1.18 6.77-.42 1.11-.95 2.19-1.67 3.43-.23.4-.49.78-.76 1.18-.16.24-.32.48-.48.73-.43.68-.85 1.47-1.28 2.31-.48.93-.98 1.88-1.52 2.71-1.02 1.56-2.2 2.93-3.5 4.08-1.91 1.69-4.11 3.18-6.23 4.62-1.05.71-2.03 1.38-2.99 2.08-.41.3-.81.59-1.19.87-1.23.91-2.4 1.78-3.73 2.51-.88.48-1.8.88-2.74 1.17-1.04.33-2.15.58-3.28.72-2.46.32-5.04.26-7.57-.13 1.48.72 2.95 1.53 4.38 2.39 2.45.75 4.88 1.87 7.24 3.2 2.35.22 4.76.1 7-.38 1.23-.26 2.38-.64 3.43-1.14.98-.46 1.87-1.03 2.64-1.71.82-.71 1.47-1.47 2.16-2.28.64-.75 1.31-1.52 2.16-2.33 1.71-1.61 3.87-3.01 5.96-4.36 1.41-.91 2.86-1.85 4.17-2.85 1.47-1.12 2.73-2.52 3.86-4.3.42-.65.81-1.46 1.2-2.24.59-1.19 1.2-2.42 1.91-3.22.35-.39.7-.71 1.05-1.02.22-.2.43-.39.63-.59.94-.95 1.75-1.76 2.49-2.75 1.43-1.89 2.37-3.84 2.89-5.95-.28-3.33-1.38-6.36-2.55-9.58-.89-2.44-1.81-4.97-2.37-7.69-.21-1.04-.42-2.16-.49-3.35-.24-4.25 2.83-11.54 7.07-13.43h.78c-4.49 1.3-7.84 9.01-7.6 13.41.06 1.18.27 2.29.48 3.31.56 2.7 1.47 5.22 2.36 7.65 1.18 3.24 2.29 6.31 2.57 9.68v.05c-.53 2.16-1.49 4.15-2.95 6.08-.75 1-1.57 1.82-2.51 2.77-.21.21-.42.4-.65.61-.34.31-.69.62-1.03 1-.69.76-1.29 1.98-1.87 3.16-.39.79-.79 1.6-1.21 2.26-1.15 1.8-2.43 3.23-3.92 4.37-1.31 1-2.77 1.95-4.19 2.86-2.08 1.35-4.24 2.74-5.93 4.34-.85.8-1.51 1.57-2.15 2.31-.7.81-1.36 1.58-2.19 2.3-.8.69-1.7 1.28-2.7 1.75-1.06.5-2.24.89-3.48 1.15-2.08.45-4.31.58-6.5.43.38.22.77.45 1.14.68 2.6.8 5.14 2 7.51 3.35 1.35.34 2.74.8 4.18 1.39 1.6-.08 3.19-.33 4.71-.77 1.33-.38 2.55-.91 3.62-1.56 1.02-.63 1.9-1.39 2.6-2.27.65-.81 1.11-1.65 1.59-2.54.59-1.07 1.19-2.17 2.17-3.32 1.92-2.25 4.77-3.93 7.52-5.56 1.19-.7 2.43-1.43 3.55-2.19 1.65-1.11 3.05-2.61 4.27-4.58.38-.61.73-1.37 1.11-2.17.68-1.45 1.39-2.96 2.32-3.72.5-.41 1-.69 1.49-.96.22-.12.43-.24.63-.36.35-.22.7-.42 1.03-.62.81-.47 1.57-.92 2.3-1.48 2.09-1.6 3.56-3.28 4.61-5.29.07-3.14-.65-6.1-1.41-9.23-.59-2.41-1.19-4.9-1.47-7.63-.1-1.02-.2-2.1-.16-3.23.16-4.46 3.63-12.06 8.12-13.41.8-.24 1.45-.3 2.02-.35 1.21-.11 2.01-.18 3.18-1.95.35-.53.59-1.12.75-1.74h.26c-.17.67-.42 1.31-.81 1.89-1.23 1.87-2.12 1.95-3.36 2.06-.56.05-1.19.11-1.97.34-4 1.21-7.77 8.36-7.94 13.16-.04 1.11.06 2.19.16 3.19.28 2.71.88 5.19 1.47 7.59.77 3.16 1.49 6.15 1.41 9.34v.03l-.02.03c-1.07 2.06-2.57 3.77-4.7 5.4-.75.57-1.51 1.02-2.32 1.5-.33.2-.68.4-1.03.62-.2.13-.42.24-.64.37-.48.26-.98.54-1.46.93-.88.72-1.58 2.2-2.25 3.63-.38.81-.74 1.57-1.13 2.2-1.24 2-2.66 3.53-4.34 4.65-1.13.76-2.36 1.49-3.56 2.2-2.73 1.62-5.56 3.29-7.45 5.51-.96 1.13-1.56 2.22-2.14 3.27-.49.9-.96 1.74-1.62 2.57-.72.9-1.61 1.68-2.66 2.32-1.09.66-2.33 1.19-3.68 1.58-1.36.39-2.78.63-4.21.74 2.2.95 4.5 2.21 6.91 3.78 1.18.44 2.38.97 3.61 1.58 1.62-.16 3.22-.49 4.71-1.01 1.44-.5 2.72-1.17 3.81-1.98 1.07-.79 1.93-1.74 2.55-2.82.54-.95.88-1.91 1.23-2.92.47-1.35.95-2.74 1.98-4.18 2.01-2.82 5.43-4.68 8.74-6.47a91.4 91.4 0 0 0 3.25-1.82c1.84-1.11 3.37-2.7 4.68-4.85.36-.6.71-1.37 1.07-2.18.76-1.69 1.54-3.44 2.67-4.13.64-.4 1.32-.61 1.92-.8.23-.07.44-.14.65-.22.58-.21 1.14-.39 1.68-.56.86-.27 1.68-.53 2.5-.9 2.75-1.25 4.77-2.73 6.34-4.63.43-2.98.09-5.88-.28-8.96-.28-2.35-.57-4.78-.56-7.49 0-1.03.02-2.04.16-3.11.63-4.86 4.23-11.46 8.1-13.02.68-.28 1.25-.41 1.75-.54 1.2-.3 2-.49 3.1-2.38.9-1.55 1.04-3.5.67-5.52h.25c.37 2.07.23 4.07-.71 5.67-1.16 1.98-1.99 2.19-3.25 2.5-.49.12-1.05.26-1.71.53-3.73 1.5-7.33 8.12-7.94 12.81-.14 1.05-.15 2.05-.16 3.08-.01 2.69.28 5.11.56 7.45.37 3.11.72 6.04.27 9.07v.04l-.03.03c-1.6 1.95-3.65 3.46-6.45 4.73-.83.38-1.65.64-2.52.91-.54.17-1.09.35-1.67.56-.21.08-.43.15-.66.22-.62.19-1.25.4-1.87.78-1.06.66-1.83 2.37-2.57 4.02-.37.82-.72 1.6-1.09 2.21-1.33 2.19-2.89 3.81-4.77 4.94-1.04.63-2.17 1.24-3.25 1.83-3.29 1.78-6.69 3.62-8.66 6.39-1 1.42-1.48 2.79-1.94 4.11-.36 1.02-.69 1.99-1.25 2.96-.64 1.11-1.52 2.08-2.62 2.9-1.11.82-2.42 1.5-3.87 2.01-1.38.48-2.85.81-4.34.99.98.5 1.97 1.06 2.97 1.67 2.56.79 5.23 2.01 8 3.64 1.5-.24 2.98-.63 4.37-1.2 1.54-.63 2.89-1.44 4-2.4 1.12-.97 1.96-2.1 2.51-3.38.47-1.1.69-2.19.93-3.35.33-1.61.67-3.27 1.71-5 2.04-3.37 6.01-5.34 9.85-7.25 1.03-.51 2.09-1.04 3.07-1.57 2.07-1.13 3.69-2.76 5.09-5.13.36-.6.7-1.4 1.06-2.24.78-1.82 1.67-3.88 2.99-4.5.77-.37 1.6-.49 2.33-.6.24-.04.47-.07.69-.11.75-.14 1.47-.23 2.16-.32.98-.13 1.91-.25 2.85-.49 3.41-.88 5.98-2.15 8.08-3.98.81-2.85.83-5.74.86-8.79.02-2.26.04-4.6.34-7.25.11-.93.24-1.93.48-2.99 1.07-4.63 4.57-10.81 8.07-12.63.55-.29 1.02-.48 1.44-.66 1.26-.52 2.01-.84 3.05-2.88 1.37-2.7.7-6.24-.66-9.31h.27c1.35 3.11 2.01 6.69.61 9.44-1.08 2.13-1.92 2.47-3.18 3-.41.17-.88.37-1.42.65-3.44 1.79-6.88 7.89-7.94 12.46-.24 1.04-.37 2.03-.48 2.96-.3 2.63-.32 4.96-.34 7.21-.03 3.09-.05 6.01-.88 8.91v.04l-.04.03c-2.13 1.87-4.74 3.16-8.2 4.06-.96.25-1.89.37-2.88.5-.69.09-1.41.18-2.15.32-.22.04-.45.08-.7.11-.71.11-1.52.23-2.26.58-1.23.58-2.1 2.6-2.86 4.37-.37.85-.71 1.66-1.08 2.27-1.43 2.41-3.07 4.07-5.19 5.22-.99.54-2.05 1.07-3.08 1.58-3.81 1.89-7.74 3.85-9.74 7.15-1.02 1.69-1.36 3.33-1.68 4.91-.23 1.12-.47 2.27-.94 3.4-.56 1.31-1.43 2.48-2.58 3.47-1.13.98-2.5 1.8-4.07 2.44-1.31.53-2.7.91-4.11 1.16.12.07.25.15.37.22 2.8.87 5.71 2.23 8.74 4.07.79.25 1.6.54 2.41.86 1.24-.29 2.46-.69 3.6-1.21 1.65-.76 3.06-1.71 4.2-2.82 1.17-1.15 2-2.47 2.46-3.93.4-1.26.52-2.5.65-3.81.18-1.86.38-3.79 1.42-5.78 2.05-3.91 6.54-5.97 10.89-7.96 1.03-.47 2-.92 2.95-1.39 2.26-1.13 4.01-2.84 5.5-5.41.35-.6.69-1.43 1.06-2.3.84-2.03 1.8-4.33 3.31-4.87.91-.33 1.88-.36 2.73-.38.25 0 .49-.01.72-.03a37 37 0 0 1 2.56-.04c1.13 0 2.19.01 3.29-.12 4.06-.5 7.18-1.56 9.82-3.33 1.21-2.74 1.59-5.51 2.04-8.72.3-2.15.61-4.38 1.2-6.91.26-1.1.51-2.01.8-2.87 1.51-4.44 4.76-10.07 8.05-12.25.41-.27.77-.49 1.1-.68 1.34-.8 2.08-1.25 3.05-3.48 1.62-3.72-.15-8.8-2.35-12.31-.17-.27-.35-.53-.53-.79h.3c.14.21.29.42.43.64 2.24 3.57 4.03 8.75 2.37 12.57-1.01 2.31-1.81 2.79-3.15 3.6-.32.19-.68.41-1.09.68-3.21 2.12-6.49 7.82-7.94 12.11-.29.85-.54 1.75-.79 2.84-.59 2.52-.9 4.74-1.19 6.89-.45 3.24-.84 6.05-2.08 8.83l-.02.03-.03.02c-2.68 1.8-5.84 2.88-9.95 3.39-1.11.14-2.18.13-3.32.12-.82 0-1.67-.01-2.55.04l-.73.03c-.84.02-1.78.05-2.66.37-1.4.51-2.34 2.75-3.16 4.73-.37.88-.71 1.71-1.07 2.33-1.52 2.61-3.3 4.36-5.61 5.51-.95.47-1.97.94-2.96 1.39-4.31 1.98-8.76 4.02-10.77 7.85-1.02 1.95-1.21 3.84-1.39 5.68-.13 1.27-.26 2.58-.67 3.87-.48 1.51-1.33 2.87-2.53 4.04-1.15 1.13-2.59 2.1-4.26 2.87-1.04.47-2.13.85-3.26 1.14 1.94.8 3.92 1.82 5.95 3.05 1.55.49 3.12 1.12 4.72 1.89 3.04-.85 5.78-2.39 7.7-4.49 1.15-1.26 1.93-2.72 2.31-4.32.32-1.38.35-2.74.38-4.19.04-2.16.08-4.39 1.16-6.73 2.1-4.58 7.18-6.74 12.1-8.83.97-.41 1.93-.82 2.85-1.25 2.38-1.09 4.21-2.85 5.74-5.53.34-.59.67-1.42 1.03-2.31.93-2.31 1.99-4.94 3.86-5.45 1.1-.3 2.24-.22 3.25-.16.26.02.51.03.75.04 1.02.04 1.99.14 2.94.25 1.28.14 2.49.27 3.73.24 4.6-.11 8.2-.94 11.32-2.6 1.57-2.55 2.33-5.32 3.19-8.51.53-1.94 1.13-4.15 1.99-6.56 1.5-4.2 5.37-11.56 9.26-14.77.26-.22.5-.41.73-.59 1.39-1.11 2.09-1.67 2.95-4.02 1.56-4.3-.91-10.35-3.87-14.14-.69-.89-1.45-1.75-2.24-2.6h1.38c.56.62 1.1 1.26 1.61 1.91 2.42 3.11 5.99 9.81 4.03 15.22-.96 2.63-1.83 3.33-3.28 4.49-.22.18-.46.37-.72.58-3.35 2.77-7.25 9.58-8.94 14.31-.85 2.37-1.41 4.45-1.96 6.47-.9 3.33-1.69 6.2-3.4 8.92l-.07.11-.11.06c-3.28 1.77-7.05 2.65-11.85 2.77-1.3.03-2.54-.1-3.85-.24-.93-.1-1.89-.2-2.88-.24-.25 0-.51-.03-.78-.04-.98-.06-1.99-.13-2.95.13-1.4.39-2.4 2.86-3.2 4.85-.37.92-.72 1.79-1.1 2.45-1.65 2.88-3.62 4.77-6.2 5.95-.93.43-1.9.84-2.88 1.26-4.74 2.02-9.64 4.1-11.58 8.31-.98 2.13-1.02 4.14-1.06 6.27-.03 1.44-.06 2.93-.41 4.43-.42 1.79-1.28 3.4-2.56 4.8-1.8 1.97-4.27 3.47-7.03 4.42.94.49 1.88 1.02 2.83 1.59 2.44.8 4.81 1.88 7.07 3.13l.46.12c3.47-1.23 6.45-3.35 8.21-6.1.98-1.54 1.59-3.22 1.81-5.01.16-1.28.13-2.57.11-3.83-.03-1.37-.05-2.79.15-4.22.19-1.33.56-2.51 1.13-3.62 2.24-4.36 7.45-6.5 12.04-8.39 1.58-.65 2.93-1.28 4.13-1.95 1.05-.58 2.01-1.33 2.93-2.28.95-.98 1.89-2.36 2.96-4.33.18-.34.37-.72.57-1.12.38-.77.77-1.56 1.23-2.26 1.03-1.59 2.04-2.58 3.07-3.04.28-.12.54-.2.8-.23 1.11-.14 2.28.04 3.31.2.28.04.55.09.82.12.85.11 1.68.25 2.49.39.45.08.89.15 1.33.22 1.04.16 2.17.32 3.33.37 5.03.21 9.03-.41 12.59-1.97 2.15-2.53 3.37-5.44 4.78-8.82.68-1.63 1.39-3.32 2.28-5.19 2.33-4.89 6.41-11.58 9.69-14.91l.3-.3ZM243.9 52.67c-2-1.18-4.03-2.32-6.03-3.28-.16-.08-.32-.14-.48-.2 1.63.98 3.28 1.92 4.95 2.76.5.25.98.47 1.47.7.03 0 .06.01.09.02Zm5.43 2.32c-1.2-.59-2.4-1.13-3.6-1.57-.02 0-.05-.02-.07-.03-.02 0-.04-.01-.07-.02.22.13.44.26.66.4 1.04.45 2.06.85 3.08 1.22Zm94.35 44.38c.89.57 1.79 1.17 2.7 1.81.81.12 1.61.27 2.41.46-1.65-.87-3.36-1.64-5.11-2.28Zm-2.67 3.68c1.23.15 2.46.18 3.69.1-.03-.03-.06-.05-.09-.08-.45-.39-.87-.74-1.28-1.1-1.14-.03-2.28.01-3.41.15.36.31.73.62 1.09.92Zm-1.45-.88c-.52.07-1.03.17-1.55.28.61.16 1.23.31 1.85.43.22.04.44.07.66.1l-.96-.81Zm5.2.7c.1.09.2.18.31.27.98-.08 1.96-.23 2.91-.44l-.25-.19c-1.32-.27-2.65-.44-3.99-.5.34.29.66.56 1.02.87Zm.59.51c.58.51 1.17 1.02 1.75 1.53l.88.77c1.18 1.04 2.35 2.05 3.51 3.02h.05c1.24.16 2.49.18 3.73.1-.28-.25-.56-.5-.85-.75a196.92 196.92 0 0 0-3.52-3.04c-.89-.75-1.78-1.45-2.66-2.12-.95.23-1.92.39-2.9.49Zm-2.72-4.36a31.87 31.87 0 0 0-3.78-.99c.85.64 1.71 1.3 2.57 2.01.33.27.69.57 1.04.86 1.12 0 2.25.06 3.36.2-1.07-.75-2.14-1.45-3.19-2.09Zm-4.29-1.37.02.02c1.09.19 2.18.44 3.25.76-.69-.4-1.37-.78-2.05-1.13-.4.13-.81.25-1.22.35Zm-.08.27c-.23-.04-.45-.06-.68-.09-.75.16-1.51.29-2.27.37.73.62 1.47 1.25 2.2 1.88l.49.42.84.72c1.07-.18 2.15-.28 3.22-.3-.26-.22-.53-.45-.79-.65-1.01-.83-2.02-1.61-3.01-2.34Zm-3.48-2.7c.8.51 1.6 1.04 2.41 1.61.33-.07.65-.14.97-.22-1.14-.54-2.27-1-3.38-1.39Zm-1.07-.36c-1.23-.39-2.45-.69-3.64-.9.57.43 1.14.86 1.71 1.32.75.6 1.54 1.25 2.38 1.95.9-.05 1.8-.16 2.68-.32-1.05-.74-2.1-1.42-3.13-2.04Zm-27.05-9.42c.29-.04.57-.08.86-.1-.79-.63-1.58-1.25-2.38-1.87-.84-.65-1.66-1.25-2.47-1.84-.4-.04-.79-.07-1.18-.09-.37-.02-.74-.02-1.11-.01 1.5 1.14 3.01 2.27 4.56 3.34.57.2 1.14.39 1.72.56Zm-.93-.01.19.13c.04 0 .09-.02.13-.02-.11-.03-.21-.07-.32-.1Zm-21.14-11.49h-.15c1.98 1.28 3.93 2.44 5.91 3.44.3-.04.6-.06.9-.08l-1.72-1.24-.43-.31-1.3-.94c-.23-.05-.47-.08-.7-.14-.85-.2-1.69-.45-2.51-.72Zm2.57.46.13.03s-.02-.01-.03-.02c-.1-.07-.2-.15-.31-.22-.39-.07-.77-.12-1.16-.16.45.13.9.27 1.36.37Zm3.63 3.2c.8.39 1.61.76 2.42 1.09-.54-.38-1.08-.76-1.61-1.14-.27.01-.54.03-.81.06Zm3.4 1.45c1.06.39 2.12.74 3.22 1.01.27.06.54.11.81.16-.64-.48-1.27-.97-1.91-1.45l-1.45-1.07c-.54-.07-1.09-.13-1.62-.16-.41-.02-.81-.03-1.21-.02.72.51 1.44 1.02 2.17 1.52Zm.91.62c.94.63 1.9 1.24 2.86 1.82.55-.09 1.11-.15 1.68-.19l-.62-.47-.32-.24c-.46-.08-.91-.17-1.35-.27-.76-.19-1.51-.4-2.25-.65Zm3.21 2.03c1.83 1.08 3.71 2.04 5.67 2.82-1.35-.97-2.69-1.97-4-2.97-.56.02-1.11.07-1.66.15Zm9.02 3.93.33.09c.15.04.3.06.45.09l-.28-.22c-.17.01-.33.02-.5.04Zm-1.1.14c2.18 1.46 4.42 2.79 6.76 3.85-1.5-1.12-2.97-2.29-4.42-3.44-.32-.06-.65-.12-.97-.2a15.4 15.4 0 0 1-.97-.27l-.4.06Zm17.59 6.4c-1.13.07-2.26.04-3.37-.08.62.5 1.25 1 1.88 1.5.94-.16 1.9-.26 2.87-.29-.08-.06-.15-.13-.23-.19-.4-.33-.77-.63-1.15-.94Zm1.3.72c.16.13.32.27.48.4.21 0 .43-.01.65 0 .91.02 1.84.09 2.78.22a76.59 76.59 0 0 0-2.43-1.68c-.79.15-1.59.26-2.39.32.3.25.6.48.91.74Zm-1.61-.97c-.52-.42-1.03-.82-1.52-1.2-.41-.31-.81-.62-1.22-.92-.94-.14-1.87-.23-2.78-.25h-.66c.22.18.45.36.67.55l.21.17c.61.5 1.23 1 1.84 1.5 1.13.15 2.29.2 3.45.15Zm-6.59-2.36c-.69.02-1.36.08-2.04.17.62.45 1.25.9 1.88 1.33.38.12.76.23 1.14.33.55.14 1.1.25 1.67.34-.51-.41-1.01-.82-1.51-1.23l-.21-.17c-.31-.25-.62-.5-.93-.76Zm-.31-.25-1.45-1.18c-.72-.57-1.39-1.1-2.06-1.6-.83.03-1.66.02-2.49-.05 1.3 1.02 2.62 2.04 3.95 3.02.67-.1 1.35-.17 2.04-.19Zm-3.43-3.05c.36-.01.73-.04 1.09-.07-.54-.13-1.08-.24-1.61-.33.17.13.35.26.52.4Zm-.82-.3c-.09-.07-.17-.13-.26-.19-.8-.11-1.58-.19-2.36-.22h-.29c.26.2.51.41.77.61.84.09 1.7.13 2.55.11-.14-.1-.27-.21-.41-.31Zm-1.25 4.67c-5.73 2.05-9.71 6.32-12.54 13.42-2.33 5.89-3.71 12.59-5.16 19.68l-.66 3.19c-2.77 13.22-5.92 28.2-17.1 35.22-9.92 6.23-22.61 4.19-33.8 2.39-4.66-.75-8.54-1.35-12.24-1.86-8.86-1.23-16.67-2-23.86-2.35-4.28-.21-8.53-.31-13-.3-3.84 0-7.88-.71-11.8-1.4-2.17-.38-4.41-.78-6.62-1.05-1.71-.22-3.41-.41-5.07-.56-1-.09-1.88-.16-2.68-.2-2.36-.14-4.49-.19-6.49-.15-2.72.06-5.27.24-7.98.44-.65.05-1.31.09-1.97.14l-1.17.08c-6.76.46-13.76.93-20.73 2.48-.68.15-1.37.31-2.04.47-2.64.65-5.26 1.48-7.77 2.45-9.36 3.65-17.72 9.8-23.55 17.34a44.08 44.08 0 0 0-4.59 7.24c-1.21 2.38-1.47 4.68-1.71 6.71l-.12 1v.09c.18.95.37 1.94.47 3.04v.05c.34-2.06.81-4.27 1.87-6.48a43.85 43.85 0 0 1 4.66-7.58c5.93-7.81 14.88-14.24 24.55-17.63 2.62-.92 5.35-1.67 8.13-2.25.68-.14 1.39-.28 2.12-.41 7.8-1.4 15.85-1.48 22.78-1.44 3.17.02 6.76.04 10.37.22 2.04.1 4.24.28 6.72.55.82.09 1.7.19 2.76.32 1.73.22 3.48.47 5.22.73 2.27.34 4.57.76 6.79 1.16 4.02.73 8.17 1.49 12.15 1.76 4.68.32 9.08.69 13.44 1.13 7.37.74 15.41 1.8 24.58 3.24 3.79.6 7.93 1.29 12.65 2.11 10.83 1.87 24.3 4.19 34.57-2.52 11.53-7.54 14.54-23.57 17.2-37.71.14-.77.29-1.54.43-2.31 1.48-8 2.89-15.56 5.49-22.11 2.98-7.49 7.37-12.22 13.43-14.46.31-.11.62-.22.94-.31-2.02-1.16-3.97-2.48-5.88-3.88l-.69-.3c-.73.16-1.44.37-2.13.62Zm10.14 3.17c.25-.06.5-.1.75-.15-.68-.54-1.36-1.08-2.03-1.62-.72-.1-1.43-.22-2.11-.4-.12-.03-.25-.07-.37-.11 1.23.81 2.48 1.58 3.76 2.27Zm.36.2c.74.39 1.48.75 2.24 1.08-.53-.4-1.06-.81-1.58-1.22-.22.04-.44.09-.66.13Zm3.26 1.52c1.1.44 2.23.83 3.38 1.14.43.11.87.21 1.31.29-.58-.48-1.15-.96-1.73-1.44l-.21-.17c-.71-.59-1.41-1.18-2.12-1.76-.98.01-1.95.09-2.9.24.74.58 1.5 1.15 2.25 1.71Zm3.08 2.15.6.39c.17-.05.33-.1.49-.14-.34-.07-.69-.14-1.02-.23-.02 0-.05-.01-.07-.02Zm.91.58c1.94 1.22 3.94 2.3 6.03 3.15.2.08.41.16.62.23-1.49-1.09-2.95-2.24-4.38-3.41-.47-.04-.94-.1-1.4-.18-.16.04-.33.06-.49.1-.12.03-.25.07-.37.1Zm4.9-1.01c-.75-.62-1.46-1.21-2.14-1.75-.72-.57-1.43-1.11-2.13-1.63-1.1-.17-2.18-.28-3.25-.3h-.33c.62.52 1.25 1.04 1.87 1.56l.21.17c.69.57 1.38 1.15 2.07 1.73 1.22.19 2.46.26 3.7.22Zm-6.82-5.48c.87.58 1.75 1.19 2.63 1.85 1.04.17 2.1.4 3.18.7-1.83-1.05-3.62-1.94-5.37-2.64-.15.03-.29.06-.44.1Zm-.96-.62c.21.14.43.28.64.42.1-.02.2-.04.3-.07-.32-.12-.63-.24-.95-.35Zm-1.08-.36c-1.21-.38-2.41-.67-3.58-.87.27.2.53.4.8.6.57.44 1.16.91 1.77 1.4.8-.05 1.59-.13 2.38-.27-.46-.3-.92-.58-1.37-.86Zm-7.69-3.72c1.2.76 2.41 1.59 3.65 2.5 1.03.16 2.08.39 3.14.68-2.33-1.35-4.6-2.41-6.79-3.18Zm-2.21-.68c-.5.06-1 .11-1.5.14.58.45 1.17.9 1.79 1.4.57.45 1.13.92 1.7 1.38.33 0 .66-.01.99 0 .77.02 1.55.09 2.33.19-1.41-1.03-2.8-1.95-4.16-2.78-.39-.12-.77-.23-1.15-.33Zm-6.49-3.37c1.2.76 2.42 1.6 3.66 2.51.93.14 1.88.34 2.85.59.04 0 .07 0 .11-.01-2.28-1.32-4.49-2.35-6.62-3.09Zm-1.07-.36c-.87-.27-1.73-.49-2.58-.66.28.21.55.41.83.63.84.65 1.68 1.31 2.52 1.98l.73.58.15.12h.64c.63.02 1.27.08 1.91.16a68.328 68.328 0 0 0-4.2-2.81Zm-3.38-1.88c-.25.02-.51.05-.76.06.36.26.72.52 1.09.79.71.13 1.42.29 2.15.49-.84-.49-1.66-.93-2.48-1.34Zm-2.49-1.15c.46.31.92.63 1.39.96.22 0 .44-.03.65-.04-.69-.34-1.37-.64-2.04-.92Zm-.03 1.24c-.79-.02-1.57-.09-2.34-.2.27.21.55.42.82.62.48-.02.97-.02 1.45 0 .25.01.51.03.76.06-.23-.17-.46-.32-.7-.48Zm-4.22-2.67c-.66-.16-1.3-.3-1.94-.41.36.26.71.52 1.04.77.79.59 1.57 1.19 2.36 1.78.77.13 1.55.2 2.34.23a62.66 62.66 0 0 0-3.8-2.38Zm-4.64-2.3c.78.53 1.53 1.05 2.24 1.56.51.07 1.03.16 1.56.27-1.3-.71-2.57-1.32-3.8-1.83Zm-1.91-.73c-.8-.04-1.59-.12-2.38-.25.28.2.55.4.83.6l.43.31c.66.48 1.33.97 2 1.45.52-.02 1.05-.02 1.58 0 .38.02.76.06 1.15.1-.9-.64-1.86-1.3-2.86-1.95l-.75-.27Zm-3.23-.87c.11.08.23.16.34.25.59.11 1.18.21 1.78.27-.72-.21-1.42-.38-2.12-.52Zm-5.23-3.55c1.13.71 2.23 1.45 3.3 2.19.76.08 1.54.2 2.33.36-1.8-.99-3.7-1.87-5.63-2.55Zm-1.06-.35c-1.04-.32-2.09-.57-3.13-.74.07.05.14.1.21.14l2.14 1.47c.8.55 1.59 1.09 2.38 1.61.71-.05 1.43-.06 2.15-.02h.09c-1.24-.85-2.52-1.69-3.83-2.49Zm-.92 1.11-2.14-1.47-.66-.45c-.14-.02-.28-.05-.42-.06-.48-.05-.96-.07-1.45-.07 2.1 1.24 4.27 2.38 6.53 3.32-.61-.41-1.22-.83-1.85-1.26Zm-.75-2.08c-.79-.08-1.57-.19-2.33-.35.12.08.24.16.36.25.92.12 1.84.31 2.76.56-.26-.15-.53-.31-.79-.46Zm-6.19-2.86c1.11.69 2.2 1.4 3.26 2.11l.22.06c.69.15 1.39.27 2.1.36-1.82-1-3.69-1.86-5.58-2.52Zm-6.82-3.23c-.3-.06-.6-.14-.9-.21 1.08.68 2.16 1.38 3.23 2.07.12.02.26.02.38.04.71.11 1.42.27 2.13.45-1.43-.83-2.89-1.6-4.36-2.27-.16-.03-.32-.05-.48-.08Zm-2.18-1c.19.12.38.23.57.35.3.08.6.15.9.21-.49-.2-.98-.39-1.47-.56Zm-5.42-1.74c-.39-.24-.78-.48-1.18-.72-1.23-.76-2.47-1.52-3.72-2.25-.15-.05-.29-.1-.44-.14-.06-.02-.12-.04-.18-.05-.48-.13-.96-.21-1.43-.27.3.16.59.33.89.49 2.18 1.18 4.17 2.15 6.05 2.95Zm2.46.61c.31.07.62.14.94.23-2.37-1.37-4.76-2.58-7.16-3.44.91.55 1.81 1.1 2.71 1.66.75.46 1.5.93 2.25 1.38.41.04.83.09 1.27.18Zm-.48.19c1.05.4 2.08.74 3.08 1.03-.24-.15-.49-.3-.73-.45-.64-.2-1.28-.37-1.92-.51-.15-.03-.29-.05-.44-.08Zm6.35 3.72c.36 0 .71 0 1.04.03-1.15-.74-2.31-1.49-3.47-2.21-1.03-.27-2.08-.59-3.16-.97.13.08.26.16.39.23 1.68 1 3.41 2 5.2 2.92Zm3.54 1.66c-.44-.28-.88-.57-1.32-.85l-.65-.42-.06-.04c-.33-.04-.65-.08-1-.09.99.5 2 .97 3.02 1.4Zm1.26.5c1.24.47 2.5.88 3.78 1.22-1.16-.77-2.35-1.53-3.57-2.26-.97-.29-1.94-.53-2.9-.69l.24.16c.54.35 1.08.7 1.63 1.05.27.18.55.35.82.53Zm3.11 1.93c.62-.02 1.22 0 1.82.05-.16-.11-.32-.22-.48-.32-1.15-.27-2.28-.6-3.39-.99.68.43 1.36.85 2.05 1.26ZM86.47 169.52c.11-.23.23-.47.37-.71 1.12-1.86 2.63-3.92 4.5-6.14 6.79-8.04 16.77-15.51 26.68-19.97.58-.26 1.15-.51 1.73-.75 3.13-1.32 6.3-2.46 9.37-3.55 3.28-1.18 6.39-2.29 9.13-3.52.99-.45 1.93-.89 2.85-1.33 1.82-.87 3.54-1.69 5.5-2.45 2.4-.93 5.14-1.53 8.13-1.77 1.45-.12 2.97-.16 4.53-.12 2.03.04 4.05.33 6.01.62 3.57.52 6.95 1.01 10.03-.05 3.78-1.3 7.28-2.23 11.36-2.99 6.31-1.19 13.63-1.61 21.17-1.22 3.16.16 6.63.45 10.59.87.86.09 1.73.19 2.6.29 9.35 1.05 19.01 2.14 27.15-1.94 8.59-4.31 12.44-13.89 15.93-24.16.76-2.23 1.46-4.52 2.13-6.75 1.04-3.4 2.11-6.93 3.39-10.18 2.51-6.31 6.23-9.69 11.7-10.63.23-.04.47-.05.7-.08-2.37-.99-4.66-2.2-6.86-3.52-.42.02-.85.03-1.29.09-5.02.62-8.41 3.52-10.67 9.12-1.06 2.61-1.99 5.4-2.89 8.1-.82 2.47-1.67 5.02-2.63 7.47-3.47 8.95-7.56 18.01-16.05 21.95-7.88 3.66-17.04 2.75-25.89 1.86-1.09-.11-2.17-.22-3.24-.32-3.83-.35-7.17-.56-10.22-.64-7.14-.19-14.13.55-20.21 2.12-3.65.95-6.86 2.05-10.39 3.59-.64.28-1.34.51-2.2.72-2.58.64-5.31.28-8.2-.09-1.65-.21-3.36-.44-5.07-.46-.95-.02-1.87 0-2.73.05-.54.03-1.07.08-1.59.14-2.8.31-5.35.99-7.57 2.01-1.12.52-2.22 1.09-3.37 1.76-.72.42-1.44.85-2.16 1.28-.65.39-1.3.78-1.98 1.18-1.54.9-3.33 1.84-5.47 2.87-1.9.92-3.89 1.8-6 2.73-1.79.79-3.63 1.61-5.46 2.47-.54.26-1.09.52-1.63.79-1.79.88-3.56 1.82-5.27 2.82-7.53 4.37-14.79 10.15-20.44 16.27-2.01 2.19-3.45 3.95-4.53 5.53-1.41 2.06-1.44 3.87-1.45 5.32 0 .48-.02.93-.07 1.32Zm.12 3.28c-.03.45-.02.89 0 1.3.06-.47.04-.89 0-1.3Zm1.28.77c1.15-2 2.71-4.21 4.5-6.38 5.39-6.55 12.84-12.5 20.97-16.76 2.25-1.17 4.54-2.22 6.81-3.11.6-.23 1.2-.46 1.8-.68 3.83-1.41 7.71-2.51 11.45-3.57 2.81-.8 5.46-1.55 7.91-2.38 1.05-.36 2.07-.72 3.05-1.07 1.9-.68 3.69-1.33 5.7-1.9 1.77-.5 3.74-.86 5.88-1.07.8-.08 1.63-.13 2.45-.16 1.49-.05 3.05-.03 4.64.05 2.06.1 4.13.42 6.14.72 3.73.57 7.26 1.12 10.58.3 3.91-.97 7.53-1.64 11.73-2.16 6.56-.81 13.89-.92 21.79-.32 3.31.25 6.81.61 10.99 1.12.62.08 1.25.15 1.88.23 10 1.25 20.33 2.53 28.98-2.09 9.1-4.91 12.78-15.15 16.34-27.05.58-1.94 1.12-3.92 1.65-5.84 1.17-4.24 2.38-8.63 3.94-12.57 2.36-5.94 5.68-9.4 10.45-10.89.59-.18 1.21-.34 1.83-.46.18-.03.36-.06.54-.08-1.99-1.02-3.95-2.21-5.94-3.51-.83 0-1.66.04-2.46.18-5.11.88-8.58 4.06-10.95 10-1.26 3.21-2.33 6.71-3.36 10.09-.68 2.23-1.38 4.54-2.14 6.78-3.57 10.49-7.51 20.27-16.44 24.75-8.38 4.21-18.18 3.1-27.66 2.04-.87-.1-1.73-.19-2.59-.29-3.94-.42-7.39-.71-10.54-.87-7.47-.39-14.72.03-20.96 1.2-4.03.76-7.49 1.67-11.23 2.96-3.29 1.13-6.77.62-10.45.09-1.93-.28-3.93-.57-5.9-.61-1.53-.03-3.02 0-4.44.12-2.9.24-5.55.81-7.87 1.71-1.93.75-3.63 1.56-5.44 2.42-.93.44-1.87.89-2.87 1.34-2.78 1.24-5.9 2.36-9.2 3.55-3.05 1.09-6.21 2.22-9.32 3.54-.57.24-1.14.49-1.71.75-9.79 4.4-19.63 11.77-26.33 19.71-1.83 2.17-3.32 4.19-4.4 6-.54.89-.82 1.73-.97 2.53.17.85.31 1.81-.02 3.01l.03.3c.05.43.09.83.1 1.21.17-.91.48-1.87 1.06-2.89Zm-.14 6.66c.2-.69.47-1.39.87-2.12 1.21-2.19 2.78-4.5 4.54-6.68 5.54-6.88 13.3-12.91 21.86-16.98a67.155 67.155 0 0 1 9.02-3.51c4.68-1.48 9.39-2.47 13.94-3.44 2.2-.47 4.27-.91 6.27-1.38a219 219 0 0 0 3-.75c2.06-.52 4.01-1.02 6.15-1.43 1.86-.35 3.91-.58 6.09-.66.82-.03 1.67-.05 2.53-.04 1.5.02 3.1.09 4.78.22 2.11.16 4.24.5 6.3.84 3.85.62 7.49 1.21 10.97.66 4.13-.65 7.99-1.08 12.16-1.34 6.74-.42 14.3-.23 22.48.57 3.4.34 7.13.78 11.41 1.37l1.28.17c10.56 1.45 21.48 2.94 30.51-2.2 9.47-5.39 13.1-16.65 16.55-29.71.43-1.64.85-3.32 1.26-4.94 1.27-5.09 2.59-10.35 4.42-14.97 2.53-6.35 6.08-10.09 11.19-11.78.63-.21 1.29-.38 1.96-.52.08-.02.16-.03.24-.04-1.18-.72-2.34-1.48-3.49-2.27a36.89 36.89 0 0 1-3.78-1.64c-.3.04-.6.08-.9.14-.62.12-1.23.27-1.81.45-4.69 1.47-7.96 4.88-10.29 10.74-1.55 3.93-2.76 8.31-3.93 12.54-.53 1.92-1.08 3.9-1.66 5.84-3.57 11.95-7.28 22.25-16.46 27.2-8.71 4.66-19.09 3.37-29.12 2.12-.63-.08-1.25-.16-1.88-.23-4.18-.51-7.67-.87-10.98-1.12-7.88-.6-15.2-.49-21.74.32-4.2.52-7.81 1.18-11.71 2.15-3.37.83-6.91.28-10.67-.3-2-.31-4.07-.63-6.11-.72-1.58-.08-3.14-.1-4.62-.05-.82.03-1.64.08-2.44.16-2.12.21-4.08.56-5.83 1.06-2 .57-3.79 1.21-5.68 1.89-.98.35-2 .72-3.05 1.08-2.46.83-5.11 1.59-7.92 2.38-3.74 1.06-7.61 2.16-11.43 3.56-.6.22-1.2.45-1.8.68-2.27.89-4.55 1.93-6.79 3.1-8.1 4.25-15.52 10.18-20.89 16.7-1.78 2.16-3.33 4.36-4.48 6.35a8.659 8.659 0 0 0-1.16 3.82c.09.41.22.82.38 1.27.16.45.31.92.43 1.43Zm-.26 5.05c0 .19 0 .39-.02.57-.06.71.05 1.4.17 2.05.1-1 0-1.85-.15-2.63Zm.35 3.63c.13-1.87.3-3.98 1.51-6.28 1.24-2.35 2.82-4.76 4.58-6.98 5.69-7.22 13.77-13.33 22.76-17.2 2.43-1.04 4.95-1.95 7.47-2.68.59-.17 1.21-.35 1.96-.55 5.73-1.52 11.48-2.33 17.04-3.11a299.547 299.547 0 0 0 6.78-1.01c2.29-.36 4.46-.71 6.81-.95 1.93-.2 4.05-.29 6.3-.26.83 0 1.7.04 2.61.08 1.56.08 3.17.21 4.93.39 2.16.22 4.35.59 6.47.95 3.97.67 7.71 1.31 11.36 1.03 4.33-.33 8.33-.49 12.59-.52 6.92-.04 14.72.46 23.18 1.46 3.57.43 7.33.94 11.82 1.62l.59.09c10.63 1.58 22.69 3.38 32.12-2.28 9.87-5.92 13.31-17.65 16.77-32.38.32-1.35.62-2.71.93-4.06 1.41-6.21 2.74-12.08 4.82-17.36 2.69-6.76 6.48-10.79 11.94-12.68.68-.23 1.38-.43 2.09-.58.08-.02.17-.03.26-.05-.24-.17-.49-.33-.73-.5-2.41-.87-4.7-2.03-6.9-3.35l-.54.09c-.66.13-1.31.3-1.94.51-5.04 1.67-8.55 5.36-11.04 11.63-1.82 4.6-3.07 9.62-4.4 14.94-.41 1.62-.83 3.3-1.26 4.94-3.47 13.13-7.12 24.44-16.68 29.88-9.09 5.18-20.05 3.68-30.65 2.23l-1.28-.17c-4.27-.58-8-1.03-11.4-1.37-8.17-.8-15.72-.99-22.45-.57-4.16.26-8.02.68-12.14 1.33-3.52.56-7.17-.04-11.04-.66-2.06-.33-4.18-.68-6.28-.83-1.67-.13-3.28-.2-4.77-.22-.86 0-1.7 0-2.52.04-2.17.09-4.21.31-6.06.66-2.13.4-4.07.9-6.13 1.42-.97.25-1.98.5-3.01.75-2 .48-4.08.92-6.28 1.38-4.55.96-9.26 1.96-13.92 3.43-.61.19-1.24.4-1.88.61-2.4.81-4.79 1.78-7.12 2.89-8.53 4.06-16.26 10.06-21.78 16.91-1.76 2.17-3.32 4.47-4.52 6.64-.48.87-.78 1.71-.98 2.51.15.9.15 1.94-.25 3.2-.02.07-.06.15-.08.23v.13c.3 1.18.57 2.53.28 4.29 0 .02 0 .04-.01.06.02.09.03.17.05.26Zm.28 4.22c.01-.83-.05-1.58-.16-2.27-.02.59.01 1.16.07 1.69.02.19.06.39.08.58Zm.23.84c.24-2.05.51-4.38 1.74-6.8a45.28 45.28 0 0 1 4.62-7.28c5.85-7.57 14.25-13.75 23.65-17.42 2.53-.98 5.15-1.81 7.8-2.46.67-.17 1.36-.33 2.04-.48 6.99-1.55 13.99-2.03 20.76-2.49l1.17-.08c.66-.05 1.32-.09 1.97-.14 2.71-.19 5.27-.37 7.99-.44 2.01-.05 4.14 0 6.51.15.8.05 1.68.12 2.69.2 1.65.15 3.36.34 5.07.56 2.22.28 4.46.67 6.63 1.06 4.08.72 7.94 1.4 11.76 1.39 4.48 0 8.73.1 13.01.3 7.2.35 15.01 1.12 23.88 2.35 3.69.52 7.58 1.11 12.24 1.87 11.15 1.79 23.79 3.83 33.64-2.36 11.09-6.96 14.22-21.88 16.99-35.05l.66-3.19c1.46-7.1 2.83-13.81 5.18-19.73 2.85-7.18 6.88-11.49 12.68-13.57.59-.21 1.2-.39 1.81-.54-2.43-1.11-4.74-2.49-6.99-4.01l-.52.09c-.7.15-1.39.34-2.06.57-5.38 1.86-9.13 5.84-11.79 12.53-2.08 5.26-3.41 11.11-4.81 17.31-.31 1.35-.61 2.71-.93 4.06-3.48 14.79-6.93 26.57-16.89 32.55-9.51 5.7-21.6 3.9-32.27 2.31l-.59-.09c-4.49-.67-8.25-1.19-11.82-1.62-8.45-1-16.24-1.5-23.15-1.46-4.25.02-8.25.18-12.57.52-3.68.28-7.44-.36-11.42-1.03-2.11-.36-4.29-.73-6.45-.94-1.76-.18-3.37-.31-4.92-.39-.9-.05-1.77-.07-2.6-.08-2.24-.03-4.35.06-6.27.26-2.34.24-4.5.58-6.8.95-.9.14-1.81.29-2.75.43-1.31.2-2.66.39-4.04.58-5.55.78-11.29 1.59-17.01 3.11a64.706 64.706 0 0 0-9.4 3.21c-8.95 3.86-17 9.94-22.66 17.12a46.787 46.787 0 0 0-4.56 6.94c-1.22 2.31-1.36 4.44-1.49 6.32l-.06.7c.21 1.07.39 2.2.35 3.58 0 .28-.03.58-.06.89v.01c.01-.1.02-.2.04-.3Zm.42 5.27a23.53 23.53 0 0 0-.37-3.13c0 .35 0 .71.03 1.09.04.74.16 1.49.31 2.26l.03-.22Zm.36 5.21c-.09-1.02-.19-2.06-.24-3.12-.02-.07-.03-.15-.05-.22 0 .25-.02.51-.02.73 0 .87.12 1.74.31 2.6Zm.03-3.02c.1.44.21.9.31 1.37.51-2.51 1.18-4.63 2.07-6.56 1.27-2.76 2.86-5.42 4.7-7.88 6.1-8.16 15.37-14.67 25.44-17.85 2.72-.86 5.56-1.54 8.46-2.03.72-.12 1.46-.24 2.2-.34 8.51-1.19 17.1-.79 23.64-.31 3.9.29 7.43.62 10.77 1.02 2.01.24 4.14.53 6.94.95a329.665 329.665 0 0 1 8.21 1.34c2.32.4 4.69.84 6.97 1.27 4.12.77 8.39 1.57 12.53 2.13 4.51.6 9.04 1.23 13.87 1.94 7.55 1.12 15.81 2.47 25.27 4.13 3.97.7 8.24 1.47 13.07 2.36 13.07 2.39 25.62 3.99 35.5-2.69 11.98-8.15 14.87-25.27 17.42-40.38l.24-1.42c1.5-8.91 2.91-17.33 5.75-24.49 3.14-7.9 7.78-12.92 14.17-15.35.49-.19.99-.35 1.5-.5-.36-.23-.72-.48-1.07-.72-2.45-.74-4.78-1.79-7.02-3.05-.39.12-.78.25-1.17.39-6.07 2.25-10.29 6.79-13.28 14.31-2.59 6.52-3.99 14.07-5.47 22.05-.14.77-.29 1.54-.43 2.31-2.67 14.2-5.7 30.29-17.32 37.89-10.34 6.76-23.87 4.43-34.73 2.56-4.73-.82-8.86-1.51-12.65-2.11-9.16-1.45-17.19-2.51-24.56-3.24-4.36-.43-8.75-.8-13.43-1.12-4-.27-8.15-1.03-12.18-1.77-2.22-.41-4.52-.82-6.79-1.16-1.73-.26-3.49-.51-5.21-.73-1.06-.13-1.94-.24-2.76-.32-2.47-.27-4.67-.44-6.71-.55-3.6-.18-7.19-.2-10.36-.22-6.92-.04-14.96.03-22.74 1.43-.73.13-1.44.27-2.11.41-2.77.57-5.5 1.33-8.1 2.24-9.62 3.38-18.53 9.78-24.44 17.55-1.8 2.36-3.36 4.9-4.63 7.54-1.23 2.55-1.66 5.13-2.01 7.43.04.57.07 1.17.1 1.8v.14s.01.07.01.11l.03.14Zm.09 1.53s0-.04-.01-.06l.06.75c.02-.09.03-.17.05-.25-.03-.14-.07-.29-.1-.43Zm.24 5.02c-.08-.55-.15-1.1-.19-1.64 0-.11-.02-.23-.03-.33 0-.02 0-.03-.01-.05-.01.18-.03.35-.04.54-.03.65.04 1.34.15 2.04l.12-.57Zm.16-.73s-.01-.03-.02-.05v.07-.03Zm.31-1.18c-.16-.68-.31-1.37-.47-2.06 0 .05-.02.09-.03.15-.03.16-.04.33-.07.49 0 .06 0 .11.02.17.04.39.07.76.1 1.13.08.28.17.57.26.85.06-.24.12-.49.19-.73Zm.66 9.11c-.1-1.04-.25-2.07-.43-3.1-.08-.18-.15-.36-.22-.54-.06 1.23.19 2.45.65 3.64Zm4.62 6.87c-.2-.96-.49-1.91-.82-2.85l-.06-.09c-.75-1.07-1.52-2.17-2.24-3.35-.63-1.04-1.14-1.96-1.54-2.82.15.97.28 1.95.34 2.94 1.01 2.19 2.67 4.27 4.32 6.16Zm4.23 3.73c.27.57.5 1.15.71 1.73.87.86 1.81 1.73 2.79 2.62.04.04.08.08.13.12-1.09-1.54-2.36-3.02-3.62-4.47Zm-.67-.78c-1.16-1.34-2.25-2.64-3.12-3.98-.23-.36-.49-.73-.75-1.1.26.82.48 1.64.63 2.48l.95 1.07c.62.69 1.21 1.36 1.75 1.99.47.55.99 1.1 1.53 1.65-.28-.72-.62-1.42-.98-2.11Zm-5.54-9.46c.04.1.08.19.12.29.44 1.07.88 2.15 1.27 3.25.44.63.85 1.22 1.23 1.79.67 1.01 1.46 2.01 2.31 3.02-.59-1.01-1.22-2.01-1.85-2.99-1.05-1.63-2.04-3.17-2.78-4.76-.09-.19-.2-.4-.29-.59Zm-2.21-4.62c-.29-.68-.54-1.3-.76-1.88-.07.38-.13.76-.18 1.14.04.21.07.41.11.62.07.38.14.77.2 1.15.07.17.12.33.2.5.43.95.99 1.99 1.71 3.18.56.92 1.16 1.8 1.76 2.65-.3-.79-.62-1.57-.94-2.34-.42-1.03-.83-2.02-1.18-3-.32-.66-.64-1.32-.93-2.01Zm-.55-2.88c-.04.18-.08.35-.11.53.25.68.54 1.41.89 2.24.03.07.06.13.09.2-.14-.48-.28-.97-.43-1.49-.14-.48-.29-.98-.43-1.47Zm245.15-106.07c-.28-.1-.57-.21-.85-.32-2.18-.89-4.26-2.02-6.29-3.31-.58.16-1.16.34-1.73.56-6.33 2.4-10.91 7.38-14.03 15.21-2.84 7.14-4.25 15.54-5.74 24.43l-.24 1.42c-2.56 15.16-5.47 32.35-17.53 40.56-9.94 6.73-22.54 5.13-35.67 2.73-4.83-.89-9.1-1.66-13.07-2.36-9.46-1.67-17.72-3.02-25.27-4.13-4.82-.71-9.36-1.35-13.86-1.94-4.15-.56-8.42-1.36-12.55-2.13-2.28-.43-4.64-.87-6.96-1.27-1.75-.3-3.56-.6-5.36-.9-.95-.15-1.9-.3-2.84-.44-2.79-.42-4.93-.71-6.93-.95-3.34-.4-6.86-.73-10.76-1.02-6.52-.48-15.1-.88-23.59.31-.74.1-1.48.22-2.19.34-2.89.49-5.73 1.17-8.43 2.02-10.02 3.17-19.25 9.64-25.32 17.76a42.964 42.964 0 0 0-4.67 7.83c-.94 2.05-1.63 4.33-2.15 7.06.16.72.32 1.45.49 2.17.47-1.61 1.08-3.27 1.83-4.98 5.43-12.4 17.43-22.54 31.32-26.46 17.94-5.07 37.12-1.36 54.05 1.91l82.25 15.91c12.76 2.47 26.06 4.28 36.16-2.8 12.29-8.62 14.97-26.27 17.56-43.33 2.92-19.23 5.68-37.4 21.15-43.41.41-.16.82-.3 1.23-.44Zm2.85-.71c-.22-.19-.45-.38-.67-.57l-.49-.42c-.8-.69-1.6-1.37-2.4-2.05-1.12.1-2.24.12-3.36.04a97.44 97.44 0 0 0 4.61 3.55c.77-.23 1.54-.41 2.31-.55Zm7.41 6.01c-1.73-1.28-3.4-2.62-5.01-3.97-.37-.05-.73-.1-1.09-.17-.79-.15-1.57-.34-2.35-.57-.05.01-.1.02-.14.03 2.72 1.87 5.56 3.5 8.6 4.67Zm.88.32c1.36.47 2.77.81 4.2 1.03-1.05-.89-2.11-1.8-3.18-2.74l-.88-.77c-.65-.57-1.31-1.14-1.96-1.71-1.2.09-2.41.08-3.6-.04 1.74 1.45 3.54 2.89 5.42 4.23Zm9.67 5.39a104.29 104.29 0 0 1-5.08-4.04c-1.3-.17-2.59-.45-3.85-.83 2.8 1.94 5.76 3.66 8.92 4.87Zm.96.36c1.33.46 2.71.79 4.13 1-1.24-1.06-2.49-2.15-3.75-3.28l-1.12-1c-.38-.34-.77-.68-1.15-1.02-1.23.09-2.46.08-3.69-.05 1.85 1.55 3.68 3 5.53 4.33.02 0 .04.01.05.02Zm-.58-3.48 1.12 1c1.37 1.22 2.72 2.41 4.06 3.54.4.05.79.1 1.19.13.9.07 1.8.06 2.68 0-.56-.51-1.12-1.01-1.67-1.51-1.45-1.3-2.62-2.34-3.7-3.26-.49-.42-1-.84-1.53-1.27-1.01.25-2.05.43-3.1.53.31.28.63.56.94.84Zm10.16 8.85c-1.7-1.26-3.38-2.61-5.07-4.05-1.32-.17-2.6-.45-3.85-.84 2.88 2.01 5.81 3.69 8.93 4.89Zm.9.34c.26.09.52.18.79.27 1.12.36 2.28.62 3.46.8-1.44-1.24-2.89-2.53-4.36-3.86l-1.46-1.32c-.05-.05-.1-.09-.16-.14-.98.07-1.98.08-2.98 0-.27-.02-.54-.06-.81-.09 1.84 1.55 3.67 3.01 5.52 4.34Zm.04-3c1.58 1.43 3.13 2.81 4.68 4.13.75.1 1.51.17 2.27.19.37 0 .74 0 1.12-.01-.06-.05-.12-.11-.18-.16-1.93-1.78-3.93-3.61-5.91-5.34a31 31 0 0 0-.59-.51c-.92.2-1.85.35-2.8.44l1.41 1.28Zm9.59 8.4c-1.68-1.24-3.34-2.59-5.01-4.02-1.33-.17-2.63-.45-3.89-.85 2.85 1.99 5.78 3.65 8.9 4.87Zm4.92 1.69c-.87-.15-1.73-.33-2.56-.58-.24-.07-.47-.15-.7-.23 2.44 1.7 4.93 3.16 7.56 4.32a101.1 101.1 0 0 1-4.29-3.51Zm-6.16-5.52c-.47.02-.94.03-1.41.02-.64-.02-1.27-.07-1.89-.14 1.82 1.54 3.64 2.99 5.48 4.31.49.17.98.34 1.48.49.69.21 1.39.37 2.1.5-1.95-1.69-3.86-3.44-5.76-5.18Zm38.47-60.89c.06 0 .12.02.18.02 1.08.11 2.11.17 3.12.2-.5-.12-1.01-.23-1.51-.29-.27-.03-.56-.04-.88-.03-.31.01-.61.05-.91.09Zm-3.21 1.15c-1.01.68-1.77 2.11-2.41 3.4-.22.44-.43.89-.64 1.33-.75 1.57-1.46 3.05-2.23 4.09-.98 1.32-1.98 2.34-3.05 3.12-1.38 1.01-2.95 1.85-4.67 2.5-.37.14-.75.29-1.13.43-5.18 1.95-10.53 3.97-13.12 8.24-.73 1.22-1.21 2.51-1.46 3.97-.37 2.17-.12 4.34.11 6.45.1.89.2 1.82.26 2.73.14 2.25-.05 4.26-.59 6.13-1.46 5.08-6.24 9.1-12.07 10.76 1.99 1.73 3.99 3.57 5.92 5.35.32.3.64.59.97.89 7.7-.72 15.61-5.55 16.93-13.43.32-1.93.31-4.01-.04-6.55-.1-.7-.21-1.41-.32-2.09-.41-2.52-.83-5.13-.36-7.75.29-1.57.84-2.98 1.68-4.29 2.85-4.37 8.44-6.4 13.85-8.35.57-.21 1.14-.41 1.69-.62 1.85-.68 3.43-1.57 4.86-2.74 1.08-.88 2.04-1.99 3.02-3.47.6-.9 1.17-2.23 1.78-3.63.33-.75.66-1.53 1.02-2.27.64-1.34 1.44-2.77 2.57-3.4-.72-.2-1.44-.4-2.14-.61l-.87-.25c-.31-.09-.63-.19-.95-.28-.33-.1-.67-.2-1.01-.3-1.34 0-2.74-.07-4.23-.22-.34-.03-.67-.08-1.01-.12-.87.21-1.67.53-2.36.99Zm-49.61 46.64c3.04 1.95 5.86 4.14 8.36 6.3 5.84-1.6 10.63-5.58 12.08-10.63.53-1.84.72-3.82.58-6.04-.05-.91-.16-1.83-.26-2.72-.24-2.12-.48-4.32-.11-6.53.26-1.49.75-2.82 1.5-4.07 2.64-4.34 8.03-6.38 13.25-8.34.38-.14.76-.29 1.13-.43 1.7-.64 3.26-1.48 4.61-2.47 1.06-.78 2.01-1.75 2.99-3.07.76-1.02 1.46-2.49 2.21-4.05.21-.44.43-.89.64-1.33.65-1.32 1.43-2.78 2.5-3.5.55-.37 1.17-.65 1.83-.87-.68-.11-1.33-.24-1.92-.35-.76-.16-1.54-.33-2.29-.51-.58-.13-1.17-.27-1.76-.4-.29-.06-.58-.13-.88-.2-1.13-.26-2.3-.54-3.44-.54-.26 0-.52.03-.81.09-1.24.28-2.46 1-3.54 2.09-.77.79-1.4 2.01-1.95 3.09l-.15.29c-.92 1.79-1.87 3.65-2.94 4.9-.97 1.15-1.96 2.04-3.02 2.72-1.31.85-2.79 1.6-4.41 2.23l-.52.2c-5 1.97-10.17 4.01-12.57 8.27-.64 1.15-1.06 2.38-1.28 3.75-.28 1.78-.17 3.56-.06 5.28.07 1.09.14 2.21.11 3.33-.05 2-.46 3.89-1.22 5.63-1.51 3.44-4.75 6.22-8.69 7.85Zm-1.22.46c-.47.16-.95.31-1.43.43.47.39.94.77 1.38 1.15 1.08.92 2.26 1.96 3.7 3.26.63.56 1.25 1.13 1.88 1.7.96-.07 1.9-.21 2.82-.4-2.51-2.13-5.33-4.27-8.35-6.14Zm-6.76-3.52c1.82 1.22 3.52 2.5 5.07 3.76.47-.12.94-.26 1.4-.41-2.08-1.27-4.25-2.42-6.48-3.35Zm-5.17-1.72c-.09.02-.17.05-.26.07.83.64 1.66 1.3 2.49 2 1.06.89 2.18 1.86 3.52 3.04.35.31.7.62 1.05.94 1.05-.09 2.1-.25 3.11-.49a69.57 69.57 0 0 0-5.99-4.33 33.2 33.2 0 0 0-3.94-1.23ZM9.14 98.57c.38.19.77.4 1.14.63 5.28 3.16 8.39 9.04 11.4 14.72.58 1.1 1.19 2.24 1.8 3.35.32.58.64 1.14.94 1.66.09.15.17.3.26.44 3.27 5.4 8.93 11.21 15.02 11.32 1.36.03 2.69-.24 3.94-.79 2.89-1.26 5.02-3.85 7.08-6.36 2.09-2.54 4.24-5.17 7.18-6.37 3.28-1.35 6.9-.67 10.4-.01 1.15.22 2.34.44 3.5.59 2.55.32 5.19.3 7.86-.07 10.67-1.46 20.56-8.07 29-14.15.38-.28.76-.55 1.14-.83 1.07-.78 2.21-1.62 3.33-2.52 3.2-2.58 5.31-5.01 6.64-7.63.29-.58.55-1.17.77-1.77.49-1.34.8-2.76 1.1-4.14.19-.87.38-1.77.62-2.64.22-.79.45-1.49.72-2.12 1.12-2.7 3.2-4.71 6.02-5.81.56-.22 1.15-.4 1.77-.54 1.43-.33 2.86-.22 4.25-.12 2.18.17 4.24.32 5.96-1.27.46-.43.87-.95 1.25-1.58.35-.58.68-1.15 1-1.71 1.15-1.99 2.24-3.87 3.77-5.59.38-.43.77-.84 1.19-1.23 3.31-3.12 7.56-5.43 12.3-6.69.47-.13.95-.24 1.43-.34.27-.06.55-.11.82-.16 5.04-.93 10.25-.91 15.29-.89 4.89.02 9.94.04 14.83-.8 5.51-.96 10.6-3.24 14.33-6.43 1.07-.91 1.99-1.97 2.8-3.24.88-1.37 1.53-2.87 2.16-4.41.27-.64.54-1.18.85-1.64.39-.58.85-1.04 1.39-1.4 1.35-.9 3.06-.78 5.51.4.24.12.49.23.74.34.25.12.5.23.76.35.64.3 1.29.62 1.93.95l.5.26c2.6 1.33 5.29 2.7 8.07 4 1.47.69 3.22 1.49 4.97 2.17.66.25 1.45.55 2.22.79 1.54.48 2.96.69 4.46.91l.49.07c3.22.47 6.46.57 9.63.3 1.76-.15 3.55-.48 5.32-.98 4.42-1.23 8.74-3.52 12.48-6.61 7.45-6.13 11-13.86 9.74-21.23-.65-3.83-2.29-7.1-4.03-10.56l-.3-.61C275.39 5.8 274 3.04 273.24.03h-.26c.76 3.08 2.18 5.86 3.68 8.68l.3.61c1.73 3.44 3.35 6.69 4 10.48 1.24 7.26-2.27 14.9-9.64 20.97-3.72 3.07-8.01 5.34-12.4 6.57a29.1 29.1 0 0 1-5.28.97c-3.16.27-6.38.17-9.58-.3l-.49-.07c-1.5-.22-2.91-.42-4.43-.9-.77-.24-1.55-.53-2.21-.78-1.74-.67-3.48-1.47-4.95-2.16-2.77-1.3-5.46-2.67-8.06-4l-.5-.26a57.31 57.31 0 0 0-2.69-1.3c-.25-.11-.49-.23-.74-.34-2.54-1.21-4.31-1.33-5.74-.38-.57.38-1.05.86-1.46 1.47-.32.47-.61 1.03-.88 1.68-.63 1.53-1.27 3.01-2.14 4.37-.8 1.25-1.71 2.29-2.75 3.19-3.7 3.16-8.74 5.42-14.21 6.37-4.88.84-9.92.82-14.79.8-5.05-.02-10.27-.04-15.33.89-.27.05-.55.11-.83.16-.48.1-.96.22-1.44.34-4.77 1.26-9.06 3.59-12.4 6.74-.42.4-.82.82-1.21 1.25-1.54 1.75-2.64 3.64-3.8 5.64-.33.56-.66 1.13-1 1.71-.37.61-.76 1.11-1.2 1.52-1.64 1.53-3.65 1.37-5.78 1.21-1.4-.11-2.85-.22-4.32.12-.63.14-1.23.33-1.8.55-2.88 1.13-5.01 3.19-6.16 5.96-.27.64-.51 1.35-.73 2.16-.24.88-.44 1.78-.63 2.65-.3 1.37-.61 2.78-1.09 4.1-.21.59-.47 1.17-.75 1.74-1.31 2.59-3.4 4.99-6.57 7.55-1.11.9-2.25 1.74-3.32 2.51-.38.28-.76.55-1.14.83-8.41 6.06-18.27 12.66-28.89 14.11-2.65.36-5.27.39-7.8.07-1.15-.15-2.34-.37-3.48-.58-3.53-.66-7.19-1.35-10.53.03-2.99 1.23-5.17 3.88-7.28 6.44-2.04 2.48-4.15 5.05-6.99 6.29-1.23.53-2.52.79-3.85.77-5.98-.11-11.58-5.86-14.82-11.2-.09-.15-.18-.29-.26-.44-.3-.52-.62-1.08-.94-1.66-.61-1.1-1.21-2.24-1.8-3.35-3.03-5.71-6.15-11.62-11.49-14.82-.38-.23-.77-.44-1.15-.63-2.78-1.4-5.82-1.97-9.24-1.75v.27c3.39-.22 6.39.34 9.14 1.72ZM6.72 62.58c5.12 2.37 8.45 7 11.97 11.9l.53.73c.29.41.59.82.89 1.23.08.11.16.22.25.33 2.86 3.78 7.23 8.86 12.12 9.47 1.12.14 2.2.05 3.23-.27 2.45-.76 4.36-2.55 6.21-4.28 1.83-1.71 3.72-3.47 6.13-4.28 2.79-.94 5.84-.41 8.79.1.88.15 1.78.31 2.67.43 2.05.27 4.12.33 6.33.19 9.52-.58 18.09-4.5 24.5-7.85.33-.17.65-.34.98-.52 1.13-.61 2.04-1.14 2.86-1.66 2.63-1.68 4.52-3.53 5.76-5.67.25-.43.48-.88.7-1.36.37-.81.68-1.67.98-2.5.32-.89.65-1.8 1.06-2.68.25-.54.53-1.06.85-1.54 1.22-1.89 3.08-3.31 5.35-4.09.49-.17 1.04-.3 1.66-.39.85-.13 1.71-.14 2.53-.15 2.01-.02 3.9-.05 5.48-1.8.36-.4.69-.81 1-1.26l.32-.45c1.24-1.75 2.41-3.41 4.03-4.93.33-.3.67-.61 1.02-.9 2.78-2.29 6.23-4.09 9.96-5.2.38-.11.76-.22 1.14-.31.22-.05.43-.11.65-.16 3.69-.85 7.53-1.16 11.24-1.46 4.21-.34 8.57-.69 12.73-1.84 3.82-1.07 9.06-3.05 12.34-6.41.97-.99 1.61-2.05 2.04-3.34.37-1.12.41-2.25.46-3.45.01-.31.03-.62.04-.94.03-.63.09-1.15.18-1.64.13-.69.31-1.29.46-1.74.6-1.8 1.58-2.8 3.27-3.32l.17-.05c.37-.12.75-.23 1.15-.31.56-.11 1.17-.17 1.81-.16 2.9.02 5.76.46 8.51 1.31.56.17 1.19.4 1.87.64.9.33 1.83.66 2.73.92.72.21 1.48.41 2.07.48 1.22.13 2.11-.32 2.97-.76.39-.2.79-.4 1.2-.54 1.7-.58 3.56-1.24 5.52-1.94.83-.3 1.69-.6 2.57-.91 1.77-.63 3.23-1.16 4.6-1.67 3.51-1.31 7.43-3.04 11.65-5.14 1.66-.82 3.21-1.62 4.67-2.42h-.55c-1.38.75-2.8 1.47-4.23 2.18-4.21 2.1-8.13 3.82-11.63 5.13-1.36.51-2.82 1.04-4.59 1.67-.88.31-1.74.62-2.57.91-1.96.7-3.82 1.36-5.52 1.93-.43.15-.84.35-1.23.55-.83.43-1.69.86-2.84.74-.57-.06-1.31-.26-2.03-.47-.9-.26-1.82-.59-2.72-.91-.68-.25-1.32-.47-1.88-.65-2.77-.86-5.66-1.3-8.58-1.32-.65 0-1.28.05-1.85.17-.42.08-.8.2-1.18.32l-.16.05c-1.75.54-2.81 1.62-3.43 3.49-.15.46-.34 1.07-.47 1.78-.09.5-.15 1.03-.19 1.68-.02.32-.03.64-.04.95-.05 1.18-.09 2.29-.45 3.37-.41 1.25-1.04 2.28-1.98 3.24-3.24 3.32-8.44 5.28-12.23 6.34-4.14 1.14-8.48 1.49-12.69 1.83-3.72.3-7.57.61-11.28 1.47-.22.05-.44.1-.66.16-.38.1-.76.2-1.15.31-3.77 1.12-7.24 2.94-10.05 5.24-.36.29-.7.6-1.03.91-1.64 1.53-2.82 3.2-4.06 4.97l-.32.45c-.31.44-.63.84-.98 1.23-1.51 1.68-3.35 1.7-5.31 1.72-.83.01-1.69.02-2.56.16-.63.1-1.19.23-1.7.4-2.33.8-4.22 2.25-5.48 4.19-.32.49-.61 1.02-.86 1.58-.41.89-.75 1.81-1.07 2.7-.3.82-.61 1.67-.97 2.48-.21.47-.44.92-.69 1.34-1.22 2.1-3.08 3.93-5.68 5.59-.81.52-1.72 1.04-2.84 1.65-.33.18-.65.35-.98.52-6.38 3.34-14.92 7.24-24.4 7.82-2.2.14-4.25.08-6.29-.19-.88-.12-1.78-.27-2.66-.42-2.98-.52-6.05-1.05-8.9-.1-2.46.82-4.37 2.61-6.22 4.33-1.83 1.71-3.73 3.48-6.12 4.23-1 .31-2.05.4-3.14.26-4.81-.59-9.13-5.63-11.96-9.37-.08-.11-.16-.22-.25-.33-.3-.41-.6-.82-.89-1.22l-.53-.73c-3.54-4.93-6.88-9.59-12.06-11.98-.32-.15-.65-.29-.98-.42-.15-.06-.29-.11-.44-.17-1.7-.61-3.48-.89-5.39-.88v.27c2.04-.01 3.94.32 5.75 1.03.32.13.65.26.97.41Zm.89 9.15c5.1 2.55 8.29 7.38 11.67 12.48l1 1.51c.3.44.6.89.91 1.34.08.12.17.24.25.36 3.04 4.27 7.73 9.46 12.85 9.93 1.18.11 2.32-.02 3.41-.4 2.55-.89 4.52-2.88 6.42-4.8 1.9-1.92 3.85-3.9 6.4-4.8 2.91-1.04 6.1-.47 9.18.07.95.17 1.93.34 2.89.47 2.15.28 4.41.32 6.71.13 9.58-.79 18.33-5.21 25.62-9.42l1.02-.6c1.19-.7 2.14-1.3 2.98-1.88 2.76-1.89 4.72-3.91 5.98-6.16.26-.46.5-.96.72-1.47.4-.95.72-1.95 1.03-2.91.28-.88.57-1.79.93-2.66.24-.6.52-1.17.81-1.69 1.2-2.1 3.11-3.67 5.52-4.52.5-.18 1.05-.32 1.68-.43 1.01-.18 2.01-.17 2.99-.16 2.04.02 3.97.04 5.57-1.66.38-.4.73-.84 1.06-1.34.18-.27.36-.53.53-.79 1.21-1.8 2.34-3.5 3.92-5.06.35-.34.7-.67 1.06-.98 2.92-2.5 6.56-4.42 10.55-5.57.4-.12.81-.22 1.21-.32.23-.05.46-.11.69-.16 4.04-.88 8.22-1.11 12.27-1.34 4.37-.24 8.9-.49 13.24-1.56 3.14-.78 8.99-2.66 12.84-6.41.99-.97 1.7-2.02 2.23-3.32.47-1.14.63-2.32.8-3.56l.12-.83c.09-.62.21-1.16.35-1.64.19-.64.45-1.17.7-1.65.81-1.56 1.91-2.25 3.82-2.39.14-.01.29-.02.44-.04.3-.03.61-.06.93-.06.58-.01 1.2.03 1.83.11 2.95.41 5.82 1.09 8.53 2.05.52.19 1.09.4 1.69.63.99.38 2 .77 3.01 1.08.84.26 1.52.46 2.11.56 1.21.2 2.17-.1 3.1-.39.41-.13.83-.26 1.26-.34 2.44-.48 5.21-1.15 8.48-2.06 1.64-.46 3.24-.96 4.78-1.5 3.79-1.32 7.89-3.22 11.86-5.51 7.13-4.08 11.63-8.05 13.69-12.05h-.28c-2.06 3.91-6.51 7.8-13.52 11.82-3.96 2.28-8.04 4.18-11.82 5.49a78.08 78.08 0 0 1-4.76 1.49c-3.26.91-6.02 1.58-8.46 2.06-.45.09-.87.22-1.29.35-.94.29-1.84.57-3 .38-.57-.09-1.24-.29-2.07-.55-.99-.31-2.01-.7-2.99-1.08-.6-.23-1.17-.44-1.7-.63a44.11 44.11 0 0 0-8.57-2.06c-.65-.09-1.27-.13-1.87-.12-.33 0-.64.04-.95.06-.15.01-.29.03-.43.04-1.98.15-3.18.9-4.02 2.52-.26.5-.52 1.04-.72 1.7-.15.49-.26 1.04-.36 1.68l-.12.84c-.17 1.23-.33 2.39-.78 3.5a9.48 9.48 0 0 1-2.17 3.23c-3.8 3.71-9.6 5.57-12.73 6.35-4.32 1.06-8.83 1.31-13.2 1.55-4.06.23-8.25.46-12.31 1.34-.23.05-.47.1-.7.16-.4.1-.81.21-1.22.32-4.01 1.16-7.69 3.1-10.64 5.62-.36.31-.72.65-1.08.99-1.6 1.58-2.74 3.29-3.95 5.1-.18.26-.35.53-.53.79-.33.49-.67.92-1.04 1.31-1.53 1.62-3.41 1.6-5.4 1.58-.98-.01-2-.02-3.03.16-.65.12-1.21.26-1.72.44-2.46.88-4.42 2.48-5.65 4.63-.3.53-.58 1.11-.83 1.72-.36.88-.65 1.8-.93 2.68-.31.96-.62 1.95-1.02 2.89-.21.5-.45.98-.71 1.44-1.24 2.22-3.17 4.21-5.9 6.08-.84.57-1.78 1.17-2.96 1.87-.34.2-.68.4-1.02.59-7.27 4.21-15.99 8.61-25.52 9.39-2.29.19-4.53.15-6.66-.13-.95-.12-1.93-.3-2.88-.47-3.11-.55-6.33-1.13-9.3-.06-2.6.92-4.58 2.93-6.49 4.86-1.88 1.9-3.83 3.87-6.33 4.74-1.06.37-2.17.5-3.31.39-5.03-.46-9.67-5.6-12.68-9.83-.08-.12-.17-.24-.25-.35a51.9 51.9 0 0 1-.9-1.33c-.34-.51-.67-1.01-1-1.51-3.39-5.13-6.6-9.98-11.76-12.56-.34-.17-.68-.33-1.03-.47-2.07-.88-4.28-1.28-6.69-1.23v.27c2.38-.05 4.55.35 6.6 1.21.34.14.68.3 1.01.47Zm.89 9.15c5.13 2.75 8.23 7.81 11.5 13.17.44.72.89 1.45 1.34 2.18.3.48.6.97.92 1.44.08.13.17.26.25.39 2.49 3.71 7.57 10.01 13.57 10.4 1.24.08 2.44-.1 3.59-.53 2.67-1.01 4.69-3.2 6.64-5.32 1.96-2.12 3.99-4.32 6.66-5.33 3.03-1.14 6.36-.54 9.59.05 1.02.18 2.07.37 3.09.51 2.28.29 4.67.32 7.09.06 9.73-.99 18.6-5.87 26.75-11 .35-.22.71-.45 1.06-.67.86-.55 2-1.29 3.09-2.09 2.9-2.11 4.92-4.29 6.2-6.65.27-.5.52-1.03.73-1.57.44-1.08.76-2.22 1.07-3.33.25-.88.5-1.78.81-2.65.24-.66.49-1.26.78-1.83 1.18-2.31 3.14-4.02 5.69-4.95.51-.19 1.07-.34 1.71-.47 1.15-.23 2.3-.19 3.42-.15 2.08.07 4.05.13 5.69-1.52.41-.41.78-.88 1.13-1.42.24-.38.48-.75.71-1.11 1.18-1.86 2.3-3.61 3.85-5.23.36-.37.73-.73 1.1-1.06 3.05-2.7 6.9-4.76 11.13-5.94.43-.12.86-.23 1.29-.33.24-.06.49-.11.73-.16 4.37-.9 8.91-1.05 13.29-1.2 4.54-.15 9.24-.31 13.76-1.3 3.16-.7 9.1-2.47 13.33-6.42 1.02-.95 1.79-2 2.42-3.29.58-1.19.88-2.44 1.19-3.77l.15-.63c.15-.64.32-1.17.52-1.64.28-.66.63-1.17.93-1.57.99-1.32 2.26-1.74 4.38-1.46.19.03.39.05.59.07.27.03.54.05.82.1.61.09 1.24.23 1.87.39 2.95.78 5.82 1.72 8.54 2.78.44.17.9.36 1.37.55 1.12.45 2.27.93 3.42 1.31.84.28 1.53.5 2.14.63 1.23.27 2.27.12 3.28-.02.41-.06.84-.12 1.28-.14 2.75-.19 5.73-.62 8.86-1.28 1.67-.35 3.34-.8 4.96-1.32 4.02-1.3 8.19-3.33 12.07-5.88 5.53-3.61 12.27-9.42 12.96-16.54.17-1.79.22-3.38 0-5.14h-.25c.23 1.75.18 3.33 0 5.12-.68 7.02-7.36 12.76-12.84 16.34-3.86 2.53-8.01 4.56-12.01 5.85-1.61.52-3.28.97-4.94 1.32-3.12.66-6.1 1.09-8.83 1.27-.44.03-.87.09-1.29.15-1.04.14-2.01.28-3.2.02-.6-.13-1.28-.35-2.12-.63-1.14-.39-2.29-.85-3.41-1.31-.48-.19-.94-.38-1.37-.55a78.096 78.096 0 0 0-8.57-2.79c-.64-.17-1.27-.3-1.89-.4-.28-.04-.56-.07-.83-.1l-.58-.06c-2.19-.29-3.56.18-4.6 1.56-.3.39-.67.93-.96 1.63-.2.48-.38 1.03-.53 1.68l-.15.63c-.31 1.31-.6 2.55-1.16 3.71-.62 1.27-1.37 2.29-2.37 3.22-4.19 3.91-10.08 5.66-13.22 6.36-4.5.98-9.19 1.14-13.72 1.29-4.39.15-8.94.3-13.33 1.2a27.047 27.047 0 0 0-2.03.49c-4.27 1.19-8.15 3.26-11.22 5.99-.38.34-.76.7-1.12 1.08-1.57 1.63-2.69 3.4-3.88 5.27-.23.37-.47.74-.71 1.11-.34.53-.7.98-1.09 1.38-1.56 1.58-3.48 1.52-5.51 1.45-1.13-.04-2.29-.08-3.47.16-.65.13-1.22.28-1.75.48-2.6.96-4.61 2.71-5.82 5.08-.3.58-.56 1.19-.8 1.87-.31.88-.57 1.79-.82 2.67-.31 1.1-.63 2.23-1.06 3.3-.21.53-.46 1.05-.72 1.54-1.26 2.33-3.26 4.48-6.13 6.57-1.09.8-2.22 1.53-3.08 2.08-.35.23-.71.45-1.06.67-8.12 5.11-16.97 9.98-26.65 10.97-2.41.25-4.78.23-7.04-.06-1.02-.13-2.07-.32-3.08-.51-3.25-.59-6.61-1.2-9.71-.03-2.73 1.02-4.78 3.24-6.76 5.39-1.93 2.1-3.94 4.26-6.55 5.26-1.11.42-2.29.6-3.49.52-6.12-.4-11.4-7.33-13.39-10.29-.09-.13-.17-.26-.25-.38-.31-.48-.62-.96-.92-1.44-.45-.72-.9-1.45-1.34-2.18-3.29-5.39-6.41-10.48-11.6-13.26-.35-.19-.71-.36-1.07-.53-2.31-1.05-4.8-1.5-7.54-1.4v.27c2.71-.1 5.16.34 7.44 1.38.36.16.71.34 1.05.52Z"/></svg>