<svg xmlns="http://www.w3.org/2000/svg" xml:space="preserve" style="enable-background:new 0 0 124.9 30" viewBox="0 0 124.9 30"><path d="M39.6 18.7h5.8v2.7h-9V8.5h3.2v10.2zm16-1.9c0 2.8-1.9 4.9-4.9 4.9-3 0-4.9-2.1-4.9-4.9 0-2.8 2-4.9 4.9-4.9 3 0 4.9 2.1 4.9 4.9zm-3 0c0-1.7-.7-2.8-2-2.8s-1.9 1.1-1.9 2.8.7 2.8 1.9 2.8c1.3 0 2-1.1 2-2.8zm9.9-4.6h2.8v8.3c0 1.4-.5 2.4-1.2 3.1-.8.7-2 1-3.4 1-2.5 0-4.2-1-4.5-3H59c.2.5.6.9 1.6.9 1.2 0 1.8-.6 1.8-1.8v-.9h-.1c-.5.6-1.2 1.1-2.4 1.1-2.1 0-4-1.5-4-4.4 0-2.7 1.6-4.6 3.9-4.6 1.2 0 2.1.5 2.6 1.3v-1zm.1 4.2c0-1.2-.6-2.3-1.9-2.3-1.1 0-1.8.9-1.8 2.3s.7 2.3 1.8 2.3c1.3 0 1.9-1 1.9-2.3zm13.5.4c0 2.8-1.9 4.9-4.9 4.9-3 0-4.9-2.1-4.9-4.9 0-2.8 2-4.9 4.9-4.9 2.9 0 4.9 2.1 4.9 4.9zm-3 0c0-1.7-.7-2.8-2-2.8s-1.9 1.1-1.9 2.8.7 2.8 1.9 2.8 2-1.1 2-2.8zm3.8-5.9h2.9V8.5h-2.9v2.4zm0 10.5h2.9v-9.2h-2.9v9.2zm13.8-4.6c0 3-1.6 4.9-4 4.9-1.2 0-2-.5-2.6-1.2v4h-2.9V12.2H84v1.1c.6-.8 1.5-1.4 2.8-1.4 2.4 0 3.9 2.1 3.9 4.9zm-3 .1c0-1.6-.6-2.6-1.9-2.6-1.3 0-1.9 1.1-1.9 2.6s.7 2.5 2 2.5c1.2 0 1.8-1 1.8-2.5zm8.5-1.3c-1.2-.2-2.2-.3-2.2-1 0-.6.6-.8 1.3-.8.8 0 1.4.3 1.5 1.1h2.7c-.1-1.8-1.5-3-4.2-3-2.2 0-4 1-4 3 0 2.2 1.7 2.6 3.3 2.9 1.2.2 2.3.3 2.3 1.1 0 .6-.6.9-1.4.9-1 0-1.6-.4-1.7-1.4H91c.1 2 1.8 3.3 4.5 3.3 2.4 0 4.2-1 4.2-3.1 0-2.4-1.9-2.8-3.5-3zm10.2 1.7c0 1.1-.6 1.9-1.6 1.9-.9 0-1.4-.6-1.4-1.6v-5.4h-2.9v6c0 2.1 1.1 3.4 3.2 3.4 1.3 0 2.1-.5 2.8-1.4h.1v1.1h2.8v-9.2h-2.9v5.2zm15.3-5.4c-1.2 0-2.2.5-2.9 1.6-.5-1-1.4-1.6-2.6-1.6-1.3 0-2.2.6-2.8 1.6h-.1v-1.3h-2.8v9.2h2.9v-5.2c0-1.1.5-1.9 1.5-1.9.9 0 1.3.6 1.3 1.6v5.5h2.9v-5.2c0-1.1.5-1.9 1.5-1.9.9 0 1.3.6 1.3 1.6v5.5h2.9v-6c.1-2.1-1-3.5-3.1-3.5zM16.4 8.1c5.4 2.7 9.8 2.8 12.8 2.2-.3-.8-.6-1.6-1-2.4-3.5.4-7.9-.1-13.1-2.7-3.3-1.6-6.2-2.3-8.7-2.5-1.1.8-2 1.6-2.9 2.6 3.5-.3 7.8.2 12.9 2.8zM26.2 5C23.4 1.9 19.4 0 15 0c-1.3 0-2.6.2-3.8.5 1.6.4 3.4 1.1 5.2 2C20.2 4.4 23.5 5 26.2 5zM15.1 16.3c-5.7-2.8-10.2-2.8-13.3-2.1-.7.2-1.3.3-1.8.5v.3c0 8.3 6.7 15 15 15 6.9 0 12.8-4.7 14.5-11.1-3.6.6-8.6.4-14.4-2.6zm0-5.5C9.4 7.9 4.9 8 1.8 8.6c-.2 0-.3.1-.5.1-.3.9-.7 1.8-.9 2.8.2-.1.5-.1.8-.2 3.7-.8 8.9-.8 15.2 2.4 5.7 2.8 10.2 2.8 13.3 2.1.1 0 .2 0 .3-.1V15c0-.6 0-1.2-.1-1.8-3.7.7-8.7.6-14.8-2.4z"/></svg>