<svg xmlns="http://www.w3.org/2000/svg" xml:space="preserve" style="enable-background:new 0 0 192.6 40" viewBox="0 0 192.6 40"><path d="m39.6 19-3-3c-.7-.7-1.4-1.2-2.2-1.7.5-1.2.7-2.5.7-3.8V6.3C35 5.6 34.4 5 33.7 5h-4.2c-1.3 0-2.6.2-3.8.7-.4-.8-1-1.5-1.7-2.2l-3-3c-.5-.5-1.4-.5-2 0l-3 3c-.7.7-1.2 1.4-1.7 2.2-1.2-.5-2.4-.7-3.7-.7H6.3C5.6 5 5 5.6 5 6.3v4.2c0 1.3.2 2.6.7 3.8-.8.4-1.5 1-2.2 1.7l-3 3c-.5.5-.5 1.4 0 2l3 3c.7.7 1.4 1.2 2.2 1.7-.5 1.2-.7 2.4-.7 3.7v4.2c0 .8.6 1.4 1.3 1.4h4.2c1.3 0 2.6-.2 3.8-.7.4.8 1 1.5 1.7 2.2l3 3c.3.3.6.4 1 .4s.7-.1 1-.4l3-3c.7-.7 1.2-1.4 1.7-2.2 1.2.5 2.5.7 3.8.7h4.2c.8 0 1.4-.6 1.4-1.4v-4.2c0-1.3-.2-2.6-.7-3.8.8-.4 1.5-1 2.2-1.7l3-3c.3-.3.4-.6.4-1 0-.3-.1-.6-.4-.9zm-13 7.6c.8.2 1.7.3 2.5.3h.2c.8 0 1.6-.1 2.3-.3.3.9.5 1.8.5 2.8v2.8h-2.8c-.9 0-1.9-.2-2.8-.5.2-.8.3-1.6.3-2.3v-.2c.2-.9.1-1.7-.2-2.6zM13.4 13.4c-.8-.2-1.7-.3-2.5-.3h-.2c-.8 0-1.6.1-2.3.3-.3-.9-.5-1.8-.5-2.8V7.7h2.8c.9 0 1.9.2 2.8.5-.4.8-.5 1.6-.5 2.4v.2c0 .9.1 1.7.4 2.6zm18.9-2.8c0 .9-.2 1.9-.5 2.8-.8-.3-1.6-.4-2.4-.4h-.2c-.9 0-1.7.1-2.5.3.2-.8.3-1.7.3-2.5v-.2c0-.8-.1-1.6-.3-2.3.9-.3 1.8-.5 2.8-.5h2.8v2.8zm-2.9 5.2h.8l-.3.3-.1.1c-1.5 1.5-3.5 2.3-5.6 2.3h-.9l.7-.7c1.4-1.4 3.2-2.1 5.1-2.1h.3v.1zm-5.7-5.6.1-.1.3-.3v1c0 1.9-.8 3.8-2.1 5.2l-.7.7v-.9c.1-2.1.9-4.1 2.4-5.6zm-5.1 5.6v.9l-.7-.7c-1.4-1.4-2.1-3.2-2.1-5.2v-1l.3.3.1.1c1.6 1.5 2.4 3.5 2.4 5.6zm0 7.5v.9c0 2.1-.8 4.1-2.3 5.6l-.1.2-.3.3v-1c0-1.9.8-3.8 2.1-5.2l.6-.8zm2.8.9v-.9l.7.7c1.4 1.4 2.1 3.2 2.1 5.2v1l-.3-.3-.1-.1c-1.6-1.5-2.4-3.5-2.4-5.6zm.5-16.1-.1.1c-.7.7-1.3 1.5-1.8 2.3-.5-.8-1.1-1.6-1.8-2.3l-.1-.1c-.4-.4-.9-.8-1.4-1.1.3-.6.7-1.1 1.2-1.6L20 3.3l2.1 2.1c.5.5.9 1 1.2 1.6-.5.3-1 .7-1.4 1.1zm-6.1 10.5c-2.1 0-4.1-.8-5.6-2.3l-.2-.1-.3-.3h1.1c1.9 0 3.8.8 5.1 2.1l.7.7h-.8v-.1zM7 16.8c.3.5.7.9 1.1 1.4l.1.1c.7.7 1.5 1.3 2.3 1.8-.8.5-1.6 1.1-2.3 1.8l-.1.1c-.4.4-.8.9-1.1 1.4-.6-.3-1.1-.7-1.6-1.2L3.3 20l2.1-2.1c.5-.4 1-.8 1.6-1.1zm.7 12.6c0-.9.2-1.9.5-2.8.8.3 1.6.4 2.4.4h.2c.9 0 1.7-.1 2.5-.3-.2.8-.3 1.7-.3 2.5v.2c0 .8.1 1.6.3 2.3-.9.3-1.8.5-2.8.5H7.7v-2.8zm2.9-5.2h-.8l.3-.3.1-.1c1.5-1.5 3.5-2.3 5.6-2.3h.9l-.7.6c-1.4 1.4-3.2 2.1-5.1 2.1h-.3zm7.5 7.7.1-.1c.7-.7 1.3-1.5 1.8-2.3.5.8 1.1 1.6 1.8 2.3l.1.1c.4.4.9.8 1.4 1.1-.3.6-.7 1.1-1.2 1.6L20 36.7l-2.1-2.1c-.5-.5-.9-1-1.2-1.6.5-.3 1-.7 1.4-1.1zm6.1-10.5c2.1 0 4.1.8 5.6 2.3l.1.1.3.3h-1.1c-1.9 0-3.8-.8-5.1-2.1l-.7-.7h.9v.1zm8.8 1.8c-.3-.5-.7-.9-1.1-1.4l-.1-.1c-.7-.7-1.5-1.3-2.3-1.8.8-.5 1.6-1.1 2.3-1.7l.1-.1c.4-.4.8-.9 1.1-1.4.6.3 1.1.7 1.6 1.2l2.1 2.1-2.1 2.1c-.5.4-1 .8-1.6 1.1z" style="fill:#d98664"/><path d="m63.8 23.8 3.1 3.1c-.9.8-1.9 1.4-3.1 1.9-1.1.5-2.5.7-4 .7-1.4 0-2.7-.2-3.9-.7s-2.2-1.2-3.1-2c-.9-.9-1.6-1.9-2.1-3-.5-1.2-.7-2.5-.7-3.8 0-1.4.2-2.6.7-3.8s1.2-2.2 2.1-3c.9-.8 1.9-1.5 3.1-2 1.2-.5 2.5-.7 3.9-.7 1.5 0 2.8.2 3.9.7 1.2.5 2.2 1.1 3.1 1.9l-3.1 3.1c-.4-.5-1-.9-1.6-1.1-.6-.3-1.4-.4-2.3-.4-.7 0-1.4.1-2.1.4-.6.2-1.1.6-1.6 1.1s-.8 1-1.1 1.7c-.2.7-.4 1.4-.4 2.2 0 .8.1 1.6.4 2.2.3.7.6 1.2 1.1 1.7s1 .8 1.6 1.1c.6.2 1.3.4 2.1.4.9 0 1.6-.1 2.3-.4.6-.4 1.2-.8 1.7-1.3zm23.7-7.6c.5 1.2.8 2.4.8 3.8s-.3 2.6-.8 3.8c-.5 1.2-1.2 2.2-2.1 3.1s-1.9 1.5-3.1 2-2.5.7-3.9.7-2.7-.2-3.9-.7c-1.2-.5-2.2-1.2-3.1-2-.9-.9-1.6-1.9-2.1-3-.5-1.2-.8-2.4-.8-3.8s.2-2.6.7-3.7c.5-1.2 1.2-2.2 2.1-3 .9-.9 1.9-1.5 3.1-2s2.5-.7 3.9-.7 2.7.2 3.9.7c1.2.5 2.2 1.1 3.1 2 1 .6 1.7 1.7 2.2 2.8zm-4 3.8c0-.8-.1-1.5-.4-2.2-.2-.7-.6-1.2-1-1.7-.5-.5-1-.9-1.6-1.1-.6-.3-1.3-.4-2.1-.4-1 0-1.9.2-2.7.7-.8.4-1.4 1.1-1.8 1.9s-.6 1.8-.6 2.8c0 .8.1 1.6.3 2.3.2.7.6 1.2 1 1.7.5.5 1 .8 1.6 1.1.6.2 1.3.4 2.1.4 1 0 1.9-.2 2.7-.7.8-.5 1.4-1.1 1.8-1.9.5-.9.7-1.8.7-2.9zm19.4-.3c-.5-.4-1.1-.8-1.7-1.1-.6-.3-1.2-.5-1.8-.7-.6-.2-1.2-.4-1.7-.6s-.9-.4-1.2-.7c-.3-.3-.5-.6-.5-1s.2-.7.5-1c.4-.2.9-.3 1.5-.3.7 0 1.3.1 1.9.4.6.3 1.1.7 1.7 1.2l3-2.9c-.7-.8-1.7-1.4-2.8-1.9-1.1-.5-2.4-.7-3.7-.7s-2.5.2-3.5.7-1.8 1.1-2.4 1.9c-.6.8-.8 1.8-.8 3 0 .9.2 1.7.5 2.3.3.6.7 1.1 1.2 1.6.5.4 1.1.8 1.7 1.1.6.3 1.2.5 1.8.7.6.2 1.2.4 1.7.6s.9.5 1.2.8c.3.3.5.6.5 1.1s-.2.8-.7 1.1c-.4.3-1 .4-1.8.4-.9 0-1.7-.2-2.5-.5-.7-.4-1.4-.9-2.1-1.6l-2.9 3c.9 1 2 1.7 3.1 2.2s2.5.7 4 .7c2.3 0 4.1-.5 5.4-1.5s2-2.4 2-4.3c0-.9-.2-1.7-.5-2.4-.2-.6-.6-1.2-1.1-1.6zm15 .6-6.3-9.5h-3.4v18.4h4.6v-9.4l3.5 5.3h3l3.5-5.3v9.4h4.6V10.8H124l-6.1 9.5zm18.8 1.4h8.1v-3.8h-8.1v-3.2h8.9v-3.9H132v18.4h13.7v-3.9h-9v-3.6zm11.3-6.9h5.6v14.4h4.7V14.8h5.6v-4H148v4zm19.4 14.4h4.7V10.8h-4.7v18.4zm22-5.4c-.5.5-1 .9-1.7 1.2-.7.3-1.4.4-2.3.4-.7 0-1.4-.1-2.1-.4-.6-.3-1.1-.6-1.6-1.1s-.8-1.1-1.1-1.7c-.2-.7-.4-1.4-.4-2.2 0-.8.1-1.6.4-2.2.3-.7.6-1.2 1.1-1.7s1-.8 1.6-1.1c.6-.2 1.3-.4 2.1-.4.9 0 1.6.1 2.3.4.6.3 1.2.7 1.6 1.1l3.1-3.1c-.9-.8-1.9-1.4-3.1-1.9-1.2-.5-2.5-.7-3.9-.7s-2.7.2-3.9.7-2.2 1.2-3.1 2c-.9.8-1.6 1.9-2.1 3s-.7 2.4-.7 3.8.2 2.6.7 3.8c.5 1.2 1.2 2.2 2.1 3 .9.8 2 1.5 3.1 2 1.2.5 2.5.7 3.9.7 1.5 0 2.9-.2 4-.7s2.2-1.1 3.1-1.9l-3.1-3z"/></svg>